<svg width="307" height="471" viewBox="0 0 307 471" fill="none" xmlns="http://www.w3.org/2000/svg">
<rect y="0.494629" width="307" height="470" rx="15" fill="white"/>
<rect x="32" y="32.4946" width="117" height="38" rx="15" fill="url(#paint0_linear_2765_34446)"/>
<path d="M65.5694 44.6066H70.6094C71.1614 44.6066 71.6774 44.6966 72.1574 44.8766C72.6374 45.0446 73.0514 45.2846 73.3994 45.5966C73.7594 45.8966 74.0414 46.2506 74.2454 46.6586C74.4494 47.0666 74.5514 47.5046 74.5514 47.9726C74.5514 48.6566 74.3834 49.2326 74.0474 49.7006C73.7234 50.1566 73.3154 50.5046 72.8234 50.7446V50.8886C73.4834 51.1286 74.0114 51.5066 74.4074 52.0226C74.8154 52.5266 75.0194 53.1566 75.0194 53.9126C75.0194 54.4646 74.9054 54.9626 74.6774 55.4066C74.4614 55.8386 74.1614 56.2106 73.7774 56.5226C73.3934 56.8346 72.9434 57.0746 72.4274 57.2426C71.9234 57.4106 71.3774 57.4946 70.7894 57.4946H65.5694V44.6066ZM70.4294 49.8626C70.9934 49.8626 71.4254 49.7126 71.7254 49.4126C72.0374 49.1006 72.1934 48.7346 72.1934 48.3146C72.1934 47.8946 72.0434 47.5346 71.7434 47.2346C71.4434 46.9346 71.0294 46.7846 70.5014 46.7846H67.9994V49.8626H70.4294ZM70.6994 55.2626C71.3114 55.2626 71.7794 55.1126 72.1034 54.8126C72.4274 54.5006 72.5894 54.1046 72.5894 53.6246C72.5894 53.1446 72.4214 52.7486 72.0854 52.4366C71.7614 52.1126 71.2754 51.9506 70.6274 51.9506H67.9994V55.2626H70.6994ZM80.476 44.6066H83.248L88.09 57.4946H85.408L84.346 54.4166H79.378L78.316 57.4946H75.634L80.476 44.6066ZM83.554 52.1846L82.402 48.9626L81.934 47.3966H81.79L81.322 48.9626L80.17 52.1846H83.554ZM93.5407 57.7826C92.9887 57.7826 92.4607 57.7046 91.9567 57.5486C91.4527 57.3926 90.9907 57.1586 90.5707 56.8466C90.1507 56.5346 89.7847 56.1566 89.4727 55.7126C89.1607 55.2566 88.9147 54.7286 88.7347 54.1286L91.0207 53.2286C91.1887 53.8766 91.4827 54.4166 91.9027 54.8486C92.3227 55.2686 92.8747 55.4786 93.5587 55.4786C93.8107 55.4786 94.0507 55.4486 94.2787 55.3886C94.5187 55.3166 94.7287 55.2206 94.9087 55.1006C95.1007 54.9686 95.2507 54.8066 95.3587 54.6146C95.4667 54.4226 95.5207 54.2006 95.5207 53.9486C95.5207 53.7086 95.4787 53.4926 95.3947 53.3006C95.3107 53.1086 95.1667 52.9286 94.9627 52.7606C94.7707 52.5926 94.5127 52.4306 94.1887 52.2746C93.8767 52.1186 93.4867 51.9566 93.0187 51.7886L92.2267 51.5006C91.8787 51.3806 91.5247 51.2186 91.1647 51.0146C90.8167 50.8106 90.4987 50.5646 90.2107 50.2766C89.9227 49.9886 89.6827 49.6526 89.4907 49.2686C89.3107 48.8726 89.2207 48.4286 89.2207 47.9366C89.2207 47.4326 89.3167 46.9646 89.5087 46.5326C89.7127 46.0886 89.9947 45.7046 90.3547 45.3806C90.7267 45.0446 91.1647 44.7866 91.6687 44.6066C92.1847 44.4146 92.7547 44.3186 93.3787 44.3186C94.0267 44.3186 94.5847 44.4086 95.0527 44.5886C95.5327 44.7566 95.9347 44.9786 96.2587 45.2546C96.5947 45.5186 96.8647 45.8126 97.0687 46.1366C97.2727 46.4606 97.4227 46.7666 97.5187 47.0546L95.3767 47.9546C95.2567 47.5946 95.0347 47.2706 94.7107 46.9826C94.3987 46.6946 93.9667 46.5506 93.4147 46.5506C92.8867 46.5506 92.4487 46.6766 92.1007 46.9286C91.7527 47.1686 91.5787 47.4866 91.5787 47.8826C91.5787 48.2666 91.7467 48.5966 92.0827 48.8726C92.4187 49.1366 92.9527 49.3946 93.6847 49.6466L94.4947 49.9166C95.0107 50.0966 95.4787 50.3066 95.8987 50.5466C96.3307 50.7746 96.6967 51.0506 96.9967 51.3746C97.3087 51.6986 97.5427 52.0706 97.6987 52.4906C97.8667 52.8986 97.9507 53.3726 97.9507 53.9126C97.9507 54.5846 97.8127 55.1666 97.5367 55.6586C97.2727 56.1386 96.9307 56.5346 96.5107 56.8466C96.0907 57.1586 95.6167 57.3926 95.0887 57.5486C94.5607 57.7046 94.0447 57.7826 93.5407 57.7826ZM99.9523 44.6066H102.382V57.4946H99.9523V44.6066ZM116.072 55.4246C115.436 56.1926 114.686 56.7806 113.822 57.1886C112.958 57.5846 111.992 57.7826 110.924 57.7826C109.964 57.7826 109.07 57.6086 108.242 57.2606C107.426 56.9126 106.718 56.4386 106.118 55.8386C105.518 55.2386 105.044 54.5306 104.696 53.7146C104.348 52.8866 104.174 51.9986 104.174 51.0506C104.174 50.1026 104.348 49.2206 104.696 48.4046C105.044 47.5766 105.518 46.8626 106.118 46.2626C106.718 45.6626 107.426 45.1886 108.242 44.8406C109.07 44.4926 109.964 44.3186 110.924 44.3186C111.956 44.3186 112.862 44.4986 113.642 44.8586C114.434 45.2186 115.136 45.7406 115.748 46.4246L114.038 48.0806C113.654 47.6366 113.21 47.2826 112.706 47.0186C112.214 46.7546 111.626 46.6226 110.942 46.6226C110.342 46.6226 109.778 46.7306 109.25 46.9466C108.722 47.1506 108.26 47.4446 107.864 47.8286C107.48 48.2126 107.174 48.6806 106.946 49.2326C106.718 49.7726 106.604 50.3786 106.604 51.0506C106.604 51.7226 106.718 52.3346 106.946 52.8866C107.174 53.4266 107.48 53.8886 107.864 54.2726C108.26 54.6566 108.722 54.9566 109.25 55.1726C109.778 55.3766 110.342 55.4786 110.942 55.4786C111.662 55.4786 112.298 55.3346 112.85 55.0466C113.414 54.7466 113.912 54.3266 114.344 53.7866L116.072 55.4246Z" fill="white"/>
<path d="M43.568 133.119C41.168 132.767 39.024 131.839 37.136 130.335C35.28 128.831 33.952 126.671 33.152 123.855L38.672 121.599C38.992 122.879 39.584 124.031 40.448 125.055C41.312 126.047 42.352 126.735 43.568 127.119V117.999L43.136 117.807C41.952 117.359 40.832 116.831 39.776 116.223C38.752 115.615 37.84 114.911 37.04 114.111C36.272 113.311 35.648 112.415 35.168 111.423C34.72 110.399 34.496 109.263 34.496 108.015C34.496 106.863 34.704 105.775 35.12 104.751C35.536 103.727 36.128 102.815 36.896 102.015C37.696 101.215 38.656 100.559 39.776 100.047C40.896 99.5026 42.16 99.1506 43.568 98.9906V94.8626H47.84V99.0866C49.12 99.2786 50.224 99.6146 51.152 100.095C52.112 100.575 52.928 101.135 53.6 101.775C54.304 102.383 54.864 103.039 55.28 103.743C55.696 104.447 56.016 105.135 56.24 105.807L50.864 108.207C50.64 107.567 50.288 106.959 49.808 106.383C49.328 105.807 48.672 105.343 47.84 104.991V113.583C49.216 114.159 50.464 114.751 51.584 115.359C52.704 115.967 53.664 116.655 54.464 117.423C55.264 118.191 55.872 119.071 56.288 120.063C56.704 121.023 56.912 122.143 56.912 123.423C56.912 124.863 56.656 126.143 56.144 127.263C55.664 128.383 55.008 129.343 54.176 130.143C53.344 130.943 52.368 131.583 51.248 132.063C50.16 132.543 49.024 132.879 47.84 133.071V137.295H43.568V133.119ZM40.4 108.015C40.4 108.783 40.64 109.455 41.12 110.031C41.632 110.575 42.448 111.135 43.568 111.711V104.703C42.608 104.959 41.84 105.375 41.264 105.951C40.688 106.527 40.4 107.215 40.4 108.015ZM50.768 123.471C50.768 122.639 50.544 121.951 50.096 121.407C49.648 120.863 48.896 120.319 47.84 119.775V127.119C48.704 126.831 49.408 126.383 49.952 125.775C50.496 125.135 50.768 124.367 50.768 123.471ZM75.9005 132.495V126.447H60.7325V121.359L75.3245 99.6626H82.1405V120.591H86.2685V126.447H82.1405V132.495H75.9005ZM75.9005 109.023H75.5165L67.6925 120.591H75.9005V109.023ZM100.199 120.735C98.9506 120.735 97.7346 120.479 96.5506 119.967C95.3666 119.455 94.3106 118.735 93.3826 117.807C92.4546 116.847 91.7026 115.727 91.1266 114.447C90.5826 113.135 90.3106 111.695 90.3106 110.127C90.3106 108.495 90.6306 106.991 91.2706 105.615C91.9106 104.207 92.7586 103.007 93.8146 102.015C94.9026 101.023 96.1346 100.255 97.5106 99.7106C98.9186 99.1346 100.391 98.8466 101.927 98.8466C103.687 98.8466 105.287 99.1666 106.727 99.8066C108.199 100.415 109.447 101.247 110.471 102.303C111.527 103.327 112.327 104.543 112.871 105.951C113.447 107.327 113.735 108.783 113.735 110.319C113.735 112.527 113.287 114.559 112.391 116.415C111.527 118.239 110.423 120.111 109.079 122.031L101.111 133.407L96.2626 130.095L102.983 120.543L102.743 120.255C102.007 120.575 101.159 120.735 100.199 120.735ZM102.023 104.655C101.287 104.655 100.583 104.783 99.9106 105.039C99.2706 105.295 98.6946 105.663 98.1826 106.143C97.6706 106.623 97.2546 107.199 96.9346 107.871C96.6466 108.511 96.5026 109.231 96.5026 110.031C96.5026 110.863 96.6466 111.615 96.9346 112.287C97.2546 112.927 97.6706 113.487 98.1826 113.967C98.6946 114.447 99.2706 114.815 99.9106 115.071C100.583 115.327 101.287 115.455 102.023 115.455C102.727 115.455 103.415 115.327 104.087 115.071C104.759 114.815 105.351 114.447 105.863 113.967C106.407 113.487 106.823 112.927 107.111 112.287C107.431 111.615 107.591 110.863 107.591 110.031C107.591 109.231 107.431 108.511 107.111 107.871C106.823 107.199 106.407 106.623 105.863 106.143C105.351 105.663 104.759 105.295 104.087 105.039C103.415 104.783 102.727 104.655 102.023 104.655Z" fill="#1B2767"/>
<path d="M116.968 132.495V119.607H121.504C122.116 119.607 122.686 119.709 123.214 119.913C123.754 120.105 124.222 120.381 124.618 120.741C125.014 121.101 125.326 121.533 125.554 122.037C125.782 122.529 125.896 123.075 125.896 123.675C125.896 124.287 125.782 124.845 125.554 125.349C125.326 125.841 125.014 126.267 124.618 126.627C124.222 126.987 123.754 127.269 123.214 127.473C122.686 127.665 122.116 127.761 121.504 127.761H119.398V132.495H116.968ZM121.54 125.457C122.176 125.457 122.656 125.277 122.98 124.917C123.304 124.557 123.466 124.143 123.466 123.675C123.466 123.447 123.424 123.225 123.34 123.009C123.268 122.793 123.148 122.607 122.98 122.451C122.824 122.283 122.626 122.151 122.386 122.055C122.146 121.959 121.864 121.911 121.54 121.911H119.398V125.457H121.54ZM135.051 130.371C134.643 131.091 134.091 131.673 133.395 132.117C132.711 132.561 131.871 132.783 130.875 132.783C130.203 132.783 129.579 132.669 129.003 132.441C128.439 132.201 127.947 131.871 127.527 131.451C127.107 131.031 126.777 130.539 126.537 129.975C126.309 129.399 126.195 128.769 126.195 128.085C126.195 127.449 126.309 126.849 126.537 126.285C126.765 125.709 127.083 125.211 127.491 124.791C127.899 124.359 128.379 124.017 128.931 123.765C129.495 123.513 130.113 123.387 130.785 123.387C131.493 123.387 132.123 123.507 132.675 123.747C133.227 123.975 133.689 124.299 134.061 124.719C134.433 125.127 134.715 125.613 134.907 126.177C135.099 126.741 135.195 127.353 135.195 128.013C135.195 128.097 135.195 128.169 135.195 128.229C135.183 128.301 135.177 128.367 135.177 128.427C135.165 128.487 135.159 128.553 135.159 128.625H128.517C128.565 128.985 128.661 129.297 128.805 129.561C128.961 129.813 129.147 130.029 129.363 130.209C129.591 130.377 129.837 130.503 130.101 130.587C130.365 130.659 130.635 130.695 130.911 130.695C131.451 130.695 131.895 130.575 132.243 130.335C132.603 130.083 132.885 129.771 133.089 129.399L135.051 130.371ZM132.909 126.951C132.897 126.795 132.843 126.621 132.747 126.429C132.663 126.237 132.531 126.057 132.351 125.889C132.183 125.721 131.967 125.583 131.703 125.475C131.451 125.367 131.145 125.313 130.785 125.313C130.281 125.313 129.837 125.457 129.453 125.745C129.069 126.033 128.799 126.435 128.643 126.951H132.909ZM136.701 123.675H138.915V124.899H139.059C139.167 124.683 139.311 124.485 139.491 124.305C139.671 124.125 139.869 123.969 140.085 123.837C140.313 123.705 140.553 123.603 140.805 123.531C141.069 123.459 141.327 123.423 141.579 123.423C141.891 123.423 142.155 123.453 142.371 123.513C142.599 123.573 142.791 123.651 142.947 123.747L142.317 125.889C142.173 125.817 142.011 125.763 141.831 125.727C141.663 125.679 141.453 125.655 141.201 125.655C140.877 125.655 140.583 125.721 140.319 125.853C140.055 125.973 139.827 126.147 139.635 126.375C139.455 126.603 139.311 126.873 139.203 127.185C139.107 127.485 139.059 127.815 139.059 128.175V132.495H136.701V123.675ZM148.275 119.607H150.669L154.611 126.429H154.755L158.697 119.607H161.109V132.495H158.697V126.141L158.841 123.981H158.697L155.421 129.759H153.963L150.669 123.981H150.525L150.669 126.141V132.495H148.275V119.607ZM167.596 123.387C168.28 123.387 168.904 123.507 169.468 123.747C170.044 123.975 170.536 124.299 170.944 124.719C171.364 125.127 171.688 125.619 171.916 126.195C172.156 126.771 172.276 127.401 172.276 128.085C172.276 128.769 172.156 129.399 171.916 129.975C171.688 130.551 171.364 131.049 170.944 131.469C170.536 131.877 170.044 132.201 169.468 132.441C168.904 132.669 168.28 132.783 167.596 132.783C166.912 132.783 166.282 132.669 165.706 132.441C165.142 132.201 164.65 131.877 164.23 131.469C163.822 131.049 163.498 130.551 163.258 129.975C163.03 129.399 162.916 128.769 162.916 128.085C162.916 127.401 163.03 126.771 163.258 126.195C163.498 125.619 163.822 125.127 164.23 124.719C164.65 124.299 165.142 123.975 165.706 123.747C166.282 123.507 166.912 123.387 167.596 123.387ZM167.596 130.605C167.896 130.605 168.184 130.551 168.46 130.443C168.748 130.323 169 130.155 169.216 129.939C169.432 129.723 169.6 129.459 169.72 129.147C169.852 128.835 169.918 128.481 169.918 128.085C169.918 127.689 169.852 127.335 169.72 127.023C169.6 126.711 169.432 126.447 169.216 126.231C169 126.015 168.748 125.853 168.46 125.745C168.184 125.625 167.896 125.565 167.596 125.565C167.284 125.565 166.99 125.625 166.714 125.745C166.438 125.853 166.192 126.015 165.976 126.231C165.76 126.447 165.586 126.711 165.454 127.023C165.334 127.335 165.274 127.689 165.274 128.085C165.274 128.481 165.334 128.835 165.454 129.147C165.586 129.459 165.76 129.723 165.976 129.939C166.192 130.155 166.438 130.323 166.714 130.443C166.99 130.551 167.284 130.605 167.596 130.605ZM175.829 124.827H175.973C176.249 124.383 176.621 124.035 177.089 123.783C177.557 123.519 178.091 123.387 178.691 123.387C179.243 123.387 179.729 123.477 180.149 123.657C180.569 123.837 180.911 124.095 181.175 124.431C181.451 124.755 181.655 125.151 181.787 125.619C181.931 126.075 182.003 126.585 182.003 127.149V132.495H179.645V127.437C179.645 126.801 179.501 126.333 179.213 126.033C178.937 125.721 178.529 125.565 177.989 125.565C177.665 125.565 177.377 125.637 177.125 125.781C176.885 125.913 176.675 126.099 176.495 126.339C176.327 126.567 176.195 126.843 176.099 127.167C176.015 127.479 175.973 127.815 175.973 128.175V132.495H173.615V123.675H175.829V124.827ZM184.466 125.691H182.918V123.675H184.466V120.975H186.824V123.675H188.984V125.691H186.824V129.111C186.824 129.315 186.842 129.507 186.878 129.687C186.926 129.855 187.01 129.999 187.13 130.119C187.298 130.311 187.538 130.407 187.85 130.407C188.054 130.407 188.216 130.389 188.336 130.353C188.456 130.305 188.57 130.245 188.678 130.173L189.344 132.243C189.068 132.375 188.768 132.471 188.444 132.531C188.132 132.603 187.784 132.639 187.4 132.639C186.956 132.639 186.554 132.573 186.194 132.441C185.846 132.297 185.552 132.105 185.312 131.865C184.748 131.325 184.466 130.557 184.466 129.561V125.691ZM190.807 119.607H193.165V123.225L193.021 124.827H193.165C193.417 124.407 193.777 124.065 194.245 123.801C194.725 123.525 195.259 123.387 195.847 123.387C196.987 123.387 197.827 123.723 198.367 124.395C198.919 125.067 199.195 125.985 199.195 127.149V132.495H196.837V127.437C196.837 126.825 196.693 126.363 196.405 126.051C196.117 125.727 195.715 125.565 195.199 125.565C194.875 125.565 194.587 125.637 194.335 125.781C194.083 125.913 193.867 126.099 193.687 126.339C193.519 126.579 193.387 126.861 193.291 127.185C193.207 127.497 193.165 127.833 193.165 128.193V132.495H190.807V119.607Z" fill="#43B6FA"/>
<path fill-rule="evenodd" clip-rule="evenodd" d="M38.5066 168.317C38.812 168.596 38.8329 169.071 38.5531 169.376C37.6883 170.32 37.2724 170.896 36.6478 172.014C36.4119 172.436 36.1507 173.021 35.9425 173.519C35.84 173.764 35.7531 173.981 35.6919 174.137C35.6613 174.215 35.6372 174.277 35.6209 174.32L35.6024 174.368L35.5979 174.38L35.5968 174.383C35.5037 174.631 35.2871 174.811 35.027 174.858C34.7668 174.904 34.5013 174.811 34.3281 174.611L32.1835 172.139C31.9121 171.827 31.9456 171.353 32.2585 171.081C32.5714 170.81 33.045 170.844 33.3165 171.156L34.6588 172.703C34.857 172.241 35.1008 171.707 35.3384 171.282C36.0197 170.063 36.5037 169.393 37.4469 168.363C37.7267 168.058 38.2011 168.037 38.5066 168.317Z" fill="#4A7EF6"/>
<path d="M54.6473 176.087V177.495H47.6713V176.023L50.5033 173.159C51.4526 172.188 52.1086 171.463 52.4713 170.983C52.8339 170.492 53.0153 169.98 53.0153 169.447C53.0153 168.967 52.8286 168.556 52.4553 168.215C52.0819 167.873 51.6019 167.703 51.0153 167.703C50.5139 167.703 50.0819 167.852 49.7193 168.151C49.3566 168.449 49.1219 168.812 49.0153 169.239L47.6713 168.695C47.8846 168.023 48.2953 167.457 48.9033 166.999C49.5113 166.529 50.2259 166.295 51.0473 166.295C52.0393 166.295 52.8659 166.599 53.5273 167.207C54.1886 167.815 54.5193 168.561 54.5193 169.447C54.5193 170.503 53.9379 171.644 52.7753 172.871L49.5753 176.087H54.6473ZM63.4558 174.071C63.4558 175.116 63.0931 175.991 62.3678 176.695C61.6424 177.399 60.7464 177.751 59.6798 177.751C58.8264 177.751 58.0531 177.484 57.3598 176.951C56.6664 176.417 56.2078 175.697 55.9838 174.791L57.2958 174.263C57.4558 174.903 57.7438 175.409 58.1598 175.783C58.5864 176.156 59.0824 176.343 59.6478 176.343C60.3304 176.343 60.8851 176.135 61.3118 175.719C61.7491 175.292 61.9678 174.748 61.9678 174.087C61.9678 173.415 61.7491 172.865 61.3118 172.439C60.8851 172.012 60.3358 171.799 59.6638 171.799C58.8851 171.799 58.2718 172.113 57.8238 172.743L56.3358 172.103L57.0398 166.551H62.7838V167.959H58.2718L57.8718 171.095L57.9358 171.111C58.4798 170.673 59.1411 170.455 59.9198 170.455C60.9011 170.455 61.7331 170.801 62.4158 171.495C63.1091 172.188 63.4558 173.047 63.4558 174.071ZM70.3584 172.855V177.495H68.8864V166.039H72.7904C73.7824 166.039 74.625 166.369 75.3184 167.031C76.0224 167.692 76.3744 168.497 76.3744 169.447C76.3744 170.417 76.0224 171.228 75.3184 171.879C74.6357 172.529 73.793 172.855 72.7904 172.855H70.3584ZM70.3584 167.447V171.447H72.8224C73.409 171.447 73.8944 171.249 74.2784 170.855C74.673 170.46 74.8704 169.991 74.8704 169.447C74.8704 168.913 74.673 168.449 74.2784 168.055C73.8944 167.649 73.409 167.447 72.8224 167.447H70.3584ZM78.4211 175.095C78.4211 175.479 78.5811 175.799 78.9011 176.055C79.2318 176.311 79.6158 176.439 80.0531 176.439C80.6718 176.439 81.2211 176.209 81.7011 175.751C82.1918 175.292 82.4371 174.753 82.4371 174.135C81.9785 173.772 81.3385 173.591 80.5171 173.591C79.9198 173.591 79.4185 173.735 79.0131 174.023C78.6185 174.311 78.4211 174.668 78.4211 175.095ZM80.3251 169.399C81.4131 169.399 82.2718 169.692 82.9011 170.279C83.5305 170.855 83.8451 171.649 83.8451 172.663V177.495H82.4371V176.407H82.3731C81.7651 177.303 80.9545 177.751 79.9411 177.751C79.0771 177.751 78.3518 177.495 77.7651 176.983C77.1891 176.471 76.9011 175.831 76.9011 175.063C76.9011 174.252 77.2051 173.607 77.8131 173.127C78.4318 172.647 79.2531 172.407 80.2771 172.407C81.1518 172.407 81.8718 172.567 82.4371 172.887V172.551C82.4371 172.039 82.2345 171.607 81.8291 171.255C81.4238 170.892 80.9491 170.711 80.4051 170.711C79.5838 170.711 78.9331 171.057 78.4531 171.751L77.1571 170.935C77.8718 169.911 78.9278 169.399 80.3251 169.399ZM94.6894 177.623C94.0494 177.623 93.516 177.425 93.0894 177.031C92.6734 176.636 92.46 176.087 92.4494 175.383V170.999H91.0734V169.655H92.4494V167.255H93.9214V169.655H95.8414V170.999H93.9214V174.903C93.9214 175.425 94.0227 175.783 94.2254 175.975C94.428 176.156 94.6574 176.247 94.9134 176.247C95.0307 176.247 95.1427 176.236 95.2494 176.215C95.3667 176.183 95.4734 176.145 95.5694 176.103L96.0334 177.415C95.6494 177.553 95.2014 177.623 94.6894 177.623ZM85.5054 169.655H86.9134V170.935H86.9774C87.4147 169.932 88.316 169.431 89.6814 169.431L89.9854 169.463V170.999L89.3294 170.935C88.6467 170.935 88.0814 171.148 87.6334 171.575C87.196 171.991 86.9774 172.524 86.9774 173.175V177.495H85.5054V169.655ZM97.3335 169.655H98.7415V170.743H98.8055C99.0295 170.359 99.3708 170.039 99.8295 169.783C100.299 169.527 100.784 169.399 101.286 169.399C102.246 169.399 102.982 169.676 103.494 170.231C104.016 170.775 104.278 171.553 104.278 172.567V177.495H102.806V172.663C102.774 171.383 102.128 170.743 100.87 170.743C100.283 170.743 99.7922 170.983 99.3975 171.463C99.0028 171.932 98.8055 172.497 98.8055 173.159V177.495H97.3335V169.655ZM109.525 177.751C108.373 177.751 107.424 177.356 106.677 176.567C105.931 175.777 105.557 174.78 105.557 173.575C105.557 172.38 105.92 171.388 106.645 170.599C107.371 169.799 108.299 169.399 109.429 169.399C110.592 169.399 111.515 169.777 112.197 170.535C112.891 171.281 113.237 172.332 113.237 173.687L113.221 173.847H107.061C107.083 174.615 107.339 175.233 107.829 175.703C108.32 176.172 108.907 176.407 109.589 176.407C110.528 176.407 111.264 175.937 111.797 174.999L113.109 175.639C112.757 176.3 112.267 176.817 111.637 177.191C111.019 177.564 110.315 177.751 109.525 177.751ZM107.173 172.631H111.669C111.627 172.087 111.403 171.639 110.997 171.287C110.603 170.924 110.069 170.743 109.397 170.743C108.843 170.743 108.363 170.913 107.957 171.255C107.563 171.596 107.301 172.055 107.173 172.631ZM116.056 177.495H114.584V169.655H115.992V170.935H116.056C116.205 170.519 116.509 170.167 116.968 169.879C117.437 169.58 117.896 169.431 118.344 169.431C118.77 169.431 119.133 169.495 119.432 169.623L118.984 171.047C118.802 170.972 118.514 170.935 118.12 170.935C117.565 170.935 117.08 171.159 116.664 171.607C116.258 172.055 116.056 172.577 116.056 173.175V177.495ZM126.084 175.319C126.084 176.001 125.785 176.577 125.188 177.047C124.59 177.516 123.838 177.751 122.932 177.751C122.142 177.751 121.449 177.548 120.852 177.143C120.254 176.727 119.828 176.183 119.572 175.511L120.884 174.951C121.076 175.42 121.353 175.788 121.716 176.055C122.089 176.311 122.494 176.439 122.932 176.439C123.401 176.439 123.79 176.337 124.1 176.135C124.42 175.932 124.58 175.692 124.58 175.415C124.58 174.913 124.196 174.545 123.428 174.311L122.084 173.975C120.558 173.591 119.796 172.855 119.796 171.767C119.796 171.052 120.084 170.481 120.66 170.055C121.246 169.617 121.993 169.399 122.9 169.399C123.593 169.399 124.217 169.564 124.772 169.895C125.337 170.225 125.732 170.668 125.956 171.223L124.644 171.767C124.494 171.436 124.249 171.18 123.908 170.999C123.577 170.807 123.204 170.711 122.788 170.711C122.404 170.711 122.057 170.807 121.748 170.999C121.449 171.191 121.299 171.425 121.299 171.703C121.299 172.151 121.721 172.471 122.564 172.663L123.748 172.967C125.305 173.351 126.084 174.135 126.084 175.319Z" fill="#1B2767"/>
<path fill-rule="evenodd" clip-rule="evenodd" d="M38.5066 198.317C38.812 198.596 38.8329 199.071 38.5531 199.376C37.6883 200.32 37.2724 200.896 36.6478 202.014C36.4119 202.436 36.1507 203.021 35.9425 203.519C35.84 203.764 35.7531 203.981 35.6919 204.137C35.6613 204.215 35.6372 204.277 35.6209 204.32L35.6024 204.368L35.5979 204.38L35.5968 204.383C35.5037 204.631 35.2871 204.811 35.027 204.858C34.7668 204.904 34.5013 204.811 34.3281 204.611L32.1835 202.139C31.9121 201.827 31.9456 201.353 32.2585 201.081C32.5714 200.81 33.045 200.844 33.3165 201.156L34.6588 202.703C34.857 202.241 35.1008 201.707 35.3384 201.282C36.0197 200.063 36.5037 199.393 37.4469 198.363C37.7267 198.058 38.2011 198.037 38.5066 198.317Z" fill="#4A7EF6"/>
<path d="M54.7466 204.391C54.7466 205.351 54.3893 206.151 53.6746 206.791C52.9706 207.431 52.096 207.751 51.0506 207.751C50.2293 207.751 49.488 207.505 48.8266 207.015C48.1546 206.503 47.7013 205.836 47.4666 205.015L48.8106 204.455C48.9813 205.063 49.2586 205.532 49.6426 205.863C50.0373 206.183 50.5066 206.343 51.0506 206.343C51.648 206.343 52.1653 206.156 52.6026 205.783C53.0293 205.399 53.2426 204.935 53.2426 204.391C53.2426 203.847 53.0186 203.388 52.5706 203.015C52.1333 202.641 51.6053 202.455 50.9866 202.455H50.0426V201.079H50.8746C51.4613 201.079 51.9413 200.919 52.3146 200.599C52.688 200.268 52.8746 199.841 52.8746 199.319C52.8746 198.839 52.6986 198.449 52.3466 198.151C51.9946 197.852 51.5306 197.703 50.9546 197.703C50.0266 197.703 49.392 198.177 49.0506 199.127L47.6906 198.551C47.936 197.879 48.3466 197.335 48.9226 196.919C49.4986 196.503 50.176 196.295 50.9546 196.295C51.9253 196.295 52.7413 196.583 53.4026 197.159C54.0533 197.713 54.3786 198.433 54.3786 199.319C54.3786 200.375 53.888 201.159 52.9066 201.671V201.735C53.4826 201.98 53.9306 202.337 54.2506 202.807C54.5813 203.276 54.7466 203.804 54.7466 204.391ZM66.4903 207.495H60.0583V196.039H61.5303V206.087H66.4903V207.495ZM69.675 196.951C69.675 197.239 69.5737 197.484 69.371 197.687C69.1683 197.889 68.923 197.991 68.635 197.991C68.347 197.991 68.1017 197.889 67.899 197.687C67.6963 197.484 67.595 197.239 67.595 196.951C67.595 196.663 67.6963 196.417 67.899 196.215C68.1017 196.012 68.347 195.911 68.635 195.911C68.923 195.911 69.1683 196.012 69.371 196.215C69.5737 196.417 69.675 196.663 69.675 196.951ZM69.371 199.655V207.495H67.899V199.655H69.371ZM75.0946 207.495H73.6226L70.4546 199.655H72.0546L74.3586 205.735H74.3906L76.7266 199.655H78.2946L75.0946 207.495ZM82.541 207.751C81.389 207.751 80.4397 207.356 79.693 206.567C78.9463 205.777 78.573 204.78 78.573 203.575C78.573 202.38 78.9357 201.388 79.661 200.599C80.3863 199.799 81.3143 199.399 82.445 199.399C83.6077 199.399 84.5303 199.777 85.213 200.535C85.9063 201.281 86.253 202.332 86.253 203.687L86.237 203.847H80.077C80.0983 204.615 80.3543 205.233 80.845 205.703C81.3357 206.172 81.9223 206.407 82.605 206.407C83.5437 206.407 84.2797 205.937 84.813 204.999L86.125 205.639C85.773 206.3 85.2823 206.817 84.653 207.191C84.0343 207.564 83.3303 207.751 82.541 207.751ZM80.189 202.631H84.685C84.6423 202.087 84.4183 201.639 84.013 201.287C83.6183 200.924 83.085 200.743 82.413 200.743C81.8583 200.743 81.3783 200.913 80.973 201.255C80.5783 201.596 80.317 202.055 80.189 202.631ZM102.274 201.767C102.274 203.463 101.709 204.881 100.578 206.023C99.4369 207.175 98.0396 207.751 96.3863 207.751C94.7223 207.751 93.3249 207.175 92.1943 206.023C91.0636 204.881 90.4983 203.463 90.4983 201.767C90.4983 200.071 91.0636 198.652 92.1943 197.511C93.3249 196.359 94.7223 195.783 96.3863 195.783C98.0503 195.783 99.4476 196.364 100.578 197.527C101.709 198.668 102.274 200.081 102.274 201.767ZM92.0023 201.767C92.0023 203.089 92.4183 204.183 93.2503 205.047C94.0929 205.911 95.1383 206.343 96.3863 206.343C97.6343 206.343 98.6743 205.911 99.5063 205.047C100.349 204.193 100.77 203.1 100.77 201.767C100.77 200.433 100.349 199.34 99.5063 198.487C98.6743 197.623 97.6343 197.191 96.3863 197.191C95.1383 197.191 94.0929 197.623 93.2503 198.487C92.4183 199.351 92.0023 200.444 92.0023 201.767ZM106.187 199.655H109.707V198.519C109.707 197.74 109.953 197.111 110.443 196.631C110.945 196.151 111.585 195.911 112.363 195.911C112.897 195.911 113.334 196.001 113.675 196.183L113.275 197.479C113.019 197.351 112.731 197.287 112.411 197.287C112.049 197.287 111.75 197.415 111.515 197.671C111.291 197.916 111.179 198.247 111.179 198.663V199.655H113.227V200.999H111.179V207.495H109.707V200.999H106.187V207.495H104.715V200.999H103.243V199.655H104.715V198.519C104.715 197.74 104.961 197.111 105.451 196.631C105.953 196.151 106.593 195.911 107.371 195.911C107.905 195.911 108.342 196.001 108.683 196.183L108.283 197.479C108.027 197.351 107.739 197.287 107.419 197.287C107.057 197.287 106.758 197.415 106.523 197.671C106.299 197.916 106.187 198.247 106.187 198.663V199.655ZM117.666 207.751C116.514 207.751 115.565 207.356 114.818 206.567C114.071 205.777 113.698 204.78 113.698 203.575C113.698 202.38 114.061 201.388 114.786 200.599C115.511 199.799 116.439 199.399 117.57 199.399C118.733 199.399 119.655 199.777 120.338 200.535C121.031 201.281 121.378 202.332 121.378 203.687L121.362 203.847H115.202C115.223 204.615 115.479 205.233 115.97 205.703C116.461 206.172 117.047 206.407 117.73 206.407C118.669 206.407 119.405 205.937 119.938 204.999L121.25 205.639C120.898 206.3 120.407 206.817 119.778 207.191C119.159 207.564 118.455 207.751 117.666 207.751ZM115.314 202.631H119.81C119.767 202.087 119.543 201.639 119.138 201.287C118.743 200.924 118.21 200.743 117.538 200.743C116.983 200.743 116.503 200.913 116.098 201.255C115.703 201.596 115.442 202.055 115.314 202.631ZM124.196 207.495H122.724V199.655H124.132V200.935H124.196C124.345 200.519 124.649 200.167 125.108 199.879C125.577 199.58 126.036 199.431 126.484 199.431C126.911 199.431 127.273 199.495 127.572 199.623L127.124 201.047C126.943 200.972 126.655 200.935 126.26 200.935C125.705 200.935 125.22 201.159 124.804 201.607C124.399 202.055 124.196 202.577 124.196 203.175V207.495ZM134.224 205.319C134.224 206.001 133.925 206.577 133.328 207.047C132.731 207.516 131.979 207.751 131.072 207.751C130.283 207.751 129.589 207.548 128.992 207.143C128.395 206.727 127.968 206.183 127.712 205.511L129.024 204.951C129.216 205.42 129.493 205.788 129.856 206.055C130.229 206.311 130.635 206.439 131.072 206.439C131.541 206.439 131.931 206.337 132.24 206.135C132.56 205.932 132.72 205.692 132.72 205.415C132.72 204.913 132.336 204.545 131.568 204.311L130.224 203.975C128.699 203.591 127.936 202.855 127.936 201.767C127.936 201.052 128.224 200.481 128.8 200.055C129.387 199.617 130.133 199.399 131.04 199.399C131.733 199.399 132.357 199.564 132.912 199.895C133.477 200.225 133.872 200.668 134.096 201.223L132.784 201.767C132.635 201.436 132.389 201.18 132.048 200.999C131.717 200.807 131.344 200.711 130.928 200.711C130.544 200.711 130.197 200.807 129.888 200.999C129.589 201.191 129.44 201.425 129.44 201.703C129.44 202.151 129.861 202.471 130.704 202.663L131.888 202.967C133.445 203.351 134.224 204.135 134.224 205.319Z" fill="#1B2767"/>
<path fill-rule="evenodd" clip-rule="evenodd" d="M38.5066 228.317C38.812 228.596 38.8329 229.071 38.5531 229.376C37.6883 230.32 37.2724 230.896 36.6478 232.014C36.4119 232.436 36.1507 233.021 35.9425 233.519C35.84 233.764 35.7531 233.981 35.6919 234.137C35.6613 234.215 35.6372 234.277 35.6209 234.32L35.6024 234.368L35.5979 234.38L35.5968 234.383C35.5037 234.631 35.2871 234.811 35.027 234.858C34.7668 234.904 34.5013 234.811 34.3281 234.611L32.1835 232.139C31.9121 231.827 31.9456 231.353 32.2585 231.081C32.5714 230.81 33.045 230.844 33.3165 231.156L34.6588 232.703C34.857 232.241 35.1008 231.707 35.3384 231.282C36.0197 230.063 36.5037 229.393 37.4469 228.363C37.7267 228.058 38.2011 228.037 38.5066 228.317Z" fill="#4A7EF6"/>
<path d="M49.624 232.583V237.495H48.152V226.039H54.84V227.447H49.624V231.207H54.328V232.583H49.624ZM62.8229 237.495H61.4149V236.407H61.3509C61.1269 236.791 60.7802 237.111 60.3109 237.367C59.8522 237.623 59.3722 237.751 58.8709 237.751C57.9109 237.751 57.1695 237.479 56.6469 236.935C56.1349 236.38 55.8789 235.596 55.8789 234.583V229.655H57.3509V234.487C57.3829 235.767 58.0282 236.407 59.2869 236.407C59.8735 236.407 60.3642 236.172 60.7589 235.703C61.1535 235.223 61.3509 234.652 61.3509 233.991V229.655H62.8229V237.495ZM66.0868 226.039V237.495H64.6148V226.039H66.0868ZM69.3524 226.039V237.495H67.8804V226.039H69.3524ZM78.154 229.655L73.242 240.951H71.722L73.546 236.999L70.314 229.655H71.914L74.25 235.287H74.282L76.554 229.655H78.154ZM87.9659 237.751C86.2699 237.751 84.8512 237.18 83.7099 236.039C82.5792 234.897 82.0139 233.473 82.0139 231.767C82.0139 230.06 82.5792 228.641 83.7099 227.511C84.8405 226.359 86.2592 225.783 87.9659 225.783C89.6939 225.783 91.0965 226.407 92.1739 227.655L91.1179 228.679C90.2965 227.687 89.2459 227.191 87.9659 227.191C86.6965 227.191 85.6352 227.617 84.7819 228.471C83.9392 229.313 83.5179 230.412 83.5179 231.767C83.5179 233.121 83.9392 234.22 84.7819 235.063C85.6352 235.916 86.6965 236.343 87.9659 236.343C89.2992 236.343 90.4565 235.783 91.4379 234.663L92.5099 235.703C91.9659 236.353 91.2992 236.86 90.5099 237.223C89.7205 237.575 88.8725 237.751 87.9659 237.751ZM100.62 237.495H99.2118V236.407H99.1478C98.9238 236.791 98.5771 237.111 98.1078 237.367C97.6491 237.623 97.1691 237.751 96.6678 237.751C95.7078 237.751 94.9664 237.479 94.4438 236.935C93.9318 236.38 93.6758 235.596 93.6758 234.583V229.655H95.1478V234.487C95.1798 235.767 95.8251 236.407 97.0838 236.407C97.6704 236.407 98.1611 236.172 98.5558 235.703C98.9504 235.223 99.1478 234.652 99.1478 233.991V229.655H100.62V237.495ZM108.334 235.319C108.334 236.001 108.035 236.577 107.438 237.047C106.84 237.516 106.088 237.751 105.182 237.751C104.392 237.751 103.699 237.548 103.102 237.143C102.504 236.727 102.078 236.183 101.822 235.511L103.134 234.951C103.326 235.42 103.603 235.788 103.966 236.055C104.339 236.311 104.744 236.439 105.182 236.439C105.651 236.439 106.04 236.337 106.35 236.135C106.67 235.932 106.83 235.692 106.83 235.415C106.83 234.913 106.446 234.545 105.678 234.311L104.334 233.975C102.808 233.591 102.046 232.855 102.046 231.767C102.046 231.052 102.334 230.481 102.91 230.055C103.496 229.617 104.243 229.399 105.15 229.399C105.843 229.399 106.467 229.564 107.022 229.895C107.587 230.225 107.982 230.668 108.206 231.223L106.894 231.767C106.744 231.436 106.499 231.18 106.158 230.999C105.827 230.807 105.454 230.711 105.038 230.711C104.654 230.711 104.307 230.807 103.998 230.999C103.699 231.191 103.549 231.425 103.549 231.703C103.549 232.151 103.971 232.471 104.814 232.663L105.998 232.967C107.555 233.351 108.334 234.135 108.334 235.319ZM112.641 237.623C112.001 237.623 111.467 237.425 111.041 237.031C110.625 236.636 110.411 236.087 110.401 235.383V230.999H109.025V229.655H110.401V227.255H111.873V229.655H113.793V230.999H111.873V234.903C111.873 235.425 111.974 235.783 112.177 235.975C112.379 236.156 112.609 236.247 112.865 236.247C112.982 236.247 113.094 236.236 113.201 236.215C113.318 236.183 113.425 236.145 113.521 236.103L113.985 237.415C113.601 237.553 113.153 237.623 112.641 237.623ZM114.667 233.575C114.667 232.369 115.045 231.372 115.803 230.583C116.571 229.793 117.536 229.399 118.699 229.399C119.861 229.399 120.821 229.793 121.579 230.583C122.347 231.372 122.731 232.369 122.731 233.575C122.731 234.791 122.347 235.788 121.579 236.567C120.821 237.356 119.861 237.751 118.699 237.751C117.536 237.751 116.571 237.356 115.803 236.567C115.045 235.777 114.667 234.78 114.667 233.575ZM116.139 233.575C116.139 234.417 116.384 235.1 116.875 235.623C117.365 236.145 117.973 236.407 118.699 236.407C119.424 236.407 120.032 236.145 120.523 235.623C121.013 235.1 121.259 234.417 121.259 233.575C121.259 232.743 121.013 232.065 120.523 231.543C120.021 231.009 119.413 230.743 118.699 230.743C117.984 230.743 117.376 231.009 116.875 231.543C116.384 232.065 116.139 232.743 116.139 233.575ZM125.384 237.495H123.912V229.655H125.32V230.743H125.384C125.608 230.359 125.949 230.039 126.408 229.783C126.877 229.527 127.341 229.399 127.8 229.399C128.376 229.399 128.882 229.532 129.32 229.799C129.757 230.065 130.077 230.433 130.28 230.903C130.93 229.9 131.832 229.399 132.984 229.399C133.89 229.399 134.589 229.676 135.08 230.231C135.57 230.785 135.816 231.575 135.816 232.599V237.495H134.344V232.823C134.344 232.087 134.21 231.559 133.944 231.239C133.677 230.908 133.229 230.743 132.6 230.743C132.034 230.743 131.56 230.983 131.176 231.463C130.792 231.943 130.6 232.508 130.6 233.159V237.495H129.128V232.823C129.128 232.087 128.994 231.559 128.728 231.239C128.461 230.908 128.013 230.743 127.384 230.743C126.818 230.743 126.344 230.983 125.96 231.463C125.576 231.943 125.384 232.508 125.384 233.159V237.495ZM139.441 226.951C139.441 227.239 139.339 227.484 139.137 227.687C138.934 227.889 138.689 227.991 138.401 227.991C138.113 227.991 137.867 227.889 137.665 227.687C137.462 227.484 137.361 227.239 137.361 226.951C137.361 226.663 137.462 226.417 137.665 226.215C137.867 226.012 138.113 225.911 138.401 225.911C138.689 225.911 138.934 226.012 139.137 226.215C139.339 226.417 139.441 226.663 139.441 226.951ZM139.137 229.655V237.495H137.665V229.655H139.137ZM147.004 237.495H140.668V236.215L145.132 230.999H140.796V229.655H146.94V230.935L142.476 236.151H147.004V237.495ZM149.327 235.095C149.327 235.479 149.487 235.799 149.807 236.055C150.138 236.311 150.522 236.439 150.959 236.439C151.578 236.439 152.127 236.209 152.607 235.751C153.098 235.292 153.343 234.753 153.343 234.135C152.885 233.772 152.245 233.591 151.423 233.591C150.826 233.591 150.325 233.735 149.919 234.023C149.525 234.311 149.327 234.668 149.327 235.095ZM151.231 229.399C152.319 229.399 153.178 229.692 153.807 230.279C154.437 230.855 154.751 231.649 154.751 232.663V237.495H153.343V236.407H153.279C152.671 237.303 151.861 237.751 150.847 237.751C149.983 237.751 149.258 237.495 148.671 236.983C148.095 236.471 147.807 235.831 147.807 235.063C147.807 234.252 148.111 233.607 148.719 233.127C149.338 232.647 150.159 232.407 151.183 232.407C152.058 232.407 152.778 232.567 153.343 232.887V232.551C153.343 232.039 153.141 231.607 152.735 231.255C152.33 230.892 151.855 230.711 151.311 230.711C150.49 230.711 149.839 231.057 149.359 231.751L148.063 230.935C148.778 229.911 149.834 229.399 151.231 229.399ZM160.556 237.751C159.98 237.751 159.452 237.628 158.972 237.383C158.502 237.137 158.14 236.812 157.884 236.407H157.82V237.495H156.412V226.039H157.884V229.655L157.82 230.743H157.884C158.14 230.337 158.502 230.012 158.972 229.767C159.452 229.521 159.98 229.399 160.556 229.399C161.59 229.399 162.465 229.804 163.18 230.615C163.916 231.436 164.284 232.423 164.284 233.575C164.284 234.737 163.916 235.724 163.18 236.535C162.465 237.345 161.59 237.751 160.556 237.751ZM160.316 236.407C161.02 236.407 161.612 236.14 162.092 235.607C162.572 235.084 162.812 234.407 162.812 233.575C162.812 232.753 162.572 232.076 162.092 231.543C161.612 231.009 161.02 230.743 160.316 230.743C159.601 230.743 159.004 231.009 158.524 231.543C158.054 232.076 157.82 232.753 157.82 233.575C157.82 234.407 158.054 235.089 158.524 235.623C159.004 236.145 159.601 236.407 160.316 236.407ZM167.024 226.039V237.495H165.552V226.039H167.024ZM172.26 237.751C171.108 237.751 170.158 237.356 169.412 236.567C168.665 235.777 168.292 234.78 168.292 233.575C168.292 232.38 168.654 231.388 169.38 230.599C170.105 229.799 171.033 229.399 172.164 229.399C173.326 229.399 174.249 229.777 174.932 230.535C175.625 231.281 175.972 232.332 175.972 233.687L175.956 233.847H169.796C169.817 234.615 170.073 235.233 170.564 235.703C171.054 236.172 171.641 236.407 172.324 236.407C173.262 236.407 173.998 235.937 174.532 234.999L175.844 235.639C175.492 236.3 175.001 236.817 174.372 237.191C173.753 237.564 173.049 237.751 172.26 237.751ZM169.908 232.631H174.404C174.361 232.087 174.137 231.639 173.732 231.287C173.337 230.924 172.804 230.743 172.132 230.743C171.577 230.743 171.097 230.913 170.692 231.255C170.297 231.596 170.036 232.055 169.908 232.631ZM182.562 232.855V237.495H181.09V226.039H184.994C185.986 226.039 186.828 226.369 187.522 227.031C188.226 227.692 188.578 228.497 188.578 229.447C188.578 230.417 188.226 231.228 187.522 231.879C186.839 232.529 185.996 232.855 184.994 232.855H182.562ZM182.562 227.447V231.447H185.026C185.612 231.447 186.098 231.249 186.482 230.855C186.876 230.46 187.074 229.991 187.074 229.447C187.074 228.913 186.876 228.449 186.482 228.055C186.098 227.649 185.612 227.447 185.026 227.447H182.562ZM190.624 235.095C190.624 235.479 190.784 235.799 191.104 236.055C191.435 236.311 191.819 236.439 192.256 236.439C192.875 236.439 193.424 236.209 193.904 235.751C194.395 235.292 194.64 234.753 194.64 234.135C194.182 233.772 193.542 233.591 192.72 233.591C192.123 233.591 191.622 233.735 191.216 234.023C190.822 234.311 190.624 234.668 190.624 235.095ZM192.528 229.399C193.616 229.399 194.475 229.692 195.104 230.279C195.734 230.855 196.048 231.649 196.048 232.663V237.495H194.64V236.407H194.576C193.968 237.303 193.158 237.751 192.144 237.751C191.28 237.751 190.555 237.495 189.968 236.983C189.392 236.471 189.104 235.831 189.104 235.063C189.104 234.252 189.408 233.607 190.016 233.127C190.635 232.647 191.456 232.407 192.48 232.407C193.355 232.407 194.075 232.567 194.64 232.887V232.551C194.64 232.039 194.438 231.607 194.032 231.255C193.627 230.892 193.152 230.711 192.608 230.711C191.787 230.711 191.136 231.057 190.656 231.751L189.36 230.935C190.075 229.911 191.131 229.399 192.528 229.399ZM206.893 237.623C206.253 237.623 205.719 237.425 205.293 237.031C204.877 236.636 204.663 236.087 204.653 235.383V230.999H203.277V229.655H204.653V227.255H206.125V229.655H208.045V230.999H206.125V234.903C206.125 235.425 206.226 235.783 206.429 235.975C206.631 236.156 206.861 236.247 207.117 236.247C207.234 236.247 207.346 236.236 207.453 236.215C207.57 236.183 207.677 236.145 207.773 236.103L208.237 237.415C207.853 237.553 207.405 237.623 206.893 237.623ZM197.709 229.655H199.117V230.935H199.181C199.618 229.932 200.519 229.431 201.885 229.431L202.189 229.463V230.999L201.533 230.935C200.85 230.935 200.285 231.148 199.837 231.575C199.399 231.991 199.181 232.524 199.181 233.175V237.495H197.709V229.655ZM209.537 229.655H210.945V230.743H211.009C211.233 230.359 211.574 230.039 212.033 229.783C212.502 229.527 212.987 229.399 213.489 229.399C214.449 229.399 215.185 229.676 215.697 230.231C216.219 230.775 216.481 231.553 216.481 232.567V237.495H215.009V232.663C214.977 231.383 214.331 230.743 213.073 230.743C212.486 230.743 211.995 230.983 211.601 231.463C211.206 231.932 211.009 232.497 211.009 233.159V237.495H209.537V229.655ZM221.729 237.751C220.577 237.751 219.627 237.356 218.881 236.567C218.134 235.777 217.761 234.78 217.761 233.575C217.761 232.38 218.123 231.388 218.849 230.599C219.574 229.799 220.502 229.399 221.633 229.399C222.795 229.399 223.718 229.777 224.401 230.535C225.094 231.281 225.441 232.332 225.441 233.687L225.425 233.847H219.265C219.286 234.615 219.542 235.233 220.033 235.703C220.523 236.172 221.11 236.407 221.793 236.407C222.731 236.407 223.467 235.937 224.001 234.999L225.312 235.639C224.961 236.3 224.47 236.817 223.841 237.191C223.222 237.564 222.518 237.751 221.729 237.751ZM219.377 232.631H223.873C223.83 232.087 223.606 231.639 223.201 231.287C222.806 230.924 222.273 230.743 221.601 230.743C221.046 230.743 220.566 230.913 220.161 231.255C219.766 231.596 219.505 232.055 219.377 232.631ZM228.259 237.495H226.787V229.655H228.195V230.935H228.259C228.408 230.519 228.712 230.167 229.171 229.879C229.64 229.58 230.099 229.431 230.547 229.431C230.973 229.431 231.336 229.495 231.635 229.623L231.187 231.047C231.005 230.972 230.717 230.935 230.323 230.935C229.768 230.935 229.283 231.159 228.867 231.607C228.461 232.055 228.259 232.577 228.259 233.175V237.495ZM237.843 232.855V237.495H236.371V226.039H240.275C241.267 226.039 242.109 226.369 242.803 227.031C243.507 227.692 243.859 228.497 243.859 229.447C243.859 230.417 243.507 231.228 242.803 231.879C242.12 232.529 241.277 232.855 240.275 232.855H237.843ZM237.843 227.447V231.447H240.307C240.893 231.447 241.379 231.249 241.763 230.855C242.157 230.46 242.355 229.991 242.355 229.447C242.355 228.913 242.157 228.449 241.763 228.055C241.379 227.649 240.893 227.447 240.307 227.447H237.843ZM244.136 233.575C244.136 232.369 244.514 231.372 245.272 230.583C246.04 229.793 247.005 229.399 248.168 229.399C249.33 229.399 250.29 229.793 251.048 230.583C251.816 231.372 252.2 232.369 252.2 233.575C252.2 234.791 251.816 235.788 251.048 236.567C250.29 237.356 249.33 237.751 248.168 237.751C247.005 237.751 246.04 237.356 245.272 236.567C244.514 235.777 244.136 234.78 244.136 233.575ZM245.608 233.575C245.608 234.417 245.853 235.1 246.344 235.623C246.834 236.145 247.442 236.407 248.168 236.407C248.893 236.407 249.501 236.145 249.992 235.623C250.482 235.1 250.728 234.417 250.728 233.575C250.728 232.743 250.482 232.065 249.992 231.543C249.49 231.009 248.882 230.743 248.168 230.743C247.453 230.743 246.845 231.009 246.344 231.543C245.853 232.065 245.608 232.743 245.608 233.575ZM262.564 237.623C261.924 237.623 261.391 237.425 260.964 237.031C260.548 236.636 260.335 236.087 260.324 235.383V230.999H258.948V229.655H260.324V227.255H261.796V229.655H263.716V230.999H261.796V234.903C261.796 235.425 261.898 235.783 262.1 235.975C262.303 236.156 262.532 236.247 262.788 236.247C262.906 236.247 263.018 236.236 263.124 236.215C263.242 236.183 263.348 236.145 263.444 236.103L263.908 237.415C263.524 237.553 263.076 237.623 262.564 237.623ZM253.38 229.655H254.788V230.935H254.852C255.29 229.932 256.191 229.431 257.556 229.431L257.86 229.463V230.999L257.204 230.935C256.522 230.935 255.956 231.148 255.508 231.575C255.071 231.991 254.852 232.524 254.852 233.175V237.495H253.38V229.655ZM266.046 235.095C266.046 235.479 266.206 235.799 266.526 236.055C266.857 236.311 267.241 236.439 267.678 236.439C268.297 236.439 268.846 236.209 269.326 235.751C269.817 235.292 270.062 234.753 270.062 234.135C269.603 233.772 268.963 233.591 268.142 233.591C267.545 233.591 267.043 233.735 266.638 234.023C266.243 234.311 266.046 234.668 266.046 235.095ZM267.95 229.399C269.038 229.399 269.897 229.692 270.526 230.279C271.155 230.855 271.47 231.649 271.47 232.663V237.495H270.062V236.407H269.998C269.39 237.303 268.579 237.751 267.566 237.751C266.702 237.751 265.977 237.495 265.39 236.983C264.814 236.471 264.526 235.831 264.526 235.063C264.526 234.252 264.83 233.607 265.438 233.127C266.057 232.647 266.878 232.407 267.902 232.407C268.777 232.407 269.497 232.567 270.062 232.887V232.551C270.062 232.039 269.859 231.607 269.454 231.255C269.049 230.892 268.574 230.711 268.03 230.711C267.209 230.711 266.558 231.057 266.078 231.751L264.782 230.935C265.497 229.911 266.553 229.399 267.95 229.399ZM274.602 226.039V237.495H273.13V226.039H274.602Z" fill="#1B2767"/>
<path fill-rule="evenodd" clip-rule="evenodd" d="M38.5066 258.317C38.812 258.596 38.8329 259.071 38.5531 259.376C37.6883 260.32 37.2724 260.896 36.6478 262.014C36.4119 262.436 36.1507 263.021 35.9425 263.519C35.84 263.764 35.7531 263.981 35.6919 264.137C35.6613 264.215 35.6372 264.277 35.6209 264.32L35.6024 264.368L35.5979 264.38L35.5968 264.383C35.5037 264.631 35.2871 264.811 35.027 264.858C34.7668 264.904 34.5013 264.811 34.3281 264.611L32.1835 262.139C31.9121 261.827 31.9456 261.353 32.2585 261.081C32.5714 260.81 33.045 260.844 33.3165 261.156L34.6588 262.703C34.857 262.241 35.1008 261.707 35.3384 261.282C36.0197 260.063 36.5037 259.393 37.4469 258.363C37.7267 258.058 38.2011 258.037 38.5066 258.317Z" fill="#4A7EF6"/>
<path d="M54.8028 267.495H48.3708V256.039H49.8428V266.087H54.8028V267.495ZM57.9875 256.951C57.9875 257.239 57.8862 257.484 57.6835 257.687C57.4808 257.889 57.2355 257.991 56.9475 257.991C56.6595 257.991 56.4142 257.889 56.2115 257.687C56.0088 257.484 55.9075 257.239 55.9075 256.951C55.9075 256.663 56.0088 256.417 56.2115 256.215C56.4142 256.012 56.6595 255.911 56.9475 255.911C57.2355 255.911 57.4808 256.012 57.6835 256.215C57.8862 256.417 57.9875 256.663 57.9875 256.951ZM57.6835 259.655V267.495H56.2115V259.655H57.6835ZM59.5991 259.655H61.0071V260.743H61.0711C61.2951 260.359 61.6365 260.039 62.0951 259.783C62.5645 259.527 63.0498 259.399 63.5511 259.399C64.5111 259.399 65.2471 259.676 65.7591 260.231C66.2818 260.775 66.5431 261.553 66.5431 262.567V267.495H65.0711V262.663C65.0391 261.383 64.3938 260.743 63.1351 260.743C62.5485 260.743 62.0578 260.983 61.6631 261.463C61.2685 261.932 61.0711 262.497 61.0711 263.159V267.495H59.5991V259.655ZM75.167 267.495H73.391L70.943 263.799L69.743 264.983V267.495H68.271V256.039H69.743V263.095L73.135 259.655H75.023V259.719L71.967 262.759L75.167 267.431V267.495ZM86.849 265.511L87.921 266.919L86.817 267.751L86.033 266.711C85.2543 267.404 84.369 267.751 83.377 267.751C82.2143 267.751 81.2277 267.361 80.417 266.583C79.6063 265.804 79.201 264.844 79.201 263.703C79.201 263.031 79.377 262.396 79.729 261.799C80.0917 261.191 80.577 260.7 81.185 260.327C80.6303 259.612 80.353 258.977 80.353 258.423C80.353 257.697 80.625 257.079 81.169 256.567C81.713 256.044 82.3637 255.783 83.121 255.783C83.729 255.783 84.257 255.959 84.705 256.311C85.153 256.652 85.4783 257.121 85.681 257.719L84.417 258.391C84.1183 257.591 83.6863 257.191 83.121 257.191C82.7477 257.191 82.4383 257.303 82.193 257.527C81.9583 257.751 81.841 258.049 81.841 258.423C81.841 258.785 81.9637 259.127 82.209 259.447L86.001 264.407L87.025 262.695L88.177 263.399L86.849 265.511ZM80.545 263.703C80.545 264.471 80.817 265.116 81.361 265.639C81.905 266.151 82.577 266.407 83.377 266.407C84.1343 266.407 84.7477 266.151 85.217 265.639L82.001 261.399C81.553 261.644 81.1957 261.975 80.929 262.391C80.673 262.807 80.545 263.244 80.545 263.703ZM93.1833 267.495V256.039H96.6873C98.4366 256.039 99.8393 256.567 100.895 257.623C101.962 258.679 102.495 260.06 102.495 261.767C102.495 263.484 101.962 264.871 100.895 265.927C99.8393 266.972 98.4366 267.495 96.6873 267.495H93.1833ZM94.6553 257.447V266.087H96.6873C98.0206 266.087 99.0713 265.708 99.8393 264.951C100.607 264.183 100.991 263.121 100.991 261.767C100.991 260.423 100.607 259.367 99.8393 258.599C99.0713 257.831 98.0206 257.447 96.6873 257.447H94.6553ZM105.894 256.951C105.894 257.239 105.792 257.484 105.59 257.687C105.387 257.889 105.142 257.991 104.854 257.991C104.566 257.991 104.32 257.889 104.118 257.687C103.915 257.484 103.814 257.239 103.814 256.951C103.814 256.663 103.915 256.417 104.118 256.215C104.32 256.012 104.566 255.911 104.854 255.911C105.142 255.911 105.387 256.012 105.59 256.215C105.792 256.417 105.894 256.663 105.894 256.951ZM105.59 259.655V267.495H104.118V259.655H105.59ZM113.505 265.319C113.505 266.001 113.207 266.577 112.609 267.047C112.012 267.516 111.26 267.751 110.353 267.751C109.564 267.751 108.871 267.548 108.273 267.143C107.676 266.727 107.249 266.183 106.993 265.511L108.305 264.951C108.497 265.42 108.775 265.788 109.137 266.055C109.511 266.311 109.916 266.439 110.353 266.439C110.823 266.439 111.212 266.337 111.521 266.135C111.841 265.932 112.001 265.692 112.001 265.415C112.001 264.913 111.617 264.545 110.849 264.311L109.505 263.975C107.98 263.591 107.217 262.855 107.217 261.767C107.217 261.052 107.505 260.481 108.081 260.055C108.668 259.617 109.415 259.399 110.321 259.399C111.015 259.399 111.639 259.564 112.193 259.895C112.759 260.225 113.153 260.668 113.377 261.223L112.065 261.767C111.916 261.436 111.671 261.18 111.329 260.999C110.999 260.807 110.625 260.711 110.209 260.711C109.825 260.711 109.479 260.807 109.169 260.999C108.871 261.191 108.721 261.425 108.721 261.703C108.721 262.151 109.143 262.471 109.985 262.663L111.169 262.967C112.727 263.351 113.505 264.135 113.505 265.319ZM118.449 267.751C117.286 267.751 116.321 267.356 115.553 266.567C114.795 265.756 114.417 264.759 114.417 263.575C114.417 262.369 114.795 261.372 115.553 260.583C116.321 259.793 117.286 259.399 118.449 259.399C119.249 259.399 119.947 259.601 120.545 260.007C121.142 260.401 121.59 260.951 121.889 261.655L120.545 262.215C120.129 261.233 119.398 260.743 118.353 260.743C117.681 260.743 117.099 261.015 116.609 261.559C116.129 262.103 115.889 262.775 115.889 263.575C115.889 264.375 116.129 265.047 116.609 265.591C117.099 266.135 117.681 266.407 118.353 266.407C119.43 266.407 120.187 265.916 120.625 264.935L121.937 265.495C121.649 266.199 121.195 266.753 120.577 267.159C119.969 267.553 119.259 267.751 118.449 267.751ZM122.698 263.575C122.698 262.369 123.077 261.372 123.834 260.583C124.602 259.793 125.567 259.399 126.73 259.399C127.893 259.399 128.853 259.793 129.61 260.583C130.378 261.372 130.762 262.369 130.762 263.575C130.762 264.791 130.378 265.788 129.61 266.567C128.853 267.356 127.893 267.751 126.73 267.751C125.567 267.751 124.602 267.356 123.834 266.567C123.077 265.777 122.698 264.78 122.698 263.575ZM124.17 263.575C124.17 264.417 124.415 265.1 124.906 265.623C125.397 266.145 126.005 266.407 126.73 266.407C127.455 266.407 128.063 266.145 128.554 265.623C129.045 265.1 129.29 264.417 129.29 263.575C129.29 262.743 129.045 262.065 128.554 261.543C128.053 261.009 127.445 260.743 126.73 260.743C126.015 260.743 125.407 261.009 124.906 261.543C124.415 262.065 124.17 262.743 124.17 263.575ZM138.901 267.495H137.493V266.407H137.429C137.205 266.791 136.858 267.111 136.389 267.367C135.93 267.623 135.45 267.751 134.949 267.751C133.989 267.751 133.248 267.479 132.725 266.935C132.213 266.38 131.957 265.596 131.957 264.583V259.655H133.429V264.487C133.461 265.767 134.106 266.407 135.365 266.407C135.952 266.407 136.442 266.172 136.837 265.703C137.232 265.223 137.429 264.652 137.429 263.991V259.655H138.901V267.495ZM140.693 259.655H142.101V260.743H142.165C142.389 260.359 142.73 260.039 143.189 259.783C143.658 259.527 144.144 259.399 144.645 259.399C145.605 259.399 146.341 259.676 146.853 260.231C147.376 260.775 147.637 261.553 147.637 262.567V267.495H146.165V262.663C146.133 261.383 145.488 260.743 144.229 260.743C143.642 260.743 143.152 260.983 142.757 261.463C142.362 261.932 142.165 262.497 142.165 263.159V267.495H140.693V259.655ZM152.062 267.623C151.423 267.623 150.889 267.425 150.463 267.031C150.047 266.636 149.833 266.087 149.823 265.383V260.999H148.447V259.655H149.823V257.255H151.295V259.655H153.215V260.999H151.295V264.903C151.295 265.425 151.396 265.783 151.599 265.975C151.801 266.156 152.031 266.247 152.286 266.247C152.404 266.247 152.516 266.236 152.623 266.215C152.74 266.183 152.847 266.145 152.943 266.103L153.407 267.415C153.023 267.553 152.575 267.623 152.062 267.623ZM161.65 257.447V267.495H160.178V257.447H156.978V256.039H164.85V257.447H161.65ZM166.649 267.495H165.177V259.655H166.585V260.935H166.649C166.799 260.519 167.103 260.167 167.561 259.879C168.031 259.58 168.489 259.431 168.937 259.431C169.364 259.431 169.727 259.495 170.025 259.623L169.577 261.047C169.396 260.972 169.108 260.935 168.713 260.935C168.159 260.935 167.673 261.159 167.257 261.607C166.852 262.055 166.649 262.577 166.649 263.175V267.495ZM171.749 265.095C171.749 265.479 171.909 265.799 172.229 266.055C172.56 266.311 172.944 266.439 173.381 266.439C174 266.439 174.549 266.209 175.029 265.751C175.52 265.292 175.765 264.753 175.765 264.135C175.307 263.772 174.667 263.591 173.845 263.591C173.248 263.591 172.747 263.735 172.341 264.023C171.947 264.311 171.749 264.668 171.749 265.095ZM173.653 259.399C174.741 259.399 175.6 259.692 176.229 260.279C176.859 260.855 177.173 261.649 177.173 262.663V267.495H175.765V266.407H175.701C175.093 267.303 174.283 267.751 173.269 267.751C172.405 267.751 171.68 267.495 171.093 266.983C170.517 266.471 170.229 265.831 170.229 265.063C170.229 264.252 170.533 263.607 171.141 263.127C171.76 262.647 172.581 262.407 173.605 262.407C174.48 262.407 175.2 262.567 175.765 262.887V262.551C175.765 262.039 175.563 261.607 175.157 261.255C174.752 260.892 174.277 260.711 173.733 260.711C172.912 260.711 172.261 261.057 171.781 261.751L170.485 260.935C171.2 259.911 172.256 259.399 173.653 259.399ZM182.339 267.751C181.177 267.751 180.211 267.356 179.443 266.567C178.686 265.756 178.307 264.759 178.307 263.575C178.307 262.369 178.686 261.372 179.443 260.583C180.211 259.793 181.177 259.399 182.339 259.399C183.139 259.399 183.838 259.601 184.435 260.007C185.033 260.401 185.481 260.951 185.779 261.655L184.435 262.215C184.019 261.233 183.289 260.743 182.243 260.743C181.571 260.743 180.99 261.015 180.499 261.559C180.019 262.103 179.779 262.775 179.779 263.575C179.779 264.375 180.019 265.047 180.499 265.591C180.99 266.135 181.571 266.407 182.243 266.407C183.321 266.407 184.078 265.916 184.515 264.935L185.827 265.495C185.539 266.199 185.086 266.753 184.467 267.159C183.859 267.553 183.15 267.751 182.339 267.751ZM194.011 267.495H192.235L189.787 263.799L188.587 264.983V267.495H187.115V256.039H188.587V263.095L191.979 259.655H193.867V259.719L190.811 262.759L194.011 267.431V267.495ZM196.753 256.951C196.753 257.239 196.652 257.484 196.449 257.687C196.246 257.889 196.001 257.991 195.713 257.991C195.425 257.991 195.18 257.889 194.977 257.687C194.774 257.484 194.673 257.239 194.673 256.951C194.673 256.663 194.774 256.417 194.977 256.215C195.18 256.012 195.425 255.911 195.713 255.911C196.001 255.911 196.246 256.012 196.449 256.215C196.652 256.417 196.753 256.663 196.753 256.951ZM196.449 259.655V267.495H194.977V259.655H196.449ZM198.365 259.655H199.773V260.743H199.837C200.061 260.359 200.402 260.039 200.861 259.783C201.33 259.527 201.815 259.399 202.317 259.399C203.277 259.399 204.013 259.676 204.525 260.231C205.047 260.775 205.309 261.553 205.309 262.567V267.495H203.837V262.663C203.805 261.383 203.159 260.743 201.901 260.743C201.314 260.743 200.823 260.983 200.429 261.463C200.034 261.932 199.837 262.497 199.837 263.159V267.495H198.365V259.655ZM210.479 266.407C211.204 266.407 211.796 266.145 212.255 265.623C212.735 265.1 212.975 264.417 212.975 263.575C212.975 262.753 212.735 262.076 212.255 261.543C211.785 261.009 211.193 260.743 210.479 260.743C209.775 260.743 209.183 261.009 208.703 261.543C208.223 262.076 207.983 262.753 207.983 263.575C207.983 264.407 208.223 265.084 208.703 265.607C209.183 266.14 209.775 266.407 210.479 266.407ZM210.431 271.207C209.993 271.207 209.583 271.148 209.199 271.031C208.815 270.924 208.463 270.769 208.143 270.567C207.833 270.364 207.567 270.124 207.343 269.847C207.119 269.569 206.948 269.26 206.831 268.919L208.223 268.343C208.383 268.801 208.66 269.169 209.055 269.447C209.449 269.724 209.908 269.863 210.431 269.863C211.231 269.863 211.855 269.623 212.303 269.143C212.751 268.663 212.975 268.001 212.975 267.159V266.407H212.911C212.633 266.823 212.255 267.153 211.775 267.399C211.305 267.633 210.793 267.751 210.239 267.751C209.215 267.751 208.335 267.351 207.599 266.551C206.873 265.729 206.511 264.737 206.511 263.575C206.511 262.412 206.873 261.425 207.599 260.615C208.335 259.804 209.215 259.399 210.239 259.399C210.793 259.399 211.305 259.521 211.775 259.767C212.255 260.001 212.633 260.327 212.911 260.743H212.975V259.655H214.383V267.159C214.383 268.417 214.025 269.404 213.311 270.119C212.585 270.844 211.625 271.207 210.431 271.207Z" fill="#1B2767"/>
<path fill-rule="evenodd" clip-rule="evenodd" d="M38.5066 288.317C38.812 288.596 38.8329 289.071 38.5531 289.376C37.6883 290.32 37.2724 290.896 36.6478 292.014C36.4119 292.436 36.1507 293.021 35.9425 293.519C35.84 293.764 35.7531 293.981 35.6919 294.137C35.6613 294.215 35.6372 294.277 35.6209 294.32L35.6024 294.368L35.5979 294.38L35.5968 294.383C35.5037 294.631 35.2871 294.811 35.027 294.858C34.7668 294.904 34.5013 294.811 34.3281 294.611L32.1835 292.139C31.9121 291.827 31.9456 291.353 32.2585 291.081C32.5714 290.81 33.045 290.844 33.3165 291.156L34.6588 292.703C34.857 292.241 35.1008 291.707 35.3384 291.282C36.0197 290.063 36.5037 289.393 37.4469 288.363C37.7267 288.058 38.2011 288.037 38.5066 288.317Z" fill="#4A7EF6"/>
<path d="M53.7237 297.751C52.0277 297.751 50.609 297.18 49.4677 296.039C48.337 294.897 47.7717 293.473 47.7717 291.767C47.7717 290.06 48.337 288.641 49.4677 287.511C50.5984 286.359 52.017 285.783 53.7237 285.783C55.4517 285.783 56.8544 286.407 57.9317 287.655L56.8757 288.679C56.0544 287.687 55.0037 287.191 53.7237 287.191C52.4544 287.191 51.393 287.617 50.5397 288.471C49.697 289.313 49.2757 290.412 49.2757 291.767C49.2757 293.121 49.697 294.22 50.5397 295.063C51.393 295.916 52.4544 296.343 53.7237 296.343C55.057 296.343 56.2144 295.783 57.1957 294.663L58.2677 295.703C57.7237 296.353 57.057 296.86 56.2677 297.223C55.4784 297.575 54.6304 297.751 53.7237 297.751ZM58.9714 293.575C58.9714 292.369 59.3501 291.372 60.1074 290.583C60.8754 289.793 61.8408 289.399 63.0034 289.399C64.1661 289.399 65.1261 289.793 65.8834 290.583C66.6514 291.372 67.0354 292.369 67.0354 293.575C67.0354 294.791 66.6514 295.788 65.8834 296.567C65.1261 297.356 64.1661 297.751 63.0034 297.751C61.8408 297.751 60.8754 297.356 60.1074 296.567C59.3501 295.777 58.9714 294.78 58.9714 293.575ZM60.4434 293.575C60.4434 294.417 60.6888 295.1 61.1794 295.623C61.6701 296.145 62.2781 296.407 63.0034 296.407C63.7288 296.407 64.3368 296.145 64.8274 295.623C65.3181 295.1 65.5634 294.417 65.5634 293.575C65.5634 292.743 65.3181 292.065 64.8274 291.543C64.3261 291.009 63.7181 290.743 63.0034 290.743C62.2888 290.743 61.6808 291.009 61.1794 291.543C60.6888 292.065 60.4434 292.743 60.4434 293.575ZM68.2163 289.655H69.6243V290.743H69.6883C69.9123 290.359 70.2536 290.039 70.7123 289.783C71.1816 289.527 71.667 289.399 72.1683 289.399C73.1283 289.399 73.8643 289.676 74.3763 290.231C74.899 290.775 75.1603 291.553 75.1603 292.567V297.495H73.6883V292.663C73.6563 291.383 73.011 290.743 71.7523 290.743C71.1656 290.743 70.675 290.983 70.2803 291.463C69.8856 291.932 69.6883 292.497 69.6883 293.159V297.495H68.2163V289.655ZM79.5859 297.623C78.9459 297.623 78.4126 297.425 77.9859 297.031C77.5699 296.636 77.3566 296.087 77.3459 295.383V290.999H75.9699V289.655H77.3459V287.255H78.8179V289.655H80.7379V290.999H78.8179V294.903C78.8179 295.425 78.9193 295.783 79.1219 295.975C79.3246 296.156 79.5539 296.247 79.8099 296.247C79.9273 296.247 80.0393 296.236 80.1459 296.215C80.2633 296.183 80.3699 296.145 80.4659 296.103L80.9299 297.415C80.5459 297.553 80.0979 297.623 79.5859 297.623ZM85.5801 297.751C84.4281 297.751 83.4787 297.356 82.7321 296.567C81.9854 295.777 81.6121 294.78 81.6121 293.575C81.6121 292.38 81.9747 291.388 82.7001 290.599C83.4254 289.799 84.3534 289.399 85.4841 289.399C86.6467 289.399 87.5694 289.777 88.2521 290.535C88.9454 291.281 89.2921 292.332 89.2921 293.687L89.2761 293.847H83.1161C83.1374 294.615 83.3934 295.233 83.8841 295.703C84.3747 296.172 84.9614 296.407 85.6441 296.407C86.5827 296.407 87.3187 295.937 87.8521 294.999L89.1641 295.639C88.8121 296.3 88.3214 296.817 87.6921 297.191C87.0734 297.564 86.3694 297.751 85.5801 297.751ZM83.2281 292.631H87.7241C87.6814 292.087 87.4574 291.639 87.0521 291.287C86.6574 290.924 86.1241 290.743 85.4521 290.743C84.8974 290.743 84.4174 290.913 84.0121 291.255C83.6174 291.596 83.3561 292.055 83.2281 292.631ZM90.6382 289.655H92.0462V290.743H92.1102C92.3342 290.359 92.6755 290.039 93.1342 289.783C93.6035 289.527 94.0889 289.399 94.5902 289.399C95.5502 289.399 96.2862 289.676 96.7982 290.231C97.3209 290.775 97.5822 291.553 97.5822 292.567V297.495H96.1102V292.663C96.0782 291.383 95.4329 290.743 94.1742 290.743C93.5875 290.743 93.0969 290.983 92.7022 291.463C92.3075 291.932 92.1102 292.497 92.1102 293.159V297.495H90.6382V289.655ZM102.008 297.623C101.368 297.623 100.834 297.425 100.408 297.031C99.9918 296.636 99.7785 296.087 99.7678 295.383V290.999H98.3918V289.655H99.7678V287.255H101.24V289.655H103.16V290.999H101.24V294.903C101.24 295.425 101.341 295.783 101.544 295.975C101.746 296.156 101.976 296.247 102.232 296.247C102.349 296.247 102.461 296.236 102.568 296.215C102.685 296.183 102.792 296.145 102.888 296.103L103.352 297.415C102.968 297.553 102.52 297.623 102.008 297.623ZM114.764 297.495H108.332V286.039H109.804V296.087H114.764V297.495ZM117.948 286.951C117.948 287.239 117.847 287.484 117.644 287.687C117.442 287.889 117.196 287.991 116.908 287.991C116.62 287.991 116.375 287.889 116.172 287.687C115.97 287.484 115.868 287.239 115.868 286.951C115.868 286.663 115.97 286.417 116.172 286.215C116.375 286.012 116.62 285.911 116.908 285.911C117.196 285.911 117.442 286.012 117.644 286.215C117.847 286.417 117.948 286.663 117.948 286.951ZM117.644 289.655V297.495H116.172V289.655H117.644ZM123.704 297.751C123.128 297.751 122.6 297.628 122.12 297.383C121.651 297.137 121.288 296.812 121.032 296.407H120.968V297.495H119.56V286.039H121.032V289.655L120.968 290.743H121.032C121.288 290.337 121.651 290.012 122.12 289.767C122.6 289.521 123.128 289.399 123.704 289.399C124.739 289.399 125.613 289.804 126.328 290.615C127.064 291.436 127.432 292.423 127.432 293.575C127.432 294.737 127.064 295.724 126.328 296.535C125.613 297.345 124.739 297.751 123.704 297.751ZM123.464 296.407C124.168 296.407 124.76 296.14 125.24 295.607C125.72 295.084 125.96 294.407 125.96 293.575C125.96 292.753 125.72 292.076 125.24 291.543C124.76 291.009 124.168 290.743 123.464 290.743C122.749 290.743 122.152 291.009 121.672 291.543C121.203 292.076 120.968 292.753 120.968 293.575C120.968 294.407 121.203 295.089 121.672 295.623C122.152 296.145 122.749 296.407 123.464 296.407ZM130.095 297.495H128.623V289.655H130.031V290.935H130.095C130.244 290.519 130.548 290.167 131.007 289.879C131.476 289.58 131.935 289.431 132.383 289.431C132.809 289.431 133.172 289.495 133.471 289.623L133.023 291.047C132.841 290.972 132.553 290.935 132.159 290.935C131.604 290.935 131.119 291.159 130.703 291.607C130.297 292.055 130.095 292.577 130.095 293.175V297.495ZM135.195 295.095C135.195 295.479 135.355 295.799 135.675 296.055C136.005 296.311 136.389 296.439 136.827 296.439C137.445 296.439 137.995 296.209 138.475 295.751C138.965 295.292 139.211 294.753 139.211 294.135C138.752 293.772 138.112 293.591 137.291 293.591C136.693 293.591 136.192 293.735 135.787 294.023C135.392 294.311 135.195 294.668 135.195 295.095ZM137.099 289.399C138.187 289.399 139.045 289.692 139.675 290.279C140.304 290.855 140.619 291.649 140.619 292.663V297.495H139.211V296.407H139.147C138.539 297.303 137.728 297.751 136.715 297.751C135.851 297.751 135.125 297.495 134.539 296.983C133.963 296.471 133.675 295.831 133.675 295.063C133.675 294.252 133.979 293.607 134.587 293.127C135.205 292.647 136.027 292.407 137.051 292.407C137.925 292.407 138.645 292.567 139.211 292.887V292.551C139.211 292.039 139.008 291.607 138.603 291.255C138.197 290.892 137.723 290.711 137.179 290.711C136.357 290.711 135.707 291.057 135.227 291.751L133.931 290.935C134.645 289.911 135.701 289.399 137.099 289.399ZM143.751 297.495H142.279V289.655H143.687V290.935H143.751C143.9 290.519 144.204 290.167 144.663 289.879C145.132 289.58 145.591 289.431 146.039 289.431C146.465 289.431 146.828 289.495 147.127 289.623L146.679 291.047C146.497 290.972 146.209 290.935 145.815 290.935C145.26 290.935 144.775 291.159 144.359 291.607C143.953 292.055 143.751 292.577 143.751 293.175V297.495ZM155.256 289.655L150.344 300.951H148.824L150.648 296.999L147.416 289.655H149.016L151.352 295.287H151.384L153.656 289.655H155.256Z" fill="#1B2767"/>
<path fill-rule="evenodd" clip-rule="evenodd" d="M38.5066 318.317C38.812 318.596 38.8329 319.071 38.5531 319.376C37.6883 320.32 37.2724 320.896 36.6478 322.014C36.4119 322.436 36.1507 323.021 35.9425 323.519C35.84 323.764 35.7531 323.981 35.6919 324.137C35.6613 324.215 35.6372 324.277 35.6209 324.32L35.6024 324.368L35.5979 324.38L35.5968 324.383C35.5037 324.631 35.2871 324.811 35.027 324.858C34.7668 324.904 34.5013 324.811 34.3281 324.611L32.1835 322.139C31.9121 321.827 31.9456 321.353 32.2585 321.081C32.5714 320.81 33.045 320.844 33.3165 321.156L34.6588 322.703C34.857 322.241 35.1008 321.707 35.3384 321.282C36.0197 320.063 36.5037 319.393 37.4469 318.363C37.7267 318.058 38.2011 318.037 38.5066 318.317Z" fill="#4A7EF6"/>
<path d="M53.3018 327.751C51.6058 327.751 50.1871 327.18 49.0458 326.039C47.9151 324.897 47.3498 323.473 47.3498 321.767C47.3498 320.06 47.9151 318.641 49.0458 317.511C50.1765 316.359 51.5951 315.783 53.3018 315.783C55.0298 315.783 56.4325 316.407 57.5098 317.655L56.4538 318.679C55.6325 317.687 54.5818 317.191 53.3018 317.191C52.0325 317.191 50.9711 317.617 50.1178 318.471C49.2751 319.313 48.8538 320.412 48.8538 321.767C48.8538 323.121 49.2751 324.22 50.1178 325.063C50.9711 325.916 52.0325 326.343 53.3018 326.343C54.6351 326.343 55.7925 325.783 56.7738 324.663L57.8458 325.703C57.3018 326.353 56.6351 326.86 55.8458 327.223C55.0565 327.575 54.2085 327.751 53.3018 327.751ZM60.0696 325.095C60.0696 325.479 60.2296 325.799 60.5496 326.055C60.8802 326.311 61.2642 326.439 61.7016 326.439C62.3202 326.439 62.8696 326.209 63.3496 325.751C63.8402 325.292 64.0856 324.753 64.0856 324.135C63.6269 323.772 62.9869 323.591 62.1656 323.591C61.5682 323.591 61.0669 323.735 60.6616 324.023C60.2669 324.311 60.0696 324.668 60.0696 325.095ZM61.9736 319.399C63.0616 319.399 63.9202 319.692 64.5496 320.279C65.1789 320.855 65.4936 321.649 65.4936 322.663V327.495H64.0856V326.407H64.0216C63.4136 327.303 62.6029 327.751 61.5896 327.751C60.7256 327.751 60.0002 327.495 59.4136 326.983C58.8376 326.471 58.5496 325.831 58.5496 325.063C58.5496 324.252 58.8536 323.607 59.4616 323.127C60.0802 322.647 60.9016 322.407 61.9256 322.407C62.8002 322.407 63.5202 322.567 64.0856 322.887V322.551C64.0856 322.039 63.8829 321.607 63.4776 321.255C63.0722 320.892 62.5976 320.711 62.0536 320.711C61.2322 320.711 60.5816 321.057 60.1016 321.751L58.8056 320.935C59.5202 319.911 60.5762 319.399 61.9736 319.399ZM73.0757 325.319C73.0757 326.001 72.777 326.577 72.1797 327.047C71.5824 327.516 70.8304 327.751 69.9237 327.751C69.1344 327.751 68.441 327.548 67.8437 327.143C67.2464 326.727 66.8197 326.183 66.5637 325.511L67.8757 324.951C68.0677 325.42 68.345 325.788 68.7077 326.055C69.081 326.311 69.4864 326.439 69.9237 326.439C70.393 326.439 70.7824 326.337 71.0917 326.135C71.4117 325.932 71.5717 325.692 71.5717 325.415C71.5717 324.913 71.1877 324.545 70.4197 324.311L69.0757 323.975C67.5504 323.591 66.7877 322.855 66.7877 321.767C66.7877 321.052 67.0757 320.481 67.6517 320.055C68.2384 319.617 68.985 319.399 69.8917 319.399C70.585 319.399 71.209 319.564 71.7637 319.895C72.329 320.225 72.7237 320.668 72.9477 321.223L71.6357 321.767C71.4864 321.436 71.241 321.18 70.8997 320.999C70.569 320.807 70.1957 320.711 69.7797 320.711C69.3957 320.711 69.049 320.807 68.7397 320.999C68.441 321.191 68.2917 321.425 68.2917 321.703C68.2917 322.151 68.713 322.471 69.5557 322.663L70.7397 322.967C72.297 323.351 73.0757 324.135 73.0757 325.319ZM74.3569 316.039H75.8289V319.655L75.7649 320.743H75.8289C76.0529 320.359 76.3943 320.039 76.8529 319.783C77.3223 319.527 77.8076 319.399 78.3089 319.399C79.2689 319.399 80.0049 319.676 80.5169 320.231C81.0396 320.775 81.3009 321.553 81.3009 322.567V327.495H79.8289V322.855C79.8289 321.447 79.2049 320.743 77.9569 320.743C77.3596 320.743 76.8529 320.993 76.4369 321.495C76.0316 321.985 75.8289 322.561 75.8289 323.223V327.495H74.3569V316.039ZM88.2724 322.855V327.495H86.8004V316.039H90.7044C91.6964 316.039 92.5391 316.369 93.2324 317.031C93.9364 317.692 94.2884 318.497 94.2884 319.447C94.2884 320.417 93.9364 321.228 93.2324 321.879C92.5498 322.529 91.7071 322.855 90.7044 322.855H88.2724ZM88.2724 317.447V321.447H90.7364C91.3231 321.447 91.8084 321.249 92.1924 320.855C92.5871 320.46 92.7844 319.991 92.7844 319.447C92.7844 318.913 92.5871 318.449 92.1924 318.055C91.8084 317.649 91.3231 317.447 90.7364 317.447H88.2724ZM96.3352 325.095C96.3352 325.479 96.4952 325.799 96.8152 326.055C97.1459 326.311 97.5299 326.439 97.9672 326.439C98.5859 326.439 99.1352 326.209 99.6152 325.751C100.106 325.292 100.351 324.753 100.351 324.135C99.8925 323.772 99.2525 323.591 98.4312 323.591C97.8339 323.591 97.3325 323.735 96.9272 324.023C96.5325 324.311 96.3352 324.668 96.3352 325.095ZM98.2392 319.399C99.3272 319.399 100.186 319.692 100.815 320.279C101.445 320.855 101.759 321.649 101.759 322.663V327.495H100.351V326.407H100.287C99.6792 327.303 98.8685 327.751 97.8552 327.751C96.9912 327.751 96.2659 327.495 95.6792 326.983C95.1032 326.471 94.8152 325.831 94.8152 325.063C94.8152 324.252 95.1192 323.607 95.7272 323.127C96.3459 322.647 97.1672 322.407 98.1912 322.407C99.0659 322.407 99.7859 322.567 100.351 322.887V322.551C100.351 322.039 100.149 321.607 99.7432 321.255C99.3379 320.892 98.8632 320.711 98.3192 320.711C97.4979 320.711 96.8472 321.057 96.3672 321.751L95.0712 320.935C95.7859 319.911 96.8419 319.399 98.2392 319.399ZM110.271 319.655L105.359 330.951H103.839L105.663 326.999L102.431 319.655H104.031L106.367 325.287H106.399L108.671 319.655H110.271ZM110.471 323.575C110.471 322.369 110.85 321.372 111.607 320.583C112.375 319.793 113.341 319.399 114.503 319.399C115.666 319.399 116.626 319.793 117.383 320.583C118.151 321.372 118.535 322.369 118.535 323.575C118.535 324.791 118.151 325.788 117.383 326.567C116.626 327.356 115.666 327.751 114.503 327.751C113.341 327.751 112.375 327.356 111.607 326.567C110.85 325.777 110.471 324.78 110.471 323.575ZM111.943 323.575C111.943 324.417 112.189 325.1 112.679 325.623C113.17 326.145 113.778 326.407 114.503 326.407C115.229 326.407 115.837 326.145 116.327 325.623C116.818 325.1 117.063 324.417 117.063 323.575C117.063 322.743 116.818 322.065 116.327 321.543C115.826 321.009 115.218 320.743 114.503 320.743C113.789 320.743 113.181 321.009 112.679 321.543C112.189 322.065 111.943 322.743 111.943 323.575ZM126.674 327.495H125.266V326.407H125.202C124.978 326.791 124.632 327.111 124.162 327.367C123.704 327.623 123.224 327.751 122.722 327.751C121.762 327.751 121.021 327.479 120.498 326.935C119.986 326.38 119.73 325.596 119.73 324.583V319.655H121.202V324.487C121.234 325.767 121.88 326.407 123.138 326.407C123.725 326.407 124.216 326.172 124.61 325.703C125.005 325.223 125.202 324.652 125.202 323.991V319.655H126.674V327.495ZM131.648 327.623C131.008 327.623 130.475 327.425 130.048 327.031C129.632 326.636 129.419 326.087 129.408 325.383V320.999H128.032V319.655H129.408V317.255H130.88V319.655H132.8V320.999H130.88V324.903C130.88 325.425 130.982 325.783 131.184 325.975C131.387 326.156 131.616 326.247 131.872 326.247C131.99 326.247 132.102 326.236 132.208 326.215C132.326 326.183 132.432 326.145 132.528 326.103L132.992 327.415C132.608 327.553 132.16 327.623 131.648 327.623ZM140.357 325.319C140.357 326.001 140.058 326.577 139.461 327.047C138.864 327.516 138.112 327.751 137.205 327.751C136.416 327.751 135.722 327.548 135.125 327.143C134.528 326.727 134.101 326.183 133.845 325.511L135.157 324.951C135.349 325.42 135.626 325.788 135.989 326.055C136.362 326.311 136.768 326.439 137.205 326.439C137.674 326.439 138.064 326.337 138.373 326.135C138.693 325.932 138.853 325.692 138.853 325.415C138.853 324.913 138.469 324.545 137.701 324.311L136.357 323.975C134.832 323.591 134.069 322.855 134.069 321.767C134.069 321.052 134.357 320.481 134.933 320.055C135.52 319.617 136.266 319.399 137.173 319.399C137.866 319.399 138.49 319.564 139.045 319.895C139.61 320.225 140.005 320.668 140.229 321.223L138.917 321.767C138.768 321.436 138.522 321.18 138.181 320.999C137.85 320.807 137.477 320.711 137.061 320.711C136.677 320.711 136.33 320.807 136.021 320.999C135.722 321.191 135.573 321.425 135.573 321.703C135.573 322.151 135.994 322.471 136.837 322.663L138.021 322.967C139.578 323.351 140.357 324.135 140.357 325.319Z" fill="#1B2767"/>
<path fill-rule="evenodd" clip-rule="evenodd" d="M38.5066 348.317C38.812 348.596 38.8329 349.071 38.5531 349.376C37.6883 350.32 37.2724 350.896 36.6478 352.014C36.4119 352.436 36.1507 353.021 35.9425 353.519C35.84 353.764 35.7531 353.981 35.6919 354.137C35.6613 354.215 35.6372 354.277 35.6209 354.32L35.6024 354.368L35.5979 354.38L35.5968 354.383C35.5037 354.631 35.2871 354.811 35.027 354.858C34.7668 354.904 34.5013 354.811 34.3281 354.611L32.1835 352.139C31.9121 351.827 31.9456 351.353 32.2585 351.081C32.5714 350.81 33.045 350.844 33.3165 351.156L34.6588 352.703C34.857 352.241 35.1008 351.707 35.3384 351.282C36.0197 350.063 36.5037 349.393 37.4469 348.363C37.7267 348.058 38.2011 348.037 38.5066 348.317Z" fill="#4A7EF6"/>
<path d="M51.9641 346.551V357.495H50.4921V348.375L48.3641 349.303L47.8041 348.055L51.0201 346.551H51.9641ZM61.6479 347.847L59.7759 353.015H63.5839L61.7119 347.847H61.6479ZM58.1599 357.495H56.5279L60.8479 346.039H62.5119L66.8319 357.495H65.1999L64.0959 354.391H59.2799L58.1599 357.495ZM71.2051 356.407C71.9304 356.407 72.5224 356.145 72.9811 355.623C73.4611 355.1 73.7011 354.417 73.7011 353.575C73.7011 352.753 73.4611 352.076 72.9811 351.543C72.5117 351.009 71.9197 350.743 71.2051 350.743C70.5011 350.743 69.9091 351.009 69.4291 351.543C68.9491 352.076 68.7091 352.753 68.7091 353.575C68.7091 354.407 68.9491 355.084 69.4291 355.607C69.9091 356.14 70.5011 356.407 71.2051 356.407ZM70.9651 357.751C69.9411 357.751 69.0611 357.345 68.3251 356.535C67.5997 355.713 67.2371 354.727 67.2371 353.575C67.2371 352.423 67.5997 351.436 68.3251 350.615C69.0611 349.804 69.9411 349.399 70.9651 349.399C71.5411 349.399 72.0637 349.521 72.5331 349.767C73.0131 350.012 73.3811 350.337 73.6371 350.743H73.7011L73.6371 349.655V346.039H75.1091V357.495H73.7011V356.407H73.6371C73.3811 356.812 73.0131 357.137 72.5331 357.383C72.0637 357.628 71.5411 357.751 70.9651 357.751ZM78.3758 357.495H76.9038V349.655H78.3118V350.743H78.3758C78.5998 350.359 78.9411 350.039 79.3998 349.783C79.8691 349.527 80.3331 349.399 80.7918 349.399C81.3678 349.399 81.8745 349.532 82.3118 349.799C82.7491 350.065 83.0691 350.433 83.2718 350.903C83.9225 349.9 84.8238 349.399 85.9758 349.399C86.8825 349.399 87.5811 349.676 88.0718 350.231C88.5625 350.785 88.8078 351.575 88.8078 352.599V357.495H87.3358V352.823C87.3358 352.087 87.2025 351.559 86.9358 351.239C86.6691 350.908 86.2211 350.743 85.5918 350.743C85.0265 350.743 84.5518 350.983 84.1678 351.463C83.7838 351.943 83.5918 352.508 83.5918 353.159V357.495H82.1198V352.823C82.1198 352.087 81.9865 351.559 81.7198 351.239C81.4531 350.908 81.0051 350.743 80.3758 350.743C79.8105 350.743 79.3358 350.983 78.9518 351.463C78.5678 351.943 78.3758 352.508 78.3758 353.159V357.495ZM92.4328 346.951C92.4328 347.239 92.3315 347.484 92.1288 347.687C91.9261 347.889 91.6808 347.991 91.3928 347.991C91.1048 347.991 90.8595 347.889 90.6568 347.687C90.4541 347.484 90.3528 347.239 90.3528 346.951C90.3528 346.663 90.4541 346.417 90.6568 346.215C90.8595 346.012 91.1048 345.911 91.3928 345.911C91.6808 345.911 91.9261 346.012 92.1288 346.215C92.3315 346.417 92.4328 346.663 92.4328 346.951ZM92.1288 349.655V357.495H90.6568V349.655H92.1288ZM94.0444 349.655H95.4524V350.743H95.5164C95.7404 350.359 96.0818 350.039 96.5404 349.783C97.0098 349.527 97.4951 349.399 97.9964 349.399C98.9564 349.399 99.6924 349.676 100.204 350.231C100.727 350.775 100.988 351.553 100.988 352.567V357.495H99.5164V352.663C99.4844 351.383 98.8391 350.743 97.5804 350.743C96.9938 350.743 96.5031 350.983 96.1084 351.463C95.7138 351.932 95.5164 352.497 95.5164 353.159V357.495H94.0444V349.655ZM110.164 347.847L108.292 353.015H112.1L110.228 347.847H110.164ZM106.676 357.495H105.044L109.364 346.039H111.028L115.348 357.495H113.716L112.612 354.391H107.796L106.676 357.495ZM119.785 357.751C118.622 357.751 117.657 357.356 116.889 356.567C116.131 355.756 115.753 354.759 115.753 353.575C115.753 352.369 116.131 351.372 116.889 350.583C117.657 349.793 118.622 349.399 119.785 349.399C120.585 349.399 121.283 349.601 121.881 350.007C122.478 350.401 122.926 350.951 123.225 351.655L121.881 352.215C121.465 351.233 120.734 350.743 119.689 350.743C119.017 350.743 118.435 351.015 117.945 351.559C117.465 352.103 117.225 352.775 117.225 353.575C117.225 354.375 117.465 355.047 117.945 355.591C118.435 356.135 119.017 356.407 119.689 356.407C120.766 356.407 121.523 355.916 121.961 354.935L123.273 355.495C122.985 356.199 122.531 356.753 121.913 357.159C121.305 357.553 120.595 357.751 119.785 357.751ZM128.066 357.751C126.903 357.751 125.938 357.356 125.17 356.567C124.413 355.756 124.034 354.759 124.034 353.575C124.034 352.369 124.413 351.372 125.17 350.583C125.938 349.793 126.903 349.399 128.066 349.399C128.866 349.399 129.565 349.601 130.162 350.007C130.759 350.401 131.207 350.951 131.506 351.655L130.162 352.215C129.746 351.233 129.015 350.743 127.97 350.743C127.298 350.743 126.717 351.015 126.226 351.559C125.746 352.103 125.506 352.775 125.506 353.575C125.506 354.375 125.746 355.047 126.226 355.591C126.717 356.135 127.298 356.407 127.97 356.407C129.047 356.407 129.805 355.916 130.242 354.935L131.554 355.495C131.266 356.199 130.813 356.753 130.194 357.159C129.586 357.553 128.877 357.751 128.066 357.751ZM132.315 353.575C132.315 352.369 132.694 351.372 133.451 350.583C134.219 349.793 135.185 349.399 136.347 349.399C137.51 349.399 138.47 349.793 139.227 350.583C139.995 351.372 140.379 352.369 140.379 353.575C140.379 354.791 139.995 355.788 139.227 356.567C138.47 357.356 137.51 357.751 136.347 357.751C135.185 357.751 134.219 357.356 133.451 356.567C132.694 355.777 132.315 354.78 132.315 353.575ZM133.787 353.575C133.787 354.417 134.033 355.1 134.523 355.623C135.014 356.145 135.622 356.407 136.347 356.407C137.073 356.407 137.681 356.145 138.171 355.623C138.662 355.1 138.907 354.417 138.907 353.575C138.907 352.743 138.662 352.065 138.171 351.543C137.67 351.009 137.062 350.743 136.347 350.743C135.633 350.743 135.025 351.009 134.523 351.543C134.033 352.065 133.787 352.743 133.787 353.575ZM148.518 357.495H147.11V356.407H147.046C146.822 356.791 146.476 357.111 146.006 357.367C145.548 357.623 145.068 357.751 144.566 357.751C143.606 357.751 142.865 357.479 142.342 356.935C141.83 356.38 141.574 355.596 141.574 354.583V349.655H143.046V354.487C143.078 355.767 143.724 356.407 144.982 356.407C145.569 356.407 146.06 356.172 146.454 355.703C146.849 355.223 147.046 354.652 147.046 353.991V349.655H148.518V357.495ZM150.31 349.655H151.718V350.743H151.782C152.006 350.359 152.347 350.039 152.806 349.783C153.275 349.527 153.761 349.399 154.262 349.399C155.222 349.399 155.958 349.676 156.47 350.231C156.993 350.775 157.254 351.553 157.254 352.567V357.495H155.782V352.663C155.75 351.383 155.105 350.743 153.846 350.743C153.259 350.743 152.769 350.983 152.374 351.463C151.979 351.932 151.782 352.497 151.782 353.159V357.495H150.31V349.655ZM161.68 357.623C161.04 357.623 160.506 357.425 160.08 357.031C159.664 356.636 159.45 356.087 159.44 355.383V350.999H158.064V349.655H159.44V347.255H160.912V349.655H162.832V350.999H160.912V354.903C160.912 355.425 161.013 355.783 161.216 355.975C161.418 356.156 161.648 356.247 161.904 356.247C162.021 356.247 162.133 356.236 162.24 356.215C162.357 356.183 162.464 356.145 162.56 356.103L163.024 357.415C162.64 357.553 162.192 357.623 161.68 357.623Z" fill="#1B2767"/>
<rect x="32" y="386.495" width="232" height="52" rx="8" fill="#43B6FA"/>
<path d="M122.417 418.751C121.148 418.751 120.124 418.335 119.345 417.503C118.567 416.681 118.177 415.593 118.177 414.239V407.039H119.649V414.303C119.649 415.241 119.895 415.983 120.385 416.527C120.876 417.071 121.553 417.343 122.417 417.343C123.281 417.343 123.959 417.071 124.449 416.527C124.94 415.983 125.185 415.241 125.185 414.303V407.039H126.657V414.239C126.657 415.625 126.273 416.724 125.505 417.535C124.737 418.345 123.708 418.751 122.417 418.751ZM132.533 417.407C133.237 417.407 133.829 417.14 134.309 416.607C134.789 416.084 135.029 415.407 135.029 414.575C135.029 413.753 134.789 413.076 134.309 412.543C133.829 412.009 133.237 411.743 132.533 411.743C131.818 411.743 131.221 412.009 130.741 412.543C130.272 413.076 130.037 413.753 130.037 414.575C130.037 415.407 130.272 416.089 130.741 416.623C131.221 417.145 131.818 417.407 132.533 417.407ZM132.773 418.751C132.197 418.751 131.669 418.628 131.189 418.383C130.72 418.137 130.357 417.812 130.101 417.407H130.037L130.101 418.495V421.951H128.629V410.655H130.037V411.743H130.101C130.357 411.337 130.72 411.012 131.189 410.767C131.669 410.521 132.197 410.399 132.773 410.399C133.808 410.399 134.682 410.804 135.397 411.615C136.133 412.436 136.501 413.423 136.501 414.575C136.501 415.737 136.133 416.724 135.397 417.535C134.682 418.345 133.808 418.751 132.773 418.751ZM141.619 417.407C142.344 417.407 142.936 417.145 143.395 416.623C143.875 416.1 144.115 415.417 144.115 414.575C144.115 413.753 143.875 413.076 143.395 412.543C142.926 412.009 142.334 411.743 141.619 411.743C140.915 411.743 140.323 412.009 139.843 412.543C139.363 413.076 139.123 413.753 139.123 414.575C139.123 415.407 139.363 416.084 139.843 416.607C140.323 417.14 140.915 417.407 141.619 417.407ZM141.571 422.207C141.134 422.207 140.723 422.148 140.339 422.031C139.955 421.924 139.603 421.769 139.283 421.567C138.974 421.364 138.707 421.124 138.483 420.847C138.259 420.569 138.088 420.26 137.971 419.919L139.363 419.343C139.523 419.801 139.8 420.169 140.195 420.447C140.59 420.724 141.048 420.863 141.571 420.863C142.371 420.863 142.995 420.623 143.443 420.143C143.891 419.663 144.115 419.001 144.115 418.159V417.407H144.051C143.774 417.823 143.395 418.153 142.915 418.399C142.446 418.633 141.934 418.751 141.379 418.751C140.355 418.751 139.475 418.351 138.739 417.551C138.014 416.729 137.651 415.737 137.651 414.575C137.651 413.412 138.014 412.425 138.739 411.615C139.475 410.804 140.355 410.399 141.379 410.399C141.934 410.399 142.446 410.521 142.915 410.767C143.395 411.001 143.774 411.327 144.051 411.743H144.115V410.655H145.523V418.159C145.523 419.417 145.166 420.404 144.451 421.119C143.726 421.844 142.766 422.207 141.571 422.207ZM149.04 418.495H147.568V410.655H148.976V411.935H149.04C149.189 411.519 149.493 411.167 149.952 410.879C150.421 410.58 150.88 410.431 151.328 410.431C151.755 410.431 152.117 410.495 152.416 410.623L151.968 412.047C151.787 411.972 151.499 411.935 151.104 411.935C150.549 411.935 150.064 412.159 149.648 412.607C149.243 413.055 149.04 413.577 149.04 414.175V418.495ZM154.39 416.095C154.39 416.479 154.55 416.799 154.87 417.055C155.201 417.311 155.585 417.439 156.022 417.439C156.641 417.439 157.19 417.209 157.67 416.751C158.161 416.292 158.406 415.753 158.406 415.135C157.947 414.772 157.307 414.591 156.486 414.591C155.889 414.591 155.387 414.735 154.982 415.023C154.587 415.311 154.39 415.668 154.39 416.095ZM156.294 410.399C157.382 410.399 158.241 410.692 158.87 411.279C159.499 411.855 159.814 412.649 159.814 413.663V418.495H158.406V417.407H158.342C157.734 418.303 156.923 418.751 155.91 418.751C155.046 418.751 154.321 418.495 153.734 417.983C153.158 417.471 152.87 416.831 152.87 416.063C152.87 415.252 153.174 414.607 153.782 414.127C154.401 413.647 155.222 413.407 156.246 413.407C157.121 413.407 157.841 413.567 158.406 413.887V413.551C158.406 413.039 158.203 412.607 157.798 412.255C157.393 411.892 156.918 411.711 156.374 411.711C155.553 411.711 154.902 412.057 154.422 412.751L153.126 411.935C153.841 410.911 154.897 410.399 156.294 410.399ZM165.166 417.407C165.891 417.407 166.483 417.145 166.942 416.623C167.422 416.1 167.662 415.417 167.662 414.575C167.662 413.753 167.422 413.076 166.942 412.543C166.473 412.009 165.881 411.743 165.166 411.743C164.462 411.743 163.87 412.009 163.39 412.543C162.91 413.076 162.67 413.753 162.67 414.575C162.67 415.407 162.91 416.084 163.39 416.607C163.87 417.14 164.462 417.407 165.166 417.407ZM164.926 418.751C163.902 418.751 163.022 418.345 162.286 417.535C161.561 416.713 161.198 415.727 161.198 414.575C161.198 413.423 161.561 412.436 162.286 411.615C163.022 410.804 163.902 410.399 164.926 410.399C165.502 410.399 166.025 410.521 166.494 410.767C166.974 411.012 167.342 411.337 167.598 411.743H167.662L167.598 410.655V407.039H169.07V418.495H167.662V417.407H167.598C167.342 417.812 166.974 418.137 166.494 418.383C166.025 418.628 165.502 418.751 164.926 418.751ZM174.557 418.751C173.405 418.751 172.455 418.356 171.709 417.567C170.962 416.777 170.589 415.78 170.589 414.575C170.589 413.38 170.951 412.388 171.677 411.599C172.402 410.799 173.33 410.399 174.461 410.399C175.623 410.399 176.546 410.777 177.229 411.535C177.922 412.281 178.269 413.332 178.269 414.687L178.253 414.847H172.093C172.114 415.615 172.37 416.233 172.861 416.703C173.351 417.172 173.938 417.407 174.621 417.407C175.559 417.407 176.295 416.937 176.829 415.999L178.141 416.639C177.789 417.3 177.298 417.817 176.669 418.191C176.05 418.564 175.346 418.751 174.557 418.751ZM172.205 413.631H176.701C176.658 413.087 176.434 412.639 176.029 412.287C175.634 411.924 175.101 411.743 174.429 411.743C173.874 411.743 173.394 411.913 172.989 412.255C172.594 412.596 172.333 413.055 172.205 413.631Z" fill="white"/>
<defs>
<linearGradient id="paint0_linear_2765_34446" x1="32.0089" y1="51.4757" x2="149.027" y2="51.4757" gradientUnits="userSpaceOnUse">
<stop stop-color="#3FDAFF"/>
<stop offset="0.2368" stop-color="#40D2FC"/>
<stop offset="0.4074" stop-color="#43B6FA"/>
<stop offset="0.7741" stop-color="#4C6DF5"/>
<stop offset="1" stop-color="#523EF1"/>
</linearGradient>
</defs>
</svg>
