<svg width="148" height="148" viewBox="0 0 148 148" fill="none" xmlns="http://www.w3.org/2000/svg">
<g opacity="0.3">
<path d="M6.10352e-05 0H4.00006V4H6.10352e-05V0Z" fill="#43B6FA"/>
<path d="M24.0001 0H28.0001V4H24.0001V0Z" fill="#43B6FA"/>
<path d="M48.0001 0H52.0001V4H48.0001V0Z" fill="#43B6FA"/>
<path d="M72.0001 0H76.0001V4H72.0001V0Z" fill="#43B6FA"/>
<path d="M96.0001 0H100V4H96.0001V0Z" fill="#43B6FA"/>
<path d="M120 0H124V4H120V0Z" fill="#43B6FA"/>
<path d="M144 0H148V4H144V0Z" fill="#43B6FA"/>
<path d="M6.10352e-05 24H4.00006V28H6.10352e-05V24Z" fill="#43B6FA"/>
<path d="M24.0001 24H28.0001V28H24.0001V24Z" fill="#43B6FA"/>
<path d="M48.0001 24H52.0001V28H48.0001V24Z" fill="#43B6FA"/>
<path d="M72.0001 24H76.0001V28H72.0001V24Z" fill="#43B6FA"/>
<path d="M96.0001 24H100V28H96.0001V24Z" fill="#43B6FA"/>
<path d="M120 24H124V28H120V24Z" fill="#43B6FA"/>
<path d="M144 24H148V28H144V24Z" fill="#43B6FA"/>
<path d="M6.10352e-05 48H4.00006V52H6.10352e-05V48Z" fill="#43B6FA"/>
<path d="M24.0001 48H28.0001V52H24.0001V48Z" fill="#43B6FA"/>
<path d="M48.0001 48H52.0001V52H48.0001V48Z" fill="#43B6FA"/>
<path d="M72.0001 48H76.0001V52H72.0001V48Z" fill="#43B6FA"/>
<path d="M96.0001 48H100V52H96.0001V48Z" fill="#43B6FA"/>
<path d="M120 48H124V52H120V48Z" fill="#43B6FA"/>
<path d="M144 48H148V52H144V48Z" fill="#43B6FA"/>
<path d="M6.10352e-05 72H4.00006V76H6.10352e-05V72Z" fill="#43B6FA"/>
<path d="M24.0001 72H28.0001V76H24.0001V72Z" fill="#43B6FA"/>
<path d="M48.0001 72H52.0001V76H48.0001V72Z" fill="#43B6FA"/>
<path d="M72.0001 72H76.0001V76H72.0001V72Z" fill="#43B6FA"/>
<path d="M96.0001 72H100V76H96.0001V72Z" fill="#43B6FA"/>
<path d="M120 72H124V76H120V72Z" fill="#43B6FA"/>
<path d="M144 72H148V76H144V72Z" fill="#43B6FA"/>
<path d="M6.10352e-05 96H4.00006V100H6.10352e-05V96Z" fill="#43B6FA"/>
<path d="M24.0001 96H28.0001V100H24.0001V96Z" fill="#43B6FA"/>
<path d="M48.0001 96H52.0001V100H48.0001V96Z" fill="#43B6FA"/>
<path d="M72.0001 96H76.0001V100H72.0001V96Z" fill="#43B6FA"/>
<path d="M96.0001 96H100V100H96.0001V96Z" fill="#43B6FA"/>
<path d="M120 96H124V100H120V96Z" fill="#43B6FA"/>
<path d="M144 96H148V100H144V96Z" fill="#43B6FA"/>
<path d="M6.10352e-05 120H4.00006V124H6.10352e-05V120Z" fill="#43B6FA"/>
<path d="M24.0001 120H28.0001V124H24.0001V120Z" fill="#43B6FA"/>
<path d="M48.0001 120H52.0001V124H48.0001V120Z" fill="#43B6FA"/>
<path d="M72.0001 120H76.0001V124H72.0001V120Z" fill="#43B6FA"/>
<path d="M96.0001 120H100V124H96.0001V120Z" fill="#43B6FA"/>
<path d="M120 120H124V124H120V120Z" fill="#43B6FA"/>
<path d="M144 120H148V124H144V120Z" fill="#43B6FA"/>
<path d="M6.10352e-05 144H4.00006V148H6.10352e-05V144Z" fill="#43B6FA"/>
<path d="M24.0001 144H28.0001V148H24.0001V144Z" fill="#43B6FA"/>
<path d="M48.0001 144H52.0001V148H48.0001V144Z" fill="#43B6FA"/>
<path d="M72.0001 144H76.0001V148H72.0001V144Z" fill="#43B6FA"/>
<path d="M96.0001 144H100V148H96.0001V144Z" fill="#43B6FA"/>
<path d="M120 144H124V148H120V144Z" fill="#43B6FA"/>
<path d="M144 144H148V148H144V144Z" fill="#43B6FA"/>
</g>
</svg>
