<svg width="17" height="16" viewBox="0 0 17 16" fill="none" xmlns="http://www.w3.org/2000/svg">
<path d="M1.75919 4.22875L7.75919 7.45195C7.96079 7.55995 8.22159 7.61115 8.48399 7.61115C8.74639 7.61115 9.00719 7.55995 9.20879 7.45195L15.2088 4.22875C15.6 4.01835 15.9696 3.19995 15.252 3.19995H1.71679C0.999189 3.19995 1.36879 4.01835 1.75919 4.22875ZM15.3904 5.99115L9.20879 9.21275C8.93679 9.35515 8.74639 9.37195 8.48399 9.37195C8.22159 9.37195 8.03119 9.35515 7.75919 9.21275C7.48719 9.07035 2.05279 6.22155 1.60879 5.99035C1.29679 5.82715 1.29999 6.01835 1.29999 6.16555V12C1.29999 12.336 1.75279 12.8 2.09999 12.8H14.9C15.2472 12.8 15.7 12.336 15.7 12V6.16635C15.7 6.01915 15.7032 5.82795 15.3904 5.99115Z" fill="#1B2767"/>
</svg>
