<svg width="42" height="42" viewBox="0 0 42 42" fill="none" xmlns="http://www.w3.org/2000/svg">
<circle cx="21" cy="21" r="21" fill="#1B2767"/>
<path fill-rule="evenodd" clip-rule="evenodd" d="M22.3751 31.995C22.3351 31.9852 22.2551 31.9216 22.1951 31.853C22.09 31.7404 22.08 31.7355 22.035 31.8138C21.985 31.8922 21.98 31.8922 21.885 31.7992C21.7749 31.6865 21.5949 31.1333 21.4898 30.6045C21.4548 30.4136 21.3648 29.9876 21.2998 29.6596C20.6646 26.624 20.1344 22.1 19.9994 18.5504C19.9594 17.4684 19.9244 16.7682 19.9044 16.5675C19.8944 16.4647 19.8844 16.1905 19.8844 15.9555C19.8844 15.7205 19.8644 15.5295 19.8394 15.5295C19.8194 15.5295 19.7293 15.6813 19.6443 15.8624C19.3242 16.5528 19.0541 17.0767 18.9791 17.155C18.8891 17.2529 18.7891 17.2627 18.8691 17.1697C18.8991 17.1305 18.9191 17.0767 18.9091 17.0424C18.8991 17.0081 18.8491 17.062 18.8041 17.155C18.704 17.3557 18.659 17.3949 18.484 17.3998C18.3939 17.4047 18.3389 17.3704 18.2989 17.3019C18.2439 17.1991 18.2339 17.1991 18.1139 17.2725C18.0438 17.3166 17.9638 17.3802 17.9338 17.4145C17.9038 17.4537 17.8538 17.4635 17.8188 17.4439C17.7788 17.4194 17.7688 17.4243 17.7888 17.4586C17.8088 17.4879 17.7988 17.5222 17.7688 17.5418C17.7387 17.5614 17.7037 17.532 17.6887 17.4781C17.6587 17.3606 17.5987 17.3508 17.5587 17.4537C17.5437 17.4928 17.4987 17.5173 17.4637 17.5026C17.4287 17.4879 17.3636 17.5222 17.3136 17.5712C17.2436 17.6495 17.1936 17.6593 17.0285 17.6397C16.8035 17.6103 16.6584 17.4781 16.6584 17.297V17.1795L16.5484 17.2774C16.4884 17.3313 16.4134 17.3753 16.3834 17.3753C16.2933 17.3753 16.0383 17.0424 16.0082 16.8857C15.9482 16.5773 16.2233 15.5687 16.5934 14.7315C17.1086 13.576 18.534 11.2161 18.9391 10.8538C18.9941 10.8048 19.1592 10.6285 19.2992 10.4719C19.4392 10.3103 19.6143 10.1536 19.6893 10.1145C19.8794 10.0214 20.0244 10.0312 20.0544 10.1389C20.0844 10.2515 20.1645 10.2564 20.3145 10.1438C20.3795 10.0949 20.4545 10.0655 20.4846 10.0753C20.5146 10.0851 20.5546 10.0704 20.5696 10.0459C20.6196 9.96757 20.7496 9.99205 20.8697 10.0998C20.9347 10.1585 20.9997 10.183 21.0147 10.1585C21.0947 10.0508 21.5199 10.1145 21.7049 10.2662C21.7499 10.3005 21.8049 10.3201 21.8249 10.3054C21.88 10.2711 21.94 10.3152 22.07 10.4963C22.13 10.5796 22.165 10.6677 22.15 10.6922C22.135 10.7167 22.135 10.8244 22.155 10.9321L22.1901 11.1279L22.2301 10.9909C22.2551 10.9125 22.2601 10.7803 22.2451 10.6922C22.2201 10.5551 22.2251 10.5404 22.2901 10.5894C22.3351 10.6236 22.3751 10.7705 22.3951 10.9566C22.4351 11.3287 22.4501 11.3678 22.6302 11.5833C22.7702 11.7497 22.9703 11.9945 23.1453 12.2149C23.1903 12.2736 23.2304 12.3373 23.2304 12.3569C23.2304 12.3764 23.2854 12.4499 23.3504 12.5184C23.4354 12.6066 23.4554 12.6506 23.4104 12.6751C23.3654 12.7045 23.3654 12.7094 23.4104 12.7094C23.4404 12.7094 23.4554 12.7387 23.4404 12.7779C23.4204 12.8269 23.4354 12.8416 23.4904 12.822C23.5705 12.7926 23.6405 12.9493 23.6105 13.0815C23.6005 13.1206 23.6305 13.15 23.6855 13.15C23.7355 13.15 23.7855 13.1794 23.8005 13.2137C23.8105 13.2479 23.8005 13.2626 23.7705 13.2479C23.7005 13.2088 23.7605 13.4095 23.8405 13.4878C23.8755 13.5221 23.9056 13.5907 23.9056 13.6396C23.9056 13.718 23.9556 13.7473 24.0556 13.7375C24.0706 13.7375 24.0856 13.7669 24.0806 13.811C24.0756 13.8551 24.1006 13.8893 24.1306 13.8893C24.2407 13.8893 24.2607 13.9628 24.1656 14.0313C24.1156 14.0705 24.1006 14.0901 24.1356 14.0754C24.1756 14.0558 24.2156 14.095 24.2507 14.188C24.3007 14.3202 24.3907 14.3838 24.3907 14.2859C24.3907 14.2614 24.3707 14.2418 24.3507 14.2418C24.3257 14.2418 24.2957 14.1978 24.2807 14.1488C24.2657 14.0901 24.2757 14.0607 24.3107 14.0705C24.3957 14.095 24.8758 15.0448 25.0309 15.4903C25.1059 15.7058 25.1859 15.9261 25.2059 15.9751C25.281 16.1513 25.396 16.4598 25.396 16.4842C25.396 16.5577 25.306 16.4842 25.261 16.3814C25.2359 16.3129 25.1959 16.215 25.1759 16.1611C25.1559 16.1121 25.1359 16.0485 25.1359 16.024C25.1309 15.9995 25.0959 15.9163 25.0509 15.838C25.0059 15.7596 24.9008 15.5295 24.8208 15.3141C24.7358 15.1036 24.6558 14.942 24.6408 14.9567C24.6258 14.9714 24.6908 15.1623 24.7858 15.3875C25.0959 16.1317 25.396 16.9004 25.416 16.9983C25.426 17.0522 25.466 17.1452 25.506 17.204C25.6261 17.3851 25.7911 17.9482 25.7961 18.1636C25.7961 18.4378 25.7361 18.8099 25.6911 18.8099C25.6711 18.8099 25.6361 18.7315 25.6111 18.6385C25.566 18.4672 25.406 18.3839 25.436 18.5455C25.446 18.5896 25.426 18.6238 25.401 18.6238C25.371 18.6238 25.351 18.6042 25.351 18.5749C25.351 18.5504 25.331 18.5406 25.301 18.5553C25.276 18.57 25.2509 18.6287 25.2509 18.6826C25.2509 18.7658 25.2409 18.7707 25.2059 18.7169C25.1659 18.6581 25.1609 18.663 25.1559 18.7413C25.1559 18.8099 25.1359 18.7952 25.0759 18.6777C25.0009 18.5357 24.9909 18.5308 24.9309 18.6042C24.8958 18.6483 24.8658 18.7315 24.8658 18.7805C24.8658 18.947 24.7958 19.0057 24.6308 18.9666C24.5457 18.947 24.4807 18.9127 24.4807 18.8882C24.4807 18.8637 24.4257 18.7854 24.3557 18.7169C24.2356 18.5993 24.2306 18.5993 24.2557 18.6973C24.2957 18.8588 24.1706 18.8246 24.0056 18.6287C23.9256 18.5357 23.8605 18.4378 23.8605 18.4182C23.8605 18.3986 23.8405 18.3545 23.8105 18.3252C23.7855 18.2958 23.6305 18.0608 23.4704 17.8062C23.0603 17.1599 22.7502 16.7242 22.7052 16.7242C22.6502 16.7242 22.6252 16.871 22.6602 16.9787C22.6802 17.0277 22.7052 17.4439 22.7252 17.8992C22.7702 19.0645 22.9253 21.7133 23.0653 23.6178C23.2604 26.2813 23.4254 29.0182 23.4254 29.6987C23.4254 30.4429 23.3404 31.3879 23.2704 31.4515C23.2354 31.4809 23.2304 31.4711 23.2554 31.4075C23.3204 31.2263 23.3454 29.6351 23.2904 28.8028C23.1953 27.2997 23.0203 24.9153 22.9453 24.0781C22.9053 23.608 22.7902 22.0413 22.7302 21.1747C22.7152 20.9739 22.6952 20.5137 22.6802 20.1612C22.6652 19.8038 22.6452 19.3093 22.6302 19.0547C22.6202 18.8001 22.5952 18.3154 22.5852 17.9727C22.5502 16.969 22.5051 16.4793 22.4451 16.3961C22.3801 16.308 22.3801 16.4402 22.4651 18.3448C22.5552 20.3326 22.6502 21.914 22.8002 23.8088C23.1003 27.7354 23.1953 29.1896 23.2003 30.0317C23.2053 31.0501 23.1703 31.6572 23.1003 31.7257C23.0703 31.7551 23.0503 31.4124 23.0503 30.6731C23.0503 30.0659 23.0153 29.1504 22.9703 28.6314C22.9303 28.1124 22.9053 27.662 22.9203 27.6277C22.9353 27.5934 22.9253 27.5298 22.9003 27.4857C22.8652 27.4172 22.5752 24.0781 22.4151 21.9189C22.3601 21.1306 22.2401 19.0008 22.1951 18.002C22.18 17.5957 22.145 16.9739 22.125 16.6213C22.09 16.0681 22.09 16.1268 22.105 17.0375C22.13 18.5112 22.2901 21.2579 22.4901 23.7451C22.5852 24.9006 22.6802 26.1344 22.7052 26.4869C22.7602 27.1968 22.7902 27.5787 22.8252 27.8921C22.9353 28.9007 23.0103 30.8444 22.9503 31.2018C22.9253 31.3389 22.9303 31.4564 22.9503 31.4711C22.9753 31.4858 22.9353 31.569 22.8653 31.6523C22.7502 31.7992 22.6552 31.8236 22.6552 31.7159C22.6552 31.6914 22.6752 31.6817 22.6952 31.6914C22.7152 31.7061 22.7352 31.6865 22.7352 31.6523C22.7352 31.618 22.7052 31.5984 22.6702 31.6131C22.6252 31.6278 22.6052 31.5984 22.6052 31.5152C22.6052 31.055 22.2701 27.6571 22.13 26.717C22.03 26.0463 22.09 26.8345 22.2251 27.9949C22.3051 28.6902 22.3801 29.4148 22.3901 29.6106C22.4001 29.8065 22.4201 29.9876 22.4351 30.0121C22.4501 30.0366 22.4651 30.1981 22.4651 30.3695C22.4651 30.5409 22.4801 30.957 22.4901 31.2949C22.5252 31.8971 22.5001 32.0293 22.3751 31.995ZM25.9261 18.428C25.9211 18.3643 25.9111 18.2468 25.9011 18.1636C25.8911 18.0804 25.9011 18.0118 25.9261 18.0118C25.9512 18.0118 25.9762 18.0461 25.9762 18.0902C25.9762 18.1342 25.9862 18.2077 25.9962 18.2566C26.0062 18.3056 25.9962 18.3888 25.9712 18.4427C25.9361 18.5406 25.9311 18.5406 25.9261 18.428ZM25.8611 17.9139C25.8511 17.8796 25.8011 17.7376 25.7561 17.6005C25.7061 17.4635 25.6711 17.3215 25.6711 17.2872C25.6711 17.2529 25.6561 17.2284 25.6361 17.2284C25.6161 17.2284 25.591 17.1893 25.576 17.1354C25.541 17.0081 25.6111 17.0179 25.6711 17.1452C25.7661 17.346 25.9361 17.9237 25.9061 17.9482C25.8961 17.9678 25.8761 17.9531 25.8611 17.9139ZM25.526 16.9298C25.481 16.8123 25.491 16.7829 25.551 16.8759C25.581 16.92 25.591 16.969 25.581 16.9836C25.566 16.9934 25.541 16.969 25.526 16.9298ZM25.406 16.6703C25.371 16.6164 25.351 16.5626 25.361 16.5528C25.396 16.5185 25.501 16.6654 25.486 16.7193C25.476 16.7486 25.441 16.7242 25.406 16.6703Z" fill="white"/>
</svg>
