<svg width="24" height="25" viewBox="0 0 24 25" fill="none" xmlns="http://www.w3.org/2000/svg">
<g clip-path="url(#clip0_3601_26170)">
<path d="M19.1698 13.1194V18.0667H16.3014V13.451C16.3014 12.292 15.8873 11.5005 14.8488 11.5005C14.0562 11.5005 13.5854 12.0334 13.3775 12.5493C13.302 12.7337 13.2825 12.9898 13.2825 13.2484V18.0665H10.4139C10.4139 18.0665 10.4525 10.2489 10.4139 9.43969H13.2827V10.6622C13.2769 10.6718 13.2688 10.6812 13.2637 10.6904H13.2827V10.6622C13.6639 10.0756 14.3437 9.23711 15.8678 9.23711C17.755 9.23711 19.1698 10.4701 19.1698 13.1194ZM7.4132 5.28125C6.43199 5.28125 5.79004 5.92534 5.79004 6.77157C5.79004 7.59984 6.41338 8.26253 7.37555 8.26253H7.39416C8.39462 8.26253 9.01668 7.59984 9.01668 6.77157C8.99764 5.92534 8.39462 5.28125 7.4132 5.28125ZM5.96053 18.0667H8.82801V9.43969H5.96053V18.0667Z" fill="white"/>
</g>
<defs>
<clipPath id="clip0_3601_26170">
<rect width="24" height="24" fill="white" transform="translate(0 0.153809)"/>
</clipPath>
</defs>
</svg>
