<svg width="24" height="25" viewBox="0 0 24 25" fill="none" xmlns="http://www.w3.org/2000/svg">
<path d="M18.7773 8.43345C18.4663 8.56374 18.1434 8.66653 17.812 8.74094C18.1771 8.41323 18.4516 8.00335 18.6065 7.54584C18.6507 7.41522 18.5005 7.30228 18.3757 7.37221C17.9147 7.63047 17.4182 7.82421 16.8999 7.94812C16.8698 7.95531 16.8388 7.95895 16.8077 7.95895C16.7133 7.95895 16.6215 7.92584 16.5493 7.86574C15.9978 7.40665 15.2886 7.15381 14.5522 7.15381C14.2336 7.15381 13.9119 7.20072 13.596 7.29325C12.6173 7.57998 11.8622 8.34253 11.6253 9.28334C11.5364 9.63623 11.5123 9.98943 11.5537 10.3331C11.5584 10.3726 11.5387 10.4002 11.5265 10.4131C11.5051 10.4358 11.4747 10.4488 11.4432 10.4488C11.4397 10.4488 11.4361 10.4486 11.4325 10.4483C9.29022 10.2603 7.3584 9.2854 5.9929 7.70324C5.92326 7.62254 5.78973 7.63244 5.73423 7.72236C5.46683 8.15569 5.32552 8.65131 5.32552 9.15563C5.32552 9.92853 5.65426 10.6569 6.22528 11.1879C5.98515 11.1341 5.75273 11.0494 5.53684 10.9361C5.43239 10.8813 5.30388 10.9518 5.30241 11.0646C5.28746 12.2128 5.99914 13.2345 7.06527 13.6946C7.0438 13.695 7.02233 13.6953 7.00082 13.6953C6.83183 13.6953 6.66072 13.6799 6.4923 13.6494C6.37468 13.6282 6.27586 13.7336 6.31238 13.8414C6.65843 14.8618 7.58863 15.614 8.70179 15.7848C7.77794 16.3706 6.70209 16.6796 5.58234 16.6796L5.23326 16.6794C5.1257 16.6794 5.03474 16.7457 5.00733 16.8441C4.98033 16.941 5.03006 17.0432 5.12178 17.0936C6.38355 17.7872 7.82279 18.1538 9.28452 18.1538C10.564 18.1538 11.7609 17.914 12.8419 17.441C13.8329 17.0074 14.7086 16.3875 15.4447 15.5987C16.1305 14.8638 16.6667 14.0155 17.0385 13.0773C17.3929 12.183 17.5802 11.2288 17.5802 10.3178V10.2744C17.5802 10.1281 17.6502 9.99047 17.7724 9.89677C18.2361 9.54115 18.6399 9.12252 18.9725 8.65253C19.0604 8.52843 18.9219 8.3729 18.7773 8.43345Z" fill="white"/>
</svg>
