<svg width="106" height="106" viewBox="0 0 106 106" fill="none" xmlns="http://www.w3.org/2000/svg">
<g opacity="0.3">
<path d="M34.6815 0.976562L36.5827 1.8875L35.6717 3.78864L33.7706 2.87769L34.6815 0.976562Z" fill="#43B6FA"/>
<path d="M46.0883 6.44222L47.9894 7.35316L47.0785 9.25429L45.1774 8.34335L46.0883 6.44222Z" fill="#43B6FA"/>
<path d="M57.4951 11.9079L59.3962 12.8188L58.4853 14.7199L56.5842 13.809L57.4951 11.9079Z" fill="#43B6FA"/>
<path d="M68.9019 17.3735L70.803 18.2845L69.8921 20.1856L67.991 19.2747L68.9019 17.3735Z" fill="#43B6FA"/>
<path d="M80.3087 22.8392L82.2098 23.7501L81.2989 25.6512L79.3978 24.7403L80.3087 22.8392Z" fill="#43B6FA"/>
<path d="M91.7155 28.3048L93.6166 29.2158L92.7057 31.1169L90.8045 30.206L91.7155 28.3048Z" fill="#43B6FA"/>
<path d="M103.122 33.7705L105.023 34.6814L104.112 36.5826L102.211 35.6716L103.122 33.7705Z" fill="#43B6FA"/>
<path d="M29.2159 12.3834L31.117 13.2943L30.2061 15.1954L28.3049 14.2845L29.2159 12.3834Z" fill="#43B6FA"/>
<path d="M40.6227 17.849L42.5238 18.76L41.6128 20.6611L39.7117 19.7501L40.6227 17.849Z" fill="#43B6FA"/>
<path d="M52.0295 23.3147L53.9306 24.2256L53.0196 26.1267L51.1185 25.2158L52.0295 23.3147Z" fill="#43B6FA"/>
<path d="M63.4362 28.7803L65.3374 29.6913L64.4264 31.5924L62.5253 30.6814L63.4362 28.7803Z" fill="#43B6FA"/>
<path d="M74.843 34.246L76.7442 35.1569L75.8332 37.058L73.9321 36.1471L74.843 34.246Z" fill="#43B6FA"/>
<path d="M86.2498 39.7116L88.151 40.6226L87.24 42.5237L85.3389 41.6128L86.2498 39.7116Z" fill="#43B6FA"/>
<path d="M97.6566 45.1773L99.5578 46.0882L98.6468 47.9893L96.7457 47.0784L97.6566 45.1773Z" fill="#43B6FA"/>
<path d="M23.7502 23.7901L25.6513 24.7011L24.7404 26.6022L22.8393 25.6913L23.7502 23.7901Z" fill="#43B6FA"/>
<path d="M35.157 29.2558L37.0581 30.1667L36.1472 32.0679L34.2461 31.1569L35.157 29.2558Z" fill="#43B6FA"/>
<path d="M46.5638 34.7215L48.4649 35.6324L47.554 37.5335L45.6529 36.6226L46.5638 34.7215Z" fill="#43B6FA"/>
<path d="M57.9706 40.1871L59.8717 41.0981L58.9608 42.9992L57.0597 42.0882L57.9706 40.1871Z" fill="#43B6FA"/>
<path d="M69.3774 45.6528L71.2785 46.5637L70.3676 48.4648L68.4664 47.5539L69.3774 45.6528Z" fill="#43B6FA"/>
<path d="M80.7842 51.1184L82.6853 52.0294L81.7744 53.9305L79.8732 53.0195L80.7842 51.1184Z" fill="#43B6FA"/>
<path d="M92.191 56.5841L94.0921 57.495L93.1812 59.3961L91.28 58.4852L92.191 56.5841Z" fill="#43B6FA"/>
<path d="M18.2846 35.1969L20.1857 36.1079L19.2747 38.009L17.3736 37.0981L18.2846 35.1969Z" fill="#43B6FA"/>
<path d="M29.6914 40.6626L31.5925 41.5735L30.6815 43.4747L28.7804 42.5637L29.6914 40.6626Z" fill="#43B6FA"/>
<path d="M41.0981 46.1282L42.9993 47.0392L42.0883 48.9403L40.1872 48.0294L41.0981 46.1282Z" fill="#43B6FA"/>
<path d="M52.5049 51.5939L54.4061 52.5048L53.4951 54.406L51.594 53.495L52.5049 51.5939Z" fill="#43B6FA"/>
<path d="M63.9117 57.0596L65.8129 57.9705L64.9019 59.8716L63.0008 58.9607L63.9117 57.0596Z" fill="#43B6FA"/>
<path d="M75.3185 62.5252L77.2197 63.4361L76.3087 65.3373L74.4076 64.4263L75.3185 62.5252Z" fill="#43B6FA"/>
<path d="M86.7253 67.9909L88.6265 68.9018L87.7155 70.8029L85.8144 69.892L86.7253 67.9909Z" fill="#43B6FA"/>
<path d="M12.8189 46.6037L14.72 47.5147L13.8091 49.4158L11.908 48.5049L12.8189 46.6037Z" fill="#43B6FA"/>
<path d="M24.2257 52.0694L26.1268 52.9803L25.2159 54.8815L23.3148 53.9705L24.2257 52.0694Z" fill="#43B6FA"/>
<path d="M35.6325 57.535L37.5336 58.446L36.6227 60.3471L34.7216 59.4362L35.6325 57.535Z" fill="#43B6FA"/>
<path d="M47.0393 63.0007L48.9404 63.9116L48.0295 65.8128L46.1283 64.9018L47.0393 63.0007Z" fill="#43B6FA"/>
<path d="M58.4461 68.4663L60.3472 69.3773L59.4363 71.2784L57.5351 70.3675L58.4461 68.4663Z" fill="#43B6FA"/>
<path d="M69.8529 73.932L71.754 74.8429L70.8431 76.7441L68.9419 75.8331L69.8529 73.932Z" fill="#43B6FA"/>
<path d="M81.2597 79.3977L83.1608 80.3086L82.2499 82.2097L80.3487 81.2988L81.2597 79.3977Z" fill="#43B6FA"/>
<path d="M7.35326 58.0105L9.25439 58.9215L8.34344 60.8226L6.44231 59.9117L7.35326 58.0105Z" fill="#43B6FA"/>
<path d="M18.76 63.4762L20.6612 64.3871L19.7502 66.2883L17.8491 65.3773L18.76 63.4762Z" fill="#43B6FA"/>
<path d="M30.1668 68.9418L32.068 69.8528L31.157 71.7539L29.2559 70.843L30.1668 68.9418Z" fill="#43B6FA"/>
<path d="M41.5736 74.4075L43.4748 75.3184L42.5638 77.2196L40.6627 76.3086L41.5736 74.4075Z" fill="#43B6FA"/>
<path d="M52.9804 79.8731L54.8816 80.7841L53.9706 82.6852L52.0695 81.7743L52.9804 79.8731Z" fill="#43B6FA"/>
<path d="M64.3872 85.3388L66.2884 86.2497L65.3774 88.1509L63.4763 87.2399L64.3872 85.3388Z" fill="#43B6FA"/>
<path d="M75.794 90.8044L77.6952 91.7154L76.7842 93.6165L74.8831 92.7056L75.794 90.8044Z" fill="#43B6FA"/>
<path d="M1.8876 69.4173L3.78873 70.3283L2.87779 72.2294L0.976659 71.3185L1.8876 69.4173Z" fill="#43B6FA"/>
<path d="M13.2944 74.883L15.1955 75.7939L14.2846 77.6951L12.3835 76.7841L13.2944 74.883Z" fill="#43B6FA"/>
<path d="M24.7012 80.3486L26.6023 81.2596L25.6914 83.1607L23.7902 82.2498L24.7012 80.3486Z" fill="#43B6FA"/>
<path d="M36.108 85.8143L38.0091 86.7252L37.0982 88.6264L35.197 87.7154L36.108 85.8143Z" fill="#43B6FA"/>
<path d="M47.5148 91.2799L49.4159 92.1909L48.505 94.092L46.6038 93.1811L47.5148 91.2799Z" fill="#43B6FA"/>
<path d="M58.9216 96.7456L60.8227 97.6565L59.9118 99.5577L58.0106 98.6467L58.9216 96.7456Z" fill="#43B6FA"/>
<path d="M70.3284 102.211L72.2295 103.122L71.3186 105.023L69.4174 104.112L70.3284 102.211Z" fill="#43B6FA"/>
</g>
</svg>
