<svg width="32" height="32" viewBox="0 0 32 32" fill="none" xmlns="http://www.w3.org/2000/svg">
<g clip-path="url(#clip0_3069_38533)">
<path d="M7.73317 23.5084C7.71466 23.8615 7.8372 24.2076 8.07381 24.4704C8.31043 24.7331 8.64176 24.8912 8.99489 24.9097C9.34803 24.9282 9.69406 24.8057 9.95685 24.569L23.8289 12.0786C24.0917 11.842 24.2497 11.5107 24.2682 11.1575C24.2867 10.8044 24.1642 10.4584 23.9276 10.1956C23.691 9.93277 23.3596 9.77474 23.0065 9.75623C22.6534 9.73773 22.3073 9.86026 22.0445 10.0969L8.1725 22.5873C7.90971 22.8239 7.75168 23.1553 7.73317 23.5084Z" fill="white"/>
<path d="M8.07377 10.1959C8.31039 9.93315 8.64171 9.77511 8.99485 9.75661C9.34799 9.7381 9.69401 9.86063 9.9568 10.0973L23.8288 22.5877C24.0916 22.8243 24.2497 23.1556 24.2682 23.5088C24.2867 23.8619 24.1641 24.2079 23.9275 24.4707C23.6909 24.7335 23.3596 24.8915 23.0064 24.9101C22.6533 24.9286 22.3073 24.806 22.0445 24.5694L8.17245 12.079C7.90966 11.8424 7.75163 11.511 7.73312 11.1579C7.71461 10.8048 7.83715 10.4587 8.07377 10.1959Z" fill="white"/>
</g>
<defs>
<clipPath id="clip0_3069_38533">
<rect width="32" height="32" fill="white"/>
</clipPath>
</defs>
</svg>
