<svg width="120" height="40" viewBox="0 0 120 40" fill="none" xmlns="http://www.w3.org/2000/svg">
<path d="M38.7233 35.5H37.1956V23.6103H38.7233L42.8581 30.8504H42.9246L47.0594 23.6103H48.5871V35.5H47.0594V28.4426L47.1258 26.4499H47.0594L43.3397 32.9759H42.443L38.7233 26.4499H38.6569L38.7233 28.4426V35.5ZM50.249 31.4316C50.249 30.1806 50.642 29.1456 51.428 28.3263C52.225 27.5071 53.2269 27.0975 54.4336 27.0975C55.6403 27.0975 56.6366 27.5071 57.4226 28.3263C58.2197 29.1456 58.6182 30.1806 58.6182 31.4316C58.6182 32.6936 58.2197 33.7287 57.4226 34.5369C56.6366 35.3561 55.6403 35.7657 54.4336 35.7657C53.2269 35.7657 52.225 35.3561 51.428 34.5369C50.642 33.7177 50.249 32.6826 50.249 31.4316ZM51.7767 31.4316C51.7767 32.3062 52.0313 33.0147 52.5405 33.5571C53.0498 34.0996 53.6808 34.3708 54.4336 34.3708C55.1864 34.3708 55.8174 34.0996 56.3266 33.5571C56.8359 33.0147 57.0905 32.3062 57.0905 31.4316C57.0905 30.5681 56.8359 29.8651 56.3266 29.3227C55.8063 28.7692 55.1753 28.4924 54.4336 28.4924C53.6919 28.4924 53.0609 28.7692 52.5405 29.3227C52.0313 29.8651 51.7767 30.5681 51.7767 31.4316ZM61.3715 35.5H59.8438V27.3632H61.3051V28.4924H61.3715C61.604 28.0939 61.9583 27.7618 62.4343 27.4961C62.9214 27.2304 63.403 27.0975 63.879 27.0975C64.4768 27.0975 65.0026 27.2359 65.4565 27.5127C65.9104 27.7894 66.2425 28.1714 66.4529 28.6585C67.1282 27.6178 68.0636 27.0975 69.2592 27.0975C70.2002 27.0975 70.9253 27.3854 71.4346 27.961C71.9438 28.5367 72.1984 29.3559 72.1984 30.4187V35.5H70.6707V30.6511C70.6707 29.8873 70.5323 29.3393 70.2556 29.0072C69.9788 28.664 69.5138 28.4924 68.8607 28.4924C68.274 28.4924 67.7813 28.7415 67.3828 29.2397C66.9842 29.7378 66.785 30.3246 66.785 30.9999V35.5H65.2573V30.6511C65.2573 29.8873 65.1189 29.3393 64.8421 29.0072C64.5654 28.664 64.1004 28.4924 63.4472 28.4924C62.8605 28.4924 62.3679 28.7415 61.9693 29.2397C61.5708 29.7378 61.3715 30.3246 61.3715 30.9999V35.5ZM77.6378 35.7657C76.4422 35.7657 75.4569 35.3561 74.682 34.5369C73.9071 33.7177 73.5196 32.6826 73.5196 31.4316C73.5196 30.1917 73.896 29.1622 74.6488 28.343C75.4016 27.5127 76.3647 27.0975 77.5382 27.0975C78.7449 27.0975 79.7025 27.4905 80.411 28.2765C81.1306 29.0515 81.4903 30.1419 81.4903 31.5478L81.4737 31.7139H75.0805C75.1027 32.511 75.3684 33.1531 75.8776 33.6402C76.3869 34.1273 76.9957 34.3708 77.7042 34.3708C78.6784 34.3708 79.4423 33.8837 79.9958 32.9095L81.3575 33.5737C80.9922 34.2601 80.4829 34.797 79.8298 35.1845C79.1877 35.572 78.457 35.7657 77.6378 35.7657ZM75.1968 30.4519H79.863C79.8187 29.8873 79.5862 29.4223 79.1655 29.057C78.7559 28.6806 78.2024 28.4924 77.505 28.4924C76.9293 28.4924 76.4311 28.6695 76.0105 29.0238C75.6009 29.378 75.3296 29.8541 75.1968 30.4519ZM82.8874 27.3632H84.3487V28.4924H84.4151C84.6476 28.0939 85.0019 27.7618 85.4779 27.4961C85.965 27.2304 86.4687 27.0975 86.989 27.0975C87.9854 27.0975 88.7492 27.3854 89.2806 27.961C89.8231 28.5256 90.0943 29.3338 90.0943 30.3855V35.5H88.5666V30.4851C88.5334 29.1566 87.8636 28.4924 86.5573 28.4924C85.9484 28.4924 85.4392 28.7415 85.0296 29.2397C84.6199 29.7268 84.4151 30.3135 84.4151 30.9999V35.5H82.8874V27.3632ZM94.6874 35.6328C94.0232 35.6328 93.4697 35.428 93.0269 35.0184C92.5951 34.6088 92.3737 34.0387 92.3626 33.3081V28.7581H90.9346V27.3632H92.3626V24.8724H93.8904V27.3632H95.883V28.7581H93.8904V32.8099C93.8904 33.3523 93.9955 33.7232 94.2059 33.9225C94.4162 34.1107 94.6542 34.2048 94.9199 34.2048C95.0417 34.2048 95.1579 34.1937 95.2686 34.1715C95.3904 34.1383 95.5011 34.0996 95.6007 34.0553L96.0823 35.417C95.6838 35.5609 95.2188 35.6328 94.6874 35.6328ZM104.477 35.5H103.015V34.3708H102.949C102.717 34.7694 102.357 35.1015 101.87 35.3672C101.394 35.6328 100.895 35.7657 100.375 35.7657C99.3788 35.7657 98.6094 35.4834 98.067 34.9188C97.5356 34.3431 97.2699 33.5295 97.2699 32.4778V27.3632H98.7976V32.3781C98.8308 33.7066 99.5006 34.3708 100.807 34.3708C101.416 34.3708 101.925 34.1273 102.335 33.6402C102.744 33.142 102.949 32.5497 102.949 31.8634V27.3632H104.477V35.5ZM107.864 35.5H106.336V27.3632H107.798V28.4924H107.864C108.097 28.0939 108.451 27.7618 108.927 27.4961C109.414 27.2304 109.896 27.0975 110.372 27.0975C110.969 27.0975 111.495 27.2359 111.949 27.5127C112.403 27.7894 112.735 28.1714 112.946 28.6585C113.621 27.6178 114.556 27.0975 115.752 27.0975C116.693 27.0975 117.418 27.3854 117.927 27.961C118.436 28.5367 118.691 29.3559 118.691 30.4187V35.5H117.163V30.6511C117.163 29.8873 117.025 29.3393 116.748 29.0072C116.471 28.664 116.006 28.4924 115.353 28.4924C114.767 28.4924 114.274 28.7415 113.875 29.2397C113.477 29.7378 113.278 30.3246 113.278 30.9999V35.5H111.75V30.6511C111.75 29.8873 111.612 29.3393 111.335 29.0072C111.058 28.664 110.593 28.4924 109.94 28.4924C109.353 28.4924 108.861 28.7415 108.462 29.2397C108.063 29.7378 107.864 30.3246 107.864 30.9999V35.5Z" fill="#11102A"/>
<path d="M20.9295 4.59409C22.6911 2.81614 25.5456 2.68564 27.6824 3.82745C30.6511 5.29548 32.6248 8.2968 33.4078 11.4449C33.9623 13.8101 33.9134 16.4689 32.6411 18.6057C31.7929 20.09 30.2107 21.1992 28.4817 21.3134C26.9158 21.4276 25.3336 21.4439 23.8003 21.7864C20.8316 22.3899 7.45616 25.326 4.16124 25.7501C1.74714 25.8643 -0.291799 23.4176 0.0344309 21.0687C0.164923 19.6496 1.04574 18.3936 2.23648 17.6596C6.83633 14.5767 11.4199 11.4449 16.0197 8.36204C17.7324 7.22024 19.3962 5.99688 20.9295 4.59409ZM22.9684 5.47491C21.3209 6.46991 20.75 8.54147 20.7663 10.3684C20.9131 13.8427 22.7727 17.3823 25.9208 18.9808C27.0789 19.4539 28.4654 19.6496 29.5746 18.9808C31.1568 18.0674 31.7766 16.1426 31.8092 14.4136C31.8092 11.3307 30.4064 8.24786 28.0087 6.3068C26.6548 5.1813 24.5995 4.51253 22.9684 5.47491ZM3.13362 19.4212C2.08968 20.0085 1.73083 21.2971 2.04075 22.4062C2.3996 22.8793 2.74214 23.4176 3.29673 23.6459C4.01444 24.0211 4.86263 23.809 5.61296 23.6622C11.6156 22.4062 17.6182 21.1992 23.6045 19.9595C21.3536 18.0674 19.6735 15.4739 19.07 12.5704C18.8416 11.2981 18.8579 10.0095 18.9231 8.7209C13.6708 12.2931 8.40223 15.849 3.13362 19.4212Z" fill="#11102A"/>
<path d="M38.2031 1.47869L37.7137 0.5L37.5506 0.597869C36.8655 1.00566 36.1642 1.42976 35.4954 1.83754C34.6146 2.37582 33.7011 2.93041 32.7877 3.46869L32.6409 3.55025L33.1139 4.57787L33.2933 4.46369C33.799 4.15377 34.3046 3.84386 34.8103 3.53394C35.8705 2.88148 36.9797 2.21271 38.0563 1.54394L38.2031 1.47869Z" fill="#11102A"/>
<path d="M40.9272 8.01954L41.0903 7.95429L41.0414 7.79118C40.9761 7.61175 40.8619 7.26921 40.7967 7.08978L40.7314 6.89404L40.552 6.9756C39.8996 7.26921 39.2145 7.56281 38.5783 7.84011C37.567 8.28052 36.5068 8.73724 35.4791 9.19397L35.3323 9.25921L35.3813 9.42233C35.4465 9.60175 35.5607 9.94429 35.6259 10.1074L35.6912 10.2868L35.8706 10.2053C36.9309 9.74856 37.9911 9.29183 39.035 8.83511C39.6549 8.57413 40.291 8.29683 40.9272 8.01954Z" fill="#11102A"/>
<path d="M41.8406 16.0121C40.4704 15.9142 39.0676 15.8652 37.7137 15.8326C37.2733 15.8163 36.8329 15.8 36.3925 15.7837H36.1968V15.9794C36.1968 16.2241 36.1968 16.4688 36.1968 16.7134V16.8929H36.3762C38.1705 16.9581 39.9974 17.0397 41.8242 17.1049L42.02 17.1212V16.9255C42.02 16.7461 42.02 16.3872 42.02 16.2078V16.0284L41.8406 16.0121Z" fill="#11102A"/>
<path d="M22.9683 5.47536C24.5994 4.51298 26.6547 5.18175 28.0249 6.30725C29.3624 7.75897 30.4063 9.53692 30.7326 11.4943C31.1404 13.6637 30.8467 16.1757 29.2319 17.8069C28.3837 18.704 27.1277 19.0302 25.9207 18.9813C22.7726 17.3664 20.913 13.8268 20.7662 10.3688C20.7662 8.54192 21.3208 6.47036 22.9683 5.47536ZM2.04065 22.4067C7.71705 19.1281 13.3934 15.8332 19.0699 12.5872C19.6897 15.4906 21.3535 18.0678 23.6044 19.9763C17.6018 21.216 11.5992 22.423 5.61287 23.679C4.86254 23.8258 4.01434 24.0378 3.29663 23.6627C2.74204 23.4017 2.3995 22.8634 2.04065 22.4067Z" fill="url(#paint0_linear_2549_32308)"/>
<path d="M8.84265 26.8106L10.4412 35.3252H12.4638L10.7674 26.4028L8.84265 26.8106Z" fill="#11102A"/>
<path d="M13.6382 25.7996L15.4488 35.3255H17.4388L15.5629 25.3755L13.6382 25.7996Z" fill="#11102A"/>
<path d="M20.4074 24.3638L18.4663 24.7716L20.3911 35.3251H22.4953L20.4074 24.3638Z" fill="#11102A"/>
<path d="M20.799 26.4027L20.3912 24.3638L8.84265 26.8105L9.23413 28.8984L20.799 26.4027Z" fill="#11102A"/>
<defs>
<linearGradient id="paint0_linear_2549_32308" x1="2.04285" y1="14.4337" x2="30.9041" y2="14.4337" gradientUnits="userSpaceOnUse">
<stop stop-color="#3FDAFF"/>
<stop offset="0.2368" stop-color="#40D2FC"/>
<stop offset="0.4074" stop-color="#43B6FA"/>
<stop offset="0.7741" stop-color="#4C6DF5"/>
<stop offset="1" stop-color="#523EF1"/>
</linearGradient>
</defs>
</svg>
