<svg width="203" height="67" viewBox="0 0 203 67" fill="none" xmlns="http://www.w3.org/2000/svg">
<path d="M65.5318 59.1538H62.9464V39.0328H65.5318L72.5292 51.2853H72.6416L79.639 39.0328H82.2243V59.1538H79.639V47.2105L79.7514 43.8383H79.639L73.3441 54.8823H71.8266L65.5318 43.8383H65.4194L65.5318 47.2105V59.1538ZM85.0367 52.2688C85.0367 50.1518 85.7018 48.4001 87.032 47.0138C88.3809 45.6274 90.0763 44.9342 92.1184 44.9342C94.1605 44.9342 95.8466 45.6274 97.1768 47.0138C98.5256 48.4001 99.2001 50.1518 99.2001 52.2688C99.2001 54.4046 98.5256 56.1563 97.1768 57.5239C95.8466 58.9103 94.1605 59.6034 92.1184 59.6034C90.0763 59.6034 88.3809 58.9103 87.032 57.5239C85.7018 56.1375 85.0367 54.3859 85.0367 52.2688ZM87.6221 52.2688C87.6221 53.7489 88.053 54.9479 88.9148 55.8659C89.7766 56.7839 90.8445 57.2429 92.1184 57.2429C93.3924 57.2429 94.4602 56.7839 95.322 55.8659C96.1838 54.9479 96.6147 53.7489 96.6147 52.2688C96.6147 50.8075 96.1838 49.6179 95.322 48.6999C94.4415 47.7632 93.3736 47.2948 92.1184 47.2948C90.8632 47.2948 89.7953 47.7632 88.9148 48.6999C88.053 49.6179 87.6221 50.8075 87.6221 52.2688ZM103.86 59.1538H101.274V45.3839H103.747V47.2948H103.86C104.253 46.6204 104.852 46.0583 105.658 45.6087C106.482 45.1591 107.297 44.9342 108.103 44.9342C109.115 44.9342 110.004 45.1684 110.773 45.6368C111.541 46.1052 112.103 46.7515 112.459 47.5758C113.602 45.8148 115.185 44.9342 117.208 44.9342C118.8 44.9342 120.027 45.4213 120.889 46.3955C121.751 47.3697 122.182 48.7561 122.182 50.5546V59.1538H119.597V50.948C119.597 49.6554 119.362 48.728 118.894 48.166C118.426 47.5852 117.639 47.2948 116.533 47.2948C115.541 47.2948 114.707 47.7163 114.032 48.5594C113.358 49.4024 113.021 50.3954 113.021 51.5382V59.1538H110.435V50.948C110.435 49.6554 110.201 48.728 109.733 48.166C109.264 47.5852 108.478 47.2948 107.372 47.2948C106.379 47.2948 105.546 47.7163 104.871 48.5594C104.197 49.4024 103.86 50.3954 103.86 51.5382V59.1538ZM131.387 59.6034C129.364 59.6034 127.696 58.9103 126.385 57.5239C125.074 56.1375 124.418 54.3859 124.418 52.2688C124.418 50.1706 125.055 48.4282 126.329 47.0419C127.603 45.6368 129.233 44.9342 131.218 44.9342C133.261 44.9342 134.881 45.5993 136.08 46.9295C137.298 48.2409 137.907 50.0863 137.907 52.4656L137.879 52.7466H127.059C127.097 54.0955 127.547 55.1821 128.408 56.0064C129.27 56.8307 130.3 57.2429 131.5 57.2429C133.148 57.2429 134.441 56.4186 135.378 54.7699L137.682 55.894C137.064 57.0555 136.202 57.9642 135.097 58.6199C134.01 59.2756 132.773 59.6034 131.387 59.6034ZM127.256 50.6108H135.153C135.078 49.6554 134.684 48.8685 133.972 48.2503C133.279 47.6133 132.343 47.2948 131.162 47.2948C130.188 47.2948 129.345 47.5946 128.633 48.1941C127.94 48.7936 127.481 49.5992 127.256 50.6108ZM140.271 45.3839H142.744V47.2948H142.856C143.25 46.6204 143.849 46.0583 144.655 45.6087C145.479 45.1591 146.332 44.9342 147.212 44.9342C148.898 44.9342 150.191 45.4213 151.09 46.3955C152.008 47.351 152.467 48.7186 152.467 50.4984V59.1538H149.882V50.667C149.826 48.4189 148.692 47.2948 146.482 47.2948C145.451 47.2948 144.589 47.7163 143.896 48.5594C143.203 49.3837 142.856 50.3766 142.856 51.5382V59.1538H140.271V45.3839ZM160.24 59.3786C159.116 59.3786 158.179 59.032 157.43 58.3389C156.699 57.6457 156.325 56.6808 156.306 55.4444V47.7444H153.889V45.3839H156.306V41.1686H158.891V45.3839H162.264V47.7444H158.891V54.6013C158.891 55.5193 159.069 56.1469 159.425 56.4841C159.781 56.8026 160.184 56.9619 160.634 56.9619C160.84 56.9619 161.037 56.9431 161.224 56.9057C161.43 56.8495 161.617 56.7839 161.786 56.7089L162.601 59.0133C161.926 59.2568 161.14 59.3786 160.24 59.3786ZM176.807 59.1538H174.334V57.2429H174.221C173.828 57.9173 173.219 58.4794 172.395 58.929C171.589 59.3786 170.746 59.6034 169.866 59.6034C168.18 59.6034 166.877 59.1257 165.959 58.1702C165.06 57.196 164.611 55.819 164.611 54.0393V45.3839H167.196V53.8706C167.252 56.1188 168.386 57.2429 170.596 57.2429C171.627 57.2429 172.488 56.8307 173.182 56.0064C173.875 55.1633 174.221 54.161 174.221 52.9995V45.3839H176.807V59.1538ZM182.539 59.1538H179.954V45.3839H182.427V47.2948H182.539C182.933 46.6204 183.532 46.0583 184.338 45.6087C185.162 45.1591 185.977 44.9342 186.783 44.9342C187.794 44.9342 188.684 45.1684 189.452 45.6368C190.221 46.1052 190.783 46.7515 191.139 47.5758C192.281 45.8148 193.864 44.9342 195.888 44.9342C197.48 44.9342 198.707 45.4213 199.569 46.3955C200.431 47.3697 200.862 48.7561 200.862 50.5546V59.1538H198.276V50.948C198.276 49.6554 198.042 48.728 197.574 48.166C197.106 47.5852 196.319 47.2948 195.213 47.2948C194.22 47.2948 193.387 47.7163 192.712 48.5594C192.038 49.4024 191.701 50.3954 191.701 51.5382V59.1538H189.115V50.948C189.115 49.6554 188.881 48.728 188.413 48.166C187.944 47.5852 187.157 47.2948 186.052 47.2948C185.059 47.2948 184.226 47.7163 183.551 48.5594C182.877 49.4024 182.539 50.3954 182.539 51.5382V59.1538Z" fill="white"/>
<path d="M35.4191 6.92846C38.4003 3.91961 43.231 3.69878 46.8472 5.63107C51.8711 8.11543 55.2112 13.1946 56.5362 18.5222C57.4747 22.5248 57.3919 27.0242 55.2388 30.6404C53.8034 33.1523 51.1258 35.0294 48.1998 35.2226C45.5498 35.4159 42.8722 35.4435 40.2774 36.0231C35.2535 37.0445 12.6181 42.0132 7.0421 42.7309C2.9567 42.9242 -0.493814 38.7836 0.0582676 34.8086C0.2791 32.407 1.76972 30.2815 3.78482 29.0393C11.5692 23.8221 19.3259 18.5222 27.1103 13.305C30.0087 11.3727 32.8243 9.30241 35.4191 6.92846ZM38.8696 8.41908C36.0816 10.1029 35.1154 13.6086 35.143 16.7003C35.3915 22.58 38.5384 28.5701 43.8659 31.2752C45.8258 32.0758 48.1722 32.407 50.0492 31.2752C52.7268 29.7294 53.7758 26.4721 53.831 23.5461C53.831 18.3289 51.4571 13.1118 47.3993 9.82688C45.1081 7.9222 41.63 6.79044 38.8696 8.41908ZM5.30304 32.0206C3.53638 33.0143 2.92909 35.195 3.45357 37.0721C4.06086 37.8726 4.64054 38.7836 5.57908 39.17C6.79366 39.8049 8.22907 39.4461 9.49886 39.1976C19.6572 37.0721 29.8155 35.0294 39.9462 32.9315C36.1368 29.7294 33.2936 25.3404 32.2722 20.4268C31.8858 18.2737 31.9134 16.093 32.0238 13.9123C23.1353 19.9576 14.2192 25.9753 5.30304 32.0206Z" fill="white"/>
<path d="M64.6514 1.65624L63.8233 0L63.5472 0.165624C62.3879 0.855726 61.2009 1.57343 60.0691 2.26353C58.5785 3.17447 57.0327 4.11301 55.4868 5.02394L55.2384 5.16196L56.0389 6.90102L56.3426 6.70779C57.1983 6.18331 58.054 5.65883 58.9097 5.13436C60.704 4.03019 62.5811 2.89843 64.403 1.76666L64.6514 1.65624Z" fill="white"/>
<path d="M69.2615 12.7254L69.5375 12.6149L69.4547 12.3389C69.3443 12.0353 69.1511 11.4556 69.0406 11.1519L68.9302 10.8207L68.6266 10.9587C67.5224 11.4556 66.363 11.9524 65.2865 12.4217C63.575 13.167 61.7808 13.9399 60.0417 14.7129L59.7933 14.8233L59.8761 15.0993C59.9865 15.403 60.1797 15.9826 60.2901 16.2587L60.4006 16.5623L60.7042 16.4243C62.4985 15.6514 64.2927 14.8785 66.0594 14.1056C67.1083 13.6639 68.1849 13.1946 69.2615 12.7254Z" fill="white"/>
<path d="M70.8071 26.2513C68.4884 26.0857 66.1144 26.0029 63.8233 25.9477C63.078 25.9201 62.3327 25.8925 61.5874 25.8649H61.2561V26.1961C61.2561 26.6102 61.2561 27.0242 61.2561 27.4383V27.7419H61.5598C64.5962 27.8524 67.6879 27.9904 70.7795 28.1008L71.1108 28.1284V27.7972C71.1108 27.4935 71.1108 26.8862 71.1108 26.5826V26.2789L70.8071 26.2513Z" fill="white"/>
<path d="M38.8694 8.41984C41.6298 6.7912 45.1079 7.92297 47.4267 9.82765C49.6902 12.2844 51.4569 15.2933 52.0089 18.6057C52.699 22.2771 52.2022 26.5281 49.4694 29.2885C48.0339 30.8067 45.9084 31.3588 43.8657 31.276C38.5381 28.5432 35.3913 22.5531 35.1428 16.7011C35.1428 13.6094 36.0814 10.1037 38.8694 8.41984ZM3.45337 37.0729C13.0596 31.5245 22.6658 25.9484 32.272 20.4552C33.321 25.3687 36.1366 29.7302 39.9459 32.9599C29.7877 35.0578 19.6294 37.1005 9.49866 39.226C8.22887 39.4744 6.79346 39.8333 5.57888 39.1984C4.64034 38.7567 4.06066 37.8458 3.45337 37.0729Z" fill="url(#paint0_linear_2655_34564)"/>
<path d="M14.9645 44.5257L17.6697 58.935H21.0926L18.2218 43.8356L14.9645 44.5257Z" fill="white"/>
<path d="M23.08 42.8146L26.1441 58.9354H29.5118L26.3373 42.0969L23.08 42.8146Z" fill="white"/>
<path d="M34.5356 40.3849L31.2507 41.075L34.508 58.9348H38.0689L34.5356 40.3849Z" fill="white"/>
<path d="M35.1983 43.8354L34.5082 40.3849L14.9645 44.5255L15.627 48.0588L35.1983 43.8354Z" fill="white"/>
<defs>
<linearGradient id="paint0_linear_2655_34564" x1="3.4571" y1="23.5801" x2="52.2991" y2="23.5801" gradientUnits="userSpaceOnUse">
<stop stop-color="#3FDAFF"/>
<stop offset="0.2368" stop-color="#40D2FC"/>
<stop offset="0.4074" stop-color="#43B6FA"/>
<stop offset="0.7741" stop-color="#4C6DF5"/>
<stop offset="1" stop-color="#523EF1"/>
</linearGradient>
</defs>
</svg>
