<svg width="32" height="32" viewBox="0 0 32 32" fill="none" xmlns="http://www.w3.org/2000/svg">
<path d="M5.72353 7.39052C5.47348 7.64057 5.33301 7.97971 5.33301 8.33333C5.33301 8.68696 5.47348 9.02609 5.72353 9.27614C5.97358 9.52619 6.31272 9.66667 6.66634 9.66667H25.333C25.6866 9.66667 26.0258 9.52619 26.2758 9.27614C26.5259 9.02609 26.6663 8.68696 26.6663 8.33333C26.6663 7.97971 26.5259 7.64057 26.2758 7.39052C26.0258 7.14048 25.6866 7 25.333 7H6.66634C6.31272 7 5.97358 7.14048 5.72353 7.39052Z" fill="#FFFFFF"/>
<path d="M13.7235 16.057C13.9736 15.807 14.3127 15.6665 14.6663 15.6665H25.333C25.6866 15.6665 26.0258 15.807 26.2758 16.057C26.5259 16.3071 26.6663 16.6462 26.6663 16.9998C26.6663 17.3535 26.5259 17.6926 26.2758 17.9426C26.0258 18.1927 25.6866 18.3332 25.333 18.3332H14.6663C14.3127 18.3332 13.9736 18.1927 13.7235 17.9426C13.4735 17.6926 13.333 17.3535 13.333 16.9998C13.333 16.6462 13.4735 16.3071 13.7235 16.057Z" fill="#FFFFFF"/>
<path d="M5.33301 25.6668C5.33301 25.3132 5.47348 24.9741 5.72353 24.724C5.97358 24.474 6.31272 24.3335 6.66634 24.3335H25.333C25.6866 24.3335 26.0258 24.474 26.2758 24.724C26.5259 24.9741 26.6663 25.3132 26.6663 25.6668C26.6663 26.0205 26.5259 26.3596 26.2758 26.6096C26.0258 26.8597 25.6866 27.0002 25.333 27.0002H6.66634C6.31272 27.0002 5.97358 26.8597 5.72353 26.6096C5.47348 26.3596 5.33301 26.0205 5.33301 25.6668Z" fill="#FFFFFF"/>
</svg>
