<svg width="80" height="80" viewBox="0 0 80 80" fill="none" xmlns="http://www.w3.org/2000/svg">
<path d="M61.5484 32.6765L61.4787 32.5213L61.3235 32.4516L58.0926 31L61.3235 29.5484L61.4787 29.4787L61.5484 29.3235L63 26.0926L64.4516 29.3235L64.5213 29.4787L64.6765 29.5484L67.9074 31L64.6765 32.4516L64.5213 32.5213L64.4516 32.6765L63 35.9074L61.5484 32.6765Z" fill="#FB896B" stroke="#FB896B" stroke-width="0.895522"/>
<path d="M44.4353 36.6576L44.5881 36.5881L44.6576 36.4353L48 29.0821L51.3424 36.4353L51.4119 36.5881L51.5647 36.6576L58.9179 40L51.5647 43.3424L51.4119 43.4119L51.3424 43.5647L48 50.9179L44.6576 43.5647L44.5881 43.4119L44.4353 43.3424L37.0821 40L44.4353 36.6576ZM61.3235 47.5484L61.4787 47.4787L61.5484 47.3235L63 44.0926L64.4516 47.3235L64.5213 47.4787L64.6765 47.5484L67.9074 49L64.6765 50.4516L64.5213 50.5213L64.4516 50.6765L63 53.9074L61.5484 50.6765L61.4787 50.5213L61.3235 50.4516L58.0926 49L61.3235 47.5484Z" fill="#FB896B" stroke="#FB896B" stroke-width="0.895522"/>
<path d="M47 25V10C47 8.89543 46.1046 8 45 8H13C11.8954 8 11 8.89543 11 10V70C11 71.1046 11.8954 72 13 72H45C46.1046 72 47 71.1046 47 70V55" stroke="#FB896B" stroke-width="4"/>
<path d="M11 16H47" stroke="#FB896B" stroke-width="4"/>
<path d="M11 64H47" stroke="#FB896B" stroke-width="4"/>
</svg>
