<svg width="80" height="80" viewBox="0 0 80 80" fill="none" xmlns="http://www.w3.org/2000/svg">
<path d="M10 56H71C72.1046 56 73 55.1046 73 54V44.0469V13C73 11.8954 72.1046 11 71 11H10C8.89543 11 8 11.8954 8 13V54C8 55.1046 8.89543 56 10 56Z" stroke="#97E9BC" stroke-width="4"/>
<path d="M23 68H59" stroke="#97E9BC" stroke-width="4" stroke-linecap="round"/>
<path d="M50.2222 26.7383H45.6144V25.0556C45.6144 24.3329 45.4721 23.6172 45.1955 22.9495C44.9189 22.2818 44.5136 21.6752 44.0025 21.1641C43.4915 20.6531 42.8848 20.2477 42.2171 19.9712C41.5494 19.6946 40.8338 19.5522 40.1111 19.5522C39.3884 19.5522 38.6728 19.6946 38.0051 19.9712C37.3374 20.2477 36.7307 20.6531 36.2197 21.1641C35.7086 21.6752 35.3033 22.2818 35.0267 22.9495C34.7501 23.6172 34.6078 24.3328 34.6078 25.0556V30.1111C34.6078 30.4214 34.7311 30.719 34.9505 30.9384C35.1699 31.1578 35.4675 31.2811 35.7778 31.2811C36.0881 31.2811 36.3857 31.1578 36.6051 30.9384C36.8245 30.719 36.9478 30.4214 36.9478 30.1111V29.0783H42.2778H42.7255V28.6306V27.1861V26.7383H42.2778H36.9478V25.0556C36.9478 24.2166 37.281 23.412 37.8743 22.8187C38.4675 22.2255 39.2721 21.8922 40.1111 21.8922C40.9501 21.8922 41.7547 22.2255 42.3479 22.8187C42.9412 23.412 43.2745 24.2166 43.2745 25.0556V30.075C43.2745 30.3853 43.3977 30.6829 43.6171 30.9023C43.8366 31.1217 44.1341 31.245 44.4444 31.245C44.7547 31.245 45.0523 31.1217 45.2717 30.9023C45.4912 30.6829 45.6144 30.3853 45.6144 30.075V29.0783H48.33V41.1828H31.8922V29.0783H33.6111H34.0589V28.6306V27.1861V26.7383H33.6111H30H29.5522V27.1861V41.6956C29.5522 42.1802 29.7447 42.6449 30.0874 42.9876C30.4301 43.3303 30.8948 43.5228 31.3794 43.5228H48.8428C49.3274 43.5228 49.7921 43.3303 50.1348 42.9876C50.4775 42.6449 50.67 42.1802 50.67 41.6956V27.1861V26.7383H50.2222Z" fill="#97E9BC" stroke="#97E9BC" stroke-width="0.895522"/>
</svg>
