<svg width="112" height="210" viewBox="0 0 112 210" fill="none" xmlns="http://www.w3.org/2000/svg">
<g opacity="0.3">
<path d="M-98 101.867L-95.0983 99.114L-92.3451 102.016L-95.2468 104.769L-98 101.867Z" fill="#43B6FA"/>
<path d="M-80.5896 85.3482L-77.6878 82.595L-74.9347 85.4968L-77.8364 88.2499L-80.5896 85.3482Z" fill="#43B6FA"/>
<path d="M-63.1792 68.8292L-60.2774 66.076L-57.5242 68.9778L-60.426 71.7309L-63.1792 68.8292Z" fill="#43B6FA"/>
<path d="M-45.7687 52.3102L-42.867 49.557L-40.1138 52.4588L-43.0156 55.2119L-45.7687 52.3102Z" fill="#43B6FA"/>
<path d="M-28.3583 35.7912L-25.4566 33.0381L-22.7034 35.9398L-25.6051 38.693L-28.3583 35.7912Z" fill="#43B6FA"/>
<path d="M-10.9479 19.2722L-8.04614 16.5191L-5.29297 19.4208L-8.19471 22.174L-10.9479 19.2722Z" fill="#43B6FA"/>
<path d="M6.46255 2.75323L9.36429 6.46114e-05L12.1175 2.9018L9.21571 5.65497L6.46255 2.75323Z" fill="#43B6FA"/>
<path d="M-81.481 119.278L-78.5793 116.524L-75.8261 119.426L-78.7278 122.179L-81.481 119.278Z" fill="#43B6FA"/>
<path d="M-64.0706 102.759L-61.1688 100.005L-58.4157 102.907L-61.3174 105.66L-64.0706 102.759Z" fill="#43B6FA"/>
<path d="M-46.6602 86.2396L-43.7584 83.4865L-41.0053 86.3882L-43.907 89.1414L-46.6602 86.2396Z" fill="#43B6FA"/>
<path d="M-29.2497 69.7206L-26.348 66.9675L-23.5948 69.8692L-26.4966 72.6224L-29.2497 69.7206Z" fill="#43B6FA"/>
<path d="M-11.8393 53.2016L-8.93757 50.4485L-6.18441 53.3502L-9.08614 56.1034L-11.8393 53.2016Z" fill="#43B6FA"/>
<path d="M5.57112 36.6826L8.47285 33.9295L11.226 36.8312L8.32428 39.5844L5.57112 36.6826Z" fill="#43B6FA"/>
<path d="M22.9815 20.1637L25.8833 17.4105L28.6364 20.3122L25.7347 23.0654L22.9815 20.1637Z" fill="#43B6FA"/>
<path d="M-64.962 136.688L-62.0603 133.935L-59.3071 136.837L-62.2088 139.59L-64.962 136.688Z" fill="#43B6FA"/>
<path d="M-47.5516 120.169L-44.6499 117.416L-41.8967 120.318L-44.7984 123.071L-47.5516 120.169Z" fill="#43B6FA"/>
<path d="M-30.1412 103.65L-27.2394 100.897L-24.4863 103.799L-27.388 106.552L-30.1412 103.65Z" fill="#43B6FA"/>
<path d="M-12.7307 87.1311L-9.829 84.3779L-7.07584 87.2796L-9.97757 90.0328L-12.7307 87.1311Z" fill="#43B6FA"/>
<path d="M4.67968 70.6121L7.58142 67.8589L10.3346 70.7606L7.43285 73.5138L4.67968 70.6121Z" fill="#43B6FA"/>
<path d="M22.0901 54.0931L24.9918 51.3399L27.745 54.2416L24.8433 56.9948L22.0901 54.0931Z" fill="#43B6FA"/>
<path d="M39.5005 37.5741L42.4023 34.8209L45.1554 37.7227L42.2537 40.4758L39.5005 37.5741Z" fill="#43B6FA"/>
<path d="M-48.443 154.098L-45.5413 151.345L-42.7881 154.247L-45.6899 157L-48.443 154.098Z" fill="#43B6FA"/>
<path d="M-31.0326 137.579L-28.1309 134.826L-25.3777 137.728L-28.2794 140.481L-31.0326 137.579Z" fill="#43B6FA"/>
<path d="M-13.6222 121.06L-10.7204 118.307L-7.96727 121.209L-10.869 123.962L-13.6222 121.06Z" fill="#43B6FA"/>
<path d="M3.78825 104.541L6.68999 101.788L9.44316 104.69L6.54142 107.443L3.78825 104.541Z" fill="#43B6FA"/>
<path d="M21.1987 88.0225L24.1004 85.2693L26.8536 88.1711L23.9518 90.9242L21.1987 88.0225Z" fill="#43B6FA"/>
<path d="M38.6091 71.5035L41.5108 68.7503L44.264 71.6521L41.3623 74.4052L38.6091 71.5035Z" fill="#43B6FA"/>
<path d="M56.0195 54.9845L58.9213 52.2313L61.6744 55.1331L58.7727 57.8862L56.0195 54.9845Z" fill="#43B6FA"/>
<path d="M-31.924 171.509L-29.0223 168.756L-26.2691 171.657L-29.1709 174.411L-31.924 171.509Z" fill="#43B6FA"/>
<path d="M-14.5136 154.99L-11.6119 152.237L-8.8587 155.138L-11.7604 157.892L-14.5136 154.99Z" fill="#43B6FA"/>
<path d="M2.89682 138.471L5.79856 135.718L8.55172 138.619L5.64999 141.373L2.89682 138.471Z" fill="#43B6FA"/>
<path d="M20.3072 121.952L23.209 119.199L25.9621 122.1L23.0604 124.854L20.3072 121.952Z" fill="#43B6FA"/>
<path d="M37.7177 105.433L40.6194 102.68L43.3726 105.581L40.4708 108.335L37.7177 105.433Z" fill="#43B6FA"/>
<path d="M55.1281 88.9139L58.0298 86.1608L60.783 89.0625L57.8813 91.8157L55.1281 88.9139Z" fill="#43B6FA"/>
<path d="M72.5385 72.3949L75.4403 69.6418L78.1934 72.5435L75.2917 75.2967L72.5385 72.3949Z" fill="#43B6FA"/>
<path d="M-15.405 188.919L-12.5033 186.166L-9.75013 189.068L-12.6519 191.821L-15.405 188.919Z" fill="#43B6FA"/>
<path d="M2.00539 172.4L4.90713 169.647L7.66029 172.549L4.75855 175.302L2.00539 172.4Z" fill="#43B6FA"/>
<path d="M19.4158 155.881L22.3176 153.128L25.0707 156.03L22.169 158.783L19.4158 155.881Z" fill="#43B6FA"/>
<path d="M36.8262 139.362L39.728 136.609L42.4811 139.511L39.5794 142.264L36.8262 139.362Z" fill="#43B6FA"/>
<path d="M54.2367 122.843L57.1384 120.09L59.8916 122.992L56.9898 125.745L54.2367 122.843Z" fill="#43B6FA"/>
<path d="M71.6471 106.324L74.5488 103.571L77.302 106.473L74.4003 109.226L71.6471 106.324Z" fill="#43B6FA"/>
<path d="M89.0575 89.8054L91.9593 87.0522L94.7124 89.9539L91.8107 92.7071L89.0575 89.8054Z" fill="#43B6FA"/>
<path d="M1.11396 206.33L4.01569 203.577L6.76886 206.478L3.86712 209.231L1.11396 206.33Z" fill="#43B6FA"/>
<path d="M18.5244 189.811L21.4261 187.058L24.1793 189.959L21.2775 192.712L18.5244 189.811Z" fill="#43B6FA"/>
<path d="M35.9348 173.292L38.8365 170.539L41.5897 173.44L38.688 176.193L35.9348 173.292Z" fill="#43B6FA"/>
<path d="M53.3452 156.773L56.247 154.02L59.0001 156.921L56.0984 159.674L53.3452 156.773Z" fill="#43B6FA"/>
<path d="M70.7557 140.254L73.6574 137.501L76.4106 140.402L73.5088 143.156L70.7557 140.254Z" fill="#43B6FA"/>
<path d="M88.1661 123.735L91.0678 120.982L93.821 123.883L90.9192 126.637L88.1661 123.735Z" fill="#43B6FA"/>
<path d="M105.577 107.216L108.478 104.463L111.231 107.364L108.33 110.118L105.577 107.216Z" fill="#43B6FA"/>
</g>
</svg>
