<svg width="138" height="210" viewBox="0 0 138 210" fill="none" xmlns="http://www.w3.org/2000/svg">
<g opacity="0.3">
<path d="M0 105.005L2.81886 102.167L5.65682 104.986L2.83797 107.824L0 105.005Z" fill="#43B6FA"/>
<path d="M16.9131 87.9771L19.732 85.1391L22.57 87.958L19.7511 90.7959L16.9131 87.9771Z" fill="#43B6FA"/>
<path d="M33.8263 70.9493L36.6451 68.1113L39.4831 70.9302L36.6642 73.7682L33.8263 70.9493Z" fill="#43B6FA"/>
<path d="M50.7394 53.9215L53.5583 51.0835L56.3962 53.9024L53.5774 56.7404L50.7394 53.9215Z" fill="#43B6FA"/>
<path d="M67.6526 36.8937L70.4714 34.0557L73.3094 36.8746L70.4905 39.7126L67.6526 36.8937Z" fill="#43B6FA"/>
<path d="M84.5657 19.8659L87.3846 17.028L90.2225 19.8468L87.4037 22.6848L84.5657 19.8659Z" fill="#43B6FA"/>
<path d="M101.479 2.83813L104.298 0.00015974L107.136 2.81902L104.317 5.65698L101.479 2.83813Z" fill="#43B6FA"/>
<path d="M17.0278 121.918L19.8466 119.08L22.6846 121.899L19.8658 124.737L17.0278 121.918Z" fill="#43B6FA"/>
<path d="M33.9409 104.89L36.7598 102.052L39.5978 104.871L36.7789 107.709L33.9409 104.89Z" fill="#43B6FA"/>
<path d="M50.8541 87.8624L53.6729 85.0245L56.5109 87.8433L53.692 90.6813L50.8541 87.8624Z" fill="#43B6FA"/>
<path d="M67.7672 70.8346L70.5861 67.9967L73.424 70.8155L70.6052 73.6535L67.7672 70.8346Z" fill="#43B6FA"/>
<path d="M84.6803 53.8068L87.4992 50.9689L90.3372 53.7877L87.5183 56.6257L84.6803 53.8068Z" fill="#43B6FA"/>
<path d="M101.593 36.7791L104.412 33.9411L107.25 36.7599L104.431 39.5979L101.593 36.7791Z" fill="#43B6FA"/>
<path d="M118.507 19.7513L121.325 16.9133L124.163 19.7322L121.345 22.5701L118.507 19.7513Z" fill="#43B6FA"/>
<path d="M34.0556 138.831L36.8744 135.993L39.7124 138.812L36.8936 141.65L34.0556 138.831Z" fill="#43B6FA"/>
<path d="M50.9687 121.803L53.7876 118.965L56.6255 121.784L53.8067 124.622L50.9687 121.803Z" fill="#43B6FA"/>
<path d="M67.8819 104.776L70.7007 101.938L73.5387 104.756L70.7198 107.594L67.8819 104.776Z" fill="#43B6FA"/>
<path d="M84.795 87.7478L87.6139 84.9098L90.4518 87.7287L87.633 90.5666L84.795 87.7478Z" fill="#43B6FA"/>
<path d="M101.708 70.72L104.527 67.882L107.365 70.7009L104.546 73.5388L101.708 70.72Z" fill="#43B6FA"/>
<path d="M118.621 53.6922L121.44 50.8542L124.278 53.6731L121.459 56.5111L118.621 53.6922Z" fill="#43B6FA"/>
<path d="M135.534 36.6644L138.353 33.8264L141.191 36.6453L138.372 39.4833L135.534 36.6644Z" fill="#43B6FA"/>
<path d="M51.0834 155.744L53.9022 152.906L56.7402 155.725L53.9213 158.563L51.0834 155.744Z" fill="#43B6FA"/>
<path d="M67.9965 138.717L70.8154 135.879L73.6533 138.697L70.8345 141.535L67.9965 138.717Z" fill="#43B6FA"/>
<path d="M84.9097 121.689L87.7285 118.851L90.5665 121.67L87.7476 124.508L84.9097 121.689Z" fill="#43B6FA"/>
<path d="M101.823 104.661L104.642 101.823L107.48 104.642L104.661 107.48L101.823 104.661Z" fill="#43B6FA"/>
<path d="M118.736 87.6331L121.555 84.7952L124.393 87.614L121.574 90.452L118.736 87.6331Z" fill="#43B6FA"/>
<path d="M135.649 70.6053L138.468 67.7674L141.306 70.5862L138.487 73.4242L135.649 70.6053Z" fill="#43B6FA"/>
<path d="M152.562 53.5775L155.381 50.7396L158.219 53.5584L155.4 56.3964L152.562 53.5775Z" fill="#43B6FA"/>
<path d="M68.1112 172.657L70.93 169.819L73.768 172.638L70.9491 175.476L68.1112 172.657Z" fill="#43B6FA"/>
<path d="M85.0243 155.63L87.8432 152.792L90.6811 155.611L87.8623 158.449L85.0243 155.63Z" fill="#43B6FA"/>
<path d="M101.937 138.602L104.756 135.764L107.594 138.583L104.775 141.421L101.937 138.602Z" fill="#43B6FA"/>
<path d="M118.851 121.574L121.669 118.736L124.507 121.555L121.689 124.393L118.851 121.574Z" fill="#43B6FA"/>
<path d="M135.764 104.546L138.583 101.708L141.421 104.527L138.602 107.365L135.764 104.546Z" fill="#43B6FA"/>
<path d="M152.677 87.5185L155.496 84.6805L158.334 87.4994L155.515 90.3373L152.677 87.5185Z" fill="#43B6FA"/>
<path d="M169.59 70.4907L172.409 67.6527L175.247 70.4716L172.428 73.3095L169.59 70.4907Z" fill="#43B6FA"/>
<path d="M85.139 189.571L87.9578 186.733L90.7958 189.551L87.9769 192.389L85.139 189.571Z" fill="#43B6FA"/>
<path d="M102.052 172.543L104.871 169.705L107.709 172.524L104.89 175.362L102.052 172.543Z" fill="#43B6FA"/>
<path d="M118.965 155.515L121.784 152.677L124.622 155.496L121.803 158.334L118.965 155.515Z" fill="#43B6FA"/>
<path d="M135.878 138.487L138.697 135.649L141.535 138.468L138.716 141.306L135.878 138.487Z" fill="#43B6FA"/>
<path d="M152.792 121.459L155.61 118.621L158.448 121.44L155.629 124.278L152.792 121.459Z" fill="#43B6FA"/>
<path d="M169.705 104.432L172.524 101.594L175.361 104.413L172.543 107.25L169.705 104.432Z" fill="#43B6FA"/>
<path d="M186.618 87.4038L189.437 84.5659L192.275 87.3847L189.456 90.2227L186.618 87.4038Z" fill="#43B6FA"/>
<path d="M102.167 206.484L104.986 203.646L107.824 206.465L105.005 209.303L102.167 206.484Z" fill="#43B6FA"/>
<path d="M119.08 189.456L121.899 186.618L124.737 189.437L121.918 192.275L119.08 189.456Z" fill="#43B6FA"/>
<path d="M135.993 172.428L138.812 169.59L141.65 172.409L138.831 175.247L135.993 172.428Z" fill="#43B6FA"/>
<path d="M152.906 155.4L155.725 152.562L158.563 155.381L155.744 158.219L152.906 155.4Z" fill="#43B6FA"/>
<path d="M169.819 138.373L172.638 135.535L175.476 138.353L172.657 141.191L169.819 138.373Z" fill="#43B6FA"/>
<path d="M186.732 121.345L189.551 118.507L192.389 121.326L189.57 124.164L186.732 121.345Z" fill="#43B6FA"/>
<path d="M203.646 104.317L206.464 101.479L209.302 104.298L206.484 107.136L203.646 104.317Z" fill="#43B6FA"/>
</g>
</svg>
