<svg width="172" height="172" viewBox="0 0 172 172" fill="none" xmlns="http://www.w3.org/2000/svg">
<g opacity="0.3">
<path d="M75.0874 0L77.6862 2.02939L75.6568 4.62819L73.058 2.5988L75.0874 0Z" fill="#43B6FA"/>
<path d="M90.6802 12.1763L93.279 14.2057L91.2496 16.8045L88.6508 14.7751L90.6802 12.1763Z" fill="#43B6FA"/>
<path d="M106.273 24.3527L108.872 26.3821L106.842 28.9809L104.244 26.9515L106.273 24.3527Z" fill="#43B6FA"/>
<path d="M121.866 36.529L124.465 38.5584L122.435 41.1572L119.836 39.1278L121.866 36.529Z" fill="#43B6FA"/>
<path d="M137.459 48.7054L140.057 50.7348L138.028 53.3336L135.429 51.3042L137.459 48.7054Z" fill="#43B6FA"/>
<path d="M153.051 60.8817L155.65 62.9111L153.621 65.5099L151.022 63.4805L153.051 60.8817Z" fill="#43B6FA"/>
<path d="M168.644 73.0581L171.243 75.0875L169.213 77.6863L166.615 75.6569L168.644 73.0581Z" fill="#43B6FA"/>
<path d="M62.9111 15.5928L65.5099 17.6222L63.4805 20.221L60.8817 18.1916L62.9111 15.5928Z" fill="#43B6FA"/>
<path d="M78.5038 27.7691L81.1026 29.7985L79.0732 32.3973L76.4744 30.3679L78.5038 27.7691Z" fill="#43B6FA"/>
<path d="M94.0966 39.9455L96.6954 41.9749L94.666 44.5737L92.0672 42.5443L94.0966 39.9455Z" fill="#43B6FA"/>
<path d="M109.689 52.1218L112.288 54.1512L110.259 56.75L107.66 54.7206L109.689 52.1218Z" fill="#43B6FA"/>
<path d="M125.282 64.2982L127.881 66.3275L125.852 68.9263L123.253 66.897L125.282 64.2982Z" fill="#43B6FA"/>
<path d="M140.875 76.4745L143.474 78.5039L141.444 81.1027L138.846 79.0733L140.875 76.4745Z" fill="#43B6FA"/>
<path d="M156.468 88.6508L159.067 90.6802L157.037 93.279L154.438 91.2496L156.468 88.6508Z" fill="#43B6FA"/>
<path d="M50.7347 31.1856L53.3335 33.2149L51.3041 35.8137L48.7053 33.7843L50.7347 31.1856Z" fill="#43B6FA"/>
<path d="M66.3275 43.3619L68.9263 45.3913L66.8969 47.9901L64.2981 45.9607L66.3275 43.3619Z" fill="#43B6FA"/>
<path d="M81.9203 55.5382L84.5191 57.5676L82.4897 60.1664L79.8909 58.137L81.9203 55.5382Z" fill="#43B6FA"/>
<path d="M97.513 67.7146L100.112 69.744L98.0824 72.3428L95.4837 70.3134L97.513 67.7146Z" fill="#43B6FA"/>
<path d="M113.106 79.8909L115.705 81.9203L113.675 84.5191L111.076 82.4897L113.106 79.8909Z" fill="#43B6FA"/>
<path d="M128.699 92.0673L131.297 94.0967L129.268 96.6955L126.669 94.6661L128.699 92.0673Z" fill="#43B6FA"/>
<path d="M144.291 104.244L146.89 106.273L144.861 108.872L142.262 106.842L144.291 104.244Z" fill="#43B6FA"/>
<path d="M38.5584 46.7783L41.1572 48.8077L39.1278 51.4065L36.529 49.3771L38.5584 46.7783Z" fill="#43B6FA"/>
<path d="M54.1511 58.9547L56.7499 60.9841L54.7205 63.5829L52.1218 61.5535L54.1511 58.9547Z" fill="#43B6FA"/>
<path d="M69.7439 71.131L72.3427 73.1604L70.3133 75.7592L67.7145 73.7298L69.7439 71.131Z" fill="#43B6FA"/>
<path d="M85.3367 83.3074L87.9355 85.3368L85.9061 87.9356L83.3073 85.9062L85.3367 83.3074Z" fill="#43B6FA"/>
<path d="M100.929 95.4837L103.528 97.5131L101.499 100.112L98.9001 98.0825L100.929 95.4837Z" fill="#43B6FA"/>
<path d="M116.522 107.66L119.121 109.689L117.092 112.288L114.493 110.259L116.522 107.66Z" fill="#43B6FA"/>
<path d="M132.115 119.836L134.714 121.866L132.684 124.465L130.086 122.435L132.115 119.836Z" fill="#43B6FA"/>
<path d="M26.382 62.3711L28.9808 64.4005L26.9514 66.9993L24.3526 64.9699L26.382 62.3711Z" fill="#43B6FA"/>
<path d="M41.9748 74.5474L44.5736 76.5768L42.5442 79.1756L39.9454 77.1462L41.9748 74.5474Z" fill="#43B6FA"/>
<path d="M57.5676 86.7238L60.1664 88.7532L58.137 91.352L55.5382 89.3226L57.5676 86.7238Z" fill="#43B6FA"/>
<path d="M73.1604 98.9001L75.7591 100.93L73.7298 103.528L71.131 101.499L73.1604 98.9001Z" fill="#43B6FA"/>
<path d="M88.7531 111.076L91.3519 113.106L89.3225 115.705L86.7237 113.675L88.7531 111.076Z" fill="#43B6FA"/>
<path d="M104.346 123.253L106.945 125.282L104.915 127.881L102.317 125.852L104.346 123.253Z" fill="#43B6FA"/>
<path d="M119.939 135.429L122.537 137.459L120.508 140.057L117.909 138.028L119.939 135.429Z" fill="#43B6FA"/>
<path d="M14.2057 77.9639L16.8045 79.9933L14.7751 82.5921L12.1763 80.5627L14.2057 77.9639Z" fill="#43B6FA"/>
<path d="M29.7985 90.1402L32.3973 92.1696L30.3679 94.7684L27.7691 92.739L29.7985 90.1402Z" fill="#43B6FA"/>
<path d="M45.3912 102.317L47.99 104.346L45.9606 106.945L43.3618 104.915L45.3912 102.317Z" fill="#43B6FA"/>
<path d="M60.984 114.493L63.5828 116.522L61.5534 119.121L58.9546 117.092L60.984 114.493Z" fill="#43B6FA"/>
<path d="M76.5768 126.669L79.1756 128.699L77.1462 131.297L74.5474 129.268L76.5768 126.669Z" fill="#43B6FA"/>
<path d="M92.1696 138.846L94.7684 140.875L92.739 143.474L90.1402 141.444L92.1696 138.846Z" fill="#43B6FA"/>
<path d="M107.762 151.022L110.361 153.051L108.332 155.65L105.733 153.621L107.762 151.022Z" fill="#43B6FA"/>
<path d="M2.02933 93.5567L4.62813 95.586L2.59874 98.1848L-6.03199e-05 96.1555L2.02933 93.5567Z" fill="#43B6FA"/>
<path d="M17.6221 105.733L20.2209 107.762L18.1915 110.361L15.5927 108.332L17.6221 105.733Z" fill="#43B6FA"/>
<path d="M33.2149 117.909L35.8137 119.939L33.7843 122.538L31.1855 120.508L33.2149 117.909Z" fill="#43B6FA"/>
<path d="M48.8077 130.086L51.4065 132.115L49.3771 134.714L46.7783 132.684L48.8077 130.086Z" fill="#43B6FA"/>
<path d="M64.4004 142.262L66.9992 144.291L64.9698 146.89L62.371 144.861L64.4004 142.262Z" fill="#43B6FA"/>
<path d="M79.9932 154.438L82.592 156.468L80.5626 159.067L77.9638 157.037L79.9932 154.438Z" fill="#43B6FA"/>
<path d="M95.586 166.615L98.1848 168.644L96.1554 171.243L93.5566 169.214L95.586 166.615Z" fill="#43B6FA"/>
</g>
</svg>
