<svg width="90" height="87" viewBox="0 0 90 87" fill="none" xmlns="http://www.w3.org/2000/svg">
<path d="M48.369 76.4777C45.0459 73.5308 43.7918 79.4246 44.3561 56.351C45.9863 27.2582 45.4848 40.049 46.3626 27.9479C46.3626 27.7598 45.9864 27.3836 45.7983 27.7598C44.6697 29.2019 42.2871 33.2774 41.7855 34.5314C41.5974 34.9076 41.4093 35.4719 41.0331 35.7854C38.0862 39.2339 38.4624 39.422 37.3965 39.6101C33.5718 40.3625 31.1892 37.4156 32.2551 36.6632C33.1956 36.0989 32.8194 36.8513 35.3901 34.2806C41.7855 27.509 43.6037 22.3676 47.4911 15.0317C48.0554 13.9031 48.4317 12.8372 48.6198 11.5832C48.8079 10.3292 49.7484 10.4546 51.3786 10.1411C52.5072 9.76488 53.3849 10.1411 54.1373 11.2697C55.3913 12.8999 57.2723 15.6587 57.2723 17.8532C57.2723 20.612 57.4605 23.1827 57.4605 25.9415C57.6486 30.7067 55.6421 48.2627 55.6421 49.3913C54.8897 54.7208 55.0778 55.7867 54.3881 67.3235C53.6357 70.0823 54.3881 73.3427 53.8238 75.0356C53.0714 76.8539 50.3754 77.042 48.6825 76.4777H48.369Z" fill="#43B6FA"/>
</svg>
