<svg width="80" height="80" viewBox="0 0 80 80" fill="none" xmlns="http://www.w3.org/2000/svg">
<path d="M48.333 21C48.333 16.5817 44.7513 13 40.333 13C35.9147 13 32.333 16.5817 32.333 21V37C32.333 41.4183 35.9147 45 40.333 45C44.7513 45 48.333 41.4183 48.333 37V21Z" stroke="#E0BE68" stroke-width="4"/>
<path d="M21.6662 15.6667V21M10.9995 13V23.6667M58.9995 15.6667V21M69.6662 13V23.6667M40.3328 55.6667C35.3821 55.6667 30.6342 53.7 27.1335 50.1993C23.6328 46.6986 21.6662 41.9507 21.6662 37V34.3333H30.9995M40.3328 55.6667C45.2836 55.6667 50.0315 53.7 53.5322 50.1993C57.0328 46.6986 58.9995 41.9507 58.9995 37V34.3333H49.6662M40.3328 55.6667V66.3333M40.3328 66.3333H32.3328M40.3328 66.3333H48.3328" stroke="#E0BE68" stroke-width="4" stroke-linecap="round" stroke-linejoin="round"/>
</svg>
