<svg width="89" height="88" viewBox="0 0 89 88" fill="none" xmlns="http://www.w3.org/2000/svg">
<path d="M26.0613 58.4044C27.0018 57.652 27.5034 56.5861 29.0082 56.9623C30.1368 57.3385 30.6384 57.7147 29.5725 58.5925C28.5066 59.4703 27.7542 60.5989 26.8137 61.7275C24.8073 64.1101 25.1835 67.5586 26.4375 69.8158C27.1899 71.0698 33.5853 71.8222 38.7267 69.2515C44.0562 66.6808 44.934 66.3046 47.6928 63.7339C51.7056 59.9092 53.0223 58.0282 55.0287 54.0154C56.4708 51.2566 57.7875 49.0621 58.3518 45.0493C58.728 43.231 57.5994 41.0365 56.7216 40.6603C54.5271 39.9079 51.9564 39.7198 50.7024 39.7198C49.4484 39.9079 45.3729 39.3436 43.3665 41.1619C40.7958 43.5445 36.783 40.0333 36.783 38.9674C36.9711 36.3967 36.5949 37.8388 40.4196 33.826C41.172 32.8855 42.2379 32.1958 43.1784 31.2553C51.7683 23.167 55.6557 12.5707 49.3857 12.3826C48.1317 12.9469 46.6269 12.5707 45.561 13.135C36.0306 14.9533 34.4004 22.4773 31.6416 27.2425C31.2654 27.9949 29.8233 27.9949 29.6352 26.6782C29.0709 21.913 34.5885 11.3167 49.2603 10C49.6365 10 52.5834 10.5643 52.8969 10.7524C62.6154 16.7716 57.0978 27.2425 50.1381 36.2086C49.95 36.3967 50.1381 36.7729 50.5143 36.7729L54.7152 37.1491C73.3998 38.4031 67.3806 60.2227 57.6621 68.6245C52.8969 72.6373 55.6557 71.3833 50.3262 73.954C41.5482 78.343 39.1656 76.7128 37.6608 77.089C29.9487 78.5311 14.7126 66.8062 26.0613 58.4044Z" fill="#43B6FA"/>
</svg>
