<svg width="89" height="87" viewBox="0 0 89 87" fill="none" xmlns="http://www.w3.org/2000/svg">
<path d="M25.3116 72.5769C24.9354 71.8245 24.9355 71.3229 25.1236 70.5705C29.1364 59.7861 47.2567 37.4022 53.1505 19.0938C55.7212 10.8801 45.0621 10.5039 40.3596 19.47C39.4191 21.4764 37.9771 25.8654 37.6009 27.8718C37.6009 28.8123 37.0366 29.3139 36.6604 29.8782C36.4723 29.8782 36.2842 30.0663 36.0961 30.0663C35.5318 29.8782 34.8421 29.3139 34.8421 28.8123C34.654 27.6837 34.4658 26.6178 34.6539 25.3638C35.9079 18.7803 37.7889 15.8334 40.6731 12.6984C43.62 9.75154 49.6393 9.56344 53.6521 10.5039C62.242 12.3222 63.3706 17.4636 63.3706 22.2288C63.3706 29.3766 51.6456 47.685 47.6328 53.5161C46.6923 54.9582 40.4851 63.9243 39.2311 65.9934C37.0366 69.4419 37.789 68.7522 40.4851 68.7522C49.075 69.3165 51.6456 68.7522 61.3641 72.3888C62.1165 72.765 62.3047 73.3293 62.1166 73.6428C60.8626 75.6492 56.9752 73.2666 54.4045 72.8904C52.21 72.7023 53.652 70.6959 37.1619 71.6364C34.9674 71.6364 35.3436 72.8904 33.1491 75.4611C32.0205 76.5897 31.1428 76.9032 29.8261 76.5897C27.5062 75.9 27.1299 76.0881 25.3116 72.5769Z" fill="#43B6FA"/>
</svg>
