<svg width="126" height="79" viewBox="0 0 126 79" fill="none" xmlns="http://www.w3.org/2000/svg">
<mask id="mask0_2727_35454" style="mask-type:alpha" maskUnits="userSpaceOnUse" x="8" y="1" width="109" height="76">
<path d="M14.2005 73.8557C16.0717 75.4438 19.8761 76.1382 21.5444 76.2868C44.3377 74.5417 55.1943 59.7335 57.7734 52.5476C58.8281 57.0595 69.3178 69.2552 91.4188 48.4133C115.804 34.2773 117.919 11.9257 115.928 2.51694C113.727 1.72639 109.111 0.399925 108.258 1.41842C110.356 14.0356 93.7621 38.3446 80.0767 46.0992C66.3913 53.8537 64.706 45.916 63.9072 43.3095C63.1085 40.703 60.4157 34.3938 56.3004 30.5126C53.0082 27.4077 48.8662 32.2968 47.2066 35.1295C45.0923 39.9858 39.003 51.6879 31.5606 59.6461C22.2576 69.5938 14.4109 65.2375 12.8115 65.5035C11.532 65.7162 9.07939 66.8546 8.01302 67.3972L9.55172 71.159C10.3217 71.3962 12.3293 72.2676 14.2005 73.8557Z" fill="#D9D9D9"/>
</mask>
<g mask="url(#mask0_2727_35454)">
<path fill-rule="evenodd" clip-rule="evenodd" d="M112.27 2.94294C112.874 3.39035 113.069 3.46742 113.164 3.26902C113.259 3.07063 113.312 3.06177 113.41 3.20988C113.484 3.32541 113.596 3.34322 113.694 3.27217C113.789 3.18336 113.777 3.11229 113.62 3.04708C113.365 2.94333 113.448 2.56426 113.733 2.51698C113.822 2.5022 113.967 2.60591 114.064 2.75402C114.144 2.9051 114.443 3.2754 114.728 3.55685C115.127 3.98347 115.281 4.35966 115.476 5.31337C115.636 6.16341 115.648 6.56323 115.514 6.64019C115.28 6.77041 115.313 7.18505 115.573 7.21476C115.834 7.24447 115.727 9.34421 115.347 11.7815C115.008 13.9197 113.57 18.8887 113.04 19.6526C112.865 19.9191 112.625 20.4521 112.521 20.8164C112.417 21.1806 111.978 22.1667 111.569 23.0017C111.16 23.8367 110.707 24.7339 110.586 24.9916C110.464 25.2492 110.26 25.5571 110.132 25.6696C110.005 25.7821 109.729 26.2114 109.545 26.6438C109.362 27.0761 109.042 27.6772 108.822 28.0058C107.403 30.1229 107.281 30.2709 107 30.2264C106.793 30.1878 106.748 30.25 106.855 30.4514C107.041 30.8039 104.612 34.0934 102.298 36.6515C101.99 36.9949 101.56 37.4864 101.35 37.7588C101.121 38.0341 100.751 38.4427 100.514 38.6647C100.277 38.8868 99.9838 39.2095 99.8831 39.3723C99.7645 39.5381 99.252 40.0799 98.7157 40.5891C95.8894 43.3602 95.3413 43.9079 95.2524 43.9227C95.1458 43.9404 94.2304 44.8049 94.1148 44.9885C93.9992 45.172 92.0351 46.8683 91.8929 46.892C91.8218 46.9038 91.5996 47.1051 91.3804 47.3242C91.0071 47.715 90.9745 47.7387 90.8176 47.4543C90.6667 47.2055 90.6489 47.2084 90.6843 47.5313C90.7257 47.78 90.4857 48.0939 89.8429 48.6208C88.7645 49.4941 87.8995 50.1128 87.704 50.1453C87.6329 50.1571 87.393 50.3614 87.1915 50.5775C86.9901 50.7936 86.7412 50.9446 86.6465 50.9238C86.5487 50.8853 86.5013 50.9297 86.5161 51.0186C86.5427 51.1785 86.0835 51.4923 85.8585 51.4566C85.7844 51.4507 85.6452 51.6017 85.5503 51.8001C85.4555 51.9985 85.2748 52.1198 85.1564 52.0665C85.0379 52.0131 84.8069 52.1611 84.6617 52.3862C84.4098 52.7385 84.2261 52.8421 83.7582 52.8834C83.7049 52.8923 83.5626 53.0255 83.4441 53.1913C83.3256 53.3571 83.0768 53.5081 82.9168 53.5347C82.5614 53.5938 82.2388 53.1909 82.5231 53.034C82.6238 52.9807 82.5203 52.7971 82.2331 52.6074C81.8393 52.3259 81.8156 52.2933 82.1176 52.3527C82.8757 52.5188 83.089 52.4833 83.1542 52.2168C83.1839 52.0658 83.3054 51.9177 83.3943 51.903C83.4831 51.8882 83.6964 51.7432 83.8149 51.5773C83.9512 51.4086 84.3363 51.1984 84.6829 51.086C85.4648 50.8464 85.61 50.731 85.4353 50.4495C85.3347 50.2837 85.4117 50.1978 85.6605 50.1564C85.856 50.1239 86.0515 49.9818 86.0812 49.8308C86.1108 49.6798 86.2234 49.588 86.3211 49.6265C86.4188 49.6651 86.5907 49.6 86.6973 49.4727C87.0203 49.1085 87.8585 48.7682 88.0658 48.9164C88.1902 49.0053 88.3116 48.8572 88.4006 48.5137C88.4896 48.1702 88.5933 48.0251 88.7028 48.1347C88.8153 48.2621 88.8805 48.2147 88.9013 48.0104C88.928 47.8416 88.9755 47.578 88.9874 47.43C89.0141 47.2612 89.1444 47.1664 89.2954 47.1961C89.4465 47.2258 89.5472 47.1725 89.5324 47.0836C89.5177 46.9948 89.6658 46.8971 89.8435 46.8676C90.0389 46.835 90.1634 46.7048 90.1427 46.5804C90.1013 46.3316 90.4242 46.077 90.9396 45.9913C91.1173 45.9618 91.2447 45.8493 91.224 45.7249C91.1885 45.5116 91.9973 44.7745 92.335 44.7183C92.4416 44.7006 92.7141 44.4726 92.9245 44.2002C93.1349 43.9278 93.4045 43.6821 93.523 43.6259C93.6444 43.5874 93.7866 43.4542 93.8429 43.3535C93.8963 43.2351 93.9525 43.244 93.9732 43.3684C93.9909 43.475 94.0798 43.5698 94.1864 43.5521C94.2752 43.5373 94.3375 43.3626 94.3079 43.1849C94.2695 42.9539 94.3436 42.8502 94.5627 42.8503C94.7286 42.8593 94.8589 42.7645 94.8382 42.6401C94.8205 42.5335 94.9776 42.27 95.182 42.0716C95.3864 41.8733 95.6501 41.592 95.7568 41.4647C95.9523 41.213 96.1893 41.1006 96.521 41.1185C96.6128 41.1215 96.6247 41.083 96.5418 41.0237C96.296 40.8637 96.6604 40.4196 97.1047 40.3457C97.3535 40.3043 97.4987 40.1889 97.4691 40.0112C97.4455 39.869 97.5047 39.7861 97.6025 39.8246C97.7002 39.8632 97.875 39.7063 97.9817 39.4694C98.0884 39.2325 98.2365 39.0252 98.3076 39.0134C98.6393 38.9217 98.9711 38.6109 98.8586 38.4835C98.7906 38.4035 98.8587 38.3739 99.0275 38.4006C99.2348 38.4392 99.294 38.3563 99.2527 38.1075C99.2113 37.8587 99.2706 37.7758 99.4779 37.8144C99.8184 37.8856 100.221 37.4533 100.05 37.1897C99.9757 37.0741 100.002 36.9053 100.115 36.8136C100.242 36.7011 100.266 36.7336 100.216 36.8699C100.035 37.32 100.509 36.9855 101.069 36.2897C101.51 35.7597 101.599 35.5258 101.407 35.4665C101.232 35.4042 101.276 35.3421 101.543 35.2977C102.076 35.2091 103.519 33.5629 103.294 33.3081C103.229 33.2459 103.365 32.9676 103.576 32.6952C103.94 32.2511 103.958 32.2481 103.715 32.6538C103.256 33.4059 103.727 33.0536 104.562 32.0381C105.001 31.4903 105.489 31.0255 105.632 31.0019C105.792 30.9753 106.002 30.8125 106.1 30.6318C106.272 30.3476 106.251 30.3328 105.999 30.4659C105.614 30.6761 105.614 30.4569 105.978 30.0128C106.346 29.5865 106.183 29.3761 105.792 29.7699C105.543 30.0304 105.543 30.0304 105.709 29.7106C105.807 29.53 106.002 29.3879 106.115 29.4057C106.343 29.4591 106.669 29.1127 106.627 28.8639C106.616 28.7929 106.524 28.7899 106.411 28.8816C106.284 28.9941 106.275 28.9408 106.402 28.7187C106.613 28.3368 106.767 28.2746 106.657 28.6033C106.539 28.9883 108.933 25.4856 109.125 24.997C109.973 22.9567 111.526 19.8861 111.683 19.9513C111.799 19.9869 111.816 19.9839 111.748 19.9039C111.665 19.8447 111.737 19.3945 111.891 18.8941C112.045 18.3936 112.158 17.9731 112.119 17.9612C112.081 17.9494 111.853 17.896 111.61 17.8633C111.18 17.8069 111.163 17.8098 111.521 18.0972C111.838 18.355 111.847 18.4083 111.648 18.6422C111.464 18.8554 111.408 18.8465 111.358 18.5444C111.325 18.3489 111.228 18.2008 111.139 18.2156C110.961 18.2451 111.068 18.6657 111.275 18.8139C111.524 18.9917 111.458 19.1486 111.088 19.338C110.887 19.4446 110.682 19.5333 110.626 19.5244C110.573 19.5333 110.484 19.7672 110.424 20.0693C110.324 20.5609 110.326 20.5787 110.561 20.3389C110.777 20.102 110.78 20.1198 110.563 20.4662C110.436 20.6883 110.338 20.9785 110.362 21.1206C110.403 21.3694 109.899 22.4029 109.843 22.1748C109.781 21.9112 109.105 23.0097 109.135 23.297C109.206 23.7235 108.85 24.3305 108.613 24.2238C108.498 24.1882 108.436 24.2533 108.459 24.3955C108.483 24.5377 108.397 24.6798 108.255 24.7035C108.113 24.7271 108.024 24.8515 108.047 24.9936C108.071 25.1358 108.018 25.2542 107.911 25.272C107.804 25.2897 107.748 25.3904 107.763 25.4792C107.831 25.8879 107.049 27.1138 106.622 27.2943C106.11 27.5073 105.905 27.8153 106.219 27.9457C106.376 28.0109 106.343 28.1442 106.145 28.3781C105.872 28.7156 105.854 28.7186 105.899 28.3276C105.926 28.0493 105.878 27.9841 105.769 28.0936C105.674 28.1824 105.624 28.4282 105.659 28.6415C105.724 29.0324 104.622 30.6402 104.249 30.7023C104.035 30.7377 102.883 32.153 103.007 32.2419C103.173 32.3604 102.243 33.5743 101.78 33.8703C101.532 34.0213 101.363 34.2137 101.431 34.2937C101.499 34.3737 101.437 34.4388 101.295 34.4625C101.152 34.4861 100.954 34.72 100.832 34.9776C100.711 35.2352 100.477 35.475 100.281 35.5076C100.086 35.5401 99.914 35.7147 99.8695 35.8865C99.7864 36.2655 98.4827 37.8703 98.2162 37.9146C98.1273 37.9294 97.8933 38.1692 97.6977 38.4209C97.5051 38.6903 97.1289 39.0633 96.8859 39.2498C96.6252 39.4393 96.4445 39.6702 96.4622 39.7768C96.48 39.8835 96.4503 39.9249 96.3881 39.8805C96.326 39.836 96.1008 40.0196 95.9053 40.2712C95.6919 40.5259 95.4579 40.7657 95.3691 40.7804C95.2802 40.7952 94.901 41.1505 94.5158 41.5798C94.1307 42.0091 93.6418 42.4739 93.4285 42.6189C93.2152 42.764 92.7205 43.1932 92.3265 43.5692C90.4363 45.381 88.4189 46.9766 88.1642 46.8729C88.0665 46.8343 88.0043 46.8995 88.025 47.0239C88.0546 47.2016 88.019 47.2075 87.8828 47.0475C87.7496 46.9053 87.6696 46.9734 87.5806 47.3169C87.5124 47.5657 87.3494 47.7937 87.2073 47.8173C87.0651 47.8409 86.9526 47.9327 86.9318 48.0275C86.911 48.1222 86.6948 48.2495 86.4312 48.3116C86.1676 48.3737 85.9898 48.5128 86.0105 48.6372C86.0283 48.7439 85.966 48.9186 85.8682 48.9896C85.7557 49.0814 85.7142 49.0518 85.7765 48.877C85.8269 48.7408 85.7617 48.7882 85.6491 48.9895C85.5365 49.1909 85.4269 49.3004 85.415 49.2293C85.4032 49.1583 85.2669 49.2174 85.104 49.3359C84.8937 49.4987 84.7663 49.5016 84.6894 49.3683C84.6183 49.2705 84.5946 49.3475 84.6153 49.5815C84.6448 49.8688 84.5885 49.9695 84.3812 49.9309C84.2301 49.9012 83.8954 50.0847 83.611 50.3512C82.7992 51.1801 82.6985 51.2334 82.7372 50.8069C82.758 50.6026 82.7017 50.4841 82.6395 50.5493C82.5595 50.6173 82.5121 50.7713 82.5357 50.9135C82.5564 51.0379 82.4705 51.18 82.3639 51.1977C82.2572 51.2155 82.0202 51.4375 81.875 51.6625C81.632 52.0682 81.5965 52.0741 81.4959 51.7986C81.3953 51.5232 81.3627 51.5469 81.2441 51.9318C81.1729 52.1628 80.9389 52.4026 80.7434 52.4351C80.5509 52.4854 80.1332 52.7192 79.8281 52.9708C79.4756 53.2669 79.2356 53.3616 79.1468 53.2668C79.0787 53.1868 79.1054 53.018 79.218 52.9262C79.3306 52.8344 79.3662 52.7189 79.3218 52.6715C79.2596 52.6271 79.0285 52.7751 78.83 53.009C78.6108 53.2281 78.353 53.4353 78.2464 53.453C78.0865 53.4796 77.177 54.1605 76.8659 54.4861C76.8363 54.5276 76.9606 54.7261 77.159 54.9305C77.5379 55.3423 78.3968 55.3456 78.3288 54.9368C78.2786 54.6347 78.8058 54.401 79.1937 54.5373C79.4839 54.6352 79.5669 54.4752 79.4279 54.0783C79.3983 54.0102 79.496 53.9392 79.6382 53.9155C79.9403 53.8653 80.0232 54.1437 79.7358 54.2828C79.6173 54.339 79.5995 54.4516 79.6824 54.5108C79.7653 54.5701 79.9135 54.4724 80.0083 54.274C80.1891 53.9335 80.1891 53.9335 80.4407 54.2386C80.7634 54.6415 80.7811 54.7482 80.5501 54.7866C80.4435 54.8043 80.2687 54.9612 80.1324 55.13C79.925 55.4201 79.8894 55.426 79.7355 55.1594C79.5816 54.8928 79.5816 54.8928 79.5193 55.1771C79.4659 55.4052 79.3504 55.4792 79.069 55.4346C78.7521 55.396 78.7048 55.4404 78.8498 55.6537C78.9771 55.87 78.9623 55.8907 78.7431 55.781C78.5211 55.6536 78.4529 55.6832 78.4143 55.8905C78.3847 56.0415 78.1714 56.1866 77.9404 56.225C77.7094 56.2634 77.4902 56.3729 77.4516 56.4706C77.4131 56.5684 77.2472 56.669 77.0873 56.6956C76.7318 56.7547 76.1276 56.9647 75.4967 57.234C75.1383 57.3849 74.9339 57.3642 74.5668 57.133L74.096 56.8278L74.0485 57.2009C74.004 57.4823 73.8588 57.5977 73.4145 57.6716C73.0591 57.7307 72.8133 57.6803 72.7926 57.5559C72.7749 57.4493 72.692 57.4996 72.6297 57.6743C72.5408 57.9082 72.3719 57.9911 72.0758 57.9673C71.8359 57.9524 71.3976 57.9522 71.0718 57.9699C70.0441 58.0495 69.3066 58.0078 69.1764 57.8833C69.1112 57.8211 68.8062 57.744 68.513 57.738C67.9622 57.72 66.4046 57.139 66.3691 56.9257C66.3573 56.8547 66.2004 56.7894 66.0286 56.745C65.1254 56.5847 64.0416 55.9979 64.1631 55.7403C64.2283 55.5834 64.1899 55.5715 64.0773 55.6633C63.7277 55.9771 59.1355 52.4126 59.0232 51.7373C58.9966 51.5774 58.8575 51.3997 58.7064 51.37C58.5554 51.3403 58.4192 51.1803 58.3926 51.0204C58.366 50.8605 58.0729 50.5257 57.7354 50.2531C57.2114 49.8472 56.9686 49.4858 57.0812 49.2844C57.0961 49.2637 56.9391 49.0889 56.7289 48.923L56.347 48.603L56.0536 49.0353C55.8907 49.2633 55.7869 49.5179 55.8343 49.5831C55.8817 49.6483 55.8016 49.7164 55.6595 49.74C55.5173 49.7637 55.4196 49.8347 55.4492 49.9028C55.5676 50.1753 55.3452 50.815 55.1319 50.8504C54.9898 50.8741 54.9542 50.9896 55.0341 51.1406C55.1584 51.3391 55.111 51.3835 54.7734 51.3301C54.4181 51.2796 54.3884 51.3211 54.5482 51.6232C54.7081 51.9254 54.6784 51.9668 54.3971 51.9223C54.2075 51.8808 54.1187 51.8955 54.2016 51.9548C54.551 52.1889 53.5315 53.9655 51.3685 56.8819C49.25 59.7362 48.2189 60.8938 45.5911 63.3214C40.294 68.2565 34.7575 71.6426 28.41 73.8853C26.6861 74.5007 25.685 74.7402 23.0194 75.1835C20.5137 75.6002 19.6874 75.6828 19.4446 75.5406C18.8791 75.2146 19.1483 75.736 19.7435 76.1301C24.6083 79.357 28.6616 82.4267 28.5194 82.779C28.466 82.8975 28.5401 82.9034 28.6911 82.8235C28.8244 82.7466 28.9547 82.7614 28.9695 82.8503C28.9872 82.9569 29.2744 83.2561 29.609 83.5109C30.5564 84.2665 31.7258 85.6974 31.8056 86.1772C31.8469 86.426 32.0097 86.7459 32.1814 86.8999C32.9601 87.6288 32.5063 89.293 31.5172 89.2749C31.2802 89.2778 31.141 89.3192 31.2091 89.3992C31.366 89.574 30.7588 89.6567 30.2317 89.5617C29.7401 89.4609 27.9961 88.5273 25.9974 87.2709C25.2039 86.782 22.9861 85.4159 21.0585 84.2572C15.56 80.953 15.3557 80.8226 13.6561 79.7174C12.7767 79.1514 11.7315 78.4669 11.3229 78.2061C10.9143 77.9454 10.562 77.5839 10.5324 77.4062C10.494 77.1752 10.4348 77.1485 10.3696 77.3054C10.2896 77.4831 10.1563 77.4505 9.80099 77.1809C9.54932 76.9853 9.3924 76.8105 9.48125 76.7957C9.5701 76.781 9.42505 76.6772 9.14966 76.5587C8.87427 76.4401 7.34049 75.4534 5.75345 74.3659C3.16266 72.6235 2.7807 72.4131 2.26535 72.4988C1.73223 72.5875 1.67004 72.543 1.59911 72.1165C1.48681 71.4413 0.924195 71.133 0.272549 71.3875C-0.174713 71.5532 -0.248736 71.5473 -0.183482 71.2807C-0.144907 71.0734 0.00614084 70.9935 0.302295 71.0173C0.524411 71.0352 0.716945 70.9849 0.702169 70.896C0.660794 70.6472 -0.0173001 70.3035 -0.455622 70.3033C-0.728097 70.3121 -0.890921 70.2113 -0.884936 70.0277C-0.884817 69.699 -1.10398 69.6989 -1.34102 70.0305C-1.47436 70.2171 -1.54244 70.1371 -1.62519 69.6395C-1.68134 69.3018 -1.79974 69.0293 -1.88859 69.0441C-2.26178 69.1062 -3.00406 66.0702 -2.83199 65.2381C-2.78154 64.9923 -2.73111 64.7465 -2.73702 64.711C-2.73698 64.6014 -2.43768 64.0951 -1.95764 63.3578C-1.75318 63.0498 -1.56946 62.7271 -1.5487 62.6323C-1.50717 62.4428 -0.479052 61.2674 3.22147 57.1639C4.37696 55.876 8.95747 50.5853 9.63894 49.7414C9.77524 49.5727 10.1693 49.0871 10.5338 48.643C12.8537 45.7918 14.1219 44.0834 14.0865 43.8701C14.0628 43.728 14.1043 43.648 14.1665 43.6925C14.2286 43.7369 14.6315 43.4142 15.0522 42.979C16.2818 41.6971 16.6933 41.8661 15.7748 43.2607C14.8443 44.6937 14.8147 44.8448 15.5879 44.1135C16.1715 43.5599 16.3907 43.4504 16.6632 43.5512C16.8971 43.6401 17.0392 43.6165 17.14 43.4536C17.3919 43.1013 17.907 43.5635 18.043 44.2714C18.1612 44.8726 18.2531 44.8756 18.7271 44.322C19.4293 43.493 20.3265 43.9464 20.3794 45.1429C20.4 45.4865 20.3643 45.9307 20.3228 46.1202C20.2309 46.446 20.2486 46.443 20.6308 46.1055C21.0278 45.7473 21.0278 45.7473 21.2053 46.1561C21.2971 46.3782 21.3561 46.9528 21.3263 47.4326C21.1865 49.2273 19.5417 52.1853 14.4865 59.6735C12.3175 62.8831 10.0891 66.3948 10.1187 66.5725C10.1305 66.6436 10.3082 66.7236 10.4948 66.7473C10.6991 66.7681 10.856 66.8333 10.8649 66.8867C10.8738 66.94 11.1344 66.9697 11.4246 66.9579C12.0555 66.9078 12.322 66.9731 12.2301 67.1892C12.1382 67.4054 13.1481 67.4383 13.5687 67.2223C13.8561 67.0832 13.9123 67.0921 13.8648 67.3557C13.8115 67.5837 13.8736 67.6281 14.0395 67.5275C14.1728 67.4505 14.3268 67.498 14.4097 67.6668C14.5695 67.969 15.3246 68.3365 15.2803 68.0699C15.2655 67.9811 15.3662 67.9278 15.5172 67.9575C15.6682 67.9871 15.7719 67.9516 15.7571 67.8628C15.7423 67.7739 15.5173 67.7383 15.2656 67.7619C14.8154 67.8002 14.3475 67.6224 14.4631 67.4388C14.5668 67.2937 16.1986 67.4424 16.2252 67.6023C16.2399 67.6912 16.1511 67.7059 16.0356 67.6704C15.8994 67.62 15.8846 67.6407 15.9793 67.771C16.0681 67.8658 16.2369 67.8926 16.3554 67.8363C16.4709 67.7623 16.8323 67.7388 17.1314 67.7803C17.5401 67.8219 17.8214 67.7569 18.1118 67.526C18.4376 67.2892 18.7012 67.2271 19.2373 67.2658C19.6252 67.2926 20.0694 67.3282 20.2531 67.3342C20.4367 67.3402 20.5492 67.2485 20.5256 67.1063C20.4931 66.9108 20.5612 66.8812 20.8722 66.9939C21.1801 67.0888 21.2868 67.071 21.3816 66.8726C21.4735 66.6565 21.5446 66.6446 21.8969 66.7869C22.1901 66.9025 22.3352 66.8967 22.3827 66.7427C22.436 66.6242 22.6078 66.5591 22.7766 66.5858C22.9454 66.6126 23.1705 66.5386 23.2801 66.4291C23.3868 66.3017 23.6593 66.1834 23.8903 66.145C24.924 65.9913 28.0786 64.6449 30.1995 63.4521C31.8525 62.5198 35.6887 59.8913 35.7421 59.6632C35.7658 59.5862 35.8458 59.5182 35.9346 59.5034C36.0235 59.4886 36.4234 59.1482 36.8323 58.7514C37.2411 58.3547 37.6233 58.0172 37.6944 58.0054C37.7654 57.9936 37.9551 57.816 38.1358 57.585C39.161 56.2823 41.4186 53.9345 41.4807 54.0886C41.6376 54.3729 39.3236 57.1501 38.9267 57.1796C38.7993 57.1825 38.7282 57.3039 38.7489 57.4283C38.7696 57.5527 38.6807 57.677 38.5385 57.7007C38.3963 57.7243 38.2542 57.8576 38.183 57.979C37.9222 58.6067 33.6948 61.9578 31.5353 63.2483C30.4037 63.9113 29.8942 64.3612 30.5754 64.0653C31.1738 63.8197 33.5081 62.3723 35.0959 61.2682C38.0938 59.1991 41.5216 55.6523 43.8329 52.1999C44.4018 51.3383 44.9677 50.678 45.0655 50.7166C45.1632 50.7551 45.1869 50.6781 45.1099 50.5448C45.033 50.4115 45.1219 50.068 45.3412 49.7393C45.9961 48.7356 46.5947 47.6133 46.5681 47.4534C46.5534 47.3645 46.6571 47.2195 46.7904 47.1425C46.9237 47.0655 46.9918 46.9264 46.9267 46.8642C46.7491 46.6745 47.2024 46.1061 47.4867 46.1684C47.62 46.201 47.7474 46.0885 47.7948 45.9345C47.8245 45.7835 47.7683 45.665 47.6616 45.6827C47.555 45.7005 47.5758 45.4961 47.6943 45.2207C47.8425 44.9039 47.8426 44.7943 47.7152 44.9068C47.5878 45.0193 47.5938 44.9453 47.736 44.7025C47.8664 44.4982 47.9909 44.1487 48.0117 43.9444C48.0473 43.7193 48.1659 43.5535 48.2754 43.5535C48.385 43.5536 48.4413 43.4529 48.3821 43.3167C48.3229 43.1804 48.249 42.9553 48.2105 42.8338C48.1691 42.6946 48.0596 42.4754 47.9501 42.3658C47.8139 42.2058 47.8879 42.2118 48.1544 42.3866C48.6815 42.7007 48.7318 42.6741 48.9394 42.0552C49.0728 41.6495 49.0669 41.5044 48.8981 41.4777C48.7263 41.4332 48.7234 41.4154 48.8833 41.3888C49.0077 41.3681 49.07 41.1934 49.0404 41.0157C48.9577 40.5181 49.0763 40.1332 49.3429 40.0888C49.485 40.0652 49.6094 39.9349 49.6391 39.7839C49.6688 39.6329 49.8288 39.4967 49.9709 39.473C50.202 39.4346 50.196 39.3991 49.9799 39.3072C49.7459 39.2183 49.7489 39.1265 49.9357 38.7119C50.0542 38.4365 50.0987 38.1552 50.0306 38.0752C49.9626 37.9952 50.013 37.859 50.1463 37.782C50.2796 37.7051 50.33 37.5689 50.2619 37.4889C50.1938 37.4089 50.2175 37.2223 50.3271 37.1128C50.6382 36.7871 50.8251 35.9342 50.6089 35.8423C50.4935 35.8068 50.4965 35.6054 50.621 35.3655C50.8818 34.8473 50.8374 34.6903 50.482 34.7495C50.2332 34.7908 50.2273 34.7553 50.4643 34.4237C50.6125 34.2164 50.811 34.0921 50.9058 34.1129C51.0035 34.1514 50.9946 34.0981 50.9236 34.0003C50.8081 33.8552 50.7015 33.8729 50.5356 34.0831C50.3341 34.2992 50.3163 34.3022 50.3519 34.0771C50.4083 33.7573 51.1903 33.2985 51.4005 33.4644C51.4834 33.5237 51.4656 33.6362 51.3471 33.6925C51.2287 33.7487 51.1635 33.9056 51.1871 34.0478C51.2403 34.3677 51.8238 34.2524 52.0372 33.8882C52.1379 33.7253 52.3216 33.6217 52.4519 33.6366C52.5851 33.6692 52.6651 33.6011 52.6148 33.5182C52.5467 33.3286 53.0119 32.8312 53.1392 32.9379C53.1806 32.9675 53.3109 33.2015 53.4085 33.4592C53.5565 33.7999 53.5535 33.8917 53.361 33.8324C53.1685 33.7731 53.1715 33.7908 53.358 33.9242C53.4853 34.0308 53.5682 34.1997 53.5533 34.33C53.494 34.6321 54.0745 34.7182 54.3204 34.4398C54.427 34.3125 54.5307 34.277 54.5425 34.3481C54.5691 34.5081 55.6205 34.3515 55.8575 34.1294C55.9553 34.0584 56.0708 34.094 56.1477 34.2273C56.2247 34.3606 56.2128 34.5086 56.1328 34.5767C56.0528 34.6448 56.0142 34.8521 56.0438 35.0298C56.097 35.3497 56.1148 35.3467 56.4288 35.0388C56.8051 34.6658 57.0835 34.583 56.965 34.8584C56.9264 34.9561 56.9915 35.0183 57.1337 34.9947C57.2758 34.971 57.4328 35.0362 57.5068 35.1518C57.5779 35.2495 57.5986 35.1548 57.5779 34.9208C57.5337 34.5446 57.5485 34.5239 57.7528 34.7639C57.8682 34.909 58.0281 34.992 58.0903 34.9269C58.1555 34.8795 58.4249 35.0721 58.7091 35.3536C59.168 35.8069 59.2095 35.9461 59.15 36.5769C59.0787 37.2462 59.1024 37.2788 59.446 37.1486C59.8755 36.9858 60.2218 37.4213 60.5501 38.5172C60.6685 38.8993 60.8046 39.2785 60.8904 39.3555C60.9585 39.4355 60.9348 39.5125 60.846 39.5273C60.7216 39.5479 60.7452 39.6901 60.9199 39.9715C61.0501 40.2055 61.2661 40.7357 61.3696 41.1386C61.4761 41.5591 61.6506 42.0597 61.7246 42.2848C61.8163 42.507 62.0471 43.2356 62.2512 43.9139C62.4553 44.5922 62.7038 45.3179 62.8103 45.5193C62.976 45.857 62.9464 45.8984 62.6621 45.8361C62.3601 45.7768 62.3453 45.7975 62.6384 46.0227C62.8071 46.159 63.1712 46.7011 63.4228 47.2254C64.3698 49.1863 65.1661 50.3505 65.9773 50.9461C66.4155 51.275 66.9159 51.5388 67.0936 51.5092C67.2536 51.4826 67.3543 51.5389 67.3157 51.6366C67.2772 51.7344 67.3305 51.8351 67.4311 51.8914C67.5289 51.9299 67.6059 51.8441 67.5822 51.7019C67.5586 51.5597 67.609 51.4235 67.7156 51.4058C67.8045 51.391 67.9081 51.4651 67.9288 51.5895C67.9702 51.8383 68.6424 52.1465 68.7579 51.9629C68.8024 51.9007 68.7432 51.7645 68.6129 51.6401C68.4205 51.4712 68.456 51.4653 68.8884 51.5395C69.1697 51.584 69.6614 51.5753 69.9931 51.4836C70.4848 51.3653 70.6387 51.4127 70.8726 51.7208C71.062 51.9815 71.1064 52.1385 70.9939 52.2303C70.8813 52.322 70.8931 52.3931 71.05 52.4583C71.1685 52.5117 71.3877 52.4022 71.524 52.2334C71.6603 52.0646 71.8706 51.9018 71.9772 51.8841C72.3149 51.828 72.155 51.5258 71.6013 51.1613L71.0714 50.8294L71.9954 50.6758C72.5108 50.5901 73.2009 50.457 73.5356 50.3831C74.0272 50.2648 74.1605 50.2975 74.1782 50.5137C74.19 50.6943 74.0952 50.7831 73.9442 50.7535C73.7754 50.7268 73.7309 50.7889 73.7871 50.9074C73.9174 51.1414 74.9984 51.053 74.9067 50.8308C74.8741 50.7449 74.9482 50.6413 75.0815 50.5643C75.2474 50.4637 75.3006 50.5644 75.3005 50.8932C75.2914 51.3877 75.4484 51.4529 75.7062 51.0266C75.9048 50.6831 75.7243 50.147 75.431 50.2505C75.3274 50.286 75.1704 50.2208 75.0935 50.0875C75.0165 49.9542 74.8981 49.9009 74.8181 49.969C74.7381 50.037 74.6611 50.0133 74.6434 49.9067C74.605 49.6757 74.8893 49.6284 75.0699 49.8358C75.1617 49.9483 75.3009 49.9069 75.449 49.6997C75.5853 49.5309 75.8875 49.3711 76.1185 49.3327C76.3495 49.2942 76.6457 49.2085 76.7849 49.167C76.9212 49.1079 77.0426 49.179 77.0662 49.3212C77.0928 49.4811 76.9654 49.5936 76.6959 49.6202C76.4619 49.6408 76.1953 49.7947 76.0738 49.9427C75.9524 50.0908 75.9523 50.2004 76.0589 50.1826C76.1656 50.1649 76.2603 50.2952 76.2898 50.4729C76.3312 50.7217 76.4645 50.7544 77.0154 50.6628C77.3856 50.5829 77.6433 50.4853 77.5782 50.4231C77.513 50.3608 77.6285 50.2868 77.8418 50.2514C78.055 50.2159 78.2742 50.3256 78.3985 50.524C78.5761 50.8232 78.6116 50.8173 78.7687 50.5538C78.9109 50.311 78.9021 50.2577 78.7243 50.2872C78.6 50.3079 78.5378 50.2635 78.6 50.1983C78.6445 50.1362 78.8903 50.1866 79.1153 50.3318C79.3995 50.5037 79.5476 50.5156 79.5802 50.3823C79.6099 50.2313 79.7491 50.1899 80.0512 50.2492C80.3325 50.2937 80.5102 50.2642 80.5636 50.1457C80.6021 50.048 80.5725 49.9799 80.5044 50.0095C80.0719 50.1544 79.8972 50.0922 80.0543 49.8287C80.1847 49.6244 80.1551 49.5562 79.9863 49.5295C79.856 49.5147 79.9241 49.4851 80.1432 49.4851C80.4898 49.4823 80.5194 49.4409 80.3448 49.0499C80.2027 48.7448 80.2235 48.65 80.3775 48.6974C80.4959 48.7508 80.5789 48.7005 80.5612 48.5938C80.5434 48.4872 80.6412 48.4162 80.7922 48.4458C80.9432 48.4755 81.0469 48.44 81.0203 48.3897C80.9552 48.2179 81.2546 47.2732 81.379 47.2525C81.4501 47.2407 81.4885 47.4717 81.4973 47.7442C81.5091 48.0344 81.5801 48.2418 81.6867 48.224C81.7756 48.2093 81.7845 48.0434 81.6987 47.8568C81.5833 47.6021 81.6099 47.5428 81.7846 47.6051C81.9209 47.6555 82.0749 47.5934 82.1401 47.4364C82.2201 47.2587 82.3061 47.2262 82.4186 47.3536C82.5725 47.5106 83.0167 47.5463 83.4906 47.431C83.6298 47.3896 83.6447 47.2592 83.5589 47.0726C83.4494 46.8534 83.5027 46.735 83.8078 46.5929C84.0625 46.4775 84.1663 46.3325 84.0893 46.1991C84.0124 46.0658 84.0686 45.9652 84.2671 45.9504C84.6639 45.921 84.9926 46.1402 85.1494 46.5342C85.2855 46.9133 85.8571 46.9461 86.0764 46.6174C86.192 46.4339 86.189 46.4161 86.0587 46.5108C85.9609 46.5819 85.7773 46.5759 85.6677 46.4663C85.3717 46.2233 85.3334 45.554 85.5999 45.6192C85.7125 45.637 85.8635 45.5571 85.9169 45.4387C85.9851 45.2995 85.9436 45.2699 85.831 45.3616C85.7362 45.4504 85.6444 45.4474 85.6296 45.3586C85.5824 45.0743 86.391 44.6659 86.7582 44.7874C87.0099 44.8734 87.1136 44.8379 87.1551 44.6483C87.1848 44.4973 87.1256 44.3611 87.0279 44.3225C86.9302 44.284 86.8679 44.3491 86.8857 44.4558C86.9034 44.5624 86.8797 44.6394 86.8353 44.592C86.5481 44.4023 86.9008 43.668 87.5288 43.1618C87.9139 42.842 88.2813 42.5253 88.308 42.466C88.4354 42.244 89.1197 41.6371 89.2797 41.6105C89.3685 41.5957 89.324 41.7675 89.1759 41.9747C88.9418 42.3241 88.9477 42.3597 89.1965 42.2087C89.3476 42.1288 89.4869 41.8682 89.5018 41.6283C89.5197 41.4062 89.6204 41.2434 89.7181 41.2819C89.8158 41.3204 90.0439 41.1547 90.2188 40.8882C90.764 40.1036 91.395 39.5055 91.6408 39.556C91.7711 39.5708 91.8363 39.5235 91.8008 39.4198C91.7653 39.3161 91.9045 39.1651 92.1089 39.0764C92.3133 38.9876 92.4881 38.8307 92.4911 38.7389C92.4941 38.6471 93.0896 37.9454 93.8392 37.1815C95.119 35.873 95.5694 35.5059 95.4034 35.9352C95.3648 36.033 95.424 36.0596 95.5751 35.9797C95.7084 35.9028 95.8121 35.7577 95.7973 35.6688C95.7826 35.58 95.6907 35.577 95.5959 35.6658C95.5011 35.7546 95.4419 35.728 95.4627 35.6332C95.5339 35.2926 97.0685 33.7591 97.264 33.8361C97.4979 33.9251 97.9157 33.4721 97.7588 33.2973C97.6907 33.2173 97.8596 32.9153 98.1381 32.6133C98.4166 32.3113 98.9321 31.6777 99.2936 31.2158C100.002 30.3128 100.414 30.0434 99.9661 30.757L99.7083 31.1834L100.028 30.8015C100.212 30.5883 100.301 30.3543 100.236 30.2921C100.034 30.0699 100.988 28.9982 101.326 29.0516C101.513 29.0754 101.545 29.0517 101.406 28.9835C101.107 28.8324 102.876 26.1823 103.19 26.3128C103.326 26.3632 103.359 26.3395 103.27 26.2447C103.089 26.0373 103.913 24.7315 104.268 24.6724C104.428 24.6458 104.618 24.4682 104.71 24.252C104.817 24.0151 104.796 23.8907 104.689 23.9085C104.583 23.9262 104.681 23.636 104.876 23.2747C105.087 22.8928 105.353 22.6293 105.483 22.6441C105.617 22.6768 105.715 22.6057 105.712 22.4784C105.712 22.3688 105.694 22.1526 105.67 22.0104C105.664 21.8653 105.736 21.7439 105.86 21.7232C105.967 21.7055 106.115 21.6078 106.171 21.5071C106.245 21.4035 106.207 21.3916 106.094 21.4834C105.789 21.735 105.839 21.4892 106.216 20.7875C106.411 20.4262 106.66 20.1657 106.761 20.222C106.876 20.2576 106.891 20.2369 106.82 20.1391C106.752 20.0591 106.82 19.7008 106.983 19.3632C107.398 18.4541 107.478 18.2765 107.389 18.2912C107.354 18.2972 106.972 18.9634 106.539 19.7658C105.801 21.1486 104.761 22.9104 103.818 24.382C102.775 26.0165 99.6612 30.2416 98.7694 31.2482C98.2302 31.8492 97.4332 32.767 97.0213 33.2556C95.9695 34.508 95.0748 35.4968 94.663 35.8758C94.4734 36.0534 93.9401 36.5804 93.4898 37.057C93.0394 37.5337 92.4054 38.1139 92.1003 38.3656C91.7952 38.6172 91.3537 39.0376 91.1433 39.31C90.933 39.5824 90.4531 39.9909 90.0709 40.2188C89.7066 40.4438 89.4044 40.7132 89.4191 40.802C89.4339 40.8909 88.9925 41.3113 88.4415 41.7316C87.8905 42.152 87.4461 42.5546 87.4579 42.6257C87.4697 42.6968 87.4253 42.7589 87.3513 42.753C87.1114 42.7381 85.9857 43.5462 85.4435 44.1295C84.7591 44.8459 84.1815 45.1063 84.1194 44.7332C84.0603 44.3777 84.795 43.8538 84.9993 44.0938C85.0881 44.1886 85.1799 44.082 85.2156 43.8569C85.2601 43.5756 85.3874 43.4631 85.577 43.5046C85.7843 43.5432 85.8317 43.4988 85.731 43.3329C85.6541 43.1996 85.6719 43.087 85.7608 43.0723C85.8496 43.0575 85.9532 43.1316 85.9739 43.256C85.9917 43.3626 86.0569 43.3152 86.1013 43.1435C86.1458 42.9717 86.2436 42.7911 86.3324 42.7763C86.4183 42.7438 86.6257 42.5632 86.7739 42.3559C86.922 42.1487 87.2301 41.9148 87.4523 41.8231C87.6567 41.7343 88.0388 41.3968 88.2966 41.08C88.5544 40.7632 88.901 40.4316 89.0876 40.3458C89.2742 40.26 89.452 40.1209 89.4786 40.0616C89.5794 39.8988 90.4178 39.1202 90.6963 38.9278C90.8266 38.833 91.2088 38.4956 91.5347 38.1492C91.8606 37.8028 92.5361 37.1426 93.0427 36.6748C96.7163 33.1785 101.768 26.8779 104.293 22.623C104.764 21.8324 105.217 21.1544 105.283 21.107C105.366 21.0567 105.419 20.9382 105.404 20.8494C105.389 20.7605 105.766 19.9492 106.219 19.052C106.69 18.1518 107.242 16.9644 107.455 16.381C107.669 15.7977 107.918 15.318 108.006 15.3032C108.095 15.2884 108.143 15.1344 108.11 14.939C108.081 14.7613 108.125 14.5895 108.232 14.5718C108.338 14.554 108.463 14.3142 108.51 14.0506C108.724 13.1385 109.584 9.96396 109.759 9.47833C109.86 9.20589 109.919 8.90383 109.904 8.81497C109.886 8.70835 109.999 8.17827 110.162 7.62154C110.325 7.06481 110.512 5.77361 110.581 4.7578C110.649 3.74199 110.744 2.77654 110.813 2.63737C111.106 2.31466 111.479 2.36217 112.27 2.94294ZM109.32 10.4644C109.282 10.5621 109.205 10.648 109.169 10.6539C109.133 10.6598 109.086 10.5946 109.071 10.5058C109.057 10.4169 109.134 10.331 109.222 10.3163C109.329 10.2985 109.376 10.3637 109.32 10.4644ZM109.124 11.3735C109.086 11.4713 109.009 11.5571 108.973 11.563C108.938 11.5689 108.89 11.5038 108.876 11.4149C108.861 11.3261 108.938 11.2402 109.027 11.2254C109.13 11.1899 109.178 11.2551 109.124 11.3735ZM108.958 11.9125C108.973 12.0013 108.914 12.0842 108.807 12.102C108.718 12.1168 108.618 12.0604 108.603 11.9716C108.588 11.8827 108.647 11.7998 108.754 11.7821C108.858 11.7466 108.944 11.8236 108.958 11.9125ZM108.398 13.3753C108.365 13.6182 108.253 13.9291 108.149 14.0742C108.045 14.2193 107.971 14.4325 107.986 14.5213C108.004 14.628 107.956 14.6724 107.894 14.6279C107.832 14.5835 107.93 14.1837 108.114 13.7514C108.324 13.2598 108.428 13.1147 108.398 13.3753ZM106.993 17.0058C107.011 17.222 106.471 18.0422 106.35 17.971C106.205 17.8673 106.617 16.9405 106.83 16.905C106.901 16.8932 106.981 16.9347 106.993 17.0058ZM106.335 18.4301C106.231 18.5752 105.982 19.0548 105.76 19.4753C105.556 19.8928 105.333 20.2037 105.271 20.1593C105.209 20.1148 105.313 19.8602 105.467 19.5789C105.639 19.2946 105.825 18.8801 105.897 18.6491C105.968 18.4181 106.137 18.2256 106.279 18.202C106.474 18.1695 106.48 18.205 106.335 18.4301ZM104.45 21.702C104.465 21.7908 104.32 22.1254 104.133 22.4304C103.949 22.7532 103.514 23.4283 103.2 23.9553C102.269 25.498 99.8365 28.7697 99.6943 28.6838C99.6322 28.6393 100.284 27.6178 101.14 26.3979C102.017 25.1929 103.046 23.6887 103.452 23.0551C104.433 21.4858 104.418 21.5065 104.45 21.702ZM108.355 26.1843C108.361 26.2198 108.275 26.362 108.151 26.4922C108.029 26.6403 107.925 26.6758 107.908 26.5691C107.893 26.4803 107.979 26.3382 108.112 26.2612C108.228 26.1872 108.331 26.1517 108.355 26.1843ZM14.6702 42.8782C14.6939 43.0204 14.2168 43.6658 14.0746 43.6895C14.0213 43.6983 13.6421 44.1632 13.2065 44.7287C11.7695 46.6295 10.2673 48.4682 9.99178 48.6783C9.39337 49.1431 9.63949 48.3169 10.3832 47.4079C10.7921 46.9017 11.7787 45.6966 12.5698 44.7433C13.8112 43.2037 14.5904 42.508 14.6702 42.8782ZM99.4929 28.8999C99.5254 29.0954 98.5861 30.3656 97.5936 31.4255C97.2854 31.7689 96.841 32.2811 96.5981 32.5772C96.3551 32.8733 96.0707 33.1397 95.9463 33.1604C95.8219 33.1811 95.9316 32.962 96.1775 32.6837C96.4234 32.4054 97.0338 31.683 97.5197 31.0908C98.0234 30.4957 98.4707 30.0013 98.5241 29.9924C98.5774 29.9835 98.8025 29.6904 99.0366 29.341C99.2559 29.0124 99.4603 28.814 99.4929 28.8999ZM49.6604 38.155C49.6664 38.1906 49.53 38.3593 49.3789 38.5488C49.21 38.7413 49.0768 38.8182 49.062 38.7294C49.0472 38.6405 49.1805 38.454 49.3435 38.3356C49.5034 38.1994 49.6545 38.1195 49.6604 38.155ZM95.5581 33.7911C95.2885 34.1464 94.6723 34.6141 94.5509 34.543C94.4265 34.4541 95.2917 33.6163 95.5582 33.5719C95.6826 33.5512 95.6766 33.6253 95.5581 33.7911ZM9.4823 48.9092C9.52962 49.0839 9.38733 49.4363 9.19178 49.688C8.99622 49.9396 8.59031 50.4637 8.30882 50.8575C8.02733 51.2513 7.63623 51.645 7.46738 51.7279C7.28077 51.8137 7.08523 52.0654 7.03185 52.2934C6.97846 52.5215 6.77103 52.8116 6.59034 52.933C6.39482 53.0751 5.86746 53.6376 5.39636 54.209C3.93861 55.9855 3.82899 56.095 3.21581 56.4709C2.88403 56.6722 2.63515 56.9327 2.65288 57.0393C2.67061 57.146 2.46318 57.4361 2.19654 57.6996C1.9299 57.9631 1.65733 58.3006 1.60693 58.4368C1.55653 58.5731 1.37584 58.6944 1.19813 58.724C1.03819 58.7506 0.839672 58.9845 0.77147 59.2332C0.70326 59.482 0.569921 59.6685 0.472203 59.63C0.374484 59.5914 0.119727 59.8164 -0.0995446 60.1451C-0.318824 60.4738 -0.603255 60.7402 -0.709884 60.7579C-0.834274 60.7786 -0.905387 60.9 -0.887655 61.0066C-0.866968 61.131 -1.01814 61.4301 -1.24924 61.6877C-1.52478 62.0074 -1.62549 62.0607 -1.58692 61.8534C-1.54539 61.6639 -1.61344 61.5839 -1.77338 61.6105C-1.91555 61.6341 -2.00447 61.7585 -1.98378 61.8829C-1.96309 62.0073 -2.15277 62.4041 -2.38391 62.7712C-2.618 63.1206 -2.82249 63.5381 -2.81958 63.6655C-2.80783 63.9557 -3.16922 64.1984 -3.21355 63.9319C-3.27856 63.5409 -2.60587 62.3151 -1.66659 61.0449C-0.410268 59.375 0.454903 58.318 0.614839 58.2914C0.685922 58.2796 0.81038 58.1493 0.917046 58.022C1.02075 57.8769 1.54812 57.3144 2.07844 56.7696C3.35537 55.4433 4.88711 53.7823 6.17299 52.2901C6.75666 51.627 7.35511 50.943 7.52695 50.7684C7.69879 50.5937 8.0514 50.1881 8.32694 49.8683C9.48542 48.4886 9.40542 48.5567 9.4823 48.9092ZM94.2279 35.1263C94.2426 35.2152 94.1389 35.3602 94.0056 35.4372C93.8575 35.5349 93.7598 35.4963 93.7954 35.3809C93.8251 35.1202 94.1924 34.9131 94.2279 35.1263ZM93.1228 36.278C92.5628 36.9738 92.2192 37.2135 92.2697 36.8582C92.2904 36.7634 92.6192 36.4348 92.9866 36.118L93.6798 35.5644L93.1228 36.278ZM47.6327 43.7517C47.523 43.8613 47.4786 44.033 47.5526 44.1486C47.6296 44.2819 47.5317 44.4625 47.3036 44.6283C47.0904 44.7733 46.9185 44.8384 46.9126 44.8029C46.8772 44.5896 47.4669 43.6332 47.6446 43.6037C47.769 43.583 47.7601 43.6392 47.6327 43.7517ZM91.8074 37.4829C91.2059 38.2586 90.4742 38.9099 90.2284 38.8595C90.0981 38.8446 90.1869 38.7203 90.418 38.5723C90.6342 38.445 90.9009 38.1815 91.0194 38.0157C91.1172 37.8351 91.4342 37.545 91.6949 37.3555L92.1867 37.0181L91.8074 37.4829ZM46.7285 46.331C46.7966 46.411 46.7492 46.4554 46.5804 46.4287C46.2605 46.3723 46.1865 46.2568 46.4353 46.2154C46.5242 46.2006 46.6426 46.254 46.7285 46.331ZM89.8462 39.3066C89.861 39.3954 89.6624 39.6293 89.3988 39.801C89.1381 39.9904 88.916 40.0822 88.9041 40.0111C88.8923 39.94 89.0938 39.7239 89.3515 39.5167C89.6122 39.3272 89.8314 39.2177 89.8462 39.3066ZM88.7767 40.3427C88.7885 40.4138 88.6196 40.6063 88.3885 40.7543C88.0597 40.9733 87.9886 40.9851 88.0302 40.7956C88.045 40.6653 88.1576 40.5735 88.2672 40.5736C88.3768 40.5736 88.4567 40.5055 88.4419 40.4167C88.4272 40.3278 88.4864 40.2449 88.5931 40.2272C88.6819 40.2124 88.7648 40.2717 88.7767 40.3427ZM46.0705 47.6457C46.1386 47.7257 46.0794 47.8086 45.9194 47.8352C45.7773 47.8588 45.6173 47.995 45.5876 48.1461C45.5579 48.2971 45.4513 48.4244 45.3802 48.4362C45.1492 48.4746 45.4219 47.8084 45.7033 47.6337C45.8396 47.5745 45.9847 47.5687 46.0705 47.6457ZM87.482 41.4529C87.4435 41.5506 87.3665 41.6365 87.3309 41.6424C87.2954 41.6483 87.248 41.5831 87.2332 41.4943C87.2185 41.4054 87.2955 41.3195 87.3844 41.3048C87.4703 41.2722 87.5176 41.3374 87.482 41.4529ZM86.9163 41.7844C86.9222 41.8199 86.8362 41.962 86.7118 42.0923C86.5903 42.2404 86.4866 42.2759 86.4689 42.1692C86.4541 42.0804 86.54 41.9383 86.6733 41.8613C86.8066 41.7843 86.9103 41.7488 86.9163 41.7844ZM45.1045 49.0847C45.2733 49.221 45.2436 49.372 45.0036 49.6859C44.5977 50.2099 44.494 50.2455 44.5297 49.8012C44.5535 49.6147 44.6335 49.437 44.7046 49.4252C44.7757 49.4133 44.8468 49.2919 44.8617 49.1616C44.8647 48.9602 44.918 48.9514 45.1045 49.0847ZM44.18 50.5533C44.2214 50.8021 43.4568 52.2442 43.2079 52.3951C43.1428 52.4425 42.8701 52.78 42.6183 53.1324C42.3664 53.4847 42.0376 53.8133 41.9132 53.834C41.771 53.8577 41.8333 53.6829 42.0762 53.3869C42.3044 53.1115 42.4614 52.848 42.4467 52.7591C42.4348 52.6881 42.8112 52.0959 43.2882 51.4504C43.7357 50.8464 44.1238 50.4349 44.18 50.5533ZM83.9153 44.274C83.8767 44.3718 83.7997 44.4576 83.7642 44.4635C83.7286 44.4694 83.6812 44.4043 83.6664 44.3154C83.6517 44.2266 83.7287 44.1407 83.8176 44.1259C83.9064 44.1111 83.9538 44.1763 83.9153 44.274ZM84.1401 45.0767C84.1726 45.2722 83.6541 45.888 83.5297 45.7991C83.4054 45.7102 82.1167 46.6368 81.9152 46.9625C81.7581 47.226 80.9911 47.3353 81.006 47.0954C81.0089 47.0036 81.1215 46.9118 81.2489 46.9089C81.3762 46.906 81.4503 46.8024 81.4296 46.678C81.4089 46.5536 81.5037 46.4648 81.6577 46.5122C81.8087 46.5419 81.9095 46.4886 81.8917 46.382C81.874 46.2754 81.9688 46.1866 82.0932 46.1659C82.2176 46.1452 82.6293 45.8758 83.0026 45.5946C83.6899 45.0055 84.0809 44.8309 84.1401 45.0767ZM85.1053 45.7197C85.1378 45.9152 85.0904 45.9596 85.0164 45.8441C84.9424 45.7286 84.9365 45.5834 84.981 45.5213C85.0254 45.4591 85.0758 45.542 85.1053 45.7197ZM80.6829 47.5692C80.6977 47.658 80.6384 47.7409 80.5318 47.7587C80.443 47.7734 80.3423 47.7171 80.3275 47.6283C80.3127 47.5394 80.372 47.4565 80.4786 47.4388C80.5823 47.4033 80.6682 47.4803 80.6829 47.5692ZM80.2031 47.7585C80.212 47.8119 79.9601 48.1642 79.6401 48.5461C79.3201 48.9281 79.083 49.3693 79.1096 49.5292C79.1362 49.6891 79.0059 49.8934 78.837 49.9763C78.4638 50.1479 78.3454 49.8754 78.695 49.6712C78.8609 49.5706 78.8965 49.3455 78.7989 48.9782C78.7309 48.6791 78.7132 48.3533 78.7754 48.2882C78.8347 48.2053 78.9057 48.303 78.9323 48.463C78.9826 48.7651 79.0003 48.7621 79.1693 48.4601C79.3352 48.1403 80.1706 47.5631 80.2031 47.7585ZM77.703 49.0874C77.6645 49.1851 77.5874 49.271 77.5519 49.2769C77.5164 49.2828 77.469 49.2176 77.4542 49.1288C77.4395 49.0399 77.5165 48.9541 77.6054 48.9393C77.6942 48.9245 77.7416 48.9897 77.703 49.0874ZM78.5531 48.9278C78.6774 49.0167 78.3929 49.5023 78.1975 49.5348C78.1086 49.5496 78.0316 49.4163 78.005 49.2563C77.94 48.975 78.3044 48.75 78.5531 48.9278ZM77.7769 49.6413C77.7324 49.813 77.6612 49.9344 77.5991 49.89C77.5369 49.8455 77.5696 49.7123 77.6733 49.5672C77.8066 49.3806 77.8273 49.3955 77.7769 49.6413ZM74.886 50.5968C74.9008 50.6857 74.8237 50.7716 74.7349 50.7863C74.6282 50.8041 74.5809 50.7389 74.6372 50.6382C74.6757 50.5405 74.7528 50.4546 74.7883 50.4487C74.8209 50.425 74.8712 50.508 74.886 50.5968ZM77.0866 50.2126C77.2436 50.2778 77.3324 50.3726 77.2879 50.4348C77.2435 50.497 77.0362 50.4584 76.8348 50.3458C76.438 50.1561 76.6365 50.0318 77.0866 50.2126ZM79.5152 49.9913C79.53 50.0802 79.453 50.1661 79.3641 50.1808C79.2575 50.1986 79.2101 50.1334 79.2664 50.0327C79.3049 49.935 79.382 49.8492 79.4175 49.8432C79.4531 49.8373 79.5004 49.9025 79.5152 49.9913ZM71.4176 51.5937C71.4945 51.727 71.5004 51.8721 71.4353 51.9195C71.3701 51.9668 71.2812 51.872 71.2339 51.6973C71.1541 51.327 71.237 51.2767 71.4176 51.5937ZM82.0285 53.1345C82.2979 53.3271 82.2829 54.0053 81.9896 54.2185C81.569 54.5441 81.5098 54.5174 81.4447 54.1264C81.4122 53.931 81.3234 53.8362 81.2257 53.9072C81.1457 53.9753 81.1012 53.9279 81.128 53.7591C81.1873 53.457 81.4776 53.3357 81.5219 53.6023C81.5367 53.6911 81.6729 53.7415 81.8151 53.7179C82.0105 53.6854 82.0313 53.5906 81.9188 53.3536C81.759 53.0515 81.7827 52.9745 82.0285 53.1345ZM80.4321 53.5278C80.5801 53.6493 80.663 53.8182 80.6215 53.8981C80.4881 54.0846 80.0884 53.7676 80.1181 53.507C80.1478 53.356 80.2396 53.359 80.4321 53.5278ZM78.9778 53.7879C79.0577 53.939 79.0192 54.0367 78.8593 54.0633C78.5749 54.1106 78.4773 53.8529 78.6846 53.6723C78.7824 53.6013 78.9008 53.6546 78.9778 53.7879ZM77.9945 54.0245C78.0626 54.1045 78.2106 54.1164 78.2877 54.0306C78.3825 53.9417 78.4239 53.9714 78.3557 54.1105C78.2935 54.2853 78.2047 54.3 77.9826 54.1726C77.7013 54.0185 77.6273 53.903 77.7694 53.8793C77.8257 53.8882 77.9264 53.9445 77.9945 54.0245ZM77.7841 54.4065C77.7988 54.4954 77.7396 54.5783 77.6507 54.593C77.5619 54.6078 77.4256 54.5574 77.3575 54.4774C77.2895 54.3975 77.3487 54.3145 77.4909 54.2909C77.6508 54.2643 77.7693 54.3177 77.7841 54.4065Z" fill="#FB896B"/>
</g>
</svg>
