<svg width="101" height="118" viewBox="0 0 101 118" fill="none" xmlns="http://www.w3.org/2000/svg">
<mask id="mask0_2727_35460" style="mask-type:alpha" maskUnits="userSpaceOnUse" x="1" y="15" width="97" height="77">
<path d="M97.3736 83.0961L89.0622 78.7542L61.8744 62.8458C35.7635 48.2852 37.9276 41.9724 36.5838 39.4461C39.2275 39.0002 47.3539 35.9982 47.9432 27.4021C51.3714 16.6957 43.0261 14.7726 38.075 15.8456C27.0362 19.9166 27.9101 30.1353 27.4423 30.3841C17.4546 31.0151 11.3841 27.802 3.58889 26.3865C2.35527 27.6028 0.582802 30.8904 3.36189 34.3097C18.3882 43.6028 27.4263 39.1554 27.1933 41.2C31.4972 61.478 41.7676 64.5378 43.8718 67.1398C64.4105 80.703 70.1797 81.9957 82.2816 88.1227C82.843 87.8241 82.1522 86.7511 84.2146 87.6947C88.3146 89.5706 90.9454 89.5163 94.0291 91.4773C97.1128 93.4382 93.0656 88.9888 92.1379 87.9217C91.2102 86.8547 93.1432 86.4267 95.998 86.8288C98.2818 87.1505 97.9317 85.8003 97.4712 85.0849C93.5421 82.8134 86.9799 78.9015 92.1638 81.4258C97.3477 83.9502 97.797 83.5912 97.3736 83.0961Z" fill="#D9D9D9"/>
</mask>
<g mask="url(#mask0_2727_35460)">
<path fill-rule="evenodd" clip-rule="evenodd" d="M39.1048 46.6956L38.7575 47.2164C38.5752 47.5054 38.4203 47.7558 38.4402 47.7933C38.5198 47.943 38.9355 47.5058 39.0968 47.1319C39.1768 46.9213 39.3054 46.7569 39.3627 46.7744C39.4201 46.7919 39.8895 47.3585 40.3999 48.0473C40.9004 48.7174 41.4682 49.4237 41.6812 49.5985C41.9141 49.8107 41.985 49.9891 41.8838 50.1149C41.8014 50.2308 41.8588 50.2483 42.0459 50.1488C42.3178 50.0281 42.405 50.1018 42.6001 50.6943C42.7653 51.2306 42.8724 51.3417 43.021 51.2147C43.1508 51.0976 43.5943 51.3898 44.2059 51.9528C44.7402 52.4609 45.1399 52.8965 45.0838 52.9263C45.0277 52.9562 45.1236 53.0012 45.3231 53.0151C45.5986 53.0366 45.6484 53.1302 45.5894 53.4256C45.5305 53.721 45.589 53.7859 45.8622 53.7127C46.0792 53.6693 46.5701 53.9603 47.1243 54.5058C47.62 54.9864 48.4036 55.6019 48.8559 55.8655C50.0782 56.5838 50.5803 56.941 50.3334 56.9282C50.21 56.9218 50.1451 56.9804 50.1849 57.0552C50.2247 57.1301 50.464 57.2189 50.7395 57.2404C51.3666 57.2909 51.8046 58.1143 51.4064 58.4941C51.1655 58.7183 51.1679 58.8131 51.4359 58.9106C51.8097 59.0719 52.2139 58.9289 51.9061 58.7565C51.8002 58.6928 51.768 58.5419 51.8317 58.436C51.8954 58.3301 52.0088 58.3178 52.0586 58.4113C52.1183 58.5236 52.223 58.5399 52.3066 58.4714C52.4639 58.3158 52.7331 58.4607 54.4125 59.6321C55.0204 60.0529 55.5735 60.551 55.6443 60.7294C55.7152 60.9078 55.8697 61.0177 55.982 60.9579C56.244 60.8186 57.4814 61.3848 57.6606 61.7216C57.7601 61.9088 57.7128 61.9099 57.5009 61.7825C57.3377 61.7013 57.1295 61.716 57.0184 61.8232C56.8985 61.9589 57.0992 62.0202 57.5642 62.0369C57.9719 62.0362 58.3633 62.1401 58.443 62.2898C58.5226 62.4395 58.7245 62.5482 58.8953 62.5534C59.2082 62.555 61.5533 63.8044 63.2105 64.8436C63.654 65.1358 64.8564 65.8167 65.8856 66.3976C66.9049 66.9598 67.7247 67.508 67.7072 67.5654C67.6809 67.6514 67.9302 67.7589 68.2256 67.8178C68.5397 67.8668 69.1254 68.1555 69.5116 68.4302C69.8978 68.7049 70.456 69.0322 70.7339 69.1485C71.0118 69.2647 71.4367 69.5669 71.6608 69.8078C71.885 70.0487 72.0968 70.1761 72.1517 70.0989C72.2242 69.9643 74.375 71.029 74.5044 71.2722C74.5343 71.3284 75.1984 71.7194 75.9772 72.1454C76.756 72.5714 77.45 73.0186 77.5097 73.1309C77.5794 73.2619 77.79 73.3419 77.9695 73.3184C78.1491 73.2949 78.2936 73.3861 78.2773 73.4908C78.2709 73.6142 78.4242 73.6767 78.6138 73.6719C78.812 73.6385 78.9765 73.7671 79 73.9467C79.0234 74.1262 79.1393 74.2086 79.2516 74.1489C79.4574 74.0394 80.6774 74.6629 80.8653 74.9711C80.9051 75.046 81.0098 75.0623 81.0847 75.0225C81.2344 74.9429 82.9803 75.7428 83.0898 75.9486C83.1196 76.0047 83.3028 76.1234 83.5035 76.1847C84.2313 76.4698 84.5765 76.6223 84.6263 76.7159C84.6561 76.772 85.3764 77.1331 86.2212 77.548C87.0661 77.9629 88.0643 78.4403 88.4195 78.6115C89.9074 79.3326 90.022 79.3676 90.2792 79.0387C90.454 78.8257 90.4516 78.731 90.2721 78.7544C90.0925 78.7779 89.9356 78.5733 89.7815 78.1031C89.6263 77.5855 89.5191 77.4744 89.3519 77.6113C89.2408 77.7184 89.0489 77.6285 88.9307 77.4513C88.8025 77.2554 88.6743 77.0595 88.597 77.0045C88.4127 76.8385 88.2172 76.6064 88.079 76.3918C88.0006 76.2895 87.9059 76.2919 87.8609 76.3878C87.7247 76.6283 86.4681 75.304 86.4972 74.9525C86.5123 74.8004 86.3467 74.6244 86.1548 74.5344C85.9442 74.4544 85.6527 74.1773 85.4759 73.9352C85.3179 73.6832 84.9954 73.3025 84.8098 73.0891C84.6056 72.8856 84.4188 72.6249 84.3977 72.5401C84.3667 72.4365 84.1736 72.2992 83.9817 72.2092C83.6751 72.0842 83.6353 72.0093 83.7925 71.8536C84.0422 71.6008 83.904 71.3862 83.388 71.2285C83.13 71.1497 83.0329 71.0573 83.1639 70.9876C83.2949 70.9179 83.2427 70.7296 83.0086 70.47C82.7844 70.2291 82.6813 69.8998 82.7227 69.6618C82.7816 69.3663 82.7618 69.3289 82.6618 69.5021C82.4795 69.7912 81.9053 69.2083 81.3192 68.1516C80.9908 67.534 80.8749 67.4516 80.6527 67.6658C80.5042 67.7928 80.3434 67.8064 80.2837 67.6941C80.2239 67.5818 80.2976 67.4946 80.421 67.501C80.8013 67.5388 80.2646 66.936 79.8258 66.8332C79.5017 66.7656 79.4818 66.7282 79.6876 66.6187C79.8186 66.549 79.8636 66.453 79.7589 66.4367C79.6729 66.4104 79.5821 66.1946 79.5761 65.9577C79.5865 65.6161 79.5192 65.5799 79.3444 65.7929C79.1422 66.0445 79.1222 66.0071 79.1553 65.4373C79.1919 65.0097 79.3194 64.7979 79.565 64.7633C79.8768 64.7175 79.8668 64.6987 79.4929 64.5375C79.1864 64.4125 79.0729 64.4248 79.0689 64.643C79.055 64.8425 78.9315 64.8361 78.6325 64.635C78.3435 64.4527 78.234 64.2469 78.2666 64.0374C78.3005 63.8754 78.2336 63.4788 78.1317 63.1969C78.0198 62.8963 77.9851 62.6506 78.06 62.6108C78.1349 62.571 78.2658 62.5013 78.3781 62.4416C78.4717 62.3918 78.5577 62.4181 78.5601 62.5129C78.5625 62.6076 78.7269 62.7362 78.9276 62.7976C79.2429 62.8939 79.2604 62.8366 78.9566 62.446C78.7512 62.1952 78.6381 61.8472 78.6807 61.6565C78.7221 61.4184 78.6823 61.3435 78.5513 61.4132C78.4391 61.4729 78.3853 61.5975 78.4351 61.6911C78.4848 61.7847 78.3375 61.9591 78.0843 62.0697C77.8311 62.1804 77.6416 62.1852 77.6479 62.0618C77.6642 61.9571 77.7379 61.8699 77.814 61.8775C77.9087 61.8751 78.1771 61.6123 78.3956 61.2559C78.789 60.6866 78.7779 60.6205 78.3766 60.4978C77.8892 60.3489 77.9657 59.9962 78.4956 59.9544C78.6752 59.9309 78.7863 59.8238 78.7265 59.7115C78.6668 59.5992 78.5048 59.5654 78.355 59.645C78.2053 59.7246 78.0532 59.7095 77.9935 59.5972C77.9437 59.5036 77.9876 59.3603 78.1186 59.2906C78.2683 59.211 78.2197 59.1648 77.9816 59.1234C77.6774 59.0931 77.6475 59.037 77.7837 58.7965C77.8649 58.6333 77.8168 58.2268 77.6563 57.88C77.2534 56.9419 77.2534 56.9419 77.5002 56.9546C77.6236 56.961 77.6886 56.9025 77.6388 56.8089C77.589 56.7154 77.7463 56.5597 77.9521 56.4502C78.2615 56.3097 78.3053 56.1663 78.1285 55.9242C78.0003 55.7283 77.9892 55.6623 78.115 55.7634C78.2408 55.8645 78.3829 55.8609 78.4279 55.765C78.5454 55.5345 79.3166 56.0365 79.2864 56.3407C79.28 56.4642 79.5316 56.6664 79.8469 56.7628C80.1722 56.8778 80.4414 57.0228 80.4812 57.0976C80.521 57.1725 80.6831 57.2063 80.8439 57.1928C81.0522 57.1781 81.0772 57.0447 80.9391 56.8301C80.8208 56.6529 80.6377 56.5342 80.5254 56.594C80.3196 56.7035 79.3544 55.6563 79.4333 55.3983C79.4596 55.3123 79.3027 55.1076 79.0897 54.9328C78.6437 54.5458 78.7652 54.0971 79.2625 54.2648C79.4918 54.3348 79.5029 54.4009 79.3532 54.4805C79.241 54.5403 79.1872 54.6649 79.227 54.7397C79.2668 54.8146 79.4926 54.7425 79.6973 54.5856C79.9107 54.4001 80.0106 54.2269 79.9047 54.1632C79.7988 54.0995 79.9087 53.945 80.1519 53.8156C80.5636 53.5966 81.7215 54.0131 81.6351 54.3472C81.6088 54.4332 81.7633 54.5431 81.9739 54.6231C82.1746 54.6844 82.5719 55.0252 82.8172 55.3509C83.0724 55.6953 83.6641 56.2209 84.1363 56.5219C85.0719 57.1526 85.1691 57.245 84.8175 57.2159C84.3899 57.1793 84.7299 57.5026 85.1961 57.5667C85.5103 57.6157 85.7432 57.8279 85.9546 58.3156C86.125 58.6811 86.3615 59.0355 86.4961 59.1079C86.7453 59.2155 89.7179 62.4119 90.7165 63.6573C91.5482 64.6794 93.9128 67.4549 96.412 70.3029C97.5838 71.6482 98.7556 72.9936 99.0096 73.2907C99.5276 73.9034 100.59 75.0429 107.498 82.3881C110.089 85.139 112.885 88.0933 113.723 88.992C115.545 90.9278 116.276 92.0757 116.102 92.6964C115.979 93.0977 115.903 93.0902 115.099 92.7975L114.218 92.4499L114.672 93.1686C114.929 93.5604 115.302 94.0819 115.498 94.3141C116.142 95.028 115.651 96.6333 114.91 96.1874C114.486 95.9325 114.475 96.2268 114.879 96.8519C115.274 97.4583 115.276 97.5531 114.793 98.3143C114.455 98.8538 114.112 99.1564 113.773 99.2408C113.33 99.3563 113.303 99.3949 113.575 99.682C114.13 100.227 113.531 100.546 112.48 100.241L111.525 99.9802L111.896 100.407C112.092 100.639 112.383 100.916 112.529 101.055C113.101 101.543 112.33 101.449 110.521 100.755C109.468 100.354 108.427 100.068 108.21 100.111C107.993 100.155 107.478 100.044 107.086 99.893C106.693 99.7417 106.044 99.5589 105.606 99.5035C105.064 99.4318 105.333 99.5768 106.491 99.9933C108.252 100.641 108.512 101.175 106.812 100.687C105.894 100.407 103.322 100.31 102.721 100.534C102.58 100.585 102.144 100.577 101.762 100.492C101.381 100.407 100.954 100.417 100.805 100.497C100.655 100.577 100.21 100.597 99.8109 100.569C99.0218 100.485 98.786 100.538 98.9254 100.8C98.9751 100.894 99.5561 100.993 100.221 101.024C100.885 101.054 101.333 101.128 101.23 101.207C100.912 101.376 99.007 101.405 98.9174 101.237C98.8676 101.143 98.8016 101.154 98.7379 101.26C98.6204 101.491 94.1654 101.556 89.3068 101.403C87.8643 101.354 86.2796 101.309 85.7485 101.303C82.8933 101.261 75.1249 100.784 73.9918 100.594C73.563 100.51 73.164 100.482 73.1079 100.512C73.0518 100.542 72.3013 100.485 71.4261 100.374C70.551 100.264 69.8192 100.197 69.7817 100.217C69.7443 100.237 68.1485 100.125 66.2298 99.9934C64.3111 99.8616 60.0759 99.6175 56.8294 99.4718C53.5828 99.326 50.8101 99.1683 50.658 99.1532C50.5246 99.1281 49.9549 99.0951 49.3863 99.1094C46.485 99.1161 44.0089 99.0648 43.6848 98.9971C43.4654 98.9457 43.0863 98.9553 42.8407 98.9899C42.4541 99.0755 42.3856 98.9919 42.386 98.6315C42.3764 98.2525 42.2606 98.1701 41.6148 98.1295C40.7408 98.0662 40.5338 98.1283 40.6731 98.3902C40.7229 98.4838 40.8662 98.5276 40.9598 98.4778C41.2031 98.3484 42.0057 98.5937 41.9444 98.7944C41.8568 99.0811 39.0554 98.9146 38.8488 98.6164C38.672 98.3743 38.7182 98.3257 39.1072 98.3349C39.6383 98.3405 39.5125 98.2394 38.2838 97.6445C37.8713 97.4558 37.5624 97.236 37.5699 97.1599C37.6137 97.0166 38.8795 96.8235 39.4018 96.8578C39.6774 96.8793 39.6575 96.8418 39.2836 96.6806C38.9097 96.5193 38.2102 95.4749 38.1397 94.9362C38.1385 94.8889 38.3181 94.8654 38.5462 94.8881C38.9066 94.8885 39.2959 94.5373 39.2414 94.2542C39.2302 94.1881 38.9611 94.0432 38.6258 93.9094C37.726 93.5718 37.4907 93.2648 37.6759 92.7102C37.8085 92.3276 38.0505 92.1508 38.7366 91.9059C39.5822 91.6002 39.591 91.5715 39.151 91.4214C38.3758 91.1375 38.4857 90.983 39.7893 90.4097C41.7502 89.5827 45.1632 89.1838 53.309 88.8363C59.8825 88.5568 74.9268 88.4052 77.7668 88.5991C81.3 88.8325 83.6726 88.9149 83.6889 88.8102C83.7152 88.7242 83.4449 88.5319 83.0897 88.3607C82.59 88.0983 82.5116 87.996 82.6987 87.8964C82.8484 87.8168 82.9906 87.8132 83.0204 87.8693C83.0503 87.9255 83.3007 88.0803 83.5874 88.1679C83.8553 88.2655 84.5358 88.5518 85.0828 88.813C85.6299 89.0741 86.2893 89.2756 86.5262 89.2697C87.086 89.284 87.066 89.2466 84.7034 88.0545C83.7526 87.5759 82.8206 87.0874 82.6374 86.9687C82.2138 86.7139 82.0505 86.6327 80.7844 86.0577C80.2087 85.7878 79.6991 85.5067 79.6592 85.4318C79.6194 85.357 79.0051 85.0596 78.3059 84.7832C77.6068 84.5069 76.9824 84.1907 76.9327 84.0972C76.8829 84.0036 76.4405 83.7587 75.9807 83.5712C75.5021 83.3936 75.0984 83.1762 75.0685 83.1201C75.0387 83.064 74.6835 82.8928 74.281 82.7228C73.8884 82.5715 73.4461 82.3266 73.2904 82.1693C73.1447 82.0308 72.9527 81.9407 72.8592 81.9905C72.7656 82.0403 72.631 81.9678 72.5713 81.8555C72.5016 81.7245 72.0593 81.4797 71.5895 81.2735C71.1296 81.0859 70.6872 80.841 70.6275 80.7288C70.5678 80.6165 70.2314 80.4353 69.8774 80.3115C68.9876 79.9926 67.5359 79.2042 67.4065 78.9609C67.3468 78.8487 67.3695 78.6205 67.422 78.4485C67.6008 78.0173 68.4286 78.1292 68.9254 78.6572C69.1209 78.8893 69.5919 79.1429 69.936 79.248C70.2987 79.3432 70.6351 79.5244 70.6948 79.6366C70.7546 79.7489 70.8979 79.7927 71.0102 79.733C71.1224 79.6732 71.2781 79.8305 71.3514 80.1037C71.4645 80.4516 71.5517 80.5253 71.6803 80.3609C71.8001 80.2251 71.9434 80.2689 72.0828 80.5309C72.1923 80.7368 72.3368 80.8279 72.4005 80.722C72.4642 80.6161 72.549 80.595 72.5889 80.6699C72.6386 80.7634 72.9078 80.9084 73.1757 81.0059C73.8263 81.236 75.5184 82.1606 75.8871 82.4926C76.0328 82.6312 76.2435 82.7112 76.337 82.6614C76.4306 82.6117 76.6723 82.7952 76.8877 83.0648C77.1031 83.3343 77.3436 83.4705 77.3886 83.3745C77.4885 83.2013 78.558 83.4968 78.544 83.6963C78.5313 83.9431 78.8538 84.3237 78.935 84.1605C78.9987 84.0546 79.2766 84.1709 79.5569 84.3819C79.8472 84.6116 80.145 84.7653 80.2011 84.7355C80.2573 84.7056 80.3357 84.8079 80.3592 84.9875C80.3926 85.1858 80.4985 85.2495 80.6482 85.1698C80.9476 85.0106 81.8463 85.3008 81.8909 85.5652C81.9219 85.6687 82.373 85.8849 82.909 86.08C83.4349 86.2564 84.9316 86.9488 86.21 87.6372C88.3433 88.7592 91.257 89.9943 91.1264 89.7037C91.0966 89.6475 90.3377 89.2589 89.4454 88.8452C88.5532 88.4316 87.6597 87.9705 87.4479 87.8431C87.2548 87.7057 86.6405 87.4083 86.1033 87.1658C83.9462 86.2246 83.0901 85.7436 83.1116 85.4681C83.1168 85.2973 83.0782 85.2698 83.0145 85.3757C82.8596 85.6261 81.7368 85.095 81.2487 84.5384C81.0532 84.3063 80.7753 84.19 80.6256 84.2696C80.4759 84.3493 80.0634 84.1605 79.7046 83.8472C79.3459 83.5338 78.9521 83.3351 78.8586 83.3849C78.6153 83.5143 77.4989 82.8597 77.3858 82.5118C77.172 81.9293 76.9988 81.8293 76.7304 82.0921C76.5082 82.3063 76.269 82.2175 75.4766 81.6306C74.926 81.2273 74.4514 80.8315 74.4116 80.7566C74.3718 80.6818 74.0278 80.5767 73.6663 80.5289C72.9058 80.4533 71.9888 79.8126 72.0255 79.385C72.0406 79.2329 71.992 79.1867 71.9383 79.3113C71.7933 79.5805 70.8135 79.4535 70.6443 79.1354C70.5746 79.0044 70.2656 78.7846 69.9204 78.6321C69.6039 78.4883 69.3523 78.2861 69.3785 78.2001C69.4048 78.1141 69.3001 78.0978 69.1504 78.1774C68.851 78.3367 67.033 77.311 66.9188 76.9156C66.8778 76.7934 66.6771 76.7321 66.4601 76.7755C66.2431 76.8189 65.7932 76.6501 65.4257 76.3654C65.0681 76.0994 64.703 75.9095 64.6095 75.9592C64.3101 76.1185 64.6688 76.4319 65.6471 76.8718C67.5837 77.7143 67.86 78.1435 66.5732 78.2518C65.8163 78.3183 65.0996 78.0993 64.9105 77.7438C64.8508 77.6315 64.3037 77.3703 63.6818 77.1489C63.0598 76.9275 62.4356 76.6114 62.2413 76.4266C62.0756 76.2507 61.8539 76.1045 61.7491 76.0882C61.4923 76.0568 60.1179 75.3234 55.8776 72.9933C53.8391 71.8689 51.8965 70.7895 51.56 70.6084C51.2236 70.4272 50.8462 70.1238 50.7267 69.8992C50.5886 69.6846 50.1936 69.4386 49.8309 69.3434C49.4681 69.2483 49.1329 69.1145 49.0931 69.0396C48.9848 68.8812 47.7039 68.098 47.254 67.9292C46.9861 67.8316 46.9013 67.8527 46.8885 68.0996C46.8618 68.5459 46.2124 68.3632 45.7231 67.7591C45.4492 67.4247 45.286 67.3435 45.1673 67.5266C45.0761 67.6712 45.0427 67.4728 45.0717 67.1213C45.1311 66.4655 45.1211 66.4468 44.8838 66.8131C44.674 67.1408 44.5506 67.1345 44.0573 66.7486C43.7383 66.5101 43.4943 66.2318 43.4919 66.1371C43.5082 66.0323 43.431 65.9774 43.3374 66.0272C43.1877 66.1068 42.3794 65.2643 42.3934 65.0648C42.3922 65.0174 42.2377 64.9076 42.0271 64.8275C41.4999 64.6038 41.4207 62.9654 41.9554 63.1131C42.1848 63.1831 42.2222 63.1632 42.0964 63.0621C41.9805 62.9797 41.9482 62.8288 42.0406 62.7316C42.1792 62.5859 42.1593 62.5485 41.9311 62.5258C41.779 62.5107 41.6954 62.5792 41.7552 62.6914C41.8049 62.785 41.7225 62.9009 41.5617 62.9144C41.3821 62.9379 41.2921 63.1298 41.3554 63.3842C41.4087 63.6199 41.3112 63.8879 41.1802 63.9576C41.0305 64.0372 41.0241 64.1606 41.1587 64.2331C41.3032 64.3242 41.2945 64.3529 41.1237 64.3478C40.7247 64.3199 40.542 63.8409 40.8091 63.5307C41.0026 63.3078 40.9827 63.2704 40.5762 63.3185C40.3306 63.3532 40.0825 63.293 40.0327 63.1994C39.9829 63.1059 40.0753 63.0087 40.2549 62.9852C40.5292 62.9594 40.9003 62.2578 40.7709 62.0146C40.7411 61.9584 40.5217 61.9071 40.2848 61.913C39.8958 61.9039 39.8783 61.9612 40.1148 62.3155C40.3114 62.595 40.315 62.7372 40.1068 62.7519C39.8325 62.7778 39.6183 62.5556 39.3384 61.9843C39.2687 61.8533 39.1441 61.7996 39.0505 61.8493C38.9569 61.8991 38.8598 61.8067 38.8363 61.6271C38.8128 61.4476 38.4453 61.1629 38.0428 60.9929C37.573 60.7866 37.3798 60.6493 37.5582 60.5784C38.0185 60.4056 38.2506 60.2101 38.1611 60.0417C38.1113 59.9481 37.8767 60.0488 37.6347 60.2256C37.2441 60.5294 37.2154 60.5206 37.4153 60.1743C37.5427 59.9624 37.8871 59.7072 38.1977 59.614C38.5082 59.5209 38.7129 59.364 38.6631 59.2705C38.6133 59.1769 38.4425 59.1717 38.2928 59.2514C38.1431 59.331 38.0185 59.2772 38.0436 59.1439C38.04 59.0017 37.8827 59.1574 37.663 59.4664C37.4531 59.794 37.1561 60.0481 37.0327 60.0417C36.6811 60.0126 36.4685 59.4775 36.5477 58.8592C36.6019 58.3742 36.6481 58.3256 36.9921 58.4308C37.432 58.5809 37.6176 58.7943 37.266 58.7652C37.1426 58.7588 37.0777 58.8173 37.1374 58.9296C37.1872 59.0232 37.3317 59.1144 37.4651 59.1395C37.5885 59.1458 37.6434 59.0686 37.5937 58.975C37.5439 58.8814 37.7287 58.6872 38.0006 58.5665C38.7041 58.2643 38.9128 57.8893 38.4441 57.7304C38.2622 57.6592 38.0165 57.6938 37.9528 57.7997C37.8605 57.8968 37.6908 57.939 37.575 57.8566C37.4591 57.7742 37.4842 57.6408 37.6713 57.5413C37.8959 57.4218 37.7713 57.3681 37.2688 57.3713C36.3873 57.384 35.6909 57.9705 35.9397 58.4383C36.0393 58.6254 36.0477 58.9571 35.9489 59.1777C35.8064 59.5416 35.7777 59.5328 35.8131 59.0578C35.8498 58.6302 35.79 58.5179 35.4548 58.3841C35.1482 58.2591 35.0885 58.1469 35.1474 57.8514C35.1964 57.5373 35.1666 57.4811 34.8922 57.507C34.3535 57.5775 34.6748 56.7824 35.2497 56.6446C35.6077 56.5503 35.6714 56.4444 35.5408 56.1537C35.3493 55.7034 35.0288 55.7778 35.1641 56.258C35.2474 56.5498 35.1813 56.561 34.6378 56.442L34.0183 56.3153L34.3416 55.9753C34.5076 55.791 34.635 55.5792 34.5952 55.5043C34.5554 55.4295 34.7226 55.2925 34.977 55.2292C35.325 55.1161 35.4162 54.9716 35.323 54.661C35.2697 54.4253 35.3298 54.1773 35.4707 54.1263C35.6678 54.0455 35.6778 54.0642 35.5492 54.2286C35.4481 54.3544 35.4703 54.4866 35.5762 54.5503C35.8653 54.7327 36.0067 54.3214 35.7976 53.9284C35.5986 53.5541 34.9114 53.7516 34.9695 54.1769C34.993 54.3564 34.8807 54.4162 34.5204 54.4158C34.2261 54.4042 34.0577 54.4938 34.1075 54.5873C34.1572 54.6809 34.0621 55.0436 33.8909 55.3988L33.5847 56.0418L33.4792 55.6178C33.4258 55.3821 33.5648 54.876 33.7921 54.491C34.1469 53.8942 34.1445 53.7994 33.8316 53.7978C33.6134 53.7938 33.3689 53.8759 33.2678 54.0017C33.0281 54.2732 32.3775 54.043 32.5312 53.7452C32.5949 53.6393 32.7458 53.6071 32.8517 53.6708C33.1022 53.8257 34.2699 53.1325 34.1505 52.9079C34.1007 52.8144 34.1943 52.7646 34.3651 52.7698C34.5645 52.7837 34.5447 52.7463 34.2568 52.6113C34.0362 52.5126 33.8706 52.3366 33.867 52.1944C33.8634 52.0523 33.73 52.0272 33.5055 52.1466C33.1873 52.3159 33.1388 52.2697 33.1292 51.8906C33.1348 51.3595 32.6188 51.2019 32.5846 51.7242C32.5479 52.1518 32.9401 52.6634 33.3104 52.6826C33.738 52.7192 33.4645 53.1528 32.9731 53.2221C32.407 53.3311 32.0578 52.2685 32.3879 51.4447C32.5304 51.0808 32.7215 50.7631 32.825 50.732C32.9286 50.701 32.9911 50.5477 32.9676 50.3681C32.9441 50.1885 32.8768 50.1523 32.7856 50.2969C32.7132 50.4314 32.5897 50.425 32.5101 50.2753C32.4305 50.1256 32.4257 49.9361 32.5181 49.839C32.6105 49.7418 32.5396 49.5634 32.2967 49.3325L31.9181 48.9817L32.016 49.4818L32.114 49.9819L31.744 49.6024C31.4227 49.2692 31.3941 49.2604 31.4411 49.6196C31.4658 49.8465 31.5852 50.0711 31.7011 50.1535C31.8169 50.2359 31.7807 50.3032 31.6298 50.3354C31.4789 50.3677 31.2571 50.2215 31.1576 50.0344C31.058 49.8473 30.8948 49.7661 30.7738 49.8545C30.6714 49.9329 30.4994 49.8803 30.4198 49.7306C30.2904 49.4874 30.3465 49.4575 30.6519 49.5351C30.976 49.6028 31.0596 49.5344 31.1922 49.1517C31.2711 48.8937 31.4371 48.7094 31.533 48.7544C31.629 48.7994 31.6354 48.6759 31.5458 48.5075C31.4562 48.3391 31.2743 48.2678 31.1246 48.3475C30.9748 48.4271 30.8128 48.3933 30.763 48.2997C30.7033 48.1874 30.6085 48.1898 30.5635 48.2858C30.3549 48.6608 30.0077 48.0532 30.0471 47.36C30.0854 46.6195 29.9385 46.4335 29.5081 46.6625C29.3396 46.752 29.3619 46.8842 29.596 47.1438C29.8688 47.4309 29.86 47.4596 29.5733 47.372C29.3727 47.3107 29.0414 46.9587 28.8324 46.5657C28.5338 46.0043 28.5214 45.8909 28.7882 45.941C28.9789 45.9836 29.1346 46.1409 29.1668 46.2918C29.1903 46.4713 29.3337 46.5151 29.5395 46.4057C29.8389 46.2464 29.8278 46.1803 29.4491 45.8295C29.0904 45.5162 29.0394 45.3752 29.1744 45.0873C29.2644 44.8954 29.3158 44.6761 29.2859 44.6199C29.1963 44.4515 28.7368 45.032 28.7066 45.3362C28.6827 45.517 28.6453 45.5369 28.5656 45.3872C28.5059 45.2749 28.5011 45.0854 28.5648 44.9795C28.6285 44.8736 28.5963 44.7227 28.4804 44.6402C28.3745 44.5765 28.3984 44.3958 28.5844 44.2489C28.7978 44.0633 28.793 43.8738 28.5875 43.6229C28.2252 43.1675 27.9676 41.5999 28.2308 41.5079C28.3717 41.457 28.2909 41.2599 27.9784 40.898C27.6459 40.4986 27.5353 40.2454 27.6228 39.9588C27.7192 39.6434 27.4899 39.5733 26.0286 39.5343C25.0798 39.5108 23.9204 39.4073 23.443 39.2771C22.9469 39.1568 22.4994 39.0828 22.4246 39.1226C22.2561 39.2122 18.7034 38.581 16.5582 38.1136C13.9929 37.5335 8.41155 35.7967 6.7429 35.0517C5.76463 34.6118 5.23988 34.4828 5.22594 34.6823C5.21201 34.8817 5.03124 34.8578 4.62751 34.6404C4.21384 34.4043 4.08682 34.2558 4.18676 34.0826C4.2867 33.9094 4.19831 33.7884 3.87183 33.626C3.42072 33.4098 3.08826 33.0104 3.27539 32.9109C3.33153 32.881 3.70182 32.9001 4.09201 32.9567C4.87239 33.0697 4.87515 32.8042 4.09637 32.3781C3.78859 32.2057 3.55332 31.8988 3.46891 31.5595C3.3224 31.0133 3.48723 30.7816 3.84357 31.0001C3.94948 31.0639 4.13024 31.0877 4.2238 31.038C4.54193 30.8688 4.08365 30.3682 3.35582 30.0832C2.61804 29.7794 2.40664 29.2917 2.74269 28.7048C2.80639 28.5989 4.8294 29.1073 7.24739 29.8618C13.3447 31.7563 14.1661 31.9916 14.3345 31.902C14.4281 31.8523 14.6662 31.8936 14.8867 31.9924C15.2319 32.1449 15.2419 32.1636 14.9664 32.1421C14.7382 32.1194 14.7108 32.158 14.884 32.258C15.0185 32.3304 15.2081 32.3257 15.3004 32.2285C15.5401 31.957 16.3241 32.2122 16.3898 32.5613C16.4033 32.7222 16.5104 32.8333 16.6227 32.7736C16.735 32.7139 16.7788 32.5705 16.7664 32.4571C16.7441 32.3249 17.1706 32.3141 17.7141 32.4332C18.2476 32.5335 18.7787 32.5391 18.8798 32.4133C18.981 32.2875 19.0857 32.3038 19.1167 32.4073C19.1577 32.5295 19.71 32.6199 20.3645 32.6319C21.6737 32.6558 21.7824 32.4539 20.693 32.1211C20.1957 31.9534 19.9027 31.9892 19.6618 32.2134C19.4396 32.4276 19.3922 32.4288 19.4822 32.2369C19.6996 31.8331 18.9853 31.7089 18.6346 32.0876C18.4311 32.2918 18.4025 32.2831 18.5112 32.0812C18.6286 31.8507 18.4841 31.7595 17.9131 31.6791C17.4469 31.615 17.1825 31.6596 17.2148 31.8105C17.2371 31.9427 16.0764 31.7917 14.6455 31.4485C12.7096 31.0137 12.0204 30.7561 11.9759 30.4917C11.9313 30.2274 11.8739 30.2098 11.7079 30.3942C11.5606 30.5686 10.7217 30.3906 9.07651 29.8252C5.83355 28.6932 5.54687 28.6056 4.28195 28.0781C3.19897 27.6218 3.19897 27.6218 3.55094 27.2905C4.11632 26.7737 4.86804 26.878 8.6696 27.977C10.6277 28.5439 13.4622 29.269 14.9592 29.6011C16.4563 29.9331 17.7925 30.2788 17.9283 30.3986C18.064 30.5185 18.3296 30.5212 18.5354 30.4117C18.7413 30.3023 19.0069 30.3051 19.1426 30.4249C19.2784 30.5448 19.4504 30.5973 19.5253 30.5575C19.6001 30.5177 20.4167 30.5634 21.3106 30.6642C22.2044 30.7649 23.3065 30.8509 23.7528 30.8776C26.8174 30.9521 27.8598 30.9258 27.8001 30.8135C27.7603 30.7387 27.8749 30.7737 28.0481 30.8737C28.2986 31.0285 28.3161 30.9712 28.1369 30.6344C27.7188 29.8484 28.8938 26.0544 30.2241 23.9064C31.3632 22.0761 31.7291 21.5454 31.9573 21.5681C32.062 21.5844 32.107 21.4884 32.0572 21.3949C31.9975 21.2826 32.1074 21.1281 32.3132 21.0186C32.5004 20.9191 32.629 20.7546 32.5792 20.661C32.4697 20.4552 33.7991 19.0278 34.2594 18.855C34.4378 18.7842 34.7173 18.5875 34.8459 18.423C35.3515 17.794 38.2242 16.6501 39.4836 16.5804C42.3813 16.4315 45.7732 18.2045 47.0174 20.5437C47.535 21.5168 47.9132 23.3563 47.6325 23.5056C47.5577 23.5454 47.5426 23.6975 47.6122 23.8285C47.6819 23.9595 47.6704 24.2537 47.5904 24.4643C47.5103 24.675 47.4522 25.3781 47.4876 26.0315C47.5617 27.8407 46.4341 31.6335 45.4514 32.9004C45.2129 33.2193 44.802 33.846 44.5472 34.2696C44.2924 34.6933 43.8329 35.2738 43.4885 35.529C43.1628 35.7743 42.8296 36.0956 42.7758 36.2202C42.6858 36.4121 41.7788 36.9185 41.4571 36.9456C41.391 36.9567 40.9793 37.1757 40.5214 37.4433C40.0261 37.7308 39.4711 37.9059 39.1382 37.8669C38.8054 37.8279 38.5609 37.9099 38.5171 38.0533C38.4733 38.1966 38.0043 38.3981 37.3446 38.5569C36.741 38.6859 36.1198 38.8722 35.9701 38.9518C35.4462 39.2305 35.9904 40.8857 37.6029 43.9172L39.086 46.7056L39.1048 46.6956ZM6.87827 35.5319C7.54876 35.7995 9.19512 36.4123 10.5449 36.9187C11.8946 37.4252 12.9402 37.9014 12.8753 37.9599C12.7367 38.1056 10.2988 37.3137 8.63013 36.5687C8.03569 36.3087 7.32659 36.0137 7.02996 35.9074C6.73334 35.8011 6.29099 35.5562 6.05926 35.3914C5.86496 35.2066 6.20778 35.2644 6.87827 35.5319ZM13.2941 38.0252C13.4064 37.9655 13.662 37.9496 13.8627 38.0109C14.35 38.1598 17.9075 38.9804 19.0606 39.2074C20.1662 39.4355 20.429 39.7039 19.4977 39.623C17.9879 39.5378 13.1006 38.2482 13.2941 38.0252ZM21.2607 39.5976C21.555 39.6091 22.0113 39.6545 22.288 39.7234C22.5647 39.7923 23.7615 39.8759 24.9285 39.9034C26.9595 39.9754 27.5416 40.122 26.9615 40.4306C26.8118 40.5102 26.6597 40.495 26.6099 40.4015C26.5601 40.3079 26.2373 40.2876 25.8968 40.3246C25.5377 40.3716 25.2236 40.3226 25.1738 40.2291C25.1141 40.1168 25.0281 40.0905 24.9632 40.149C24.8059 40.3047 22.9071 40.2104 22.8175 40.0419C22.7777 39.9671 22.6443 39.942 22.5507 39.9918C22.2701 40.1411 20.9562 39.9277 20.8467 39.7218C20.7881 39.6569 20.9952 39.5948 21.2607 39.5976ZM31.2547 52.3835C31.3746 52.2478 31.5529 52.1769 31.6588 52.2406C31.9093 52.3955 31.7082 52.6945 31.3567 52.6654C31.0998 52.634 31.0887 52.5679 31.2547 52.3835ZM32.7617 54.9911C32.8191 55.0086 32.9763 54.8529 33.1324 54.6498C33.4796 54.1291 33.5588 54.6391 33.2427 55.2634C33.0253 55.6671 32.9878 55.687 32.8274 55.3402C32.7279 55.1531 32.6956 55.0022 32.7617 54.9911ZM29.8122 48.9494C29.8759 48.8435 29.9707 48.8412 30.0205 48.9347C30.0802 49.047 30.0451 49.1617 29.9516 49.2115C29.858 49.2612 29.7632 49.2636 29.7433 49.2262C29.7047 49.1987 29.7298 49.0653 29.8122 48.9494ZM34.0226 56.8652C34.0863 56.7593 34.201 56.7943 34.2807 56.944C34.3603 57.0937 34.3551 57.2646 34.2615 57.3143C34.168 57.3641 34.0533 57.329 34.0035 57.2355C33.935 57.1518 33.9402 56.981 34.0226 56.8652ZM30.8315 50.64C30.9115 50.4294 31.0138 50.351 31.0537 50.4258C31.1034 50.5194 31.0807 50.7475 31.0007 50.9581C30.8044 51.4467 30.6451 51.1473 30.8315 50.64ZM31.9786 50.6301C32.1044 50.7312 32.1653 50.8909 32.139 50.9769C32.1128 51.0629 32.0256 50.9892 31.9161 50.7834C31.8352 50.5863 31.8528 50.5289 31.9786 50.6301ZM38.0472 61.5427C38.0611 61.3433 38.1447 61.2748 38.2793 61.3472C38.3852 61.4109 38.3987 61.5718 38.2789 61.7076C38.0392 61.9791 38.0392 61.9791 38.0472 61.5427ZM34.6099 54.5842C34.7035 54.5344 34.8182 54.5694 34.8779 54.6817C34.9277 54.7753 34.9026 54.9087 34.809 54.9584C34.7154 55.0082 34.6008 54.9732 34.541 54.8609C34.4626 54.7586 34.5164 54.6339 34.6099 54.5842ZM47.4404 68.5503C47.944 68.5945 48.4222 69.1324 48.0853 69.3116C47.9918 69.3613 47.8584 69.3362 47.78 69.2339C47.5534 68.8983 47.4662 68.8246 47.1871 68.661C46.9753 68.5336 47.0127 68.5137 47.4404 68.5503ZM48.3346 69.4191C48.4282 69.3693 48.8008 69.4832 49.166 69.6731C49.627 69.908 49.754 70.0565 49.5856 70.1461C49.4546 70.2158 49.0819 70.1019 48.7542 69.8921C48.4453 69.6723 48.241 69.4688 48.3346 69.4191ZM50.2437 70.3002C50.3572 70.2879 50.4631 70.3515 50.4842 70.4364C50.5053 70.5212 50.6312 70.6223 50.7546 70.6287C51.1822 70.6653 52.7346 71.6882 52.7306 71.9064C52.7015 72.2579 52.4097 72.3411 52.2504 72.0417C52.1708 71.892 52.0362 71.8195 51.9426 71.8693C51.8491 71.9191 51.6074 71.7355 51.3733 71.4759C51.1579 71.2064 50.9274 71.0889 50.8636 71.1948C50.7999 71.3007 50.7151 71.3219 50.6566 71.257C50.2433 70.6605 50.0928 70.3325 50.2437 70.3002ZM53.0009 72.0987C53.0734 71.9641 53.2144 71.9131 53.3115 72.0055C53.4086 72.0979 54.0827 72.5076 54.8328 72.9248C55.5829 73.3421 56.343 73.7781 56.5162 73.878C56.6894 73.978 57.9293 74.6389 59.2651 75.3449C60.6009 76.0508 61.736 76.6954 61.7858 76.789C61.9649 77.1258 61.5947 77.1067 60.8557 76.7555C58.6862 75.7008 55.2919 73.833 54.9519 73.5097C54.7862 73.3337 54.5756 73.2537 54.5008 73.2935C54.3511 73.3732 53.034 72.6573 52.9245 72.4514C52.8847 72.3766 52.9285 72.2332 53.0009 72.0987ZM62.1258 77.1123C62.0936 76.9614 62.7828 77.219 63.6388 77.7C64.4948 78.181 65.18 78.6567 65.1737 78.7802C65.1382 79.2552 62.215 77.641 62.1258 77.1123ZM37.9016 28.6815C38.1632 28.9025 38.768 28.8209 38.6386 28.5776C38.5491 28.4092 36.9843 27.2728 36.9095 27.3126C36.7972 27.3724 37.5341 28.3968 37.9016 28.6815ZM65.5726 78.808C65.696 78.8144 65.8406 78.9056 65.9003 79.0179C65.9501 79.1114 65.8951 79.1887 65.7717 79.1823C65.6482 79.1759 65.5037 79.0847 65.444 78.9725C65.3843 78.8602 65.4492 78.8017 65.5726 78.808ZM67.1063 79.8408C67.5128 79.7927 69.2101 80.5464 69.3694 80.8458C69.439 80.9768 69.6983 81.103 69.9451 81.1158C70.4488 81.16 71.1985 81.9376 70.7633 81.977C70.6024 81.9905 70.2473 81.8193 69.9284 81.5808C69.6095 81.3423 69.0226 81.0063 68.6113 80.8649C67.5681 80.4835 66.7384 79.9165 67.1063 79.8408ZM73.8987 83.3582C74.0349 83.1177 74.5235 83.314 74.7225 83.6883C74.7922 83.8193 74.9168 83.873 74.9917 83.8332C75.235 83.7038 76.861 84.6395 76.9156 84.9226C76.9478 85.0735 76.7197 85.0508 76.3446 84.8421C75.9982 84.6423 75.5957 84.4722 75.4249 84.467C75.2541 84.4619 75.0609 84.3245 74.9813 84.1748C74.9017 84.0251 74.7671 83.9527 74.6736 84.0024C74.3829 84.133 73.7538 83.6273 73.8987 83.3582ZM77.5713 84.9819C77.7907 85.0333 78.0125 85.1794 78.0821 85.3104C78.1618 85.4601 78.0793 85.5759 77.8898 85.5807C77.7103 85.6042 77.4885 85.4581 77.379 85.2522C77.2198 84.9528 77.2472 84.9142 77.5713 84.9819ZM79.0564 85.9685C79.1114 85.8913 79.4554 85.9964 79.8591 86.2138C80.6865 86.686 80.6602 86.772 79.7727 86.5478C79.0859 86.385 78.8828 86.2289 79.0564 85.9685ZM80.6837 86.9516C80.8095 87.0527 80.9329 87.0591 80.9966 86.9532C81.124 86.7414 81.8467 87.1973 81.7579 87.4365C81.7316 87.5226 81.7989 87.5588 81.9112 87.499C82.0234 87.4393 82.1568 87.4644 82.2166 87.5767C82.4057 87.9322 81.9506 87.9342 81.5632 87.6121C81.3402 87.4186 81.0611 87.255 80.919 87.2586C80.7768 87.2621 80.6223 87.1522 80.5714 87.0113C80.5105 86.8516 80.5479 86.8317 80.6837 86.9516Z" fill="#43B6FA"/>
</g>
</svg>
