<svg width="76" height="48" viewBox="0 0 76 48" fill="none" xmlns="http://www.w3.org/2000/svg">
<mask id="mask0_2727_35455" style="mask-type:alpha" maskUnits="userSpaceOnUse" x="4" y="0" width="67" height="47">
<path d="M8.59653 44.7103C9.72929 45.6716 12.0324 46.092 13.0424 46.182C26.8408 45.1255 33.4131 36.161 34.9744 31.8109C35.6129 34.5423 41.9631 41.9252 55.3425 29.3081C70.1045 20.7505 71.3847 7.21946 70.1795 1.52364C68.847 1.04506 66.0527 0.242055 65.5362 0.858626C66.8064 8.49676 56.761 23.2128 48.4762 27.9072C40.1914 32.6016 39.1712 27.7963 38.6877 26.2184C38.2042 24.6405 36.574 20.8211 34.0827 18.4715C32.0897 16.5918 29.5822 19.5516 28.5776 21.2664C27.2976 24.2063 23.6113 31.2905 19.1059 36.1081C13.4741 42.1302 8.72388 39.493 7.75567 39.654C6.9811 39.7828 5.49634 40.472 4.85079 40.8004L5.78228 43.0777C6.24838 43.2213 7.46376 43.7489 8.59653 44.7103Z" fill="#D9D9D9"/>
</mask>
<g mask="url(#mask0_2727_35455)">
<path fill-rule="evenodd" clip-rule="evenodd" d="M67.9652 1.78146C68.3309 2.05232 68.4492 2.09897 68.5066 1.97887C68.564 1.85877 68.5963 1.8534 68.6554 1.94307C68.7002 2.01301 68.7683 2.02378 68.8275 1.98078C68.8849 1.92701 68.8778 1.88399 68.7827 1.84451C68.6286 1.7817 68.6789 1.55223 68.851 1.5236C68.9048 1.51466 68.9926 1.57744 69.0517 1.6671C69.1001 1.75856 69.2811 1.98273 69.4532 2.15312C69.6951 2.41138 69.7883 2.63911 69.9064 3.21646C70.003 3.73105 70.0101 3.97309 69.9294 4.01968C69.7877 4.09852 69.8074 4.34953 69.9651 4.36751C70.1229 4.3855 70.0579 5.65663 69.8279 7.13209C69.6231 8.42648 68.7524 11.4346 68.4313 11.8971C68.3255 12.0584 68.1802 12.3811 68.1174 12.6016C68.0545 12.8221 67.7889 13.419 67.5413 13.9245C67.2937 14.43 67.0192 14.9732 66.9457 15.1291C66.8721 15.2851 66.7484 15.4715 66.6712 15.5396C66.5941 15.6077 66.4273 15.8676 66.316 16.1293C66.2048 16.391 66.011 16.7549 65.8783 16.9539C65.019 18.2355 64.9455 18.3251 64.7752 18.2982C64.6497 18.2748 64.6228 18.3125 64.6873 18.4344C64.8002 18.6478 63.3293 20.6392 61.9285 22.1877C61.7419 22.3956 61.4819 22.6931 61.3545 22.858C61.2164 23.0247 60.9922 23.2721 60.8487 23.4065C60.7053 23.5409 60.5277 23.7363 60.4667 23.8349C60.3949 23.9352 60.0847 24.2632 59.76 24.5715C58.049 26.249 57.7172 26.5806 57.6634 26.5895C57.5989 26.6003 57.0447 27.1236 56.9748 27.2347C56.9048 27.3458 55.7157 28.3727 55.6297 28.3871C55.5866 28.3942 55.4521 28.5161 55.3194 28.6487C55.0934 28.8853 55.0737 28.8996 54.9787 28.7275C54.8874 28.5768 54.8766 28.5786 54.898 28.7741C54.9231 28.9247 54.7778 29.1147 54.3886 29.4337C53.7358 29.9623 53.2122 30.3369 53.0938 30.3565C53.0508 30.3637 52.9055 30.4873 52.7836 30.6182C52.6616 30.749 52.511 30.8404 52.4536 30.8278C52.3945 30.8045 52.3658 30.8314 52.3747 30.8852C52.3908 30.982 52.1128 31.1719 51.9766 31.1504C51.9318 31.1468 51.8475 31.2382 51.79 31.3583C51.7326 31.4784 51.6233 31.5519 51.5515 31.5196C51.4798 31.4873 51.34 31.5769 51.2521 31.7131C51.0996 31.9264 50.9884 31.9891 50.7051 32.0141C50.6728 32.0195 50.5868 32.1001 50.515 32.2005C50.4433 32.3009 50.2926 32.3923 50.1958 32.4084C49.9806 32.4441 49.7853 32.2002 49.9575 32.1053C50.0184 32.073 49.9557 31.9618 49.7819 31.847C49.5435 31.6766 49.5291 31.6569 49.712 31.6928C50.1709 31.7934 50.3 31.7719 50.3395 31.6106C50.3575 31.5191 50.431 31.4295 50.4848 31.4206C50.5386 31.4116 50.6677 31.3238 50.7395 31.2235C50.822 31.1213 51.0551 30.9941 51.2649 30.926C51.7383 30.781 51.8261 30.7111 51.7204 30.5407C51.6595 30.4403 51.7061 30.3883 51.8567 30.3633C51.9751 30.3436 52.0934 30.2576 52.1114 30.1661C52.1294 30.0747 52.1975 30.0192 52.2567 30.0425C52.3158 30.0658 52.4198 30.0264 52.4844 29.9493C52.6799 29.7289 53.1874 29.5229 53.3128 29.6126C53.3881 29.6664 53.4617 29.5768 53.5155 29.3688C53.5694 29.1609 53.6322 29.073 53.6985 29.1394C53.7666 29.2165 53.806 29.1878 53.8186 29.0641C53.8348 28.9619 53.8635 28.8024 53.8707 28.7127C53.8869 28.6106 53.9658 28.5532 54.0572 28.5712C54.1487 28.5891 54.2097 28.5569 54.2007 28.5031C54.1918 28.4493 54.2814 28.3902 54.389 28.3723C54.5073 28.3526 54.5827 28.2737 54.5702 28.1984C54.5451 28.0478 54.7406 27.8937 55.0526 27.8418C55.1601 27.8239 55.2373 27.7558 55.2247 27.6805C55.2033 27.5514 55.6929 27.1052 55.8973 27.0712C55.9618 27.0604 56.1268 26.9224 56.2542 26.7575C56.3815 26.5926 56.5447 26.4439 56.6165 26.4099C56.69 26.3866 56.7761 26.3059 56.8102 26.245C56.8425 26.1733 56.8765 26.1787 56.889 26.254C56.8998 26.3185 56.9535 26.3759 57.0181 26.3652C57.0719 26.3562 57.1096 26.2505 57.0917 26.1429C57.0684 26.003 57.1133 25.9403 57.2459 25.9404C57.3463 25.9458 57.4252 25.8884 57.4127 25.8131C57.402 25.7486 57.4971 25.589 57.6208 25.469C57.7446 25.3489 57.9042 25.1786 57.9688 25.1015C58.0871 24.9492 58.2306 24.8811 58.4314 24.8919C58.487 24.8937 58.4942 24.8704 58.444 24.8346C58.2952 24.7377 58.5158 24.4688 58.7848 24.4241C58.9354 24.3991 59.0232 24.3292 59.0054 24.2216C58.991 24.1355 59.0269 24.0853 59.0861 24.1087C59.1452 24.132 59.2511 24.037 59.3156 23.8936C59.3802 23.7502 59.4699 23.6247 59.513 23.6176C59.7138 23.5621 59.9146 23.3739 59.8465 23.2968C59.8053 23.2483 59.8466 23.2304 59.9488 23.2466C60.0743 23.27 60.1101 23.2198 60.0851 23.0692C60.06 22.9185 60.0959 22.8684 60.2214 22.8917C60.4276 22.9348 60.6715 22.6731 60.5676 22.5135C60.5228 22.4436 60.539 22.3414 60.6071 22.2859C60.6842 22.2177 60.6986 22.2375 60.6681 22.3199C60.5586 22.5924 60.8455 22.3899 61.1845 21.9687C61.4518 21.6479 61.5056 21.5063 61.3891 21.4704C61.2833 21.4327 61.3102 21.395 61.4716 21.3682C61.7943 21.3145 62.6678 20.318 62.5316 20.1638C62.4922 20.1261 62.5747 19.9576 62.7021 19.7927C62.9227 19.5238 62.9335 19.5221 62.7864 19.7676C62.5083 20.2229 62.7934 20.0097 63.2992 19.3949C63.5647 19.0633 63.8606 18.7819 63.9467 18.7676C64.0435 18.7515 64.1708 18.6529 64.23 18.5436C64.3341 18.3715 64.3216 18.3625 64.1691 18.4432C63.936 18.5704 63.936 18.4377 64.1567 18.1689C64.3791 17.9108 64.2805 17.7834 64.0438 18.0218C63.8931 18.1795 63.8931 18.1795 63.9936 17.9859C64.0528 17.8766 64.1711 17.7906 64.2393 17.8013C64.3773 17.8337 64.5746 17.624 64.5496 17.4734C64.5424 17.4303 64.4868 17.4285 64.4187 17.4841C64.3416 17.5522 64.3362 17.5199 64.4133 17.3855C64.5407 17.1542 64.6339 17.1166 64.5675 17.3156C64.4957 17.5486 65.9451 15.4282 66.0618 15.1324C66.575 13.8973 67.5151 12.0384 67.6101 12.0779C67.6801 12.0994 67.6908 12.0976 67.6496 12.0492C67.5994 12.0133 67.6425 11.7408 67.7359 11.4379C67.8292 11.1349 67.8974 10.8803 67.8741 10.8731C67.8508 10.866 67.7128 10.8336 67.5658 10.8139C67.3058 10.7797 67.2951 10.7815 67.5119 10.9555C67.7037 11.1115 67.7091 11.1438 67.5889 11.2854C67.4777 11.4145 67.4436 11.4091 67.4132 11.2262C67.3936 11.1078 67.3344 11.0182 67.2806 11.0271C67.173 11.045 67.2375 11.2996 67.363 11.3893C67.5135 11.4969 67.4741 11.5919 67.2499 11.7066C67.128 11.7711 67.0042 11.8249 66.9702 11.8195C66.9379 11.8248 66.8841 11.9664 66.8481 12.1493C66.7871 12.4469 66.7889 12.4577 66.9306 12.3125C67.0615 12.1691 67.0633 12.1799 66.9323 12.3896C66.8552 12.524 66.796 12.6997 66.8103 12.7858C66.8353 12.9364 66.5303 13.562 66.4963 13.4239C66.4587 13.2643 66.0497 13.9294 66.0675 14.1033C66.1105 14.3615 65.8952 14.7289 65.7518 14.6643C65.6819 14.6428 65.6442 14.6822 65.6585 14.7683C65.6728 14.8544 65.6208 14.9404 65.5347 14.9547C65.4487 14.969 65.3949 15.0443 65.4092 15.1304C65.4235 15.2164 65.3912 15.2881 65.3267 15.2989C65.2621 15.3096 65.228 15.3705 65.237 15.4243C65.2781 15.6718 64.8045 16.4139 64.5463 16.5231C64.2361 16.6521 64.1123 16.8385 64.3024 16.9175C64.3974 16.957 64.3776 17.0376 64.2574 17.1792C64.0924 17.3836 64.0817 17.3853 64.1086 17.1487C64.1248 16.9802 64.0962 16.9407 64.0298 17.007C63.9724 17.0608 63.9419 17.2096 63.9633 17.3387C64.0027 17.5754 63.3354 18.5487 63.1095 18.5862C62.9804 18.6077 62.2827 19.4644 62.3579 19.5183C62.4583 19.59 61.8951 20.3249 61.6153 20.5041C61.4647 20.5955 61.3625 20.712 61.4037 20.7604C61.4449 20.8088 61.4072 20.8482 61.3212 20.8626C61.2351 20.8769 61.1149 21.0185 61.0414 21.1744C60.9678 21.3304 60.8261 21.4756 60.7078 21.4952C60.5894 21.5149 60.4854 21.6206 60.4585 21.7246C60.4082 21.9541 59.619 22.9256 59.4576 22.9524C59.4038 22.9613 59.2621 23.1065 59.1437 23.2589C59.0271 23.422 58.7994 23.6478 58.6523 23.7607C58.4945 23.8754 58.3851 24.0152 58.3958 24.0797C58.4066 24.1443 58.3886 24.1694 58.351 24.1425C58.3133 24.1156 58.177 24.2267 58.0587 24.379C57.9295 24.5332 57.7878 24.6783 57.734 24.6873C57.6803 24.6962 57.4507 24.9113 57.2175 25.1712C56.9844 25.4311 56.6884 25.7125 56.5593 25.8003C56.4302 25.8881 56.1307 26.1479 55.8922 26.3755C54.7479 27.4724 53.5266 28.4383 53.3724 28.3755C53.3133 28.3522 53.2756 28.3916 53.2882 28.4669C53.306 28.5745 53.2845 28.5781 53.2021 28.4812C53.1214 28.3951 53.073 28.4364 53.0191 28.6443C52.9778 28.7949 52.8792 28.9329 52.7931 28.9472C52.7071 28.9615 52.6389 29.0171 52.6263 29.0745C52.6138 29.1318 52.4829 29.2089 52.3233 29.2465C52.1637 29.2841 52.0561 29.3683 52.0686 29.4436C52.0794 29.5081 52.0417 29.6139 51.9825 29.6569C51.9143 29.7125 51.8893 29.6945 51.927 29.5888C51.9575 29.5063 51.918 29.535 51.8498 29.6569C51.7817 29.7788 51.7153 29.8451 51.7081 29.802C51.701 29.759 51.6185 29.7948 51.5199 29.8665C51.3925 29.9651 51.3154 29.9668 51.2688 29.8862C51.2258 29.827 51.2115 29.8736 51.224 30.0152C51.2419 30.1891 51.2078 30.2501 51.0823 30.2267C50.9908 30.2088 50.7882 30.3199 50.616 30.4812C50.1246 30.983 50.0636 31.0152 50.087 30.7571C50.0996 30.6334 50.0656 30.5616 50.0279 30.6011C49.9795 30.6423 49.9508 30.7355 49.9651 30.8216C49.9776 30.8969 49.9256 30.9829 49.861 30.9937C49.7965 31.0044 49.653 31.1388 49.5651 31.275C49.418 31.5206 49.3965 31.5242 49.3356 31.3574C49.2747 31.1907 49.255 31.205 49.1832 31.438C49.1401 31.5779 48.9984 31.7231 48.8801 31.7427C48.7635 31.7732 48.5107 31.9147 48.326 32.067C48.1125 32.2463 47.9673 32.3036 47.9135 32.2462C47.8723 32.1978 47.8885 32.0956 47.9566 32.04C48.0248 31.9845 48.0463 31.9146 48.0194 31.8859C47.9818 31.8589 47.8419 31.9485 47.7217 32.0901C47.589 32.2228 47.433 32.3482 47.3684 32.3589C47.2716 32.375 46.7211 32.7872 46.5327 32.9844C46.5148 33.0095 46.5901 33.1296 46.7101 33.2534C46.9395 33.5027 47.4595 33.5046 47.4183 33.2572C47.3879 33.0743 47.7071 32.9328 47.9419 33.0154C48.1176 33.0746 48.1679 32.9778 48.0837 32.7375C48.0658 32.6963 48.1249 32.6533 48.211 32.6389C48.3939 32.6085 48.444 32.7771 48.2701 32.8613C48.1984 32.8953 48.1876 32.9634 48.2378 32.9993C48.288 33.0352 48.3776 32.9761 48.435 32.856C48.5445 32.6498 48.5445 32.6498 48.6968 32.8345C48.8921 33.0784 48.9029 33.143 48.763 33.1662C48.6985 33.177 48.5927 33.272 48.5102 33.3741C48.3846 33.5498 48.3631 33.5534 48.2699 33.392C48.1767 33.2306 48.1767 33.2306 48.139 33.4027C48.1067 33.5407 48.0367 33.5855 47.8664 33.5586C47.6746 33.5352 47.6459 33.5621 47.7337 33.6912C47.8108 33.8221 47.8018 33.8346 47.6692 33.7683C47.5347 33.6911 47.4935 33.709 47.4701 33.8345C47.4521 33.926 47.323 34.0138 47.1832 34.037C47.0433 34.0603 46.9106 34.1266 46.8873 34.1857C46.864 34.2449 46.7635 34.3058 46.6667 34.3219C46.4516 34.3577 46.0858 34.4849 45.7038 34.6479C45.4869 34.7392 45.3632 34.7266 45.1409 34.5867L44.8559 34.4019L44.8271 34.6278C44.8002 34.7981 44.7123 34.868 44.4433 34.9128C44.2282 34.9485 44.0794 34.918 44.0669 34.8427C44.0561 34.7782 44.0059 34.8086 43.9682 34.9144C43.9144 35.056 43.8122 35.1062 43.6329 35.0918C43.4877 35.0828 43.2223 35.0827 43.0251 35.0933C42.403 35.1415 41.9565 35.1163 41.8777 35.0409C41.8383 35.0033 41.6536 34.9566 41.4761 34.953C41.1426 34.9421 40.1997 34.5903 40.1782 34.4612C40.1711 34.4182 40.0761 34.3787 39.9721 34.3518C39.4253 34.2548 38.7692 33.8996 38.8428 33.7436C38.8823 33.6486 38.859 33.6414 38.7908 33.697C38.5792 33.8869 35.7992 31.7291 35.7312 31.3203C35.7151 31.2235 35.6309 31.1159 35.5395 31.0979C35.448 31.08 35.3656 30.9831 35.3495 30.8863C35.3334 30.7895 35.156 30.5868 34.9516 30.4218C34.6344 30.1761 34.4874 29.9573 34.5556 29.8354C34.5646 29.8228 34.4696 29.717 34.3423 29.6166L34.1111 29.4229L33.9335 29.6846C33.8349 29.8226 33.7721 29.9768 33.8007 30.0162C33.8294 30.0557 33.781 30.0969 33.6949 30.1112C33.6089 30.1255 33.5497 30.1685 33.5676 30.2098C33.6393 30.3747 33.5046 30.7619 33.3756 30.7834C33.2895 30.7977 33.2679 30.8676 33.3163 30.9591C33.3916 31.0792 33.3629 31.1061 33.1585 31.0738C32.9434 31.0432 32.9254 31.0683 33.0222 31.2512C33.1189 31.4341 33.101 31.4592 32.9307 31.4323C32.8159 31.4071 32.7621 31.4161 32.8123 31.452C33.0238 31.5937 32.4067 32.6692 31.0973 34.4347C29.8148 36.1626 29.1906 36.8634 27.5998 38.333C24.393 41.3206 21.0414 43.3704 17.1988 44.7281C16.1552 45.1006 15.5491 45.2456 13.9355 45.514C12.4186 45.7663 11.9184 45.8163 11.7714 45.7302C11.429 45.5328 11.592 45.8484 11.9523 46.087C14.8973 48.0405 17.3511 49.8988 17.265 50.1121C17.2327 50.1838 17.2775 50.1874 17.369 50.1391C17.4497 50.0925 17.5286 50.1015 17.5375 50.1553C17.5482 50.2198 17.7221 50.401 17.9246 50.5552C18.4982 51.0126 19.2061 51.8788 19.2544 52.1693C19.2794 52.3199 19.378 52.5136 19.4819 52.6068C19.9533 53.048 19.6786 54.0556 19.0798 54.0446C18.9364 54.0463 18.8521 54.0714 18.8933 54.1198C18.9883 54.2256 18.6207 54.2757 18.3016 54.2182C18.004 54.1572 16.9482 53.592 15.7383 52.8314C15.2579 52.5354 13.9153 51.7084 12.7484 51.007C9.41974 49.0067 9.29606 48.9278 8.26718 48.2587C7.73482 47.9161 7.10207 47.5017 6.8547 47.3438C6.60734 47.186 6.39408 46.9671 6.37619 46.8596C6.35293 46.7197 6.31708 46.7036 6.2776 46.7986C6.22915 46.9061 6.14848 46.8864 5.93339 46.7232C5.78104 46.6048 5.68603 46.499 5.73983 46.49C5.79362 46.4811 5.70581 46.4183 5.53909 46.3465C5.37238 46.2747 4.44387 45.6774 3.48311 45.019C1.91472 43.9643 1.68349 43.8369 1.37151 43.8888C1.04877 43.9424 1.01113 43.9155 0.96819 43.6573C0.900206 43.2485 0.55961 43.062 0.165123 43.216C-0.105637 43.3163 -0.150452 43.3127 -0.110948 43.1514C-0.0875941 43.0259 0.00384614 42.9775 0.18313 42.9919C0.317592 43.0027 0.43415 42.9723 0.425204 42.9185C0.400157 42.7679 -0.0103492 42.5598 -0.275694 42.5597C-0.440637 42.565 -0.539214 42.504 -0.535588 42.3928C-0.535519 42.1938 -0.668191 42.1938 -0.811694 42.3945C-0.892414 42.5074 -0.933624 42.459 -0.983718 42.1578C-1.01771 41.9534 -1.08938 41.7884 -1.14317 41.7974C-1.36909 41.8349 -1.81845 39.9971 -1.71428 39.4933C-1.68375 39.3445 -1.65321 39.1957 -1.65679 39.1742C-1.65677 39.1079 -1.47558 38.8013 -1.18498 38.355C-1.0612 38.1686 -0.949984 37.9732 -0.937413 37.9159C-0.912269 37.8011 -0.289878 37.0896 1.95032 34.6054C2.64982 33.8258 5.42275 30.6229 5.83529 30.112C5.9178 30.0099 6.15637 29.7159 6.377 29.4471C7.78143 27.721 8.54917 26.6868 8.5277 26.5577C8.51338 26.4717 8.53848 26.4233 8.57612 26.4502C8.61376 26.4771 8.85767 26.2817 9.11235 26.0183C9.85667 25.2422 10.1058 25.3445 9.54975 26.1888C8.98647 27.0563 8.96853 27.1477 9.43663 26.7051C9.78995 26.3699 9.92264 26.3036 10.0876 26.3646C10.2292 26.4185 10.3152 26.4042 10.3762 26.3056C10.5287 26.0923 10.8406 26.3721 10.9229 26.8006C10.9945 27.1646 11.0501 27.1664 11.337 26.8312C11.7621 26.3294 12.3053 26.6039 12.3373 27.3282C12.3498 27.5362 12.3282 27.8051 12.303 27.9199C12.2474 28.1171 12.2581 28.1153 12.4895 27.911C12.7298 27.6941 12.7298 27.6941 12.8373 27.9416C12.8928 28.076 12.9286 28.4239 12.9105 28.7143C12.8259 29.8008 11.8302 31.5915 8.76989 36.1246C7.45682 38.0676 6.10782 40.1935 6.12571 40.3011C6.13286 40.3441 6.24044 40.3926 6.35339 40.407C6.47709 40.4196 6.57208 40.459 6.57745 40.4913C6.58282 40.5236 6.74059 40.5416 6.91629 40.5345C7.29819 40.5041 7.45953 40.5436 7.40391 40.6745C7.34828 40.8053 7.95965 40.8253 8.21429 40.6945C8.38822 40.6103 8.42228 40.6157 8.39354 40.7752C8.36122 40.9133 8.39887 40.9402 8.49929 40.8793C8.57999 40.8327 8.6732 40.8614 8.72336 40.9636C8.82012 41.1465 9.27723 41.369 9.2504 41.2076C9.24145 41.1538 9.30241 41.1216 9.39385 41.1395C9.48527 41.1575 9.54802 41.136 9.53907 41.0822C9.53013 41.0284 9.39389 41.0069 9.24149 41.0212C8.96897 41.0444 8.68572 40.9367 8.75568 40.8256C8.81846 40.7377 9.80631 40.8277 9.82241 40.9246C9.83136 40.9783 9.77759 40.9873 9.70767 40.9657C9.62521 40.9352 9.61622 40.9478 9.67357 41.0267C9.72733 41.0841 9.82952 41.1003 9.90125 41.0662C9.97119 41.0214 10.1899 41.0072 10.371 41.0323C10.6184 41.0575 10.7888 41.0181 10.9645 40.8783C11.1618 40.735 11.3214 40.6974 11.6459 40.7208C11.8807 40.737 12.1496 40.7586 12.2608 40.7623C12.372 40.7659 12.4401 40.7103 12.4258 40.6243C12.4061 40.5059 12.4474 40.488 12.6356 40.5562C12.822 40.6137 12.8866 40.6029 12.944 40.4828C12.9996 40.352 13.0426 40.3448 13.256 40.4309C13.4334 40.5009 13.5213 40.4974 13.55 40.4041C13.5823 40.3324 13.6863 40.293 13.7885 40.3092C13.8907 40.3254 14.0269 40.2806 14.0933 40.2143C14.1579 40.1372 14.3229 40.0656 14.4627 40.0423C15.0885 39.9493 16.9982 39.1342 18.2821 38.4121C19.2828 37.8477 21.6051 36.2565 21.6374 36.1184C21.6518 36.0718 21.7002 36.0306 21.754 36.0217C21.8078 36.0127 22.0499 35.8066 22.2974 35.5665C22.5449 35.3263 22.7763 35.122 22.8193 35.1148C22.8623 35.1077 22.9771 35.0002 23.0865 34.8604C23.7072 34.0717 25.0738 32.6504 25.1115 32.7437C25.2064 32.9158 23.8056 34.5971 23.5653 34.6149C23.4882 34.6167 23.4452 34.6902 23.4577 34.7655C23.4702 34.8408 23.4164 34.9161 23.3303 34.9304C23.2443 34.9447 23.1582 35.0253 23.1151 35.0988C22.9572 35.4789 20.3981 37.5075 19.0908 38.2887C18.4057 38.6901 18.0973 38.9625 18.5097 38.7834C18.8719 38.6347 20.285 37.7584 21.2462 37.09C23.0611 35.8375 25.1362 33.6903 26.5354 31.6003C26.8798 31.0787 27.2224 30.679 27.2816 30.7024C27.3407 30.7257 27.3551 30.6791 27.3085 30.5984C27.2619 30.5177 27.3158 30.3097 27.4485 30.1108C27.8449 29.5031 28.2074 28.8237 28.1913 28.7269C28.1823 28.6731 28.2451 28.5853 28.3258 28.5387C28.4065 28.4921 28.4478 28.4079 28.4083 28.3702C28.3008 28.2554 28.5752 27.9113 28.7473 27.949C28.828 27.9688 28.9051 27.9007 28.9338 27.8074C28.9518 27.716 28.9178 27.6443 28.8532 27.655C28.7887 27.6657 28.8013 27.542 28.873 27.3753C28.9627 27.1835 28.9628 27.1172 28.8857 27.1853C28.8085 27.2534 28.8122 27.2086 28.8983 27.0616C28.9772 26.9379 29.0526 26.7264 29.0652 26.6027C29.0867 26.4664 29.1585 26.366 29.2248 26.3661C29.2911 26.3661 29.3252 26.3051 29.2894 26.2227C29.2536 26.1402 29.2088 26.0039 29.1855 25.9304C29.1604 25.8461 29.0941 25.7134 29.0278 25.647C28.9454 25.5502 28.9902 25.5538 29.1515 25.6596C29.4706 25.8498 29.5011 25.8337 29.6267 25.459C29.7075 25.2134 29.7039 25.1256 29.6017 25.1094C29.4978 25.0825 29.496 25.0717 29.5928 25.0556C29.6681 25.0431 29.7058 24.9373 29.6879 24.8297C29.6378 24.5285 29.7096 24.2954 29.871 24.2686C29.9571 24.2543 30.0324 24.1754 30.0503 24.084C30.0683 23.9926 30.1652 23.9101 30.2512 23.8958C30.3911 23.8726 30.3875 23.8511 30.2566 23.7954C30.115 23.7416 30.1168 23.686 30.2299 23.435C30.3016 23.2683 30.3286 23.098 30.2874 23.0496C30.2461 23.0012 30.2767 22.9187 30.3574 22.8721C30.4381 22.8255 30.4686 22.7431 30.4273 22.6947C30.3861 22.6462 30.4005 22.5333 30.4669 22.467C30.6552 22.2698 30.7683 21.7535 30.6374 21.6979C30.5675 21.6764 30.5694 21.5544 30.6447 21.4092C30.8026 21.0955 30.7758 21.0005 30.5606 21.0363C30.41 21.0613 30.4064 21.0398 30.5499 20.8391C30.6396 20.7136 30.7598 20.6383 30.8171 20.6509C30.8763 20.6742 30.8709 20.642 30.8279 20.5828C30.758 20.4949 30.6935 20.5056 30.593 20.6329C30.4711 20.7637 30.4603 20.7655 30.4819 20.6293C30.516 20.4357 30.9894 20.1579 31.1167 20.2584C31.1668 20.2943 31.1561 20.3624 31.0843 20.3964C31.0126 20.4305 30.9731 20.5255 30.9875 20.6115C31.0197 20.8052 31.3729 20.7354 31.5021 20.5149C31.563 20.4163 31.6742 20.3536 31.7531 20.3626C31.8338 20.3823 31.8822 20.3411 31.8517 20.2909C31.8105 20.1762 32.0921 19.8751 32.1692 19.9396C32.1943 19.9576 32.2731 20.0992 32.3322 20.2552C32.4218 20.4614 32.42 20.517 32.3035 20.4811C32.187 20.4452 32.1887 20.456 32.3017 20.5367C32.3787 20.6013 32.4289 20.7035 32.4199 20.7824C32.384 20.9652 32.7354 21.0173 32.8842 20.8489C32.9488 20.7718 33.0116 20.7503 33.0187 20.7933C33.0348 20.8902 33.6713 20.7954 33.8148 20.6609C33.874 20.6179 33.9439 20.6395 33.9905 20.7202C34.0371 20.8009 34.0299 20.8905 33.9815 20.9317C33.933 20.9729 33.9097 21.0984 33.9276 21.206C33.9598 21.3997 33.9705 21.3979 34.1607 21.2115C34.3884 20.9857 34.557 20.9355 34.4852 21.1022C34.4619 21.1614 34.5013 21.1991 34.5874 21.1847C34.6734 21.1704 34.7684 21.2099 34.8132 21.2798C34.8562 21.339 34.8688 21.2817 34.8563 21.14C34.8295 20.9123 34.8385 20.8998 34.9621 21.045C35.032 21.1329 35.1288 21.1831 35.1665 21.1437C35.2059 21.115 35.369 21.2316 35.5411 21.402C35.8189 21.6764 35.844 21.7607 35.808 22.1426C35.7648 22.5477 35.7792 22.5675 35.9872 22.4887C36.2472 22.3901 36.4568 22.6538 36.6556 23.3172C36.7272 23.5485 36.8096 23.778 36.8616 23.8247C36.9028 23.8731 36.8885 23.9197 36.8347 23.9286C36.7594 23.9412 36.7737 24.0272 36.8794 24.1976C36.9582 24.3393 37.089 24.6602 37.1517 24.9041C37.2161 25.1587 37.3218 25.4617 37.3665 25.598C37.4221 25.7325 37.5618 26.1736 37.6853 26.5842C37.8089 26.9948 37.9593 27.4341 38.0238 27.5561C38.1242 27.7605 38.1062 27.7856 37.9341 27.7479C37.7513 27.712 37.7423 27.7245 37.9198 27.8608C38.0219 27.9433 38.2423 28.2715 38.3946 28.5889C38.9679 29.776 39.45 30.4808 39.9411 30.8413C40.2064 31.0404 40.5093 31.2001 40.6169 31.1822C40.7137 31.1661 40.7746 31.2002 40.7513 31.2594C40.728 31.3185 40.7602 31.3795 40.8212 31.4136C40.8803 31.4369 40.9269 31.3849 40.9126 31.2989C40.8983 31.2128 40.9288 31.1303 40.9934 31.1196C41.0472 31.1106 41.1099 31.1555 41.1224 31.2308C41.1475 31.3814 41.5544 31.568 41.6244 31.4569C41.6513 31.4192 41.6155 31.3368 41.5366 31.2614C41.4201 31.1592 41.4416 31.1556 41.7033 31.2005C41.8737 31.2275 42.1713 31.2222 42.3721 31.1667C42.6698 31.0951 42.763 31.1238 42.9045 31.3103C43.0192 31.4681 43.0461 31.5632 42.9779 31.6187C42.9098 31.6743 42.9169 31.7173 43.0119 31.7568C43.0837 31.7891 43.2164 31.7228 43.2989 31.6206C43.3814 31.5185 43.5087 31.4199 43.5733 31.4092C43.7777 31.3752 43.6809 31.1923 43.3457 30.9716L43.0249 30.7707L43.5843 30.6777C43.8962 30.6258 44.314 30.5453 44.5166 30.5005C44.8143 30.4289 44.895 30.4486 44.9057 30.5795C44.9128 30.6889 44.8554 30.7427 44.764 30.7247C44.6618 30.7085 44.6349 30.7462 44.6689 30.8179C44.7478 30.9596 45.4022 30.906 45.3466 30.7715C45.3269 30.7195 45.3718 30.6568 45.4525 30.6102C45.5529 30.5493 45.5851 30.6103 45.5851 30.8093C45.5796 31.1087 45.6746 31.1481 45.8307 30.89C45.9509 30.6821 45.8416 30.3575 45.6641 30.4202C45.6013 30.4417 45.5063 30.4022 45.4597 30.3216C45.4132 30.2409 45.3415 30.2086 45.293 30.2498C45.2446 30.291 45.198 30.2766 45.1873 30.2121C45.164 30.0722 45.3362 30.0436 45.4455 30.1692C45.501 30.2373 45.5853 30.2122 45.675 30.0868C45.7575 29.9846 45.9404 29.8878 46.0803 29.8646C46.2201 29.8413 46.3994 29.7894 46.4837 29.7643C46.5662 29.7285 46.6397 29.7716 46.654 29.8576C46.6701 29.9544 46.593 30.0225 46.4298 30.0386C46.2882 30.0511 46.1268 30.1443 46.0532 30.2339C45.9797 30.3235 45.9797 30.3899 46.0442 30.3791C46.1088 30.3684 46.1661 30.4473 46.184 30.5549C46.209 30.7055 46.2897 30.7252 46.6232 30.6698C46.8473 30.6215 47.0033 30.5623 46.9639 30.5247C46.9245 30.487 46.9944 30.4422 47.1235 30.4208C47.2526 30.3993 47.3853 30.4657 47.4605 30.5858C47.568 30.7669 47.5895 30.7634 47.6846 30.6038C47.7707 30.4568 47.7654 30.4246 47.6578 30.4425C47.5825 30.455 47.5448 30.4281 47.5825 30.3886C47.6094 30.351 47.7582 30.3815 47.8944 30.4694C48.0665 30.5735 48.1562 30.5807 48.1759 30.5C48.1939 30.4086 48.2781 30.3835 48.461 30.4194C48.6313 30.4464 48.7389 30.4285 48.7712 30.3568C48.7945 30.2976 48.7766 30.2564 48.7354 30.2743C48.4736 30.3621 48.3678 30.3244 48.4629 30.1649C48.5418 30.0412 48.5239 29.9999 48.4217 29.9838C48.3428 29.9748 48.3841 29.9568 48.5167 29.9569C48.7265 29.9552 48.7444 29.9301 48.6388 29.6934C48.5528 29.5087 48.5653 29.4513 48.6585 29.48C48.7303 29.5123 48.7805 29.4819 48.7697 29.4173C48.759 29.3528 48.8182 29.3098 48.9096 29.3277C49.001 29.3457 49.0638 29.3242 49.0477 29.2937C49.0083 29.1897 49.1896 28.6178 49.2649 28.6053C49.3079 28.5982 49.3311 28.738 49.3365 28.903C49.3436 29.0787 49.3866 29.2042 49.4511 29.1935C49.5049 29.1845 49.5103 29.0841 49.4584 28.9711C49.3885 28.8169 49.4046 28.7811 49.5104 28.8188C49.5929 28.8493 49.6861 28.8117 49.7256 28.7166C49.774 28.6091 49.826 28.5894 49.8941 28.6665C49.9873 28.7616 50.2563 28.7832 50.5431 28.7134C50.6274 28.6883 50.6364 28.6094 50.5845 28.4964C50.5182 28.3637 50.5505 28.292 50.7352 28.206C50.8894 28.1362 50.9522 28.0483 50.9056 27.9676C50.859 27.8869 50.8931 27.826 51.0132 27.8171C51.2535 27.7992 51.4524 27.932 51.5474 28.1705C51.6298 28.4 51.9758 28.4198 52.1085 28.2209C52.1785 28.1097 52.1767 28.099 52.0978 28.1563C52.0386 28.1993 51.9274 28.1957 51.8611 28.1293C51.6819 27.9823 51.6587 27.5771 51.8201 27.6166C51.8882 27.6273 51.9796 27.579 52.0119 27.5073C52.0532 27.423 52.0281 27.4051 51.96 27.4606C51.9026 27.5144 51.847 27.5126 51.8381 27.4588C51.8094 27.2867 52.299 27.0394 52.5213 27.113C52.6736 27.1651 52.7364 27.1436 52.7615 27.0288C52.7795 26.9374 52.7437 26.8549 52.6845 26.8316C52.6254 26.8082 52.5877 26.8477 52.5984 26.9122C52.6092 26.9768 52.5948 27.0234 52.5679 26.9947C52.3941 26.8799 52.6076 26.4353 52.9878 26.1289C53.2209 25.9353 53.4433 25.7436 53.4594 25.7077C53.5366 25.5733 53.9509 25.2059 54.0477 25.1898C54.1015 25.1808 54.0746 25.2848 53.9849 25.4103C53.8432 25.6218 53.8467 25.6433 53.9974 25.5519C54.0888 25.5036 54.1732 25.3458 54.1822 25.2006C54.193 25.0661 54.254 24.9675 54.3131 24.9909C54.3723 25.0142 54.5104 24.9138 54.6162 24.7525C54.9462 24.2775 55.3283 23.9155 55.4771 23.946C55.5559 23.955 55.5954 23.9264 55.5739 23.8636C55.5524 23.8008 55.6367 23.7094 55.7604 23.6557C55.8842 23.6019 55.99 23.507 55.9918 23.4514C55.9936 23.3958 56.3541 22.971 56.8079 22.5086C57.5827 21.7164 57.8553 21.4942 57.7548 21.7541C57.7315 21.8133 57.7673 21.8295 57.8588 21.7811C57.9395 21.7345 58.0023 21.6467 57.9933 21.5929C57.9844 21.5391 57.9288 21.5373 57.8714 21.591C57.814 21.6448 57.7782 21.6287 57.7907 21.5713C57.8338 21.3651 58.7629 20.4367 58.8812 20.4834C59.0228 20.5372 59.2757 20.263 59.1807 20.1572C59.1395 20.1088 59.2418 19.9259 59.4104 19.7431C59.579 19.5603 59.891 19.1767 60.1099 18.8971C60.5386 18.3504 60.7878 18.1874 60.517 18.6194L60.3609 18.8775L60.5546 18.6463C60.6658 18.5172 60.7196 18.3756 60.6802 18.3379C60.5583 18.2034 61.1359 17.5546 61.3403 17.587C61.4532 17.6013 61.4729 17.587 61.3887 17.5457C61.2076 17.4542 62.2786 15.85 62.4686 15.9289C62.551 15.9595 62.5708 15.9451 62.517 15.8877C62.4077 15.7622 62.9064 14.9717 63.1215 14.9359C63.2183 14.9198 63.3331 14.8123 63.3888 14.6814C63.4534 14.538 63.4408 14.4627 63.3763 14.4735C63.3117 14.4842 63.371 14.3085 63.4894 14.0898C63.6168 13.8586 63.7782 13.6991 63.857 13.7081C63.9377 13.7278 63.9969 13.6848 63.9951 13.6077C63.9952 13.5414 63.9845 13.4105 63.9701 13.3244C63.9666 13.2366 64.0096 13.1631 64.085 13.1506C64.1495 13.1398 64.2392 13.0807 64.2732 13.0197C64.3181 12.957 64.2948 12.9498 64.2266 13.0054C64.0419 13.1577 64.0725 13.0089 64.3003 12.5841C64.4187 12.3654 64.5694 12.2077 64.6303 12.2418C64.7002 12.2633 64.7092 12.2507 64.6662 12.1916C64.625 12.1431 64.6663 11.9262 64.765 11.7219C65.0162 11.1715 65.0646 11.064 65.0108 11.0729C64.9893 11.0765 64.7579 11.4798 64.4959 11.9656C64.0492 12.8027 63.4195 13.8693 62.8491 14.7601C62.2176 15.7496 60.3324 18.3073 59.7925 18.9167C59.4661 19.2806 58.9836 19.8362 58.7343 20.1319C58.0975 20.8901 57.5559 21.4887 57.3066 21.7181C57.1918 21.8257 56.869 22.1447 56.5964 22.4332C56.3238 22.7218 55.9399 23.0731 55.7552 23.2254C55.5705 23.3777 55.3033 23.6322 55.1759 23.7971C55.0486 23.962 54.758 24.2093 54.5267 24.3473C54.3061 24.4835 54.1232 24.6466 54.1321 24.7004C54.1411 24.7541 53.8738 25.0086 53.5403 25.2631C53.2067 25.5176 52.9377 25.7613 52.9449 25.8044C52.952 25.8474 52.9251 25.885 52.8803 25.8814C52.7351 25.8724 52.0536 26.3616 51.7254 26.7147C51.3111 27.1484 50.9614 27.3061 50.9238 27.0802C50.888 26.865 51.3328 26.5478 51.4564 26.6931C51.5102 26.7505 51.5658 26.686 51.5874 26.5497C51.6143 26.3794 51.6914 26.3113 51.8062 26.3364C51.9317 26.3598 51.9604 26.3329 51.8994 26.2325C51.8529 26.1518 51.8636 26.0837 51.9174 26.0747C51.9712 26.0658 52.034 26.1106 52.0465 26.1859C52.0572 26.2505 52.0967 26.2218 52.1236 26.1178C52.1505 26.0138 52.2097 25.9045 52.2635 25.8955C52.3155 25.8758 52.4411 25.7665 52.5308 25.6411C52.6204 25.5156 52.8069 25.374 52.9414 25.3185C53.0652 25.2647 53.2965 25.0604 53.4526 24.8686C53.6086 24.6769 53.8185 24.4761 53.9314 24.4242C54.0444 24.3722 54.152 24.288 54.1681 24.2522C54.2291 24.1536 54.7367 23.6822 54.9053 23.5657C54.9842 23.5084 55.2155 23.3041 55.4128 23.0944C55.6101 22.8847 56.019 22.485 56.3257 22.2019C58.5496 20.0853 61.6079 16.2711 63.1363 13.6953C63.4215 13.2167 63.696 12.8062 63.7355 12.7775C63.7857 12.747 63.818 12.6753 63.809 12.6216C63.8001 12.5678 64.028 12.0766 64.3025 11.5335C64.5877 10.9885 64.9214 10.2697 65.0507 9.91654C65.1799 9.56338 65.3306 9.27299 65.3844 9.26404C65.4382 9.2551 65.4669 9.16188 65.4472 9.04354C65.4293 8.93596 65.4563 8.83198 65.5208 8.82125C65.5853 8.81052 65.6607 8.66532 65.6894 8.50576C65.8187 7.9536 66.3393 6.03181 66.4452 5.73782C66.5062 5.57289 66.5422 5.39003 66.5332 5.33624C66.5225 5.27169 66.5907 4.9508 66.6895 4.61377C66.7882 4.27674 66.9014 3.49508 66.9429 2.88014C66.9843 2.26519 67.0419 1.68073 67.0832 1.59648C67.2607 1.40112 67.4866 1.42989 67.9652 1.78146ZM66.1797 6.33475C66.1563 6.39391 66.1097 6.44589 66.0882 6.44947C66.0667 6.45305 66.038 6.41359 66.0291 6.3598C66.0201 6.30601 66.0668 6.25403 66.1205 6.24508C66.1851 6.23435 66.2138 6.27381 66.1797 6.33475ZM66.0612 6.88512C66.0378 6.94428 65.9912 6.99626 65.9697 6.99984C65.9482 7.00342 65.9195 6.96396 65.9105 6.91017C65.9016 6.85638 65.9482 6.80441 66.002 6.79546C66.0648 6.77397 66.0934 6.81342 66.0612 6.88512ZM65.9606 7.21139C65.9696 7.26518 65.9337 7.31537 65.8691 7.32611C65.8154 7.33505 65.7544 7.30097 65.7455 7.24717C65.7365 7.19339 65.7724 7.1432 65.8369 7.13247C65.8997 7.11098 65.9517 7.1576 65.9606 7.21139ZM65.6215 8.09696C65.6017 8.24397 65.5335 8.4322 65.4707 8.52003C65.4079 8.60786 65.3631 8.73693 65.372 8.79072C65.3827 8.85527 65.354 8.88215 65.3164 8.85524C65.2787 8.82834 65.338 8.58632 65.4492 8.3246C65.5766 8.02702 65.6394 7.93919 65.6215 8.09696ZM64.7709 10.2947C64.7816 10.4256 64.4551 10.9221 64.3816 10.8791C64.2937 10.8163 64.5432 10.2552 64.6723 10.2337C64.7153 10.2266 64.7637 10.2517 64.7709 10.2947ZM64.3725 11.157C64.3097 11.2448 64.159 11.5352 64.0245 11.7897C63.9007 12.0425 63.7661 12.2307 63.7285 12.2038C63.6909 12.1769 63.7537 12.0227 63.847 11.8524C63.951 11.6803 64.0641 11.4294 64.1071 11.2895C64.1502 11.1497 64.2524 11.0332 64.3385 11.0189C64.4568 10.9992 64.4604 11.0207 64.3725 11.157ZM63.2316 13.1377C63.2405 13.1915 63.1526 13.3941 63.0395 13.5787C62.9283 13.7741 62.6646 14.1828 62.4745 14.5018C61.9112 15.4357 60.4385 17.4163 60.3525 17.3643C60.3148 17.3374 60.7095 16.719 61.2279 15.9805C61.7588 15.251 62.3813 14.3404 62.627 13.9568C63.2208 13.0068 63.2119 13.0194 63.2316 13.1377ZM65.5954 15.8512C65.599 15.8727 65.5469 15.9587 65.4716 16.0376C65.3981 16.1272 65.3353 16.1487 65.3246 16.0842C65.3156 16.0304 65.3677 15.9443 65.4484 15.8977C65.5183 15.8529 65.581 15.8314 65.5954 15.8512ZM8.88109 25.9572C8.8954 26.0433 8.60661 26.434 8.52055 26.4484C8.48827 26.4537 8.25869 26.7351 7.99501 27.0775C7.12506 28.2282 6.21567 29.3412 6.04889 29.4685C5.68663 29.7498 5.83562 29.2497 6.28583 28.6994C6.53335 28.3929 7.13064 27.6634 7.60954 27.0863C8.36109 26.1543 8.83276 25.7331 8.88109 25.9572ZM60.2305 17.4951C60.2502 17.6135 59.6816 18.3824 59.0807 19.0241C58.8942 19.232 58.6251 19.542 58.4781 19.7213C58.331 19.9005 58.1588 20.0618 58.0835 20.0743C58.0082 20.0868 58.0746 19.9542 58.2235 19.7857C58.3723 19.6172 58.7418 19.1799 59.036 18.8214C59.3409 18.4612 59.6117 18.1619 59.644 18.1565C59.6763 18.1511 59.8126 17.9737 59.9543 17.7622C60.087 17.5632 60.2108 17.4431 60.2305 17.4951ZM30.0632 23.0979C30.0668 23.1194 29.9843 23.2216 29.8928 23.3363C29.7906 23.4528 29.7099 23.4994 29.701 23.4456C29.692 23.3918 29.7727 23.2789 29.8714 23.2072C29.9682 23.1248 30.0597 23.0764 30.0632 23.0979ZM57.8485 20.4561C57.6853 20.6712 57.3122 20.9544 57.2388 20.9113C57.1635 20.8575 57.6872 20.3503 57.8486 20.3235C57.9239 20.3109 57.9202 20.3558 57.8485 20.4561ZM5.74046 29.6082C5.76911 29.714 5.68297 29.9273 5.56459 30.0797C5.44621 30.232 5.20047 30.5493 5.03007 30.7877C4.85966 31.0261 4.6229 31.2644 4.52069 31.3146C4.40771 31.3666 4.28934 31.5189 4.25702 31.657C4.2247 31.795 4.09914 31.9706 3.98974 32.0441C3.87138 32.1301 3.55213 32.4707 3.26695 32.8166C2.38446 33.892 2.3181 33.9583 1.94689 34.1859C1.74605 34.3077 1.59537 34.4655 1.60611 34.53C1.61684 34.5946 1.49127 34.7702 1.32986 34.9297C1.16844 35.0892 1.00343 35.2936 0.97292 35.376C0.942417 35.4585 0.833023 35.5319 0.725446 35.5498C0.628624 35.5659 0.50844 35.7075 0.467155 35.8581C0.425861 36.0087 0.34514 36.1216 0.285984 36.0983C0.226828 36.075 0.072607 36.2112 -0.0601335 36.4101C-0.192882 36.6091 -0.365066 36.7704 -0.429617 36.7811C-0.504922 36.7937 -0.547969 36.8672 -0.537234 36.9317C-0.524711 37.007 -0.61623 37.1881 -0.756127 37.344C-0.922936 37.5376 -0.9839 37.5698 -0.960554 37.4443C-0.93541 37.3296 -0.976604 37.2812 -1.07343 37.2973C-1.15949 37.3116 -1.21332 37.3869 -1.2008 37.4622C-1.18827 37.5375 -1.3031 37.7777 -1.44303 37.9999C-1.58474 38.2115 -1.70854 38.4642 -1.70677 38.5413C-1.69966 38.717 -1.91843 38.8639 -1.94527 38.7026C-1.98463 38.4659 -1.5774 37.7238 -1.00878 36.9548C-0.248234 35.9439 0.275512 35.3041 0.372334 35.288C0.415368 35.2808 0.490709 35.2019 0.55528 35.1249C0.618062 35.037 0.93732 34.6965 1.25836 34.3667C2.03138 33.5638 2.95866 32.5583 3.73709 31.655C4.09043 31.2535 4.45272 30.8395 4.55674 30.7337C4.66077 30.628 4.87423 30.3824 5.04104 30.1889C5.74235 29.3536 5.69392 29.3948 5.74046 29.6082ZM57.0432 21.2644C57.0521 21.3182 56.9894 21.4061 56.9087 21.4526C56.819 21.5118 56.7599 21.4884 56.7814 21.4185C56.7994 21.2608 57.0217 21.1353 57.0432 21.2644ZM56.3742 21.9616C56.0352 22.3828 55.8272 22.528 55.8577 22.3128C55.8703 22.2555 56.0694 22.0565 56.2918 21.8648L56.7114 21.5297L56.3742 21.9616ZM28.8357 26.486C28.7693 26.5524 28.7424 26.6563 28.7872 26.7263C28.8338 26.807 28.7746 26.9163 28.6365 27.0167C28.5074 27.1045 28.4034 27.1439 28.3998 27.1224C28.3783 26.9933 28.7353 26.4143 28.8429 26.3964C28.9182 26.3839 28.9128 26.4179 28.8357 26.486ZM55.5779 22.691C55.2138 23.1607 54.7708 23.5549 54.622 23.5244C54.5431 23.5154 54.5969 23.4401 54.7368 23.3505C54.8677 23.2735 55.0291 23.114 55.1009 23.0136C55.1601 22.9043 55.352 22.7286 55.5098 22.6139L55.8075 22.4096L55.5779 22.691ZM28.2883 28.0475C28.3295 28.0959 28.3008 28.1228 28.1986 28.1066C28.005 28.0725 27.9602 28.0025 28.1109 27.9775C28.1646 27.9685 28.2364 28.0008 28.2883 28.0475ZM54.3906 23.795C54.3996 23.8488 54.2794 23.9904 54.1198 24.0944C53.962 24.209 53.8275 24.2646 53.8203 24.2215C53.8132 24.1785 53.9351 24.0477 54.0912 23.9222C54.249 23.8075 54.3817 23.7413 54.3906 23.795ZM53.7432 24.4223C53.7503 24.4654 53.6481 24.5819 53.5082 24.6714C53.3092 24.8041 53.2661 24.8112 53.2913 24.6965C53.3003 24.6176 53.3684 24.562 53.4348 24.5621C53.5011 24.5621 53.5495 24.5209 53.5406 24.4671C53.5316 24.4133 53.5675 24.3631 53.632 24.3524C53.6858 24.3434 53.736 24.3793 53.7432 24.4223ZM27.89 28.8434C27.9312 28.8918 27.8954 28.942 27.7985 28.9581C27.7125 28.9724 27.6156 29.0548 27.5977 29.1462C27.5797 29.2377 27.5151 29.3147 27.4721 29.3219C27.3323 29.3452 27.4973 28.9418 27.6677 28.8361C27.7502 28.8003 27.838 28.7967 27.89 28.8434ZM52.9594 25.0944C52.9361 25.1535 52.8895 25.2055 52.868 25.2091C52.8464 25.2127 52.8178 25.1732 52.8088 25.1194C52.7999 25.0656 52.8465 25.0137 52.9003 25.0047C52.9523 24.985 52.981 25.0245 52.9594 25.0944ZM52.6169 25.2951C52.6205 25.3166 52.5685 25.4026 52.4931 25.4815C52.4196 25.5711 52.3569 25.5926 52.3461 25.528C52.3372 25.4742 52.3892 25.3882 52.4699 25.3416C52.5506 25.295 52.6134 25.2735 52.6169 25.2951ZM27.3052 29.7145C27.4074 29.797 27.3894 29.8884 27.2442 30.0784C26.9984 30.3957 26.9356 30.4172 26.9572 30.1482C26.9716 30.0353 27.0201 29.9277 27.0631 29.9206C27.1061 29.9134 27.1492 29.8399 27.1582 29.761C27.16 29.6391 27.1923 29.6338 27.3052 29.7145ZM26.7455 30.6036C26.7706 30.7542 26.3077 31.6271 26.1571 31.7185C26.1176 31.7472 25.9526 31.9515 25.8001 32.1648C25.6476 32.3781 25.4486 32.5771 25.3733 32.5896C25.2872 32.6039 25.3249 32.4981 25.472 32.3189C25.6101 32.1522 25.7052 31.9927 25.6962 31.9389C25.6891 31.8959 25.9169 31.5374 26.2057 31.1466C26.4765 30.781 26.7115 30.5318 26.7455 30.6036ZM50.8002 26.8022C50.7769 26.8614 50.7303 26.9134 50.7087 26.9169C50.6872 26.9205 50.6585 26.8811 50.6496 26.8273C50.6406 26.7735 50.6873 26.7215 50.7411 26.7126C50.7949 26.7036 50.8235 26.7431 50.8002 26.8022ZM50.9363 27.2881C50.956 27.4065 50.6421 27.7793 50.5668 27.7255C50.4915 27.6717 49.7114 28.2326 49.5894 28.4297C49.4943 28.5893 49.03 28.6554 49.039 28.5102C49.0408 28.4546 49.109 28.3991 49.1861 28.3973C49.2632 28.3956 49.308 28.3328 49.2955 28.2575C49.2829 28.1822 49.3403 28.1284 49.4335 28.1572C49.525 28.1751 49.586 28.1429 49.5752 28.0783C49.5645 28.0138 49.6219 27.96 49.6972 27.9475C49.7725 27.935 50.0217 27.7719 50.2477 27.6017C50.6638 27.245 50.9005 27.1393 50.9363 27.2881ZM51.5206 27.6774C51.5403 27.7957 51.5116 27.8226 51.4668 27.7527C51.422 27.6828 51.4185 27.5949 51.4454 27.5573C51.4723 27.5196 51.5028 27.5698 51.5206 27.6774ZM48.8435 28.797C48.8524 28.8508 48.8165 28.901 48.752 28.9117C48.6982 28.9207 48.6372 28.8866 48.6283 28.8328C48.6193 28.779 48.6552 28.7288 48.7198 28.7181C48.7825 28.6966 48.8345 28.7432 48.8435 28.797ZM48.553 28.9117C48.5584 28.9439 48.4059 29.1572 48.2122 29.3884C48.0184 29.6197 47.8749 29.8867 47.891 29.9836C47.9071 30.0804 47.8282 30.2041 47.726 30.2542C47.5 30.3581 47.4284 30.1932 47.64 30.0695C47.7404 30.0086 47.762 29.8724 47.7029 29.65C47.6617 29.4689 47.651 29.2717 47.6887 29.2323C47.7246 29.1821 47.7676 29.2413 47.7837 29.3381C47.8141 29.521 47.8249 29.5192 47.9271 29.3363C48.0276 29.1427 48.5333 28.7933 48.553 28.9117ZM47.0395 29.7161C47.0162 29.7753 46.9695 29.8273 46.948 29.8308C46.9265 29.8344 46.8978 29.795 46.8889 29.7412C46.8799 29.6874 46.9266 29.6354 46.9804 29.6265C47.0342 29.6175 47.0628 29.657 47.0395 29.7161ZM47.5541 29.6195C47.6294 29.6733 47.4571 29.9673 47.3388 29.9869C47.285 29.9959 47.2384 29.9152 47.2223 29.8184C47.1829 29.648 47.4035 29.5119 47.5541 29.6195ZM47.0842 30.0514C47.0573 30.1554 47.0142 30.2289 46.9766 30.202C46.9389 30.1751 46.9587 30.0944 47.0215 30.0066C47.1022 29.8936 47.1147 29.9026 47.0842 30.0514ZM45.3341 30.6299C45.3431 30.6837 45.2964 30.7357 45.2427 30.7446C45.1781 30.7553 45.1494 30.7159 45.1835 30.6549C45.2069 30.5958 45.2535 30.5438 45.275 30.5402C45.2947 30.5259 45.3252 30.5761 45.3341 30.6299ZM46.6663 30.3973C46.7613 30.4368 46.8151 30.4942 46.7882 30.5318C46.7613 30.5694 46.6358 30.5461 46.5139 30.4779C46.2737 30.3631 46.3939 30.2878 46.6663 30.3973ZM48.1366 30.2633C48.1455 30.3171 48.0989 30.3691 48.0451 30.3781C47.9805 30.3888 47.9518 30.3493 47.9859 30.2884C48.0093 30.2292 48.0559 30.1773 48.0774 30.1737C48.0989 30.1701 48.1276 30.2095 48.1366 30.2633ZM43.2345 31.2333C43.281 31.314 43.2846 31.4019 43.2452 31.4306C43.2057 31.4592 43.1519 31.4018 43.1233 31.2961C43.0749 31.0719 43.1252 31.0415 43.2345 31.2333ZM49.658 32.1661C49.8211 32.2827 49.812 32.6933 49.6345 32.8223C49.3798 33.0194 49.344 33.0033 49.3046 32.7666C49.2849 32.6483 49.2312 32.5909 49.172 32.6339C49.1236 32.6751 49.0967 32.6464 49.1129 32.5442C49.1488 32.3614 49.3245 32.2879 49.3513 32.4493C49.3603 32.5031 49.4428 32.5336 49.5288 32.5193C49.6472 32.4996 49.6597 32.4422 49.5916 32.2988C49.4949 32.1159 49.5092 32.0693 49.658 32.1661ZM48.6916 32.4042C48.7812 32.4778 48.8314 32.58 48.8063 32.6284C48.7255 32.7413 48.4835 32.5494 48.5015 32.3916C48.5195 32.3002 48.5751 32.302 48.6916 32.4042ZM47.8112 32.5617C47.8596 32.6532 47.8363 32.7123 47.7394 32.7284C47.5673 32.757 47.5082 32.601 47.6337 32.4917C47.6929 32.4487 47.7646 32.481 47.8112 32.5617ZM47.2159 32.7049C47.2572 32.7533 47.3468 32.7605 47.3934 32.7086C47.4508 32.6548 47.4759 32.6727 47.4346 32.757C47.3969 32.8628 47.3432 32.8717 47.2087 32.7946C47.0384 32.7013 46.9936 32.6313 47.0797 32.617C47.1138 32.6224 47.1747 32.6565 47.2159 32.7049ZM47.0886 32.9362C47.0975 32.9899 47.0616 33.0401 47.0078 33.0491C46.954 33.058 46.8716 33.0275 46.8304 32.9791C46.7891 32.9307 46.825 32.8805 46.9111 32.8662C47.0079 32.8501 47.0796 32.8824 47.0886 32.9362Z" fill="#97E9BC"/>
</g>
</svg>
