<svg width="99" height="116" viewBox="0 0 99 116" fill="none" xmlns="http://www.w3.org/2000/svg">
<path fill-rule="evenodd" clip-rule="evenodd" d="M67.269 57.729L74.0753 52.5137C72.1124 54.65 69.8242 56.3701 67.269 57.729ZM55.9434 72.7137C58.3111 70.4258 60.7344 68.2407 62.8211 65.719C61.21 68.733 58.6374 70.8062 55.9434 72.7137ZM51.9418 60.67C50.8676 59.9973 51.4445 59.396 51.9423 58.824C53.6247 56.8888 55.9758 56.8527 58.2241 56.8398C59.8627 56.8302 61.5672 57.0268 63.0346 57.9484C63.5943 58.2996 63.9402 58.732 63.0804 59.1948C60.7327 60.458 58.2795 61.3728 55.5806 61.4338C54.2947 61.4628 53.0419 61.2507 51.9418 60.67ZM61.5543 64.9172C60.5214 66.7077 58.9696 68.0641 57.4756 69.4537C51.0197 75.4575 43.297 79.0412 34.885 81.3786C29.2657 82.9398 23.5528 83.9498 17.7929 84.7602C17.2675 84.8346 16.7331 84.8887 16.2955 85.2285C15.8041 85.6104 15.6188 85.9845 16.4263 86.1764C16.6249 86.2242 16.9215 86.097 16.8175 86.4652C16.4594 87.7354 17.4171 87.9462 18.2411 88.2112C19.7871 88.709 21.3957 88.4968 22.9646 88.4394C27.36 88.279 31.7537 87.9522 36.0664 87.0518C40.07 86.2156 43.9076 84.8087 47.7036 83.2952C50.1199 82.3317 52.5645 81.3182 54.4895 79.591C55.7684 78.4436 57.3448 77.8673 58.6083 76.758C61.0305 74.6311 63.4205 72.487 65.3275 69.8621C66.8969 67.7014 67.818 65.2983 67.9604 62.63C68.0071 61.7502 68.3711 61.1295 69.0604 60.6504C70.9179 59.3588 72.7394 58.0036 74.5279 56.6351C77.4382 54.4093 79.9819 51.732 82.406 48.974C86.2723 44.5751 89.6454 39.8483 91.8205 34.3568C93.0988 31.1292 94.1494 27.864 93.3662 24.3159C93.1601 23.3818 92.8005 22.5556 91.9347 22.0347C91.5618 21.8098 91.2105 21.7468 90.8265 22.0061C90.373 22.313 90.6491 22.5437 90.7976 22.9157C91.8166 25.4673 90.6879 27.7585 89.7983 30.0535C87.347 36.3785 83.2373 41.5938 78.6938 46.5102C75.2169 50.2724 71.4062 53.6592 67.2037 56.5961C66.87 56.8294 66.5993 57.2733 66.1713 56.6238C64.6805 54.361 62.4544 53.135 59.8987 52.5455C55.9539 51.6352 52.1465 51.8419 48.9268 54.6577C47.1965 56.1707 47.0012 57.7979 47.8806 59.9074C50.1199 65.2819 55.4412 66.5576 60.0798 65.0685C60.4951 64.9346 60.9101 64.8011 61.3245 64.6678C61.4014 64.751 61.4778 64.8343 61.5543 64.9172Z" fill="#6E7CA7"/>
<path fill-rule="evenodd" clip-rule="evenodd" d="M10.6929 82.7287C8.6071 84.4604 6.33474 85.8728 3.78997 86.8158C6.09071 85.4535 8.39185 84.0915 10.6929 82.7287ZM16.9258 93.1098C14.5857 91.6726 12.0412 90.6597 9.54273 89.5505C9.16927 89.3847 8.64354 89.3878 8.62207 88.7705C8.60164 88.1775 9.09609 88.049 9.45735 87.8896C11.4256 87.0186 13.028 85.6186 14.7719 84.4115C15.8739 83.6495 17.1288 83.0895 18.2371 82.2719C19.943 81.0126 21.7454 79.8798 23.5362 78.74C24.4435 78.1622 25.0411 77.1846 26.2216 76.9344C27.3795 76.6888 27.6569 75.7919 27.0371 74.1708C26.7212 73.3432 26.0375 72.6467 24.9846 73.0289C24.1187 73.3433 23.2622 73.7302 22.4757 74.2067C17.2705 77.361 12.0908 80.5572 6.88931 83.7174C5.72185 84.4269 4.50525 85.0584 3.30379 85.7112C1.1191 86.8981 0.887572 87.8476 2.11139 90.0243C3.06144 91.7141 4.44403 92.692 6.30844 93.1703C9.89712 94.0913 13.4597 95.1147 16.8261 96.7022C17.5006 97.0205 18.1297 97.4333 18.7928 97.7783C19.5601 98.1784 19.9641 97.9581 19.939 97.0615C19.8844 95.0741 19.6414 94.7527 16.9258 93.1098Z" fill="#6E7CA7"/>
</svg>
