<svg width="99" height="116" viewBox="0 0 99 116" fill="none" xmlns="http://www.w3.org/2000/svg">
<path fill-rule="evenodd" clip-rule="evenodd" d="M30.8407 57.7288L24.0344 52.5134C25.9973 54.6497 28.2855 56.3699 30.8407 57.7288ZM42.1663 72.7135C39.7986 70.4255 37.3753 68.2405 35.2886 65.7187C36.8997 68.7328 39.4723 70.8059 42.1663 72.7135ZM46.1678 60.6693C47.2421 59.9967 46.6652 59.3953 46.1674 58.8233C44.485 56.8882 42.1339 56.852 39.8856 56.8391C38.247 56.8296 36.5425 57.0261 35.0751 57.9477C34.5154 58.2989 34.1694 58.7313 35.0292 59.1941C37.377 60.4573 39.8302 61.3721 42.5291 61.4331C43.8149 61.4621 45.0678 61.25 46.1678 60.6693ZM36.5555 64.9172C37.5885 66.7077 39.1402 68.0641 40.6343 69.4537C47.0902 75.4575 54.8129 79.0412 63.2248 81.3786C68.8441 82.9398 74.557 83.9498 80.3169 84.7602C80.8424 84.8346 81.3768 84.8887 81.8144 85.2285C82.3058 85.6104 82.4911 85.9845 81.6836 86.1764C81.4849 86.2242 81.1884 86.097 81.2924 86.4652C81.6504 87.7354 80.6927 87.9462 79.8688 88.2112C78.3228 88.709 76.7142 88.4968 75.1453 88.4394C70.7498 88.279 66.3562 87.9522 62.0435 87.0518C58.0398 86.2156 54.2022 84.8087 50.4062 83.2952C47.9899 82.3317 45.5454 81.3182 43.6203 79.591C42.3415 78.4436 40.7651 77.8673 39.5015 76.758C37.0794 74.6311 34.6894 72.487 32.7824 69.8621C31.213 67.7014 30.2919 65.2983 30.1494 62.63C30.1028 61.7502 29.7388 61.1295 29.0494 60.6504C27.192 59.3588 25.3705 58.0036 23.582 56.6351C20.6717 54.4093 18.1279 51.732 15.7039 48.974C11.8376 44.5751 8.46443 39.8483 6.2894 34.3568C5.01104 31.1292 3.96043 27.864 4.74365 24.3159C4.9498 23.3818 5.3094 22.5556 6.1752 22.0347C6.54807 21.8098 6.89936 21.7468 7.28336 22.0061C7.73684 22.313 7.46076 22.5437 7.3123 22.9157C6.29328 25.4673 7.42197 27.7585 8.31157 30.0535C10.7629 36.3785 14.8725 41.5938 19.416 46.5102C22.893 50.2724 26.7036 53.6592 30.9061 56.5961C31.2399 56.8294 31.5106 57.2733 31.9385 56.6238C33.4294 54.361 35.6554 53.135 38.2111 52.5455C42.1559 51.6352 45.9633 51.8419 49.1831 54.6577C50.9134 56.1707 51.1086 57.7979 50.2293 59.9074C47.99 65.2819 42.6687 66.5576 38.03 65.0685C37.6148 64.9346 37.1997 64.8011 36.7854 64.6678C36.7084 64.751 36.6321 64.8343 36.5555 64.9172Z" fill="#1B2767"/>
<path fill-rule="evenodd" clip-rule="evenodd" d="M87.4166 82.7285C89.5023 84.4602 91.7747 85.8726 94.3195 86.8156C92.0187 85.4533 89.7176 84.0912 87.4166 82.7285ZM81.1835 93.1098C83.5237 91.6726 86.0682 90.6597 88.5666 89.5505C88.9401 89.3847 89.4658 89.3878 89.4873 88.7705C89.5077 88.1775 89.0133 88.049 88.652 87.8896C86.6838 87.0186 85.0813 85.6186 83.3374 84.4115C82.2355 83.6495 80.9806 83.0895 79.8723 82.2719C78.1664 81.0126 76.3639 79.8798 74.5732 78.74C73.6658 78.1622 73.0682 77.1846 71.8878 76.9344C70.7299 76.6888 70.4525 75.7919 71.0722 74.1708C71.3882 73.3432 72.0719 72.6467 73.1248 73.0289C73.9906 73.3433 74.8471 73.7302 75.6337 74.2067C80.8389 77.361 86.0186 80.5572 91.2201 83.7174C92.3875 84.4269 93.6041 85.0584 94.8056 85.7112C96.9903 86.8981 97.2218 87.8476 95.998 90.0243C95.0479 91.7141 93.6653 92.692 91.8009 93.1703C88.2123 94.0913 84.6496 95.1147 81.2833 96.7022C80.6088 97.0205 79.9796 97.4333 79.3166 97.7783C78.5492 98.1784 78.1452 97.9581 78.1704 97.0615C78.225 95.0741 78.468 94.7527 81.1835 93.1098Z" fill="#1B2767"/>
</svg>
