<svg width="375" height="1171" viewBox="0 0 375 1171" fill="none" xmlns="http://www.w3.org/2000/svg">
<g opacity="0.2" clip-path="url(#clip0_3037_40423)">
<path d="M361.249 4.06945C361.249 6.31694 363.071 8.13889 365.318 8.13889C367.566 8.13889 369.388 6.31694 369.388 4.06944C369.388 1.82195 367.566 1.5928e-07 365.318 3.55762e-07C363.071 5.52244e-07 361.249 1.82195 361.249 4.06945Z" fill="#43B6FA"/>
<path d="M321.11 4.06945C321.11 6.31694 322.932 8.13889 325.179 8.13889C327.427 8.13889 329.249 6.31694 329.249 4.06944C329.249 1.82195 327.427 1.5928e-07 325.179 3.55762e-07C322.932 5.52244e-07 321.11 1.82195 321.11 4.06945Z" fill="#43B6FA"/>
<path d="M280.971 4.06945C280.971 6.31694 282.793 8.13889 285.041 8.13889C287.288 8.13889 289.11 6.31694 289.11 4.06944C289.11 1.82195 287.288 1.5928e-07 285.041 3.55762e-07C282.793 5.52244e-07 280.971 1.82195 280.971 4.06945Z" fill="#43B6FA"/>
<path d="M240.832 4.06945C240.832 6.31694 242.654 8.13889 244.902 8.13889C247.149 8.13889 248.971 6.31694 248.971 4.06944C248.971 1.82195 247.149 1.5928e-07 244.902 3.55762e-07C242.654 5.52244e-07 240.832 1.82195 240.832 4.06945Z" fill="#43B6FA"/>
<path d="M200.693 4.06945C200.693 6.31694 202.515 8.13889 204.763 8.13889C207.01 8.13889 208.832 6.31694 208.832 4.06944C208.832 1.82195 207.01 1.5928e-07 204.763 3.55762e-07C202.515 5.52244e-07 200.693 1.82195 200.693 4.06945Z" fill="#43B6FA"/>
<path d="M160.554 4.06945C160.554 6.31694 162.376 8.13889 164.624 8.13889C166.871 8.13889 168.693 6.31694 168.693 4.06944C168.693 1.82195 166.871 1.5928e-07 164.624 3.55762e-07C162.376 5.52244e-07 160.554 1.82195 160.554 4.06945Z" fill="#43B6FA"/>
<path d="M120.415 4.06945C120.415 6.31694 122.237 8.13889 124.485 8.13889C126.732 8.13889 128.554 6.31694 128.554 4.06944C128.554 1.82195 126.732 1.5928e-07 124.485 3.55762e-07C122.237 5.52244e-07 120.415 1.82195 120.415 4.06945Z" fill="#43B6FA"/>
<path d="M80.2765 4.06945C80.2765 6.31694 82.0985 8.13889 84.346 8.13889C86.5935 8.13889 88.4154 6.31694 88.4154 4.06944C88.4154 1.82195 86.5935 1.5928e-07 84.346 3.55762e-07C82.0985 5.52244e-07 80.2765 1.82195 80.2765 4.06945Z" fill="#43B6FA"/>
<path d="M40.1376 4.06945C40.1376 6.31694 41.9596 8.13889 44.207 8.13889C46.4545 8.13889 48.2765 6.31694 48.2765 4.06944C48.2765 1.82195 46.4545 1.5928e-07 44.207 3.55762e-07C41.9596 5.52244e-07 40.1376 1.82195 40.1376 4.06945Z" fill="#43B6FA"/>
<path d="M-0.00131571 4.06993C-0.00131552 6.31743 1.82064 8.13938 4.06813 8.13938C6.31562 8.13938 8.13757 6.31743 8.13757 4.06993C8.13757 1.82244 6.31562 0.000488441 4.06813 0.000488637C1.82064 0.000488833 -0.00131591 1.82244 -0.00131571 4.06993Z" fill="#43B6FA"/>
<path d="M361.249 44.2086C361.249 46.4561 363.071 48.2781 365.318 48.278C367.566 48.278 369.388 46.4561 369.388 44.2086C369.388 41.9611 367.566 40.1392 365.318 40.1392C363.071 40.1392 361.249 41.9611 361.249 44.2086Z" fill="#43B6FA"/>
<path d="M321.11 44.2086C321.11 46.4561 322.932 48.2781 325.179 48.278C327.427 48.278 329.249 46.4561 329.249 44.2086C329.249 41.9611 327.427 40.1392 325.179 40.1392C322.932 40.1392 321.11 41.9611 321.11 44.2086Z" fill="#43B6FA"/>
<path d="M280.971 44.2086C280.971 46.4561 282.793 48.2781 285.041 48.278C287.288 48.278 289.11 46.4561 289.11 44.2086C289.11 41.9611 287.288 40.1392 285.041 40.1392C282.793 40.1392 280.971 41.9611 280.971 44.2086Z" fill="#43B6FA"/>
<path d="M240.832 44.2086C240.832 46.4561 242.654 48.2781 244.902 48.278C247.149 48.278 248.971 46.4561 248.971 44.2086C248.971 41.9611 247.149 40.1392 244.902 40.1392C242.654 40.1392 240.832 41.9611 240.832 44.2086Z" fill="#43B6FA"/>
<path d="M200.693 44.2086C200.693 46.4561 202.515 48.2781 204.763 48.278C207.01 48.278 208.832 46.4561 208.832 44.2086C208.832 41.9611 207.01 40.1392 204.763 40.1392C202.515 40.1392 200.693 41.9611 200.693 44.2086Z" fill="#43B6FA"/>
<path d="M160.554 44.2086C160.554 46.4561 162.376 48.2781 164.624 48.278C166.871 48.278 168.693 46.4561 168.693 44.2086C168.693 41.9611 166.871 40.1392 164.624 40.1392C162.376 40.1392 160.554 41.9611 160.554 44.2086Z" fill="#43B6FA"/>
<path d="M120.415 44.2086C120.415 46.4561 122.237 48.2781 124.485 48.278C126.732 48.278 128.554 46.4561 128.554 44.2086C128.554 41.9611 126.732 40.1392 124.485 40.1392C122.237 40.1392 120.415 41.9611 120.415 44.2086Z" fill="#43B6FA"/>
<path d="M80.2765 44.2086C80.2765 46.4561 82.0985 48.2781 84.346 48.278C86.5935 48.278 88.4154 46.4561 88.4154 44.2086C88.4154 41.9611 86.5935 40.1392 84.346 40.1392C82.0985 40.1392 80.2765 41.9611 80.2765 44.2086Z" fill="#43B6FA"/>
<path d="M40.1376 44.2086C40.1376 46.4561 41.9596 48.2781 44.207 48.278C46.4545 48.278 48.2765 46.4561 48.2765 44.2086C48.2765 41.9611 46.4545 40.1392 44.207 40.1392C41.9596 40.1392 40.1376 41.9611 40.1376 44.2086Z" fill="#43B6FA"/>
<path d="M-0.00131571 44.2091C-0.00131552 46.4566 1.82064 48.2785 4.06813 48.2785C6.31562 48.2785 8.13757 46.4566 8.13757 44.2091C8.13757 41.9616 6.31562 40.1396 4.06813 40.1396C1.82064 40.1396 -0.00131591 41.9616 -0.00131571 44.2091Z" fill="#43B6FA"/>
<path d="M361.249 84.3478C361.249 86.5953 363.071 88.4172 365.318 88.4172C367.566 88.4172 369.388 86.5953 369.388 84.3478C369.388 82.1003 367.566 80.2783 365.318 80.2783C363.071 80.2783 361.249 82.1003 361.249 84.3478Z" fill="#43B6FA"/>
<path d="M321.11 84.3478C321.11 86.5953 322.932 88.4172 325.179 88.4172C327.427 88.4172 329.249 86.5953 329.249 84.3478C329.249 82.1003 327.427 80.2783 325.179 80.2783C322.932 80.2783 321.11 82.1003 321.11 84.3478Z" fill="#43B6FA"/>
<path d="M280.971 84.3478C280.971 86.5953 282.793 88.4172 285.041 88.4172C287.288 88.4172 289.11 86.5953 289.11 84.3478C289.11 82.1003 287.288 80.2783 285.041 80.2783C282.793 80.2783 280.971 82.1003 280.971 84.3478Z" fill="#43B6FA"/>
<path d="M240.832 84.3478C240.832 86.5953 242.654 88.4172 244.902 88.4172C247.149 88.4172 248.971 86.5953 248.971 84.3478C248.971 82.1003 247.149 80.2783 244.902 80.2783C242.654 80.2783 240.832 82.1003 240.832 84.3478Z" fill="#43B6FA"/>
<path d="M200.693 84.3478C200.693 86.5953 202.515 88.4172 204.763 88.4172C207.01 88.4172 208.832 86.5953 208.832 84.3478C208.832 82.1003 207.01 80.2783 204.763 80.2783C202.515 80.2783 200.693 82.1003 200.693 84.3478Z" fill="#43B6FA"/>
<path d="M160.554 84.3478C160.554 86.5953 162.376 88.4172 164.624 88.4172C166.871 88.4172 168.693 86.5953 168.693 84.3478C168.693 82.1003 166.871 80.2783 164.624 80.2783C162.376 80.2783 160.554 82.1003 160.554 84.3478Z" fill="#43B6FA"/>
<path d="M120.415 84.3478C120.415 86.5953 122.237 88.4172 124.485 88.4172C126.732 88.4172 128.554 86.5953 128.554 84.3478C128.554 82.1003 126.732 80.2783 124.485 80.2783C122.237 80.2783 120.415 82.1003 120.415 84.3478Z" fill="#43B6FA"/>
<path d="M80.2765 84.3478C80.2765 86.5953 82.0985 88.4172 84.346 88.4172C86.5935 88.4172 88.4154 86.5953 88.4154 84.3478C88.4154 82.1003 86.5935 80.2783 84.346 80.2783C82.0985 80.2783 80.2765 82.1003 80.2765 84.3478Z" fill="#43B6FA"/>
<path d="M40.1376 84.3478C40.1376 86.5953 41.9596 88.4172 44.207 88.4172C46.4545 88.4172 48.2765 86.5953 48.2765 84.3478C48.2765 82.1003 46.4545 80.2783 44.207 80.2783C41.9596 80.2783 40.1376 82.1003 40.1376 84.3478Z" fill="#43B6FA"/>
<path d="M-0.00131571 84.3483C-0.00131552 86.5957 1.82064 88.4177 4.06813 88.4177C6.31562 88.4177 8.13757 86.5957 8.13757 84.3483C8.13757 82.1008 6.31562 80.2788 4.06813 80.2788C1.82064 80.2788 -0.00131591 82.1008 -0.00131571 84.3483Z" fill="#43B6FA"/>
<path d="M361.249 124.487C361.249 126.734 363.071 128.556 365.318 128.556C367.566 128.556 369.388 126.734 369.388 124.487C369.388 122.239 367.566 120.417 365.318 120.417C363.071 120.417 361.249 122.239 361.249 124.487Z" fill="#43B6FA"/>
<path d="M321.11 124.487C321.11 126.734 322.932 128.556 325.179 128.556C327.427 128.556 329.249 126.734 329.249 124.487C329.249 122.239 327.427 120.417 325.179 120.417C322.932 120.417 321.11 122.239 321.11 124.487Z" fill="#43B6FA"/>
<path d="M280.971 124.487C280.971 126.734 282.793 128.556 285.041 128.556C287.288 128.556 289.11 126.734 289.11 124.487C289.11 122.239 287.288 120.417 285.041 120.417C282.793 120.417 280.971 122.239 280.971 124.487Z" fill="#43B6FA"/>
<path d="M240.832 124.487C240.832 126.734 242.654 128.556 244.902 128.556C247.149 128.556 248.971 126.734 248.971 124.487C248.971 122.239 247.149 120.417 244.902 120.417C242.654 120.417 240.832 122.239 240.832 124.487Z" fill="#43B6FA"/>
<path d="M200.693 124.487C200.693 126.734 202.515 128.556 204.763 128.556C207.01 128.556 208.832 126.734 208.832 124.487C208.832 122.239 207.01 120.417 204.763 120.417C202.515 120.417 200.693 122.239 200.693 124.487Z" fill="#43B6FA"/>
<path d="M160.554 124.487C160.554 126.734 162.376 128.556 164.624 128.556C166.871 128.556 168.693 126.734 168.693 124.487C168.693 122.239 166.871 120.417 164.624 120.417C162.376 120.417 160.554 122.239 160.554 124.487Z" fill="#43B6FA"/>
<path d="M120.415 124.487C120.415 126.734 122.237 128.556 124.485 128.556C126.732 128.556 128.554 126.734 128.554 124.487C128.554 122.239 126.732 120.417 124.485 120.417C122.237 120.417 120.415 122.239 120.415 124.487Z" fill="#43B6FA"/>
<path d="M80.2765 124.487C80.2765 126.734 82.0985 128.556 84.346 128.556C86.5935 128.556 88.4154 126.734 88.4154 124.487C88.4154 122.239 86.5935 120.417 84.346 120.417C82.0985 120.417 80.2765 122.239 80.2765 124.487Z" fill="#43B6FA"/>
<path d="M40.1376 124.487C40.1376 126.734 41.9596 128.556 44.207 128.556C46.4545 128.556 48.2765 126.734 48.2765 124.487C48.2765 122.239 46.4545 120.417 44.207 120.417C41.9596 120.417 40.1376 122.239 40.1376 124.487Z" fill="#43B6FA"/>
<path d="M-0.00131571 124.487C-0.00131552 126.735 1.82064 128.557 4.06813 128.557C6.31562 128.557 8.13757 126.735 8.13757 124.487C8.13757 122.24 6.31562 120.418 4.06813 120.418C1.82064 120.418 -0.00131591 122.24 -0.00131571 124.487Z" fill="#43B6FA"/>
<path d="M361.249 164.626C361.249 166.874 363.071 168.696 365.318 168.696C367.566 168.696 369.388 166.874 369.388 164.626C369.388 162.379 367.566 160.557 365.318 160.557C363.071 160.557 361.249 162.379 361.249 164.626Z" fill="#43B6FA"/>
<path d="M321.11 164.626C321.11 166.874 322.932 168.696 325.179 168.696C327.427 168.696 329.249 166.874 329.249 164.626C329.249 162.379 327.427 160.557 325.179 160.557C322.932 160.557 321.11 162.379 321.11 164.626Z" fill="#43B6FA"/>
<path d="M280.971 164.626C280.971 166.874 282.793 168.696 285.041 168.696C287.288 168.696 289.11 166.874 289.11 164.626C289.11 162.379 287.288 160.557 285.041 160.557C282.793 160.557 280.971 162.379 280.971 164.626Z" fill="#43B6FA"/>
<path d="M240.832 164.626C240.832 166.874 242.654 168.696 244.902 168.696C247.149 168.696 248.971 166.874 248.971 164.626C248.971 162.379 247.149 160.557 244.902 160.557C242.654 160.557 240.832 162.379 240.832 164.626Z" fill="#43B6FA"/>
<path d="M200.693 164.626C200.693 166.874 202.515 168.696 204.763 168.696C207.01 168.696 208.832 166.874 208.832 164.626C208.832 162.379 207.01 160.557 204.763 160.557C202.515 160.557 200.693 162.379 200.693 164.626Z" fill="#43B6FA"/>
<path d="M160.554 164.626C160.554 166.874 162.376 168.696 164.624 168.696C166.871 168.696 168.693 166.874 168.693 164.626C168.693 162.379 166.871 160.557 164.624 160.557C162.376 160.557 160.554 162.379 160.554 164.626Z" fill="#43B6FA"/>
<path d="M120.415 164.626C120.415 166.874 122.237 168.696 124.485 168.696C126.732 168.696 128.554 166.874 128.554 164.626C128.554 162.379 126.732 160.557 124.485 160.557C122.237 160.557 120.415 162.379 120.415 164.626Z" fill="#43B6FA"/>
<path d="M80.2765 164.626C80.2765 166.874 82.0985 168.696 84.346 168.696C86.5935 168.696 88.4154 166.874 88.4154 164.626C88.4154 162.379 86.5935 160.557 84.346 160.557C82.0985 160.557 80.2765 162.379 80.2765 164.626Z" fill="#43B6FA"/>
<path d="M40.1376 164.626C40.1376 166.874 41.9596 168.696 44.207 168.696C46.4545 168.696 48.2765 166.874 48.2765 164.626C48.2765 162.379 46.4545 160.557 44.207 160.557C41.9596 160.557 40.1376 162.379 40.1376 164.626Z" fill="#43B6FA"/>
<path d="M-0.00131571 164.627C-0.00131552 166.874 1.82064 168.696 4.06813 168.696C6.31562 168.696 8.13757 166.874 8.13757 164.627C8.13757 162.379 6.31562 160.557 4.06813 160.557C1.82064 160.557 -0.00131591 162.379 -0.00131571 164.627Z" fill="#43B6FA"/>
<path d="M361.249 204.765C361.249 207.013 363.071 208.835 365.318 208.835C367.566 208.835 369.388 207.013 369.388 204.765C369.388 202.518 367.566 200.696 365.318 200.696C363.071 200.696 361.249 202.518 361.249 204.765Z" fill="#43B6FA"/>
<path d="M321.11 204.765C321.11 207.013 322.932 208.835 325.179 208.835C327.427 208.835 329.249 207.013 329.249 204.765C329.249 202.518 327.427 200.696 325.179 200.696C322.932 200.696 321.11 202.518 321.11 204.765Z" fill="#43B6FA"/>
<path d="M280.971 204.765C280.971 207.013 282.793 208.835 285.041 208.835C287.288 208.835 289.11 207.013 289.11 204.765C289.11 202.518 287.288 200.696 285.041 200.696C282.793 200.696 280.971 202.518 280.971 204.765Z" fill="#43B6FA"/>
<path d="M240.832 204.765C240.832 207.013 242.654 208.835 244.902 208.835C247.149 208.835 248.971 207.013 248.971 204.765C248.971 202.518 247.149 200.696 244.902 200.696C242.654 200.696 240.832 202.518 240.832 204.765Z" fill="#43B6FA"/>
<path d="M200.693 204.765C200.693 207.013 202.515 208.835 204.763 208.835C207.01 208.835 208.832 207.013 208.832 204.765C208.832 202.518 207.01 200.696 204.763 200.696C202.515 200.696 200.693 202.518 200.693 204.765Z" fill="#43B6FA"/>
<path d="M160.554 204.765C160.554 207.013 162.376 208.835 164.624 208.835C166.871 208.835 168.693 207.013 168.693 204.765C168.693 202.518 166.871 200.696 164.624 200.696C162.376 200.696 160.554 202.518 160.554 204.765Z" fill="#43B6FA"/>
<path d="M120.415 204.765C120.415 207.013 122.237 208.835 124.485 208.835C126.732 208.835 128.554 207.013 128.554 204.765C128.554 202.518 126.732 200.696 124.485 200.696C122.237 200.696 120.415 202.518 120.415 204.765Z" fill="#43B6FA"/>
<path d="M80.2765 204.765C80.2765 207.013 82.0985 208.835 84.346 208.835C86.5935 208.835 88.4154 207.013 88.4154 204.765C88.4154 202.518 86.5935 200.696 84.346 200.696C82.0985 200.696 80.2765 202.518 80.2765 204.765Z" fill="#43B6FA"/>
<path d="M40.1376 204.765C40.1376 207.013 41.9596 208.835 44.207 208.835C46.4545 208.835 48.2765 207.013 48.2765 204.765C48.2765 202.518 46.4545 200.696 44.207 200.696C41.9596 200.696 40.1376 202.518 40.1376 204.765Z" fill="#43B6FA"/>
<path d="M-0.00131571 204.766C-0.00131552 207.013 1.82064 208.835 4.06813 208.835C6.31562 208.835 8.13757 207.013 8.13757 204.766C8.13757 202.518 6.31562 200.696 4.06813 200.696C1.82064 200.696 -0.00131591 202.518 -0.00131571 204.766Z" fill="#43B6FA"/>
<path d="M361.249 244.904C361.249 247.152 363.071 248.974 365.318 248.974C367.566 248.974 369.388 247.152 369.388 244.904C369.388 242.657 367.566 240.835 365.318 240.835C363.071 240.835 361.249 242.657 361.249 244.904Z" fill="#43B6FA"/>
<path d="M321.11 244.904C321.11 247.152 322.932 248.974 325.179 248.974C327.427 248.974 329.249 247.152 329.249 244.904C329.249 242.657 327.427 240.835 325.179 240.835C322.932 240.835 321.11 242.657 321.11 244.904Z" fill="#43B6FA"/>
<path d="M280.971 244.904C280.971 247.152 282.793 248.974 285.041 248.974C287.288 248.974 289.11 247.152 289.11 244.904C289.11 242.657 287.288 240.835 285.041 240.835C282.793 240.835 280.971 242.657 280.971 244.904Z" fill="#43B6FA"/>
<path d="M240.832 244.904C240.832 247.152 242.654 248.974 244.902 248.974C247.149 248.974 248.971 247.152 248.971 244.904C248.971 242.657 247.149 240.835 244.902 240.835C242.654 240.835 240.832 242.657 240.832 244.904Z" fill="#43B6FA"/>
<path d="M200.693 244.904C200.693 247.152 202.515 248.974 204.763 248.974C207.01 248.974 208.832 247.152 208.832 244.904C208.832 242.657 207.01 240.835 204.763 240.835C202.515 240.835 200.693 242.657 200.693 244.904Z" fill="#43B6FA"/>
<path d="M160.554 244.904C160.554 247.152 162.376 248.974 164.624 248.974C166.871 248.974 168.693 247.152 168.693 244.904C168.693 242.657 166.871 240.835 164.624 240.835C162.376 240.835 160.554 242.657 160.554 244.904Z" fill="#43B6FA"/>
<path d="M120.415 244.904C120.415 247.152 122.237 248.974 124.485 248.974C126.732 248.974 128.554 247.152 128.554 244.904C128.554 242.657 126.732 240.835 124.485 240.835C122.237 240.835 120.415 242.657 120.415 244.904Z" fill="#43B6FA"/>
<path d="M80.2765 244.904C80.2765 247.152 82.0985 248.974 84.346 248.974C86.5935 248.974 88.4154 247.152 88.4154 244.904C88.4154 242.657 86.5935 240.835 84.346 240.835C82.0985 240.835 80.2765 242.657 80.2765 244.904Z" fill="#43B6FA"/>
<path d="M40.1376 244.904C40.1376 247.152 41.9596 248.974 44.207 248.974C46.4545 248.974 48.2765 247.152 48.2765 244.904C48.2765 242.657 46.4545 240.835 44.207 240.835C41.9596 240.835 40.1376 242.657 40.1376 244.904Z" fill="#43B6FA"/>
<path d="M-0.00131571 244.905C-0.00131552 247.152 1.82064 248.974 4.06813 248.974C6.31562 248.974 8.13757 247.152 8.13757 244.905C8.13757 242.657 6.31562 240.835 4.06813 240.835C1.82064 240.835 -0.00131591 242.657 -0.00131571 244.905Z" fill="#43B6FA"/>
<path d="M361.249 285.044C361.249 287.291 363.071 289.113 365.318 289.113C367.566 289.113 369.388 287.291 369.388 285.044C369.388 282.796 367.566 280.974 365.318 280.974C363.071 280.974 361.249 282.796 361.249 285.044Z" fill="#43B6FA"/>
<path d="M321.11 285.044C321.11 287.291 322.932 289.113 325.179 289.113C327.427 289.113 329.249 287.291 329.249 285.044C329.249 282.796 327.427 280.974 325.179 280.974C322.932 280.974 321.11 282.796 321.11 285.044Z" fill="#43B6FA"/>
<path d="M280.971 285.044C280.971 287.291 282.793 289.113 285.041 289.113C287.288 289.113 289.11 287.291 289.11 285.044C289.11 282.796 287.288 280.974 285.041 280.974C282.793 280.974 280.971 282.796 280.971 285.044Z" fill="#43B6FA"/>
<path d="M240.832 285.044C240.832 287.291 242.654 289.113 244.902 289.113C247.149 289.113 248.971 287.291 248.971 285.044C248.971 282.796 247.149 280.974 244.902 280.974C242.654 280.974 240.832 282.796 240.832 285.044Z" fill="#43B6FA"/>
<path d="M200.693 285.044C200.693 287.291 202.515 289.113 204.763 289.113C207.01 289.113 208.832 287.291 208.832 285.044C208.832 282.796 207.01 280.974 204.763 280.974C202.515 280.974 200.693 282.796 200.693 285.044Z" fill="#43B6FA"/>
<path d="M160.554 285.044C160.554 287.291 162.376 289.113 164.624 289.113C166.871 289.113 168.693 287.291 168.693 285.044C168.693 282.796 166.871 280.974 164.624 280.974C162.376 280.974 160.554 282.796 160.554 285.044Z" fill="#43B6FA"/>
<path d="M120.415 285.044C120.415 287.291 122.237 289.113 124.485 289.113C126.732 289.113 128.554 287.291 128.554 285.044C128.554 282.796 126.732 280.974 124.485 280.974C122.237 280.974 120.415 282.796 120.415 285.044Z" fill="#43B6FA"/>
<path d="M80.2765 285.044C80.2765 287.291 82.0985 289.113 84.346 289.113C86.5935 289.113 88.4154 287.291 88.4154 285.044C88.4154 282.796 86.5935 280.974 84.346 280.974C82.0985 280.974 80.2765 282.796 80.2765 285.044Z" fill="#43B6FA"/>
<path d="M40.1376 285.044C40.1376 287.291 41.9596 289.113 44.207 289.113C46.4545 289.113 48.2765 287.291 48.2765 285.044C48.2765 282.796 46.4545 280.974 44.207 280.974C41.9596 280.974 40.1376 282.796 40.1376 285.044Z" fill="#43B6FA"/>
<path d="M-0.00131571 285.044C-0.00131552 287.292 1.82064 289.113 4.06813 289.113C6.31562 289.113 8.13757 287.292 8.13757 285.044C8.13757 282.797 6.31562 280.975 4.06813 280.975C1.82064 280.975 -0.00131591 282.797 -0.00131571 285.044Z" fill="#43B6FA"/>
<path d="M361.249 325.183C361.249 327.43 363.071 329.252 365.318 329.252C367.566 329.252 369.388 327.43 369.388 325.183C369.388 322.935 367.566 321.113 365.318 321.113C363.071 321.113 361.249 322.935 361.249 325.183Z" fill="#43B6FA"/>
<path d="M321.11 325.183C321.11 327.43 322.932 329.252 325.179 329.252C327.427 329.252 329.249 327.43 329.249 325.183C329.249 322.935 327.427 321.113 325.179 321.113C322.932 321.113 321.11 322.935 321.11 325.183Z" fill="#43B6FA"/>
<path d="M280.971 325.183C280.971 327.43 282.793 329.252 285.041 329.252C287.288 329.252 289.11 327.43 289.11 325.183C289.11 322.935 287.288 321.113 285.041 321.113C282.793 321.113 280.971 322.935 280.971 325.183Z" fill="#43B6FA"/>
<path d="M240.832 325.183C240.832 327.43 242.654 329.252 244.902 329.252C247.149 329.252 248.971 327.43 248.971 325.183C248.971 322.935 247.149 321.113 244.902 321.113C242.654 321.113 240.832 322.935 240.832 325.183Z" fill="#43B6FA"/>
<path d="M200.693 325.183C200.693 327.43 202.515 329.252 204.763 329.252C207.01 329.252 208.832 327.43 208.832 325.183C208.832 322.935 207.01 321.113 204.763 321.113C202.515 321.113 200.693 322.935 200.693 325.183Z" fill="#43B6FA"/>
<path d="M160.554 325.183C160.554 327.43 162.376 329.252 164.624 329.252C166.871 329.252 168.693 327.43 168.693 325.183C168.693 322.935 166.871 321.113 164.624 321.113C162.376 321.113 160.554 322.935 160.554 325.183Z" fill="#43B6FA"/>
<path d="M120.415 325.183C120.415 327.43 122.237 329.252 124.485 329.252C126.732 329.252 128.554 327.43 128.554 325.183C128.554 322.935 126.732 321.113 124.485 321.113C122.237 321.113 120.415 322.935 120.415 325.183Z" fill="#43B6FA"/>
<path d="M80.2765 325.183C80.2765 327.43 82.0985 329.252 84.346 329.252C86.5935 329.252 88.4154 327.43 88.4154 325.183C88.4154 322.935 86.5935 321.113 84.346 321.113C82.0985 321.113 80.2765 322.935 80.2765 325.183Z" fill="#43B6FA"/>
<path d="M40.1376 325.183C40.1376 327.43 41.9596 329.252 44.207 329.252C46.4545 329.252 48.2765 327.43 48.2765 325.183C48.2765 322.935 46.4545 321.113 44.207 321.113C41.9596 321.113 40.1376 322.935 40.1376 325.183Z" fill="#43B6FA"/>
<path d="M-0.00131571 325.183C-0.00131552 327.43 1.82064 329.252 4.06813 329.252C6.31562 329.252 8.13757 327.43 8.13757 325.183C8.13757 322.935 6.31562 321.113 4.06813 321.113C1.82064 321.113 -0.00131591 322.935 -0.00131571 325.183Z" fill="#43B6FA"/>
<path d="M361.249 365.322C361.249 367.569 363.071 369.391 365.318 369.391C367.566 369.391 369.388 367.569 369.388 365.322C369.388 363.074 367.566 361.252 365.318 361.252C363.071 361.252 361.249 363.074 361.249 365.322Z" fill="#43B6FA"/>
<path d="M321.11 365.322C321.11 367.569 322.932 369.391 325.179 369.391C327.427 369.391 329.249 367.569 329.249 365.322C329.249 363.074 327.427 361.252 325.179 361.252C322.932 361.252 321.11 363.074 321.11 365.322Z" fill="#43B6FA"/>
<path d="M280.971 365.322C280.971 367.569 282.793 369.391 285.041 369.391C287.288 369.391 289.11 367.569 289.11 365.322C289.11 363.074 287.288 361.252 285.041 361.252C282.793 361.252 280.971 363.074 280.971 365.322Z" fill="#43B6FA"/>
<path d="M240.832 365.322C240.832 367.569 242.654 369.391 244.902 369.391C247.149 369.391 248.971 367.569 248.971 365.322C248.971 363.074 247.149 361.252 244.902 361.252C242.654 361.252 240.832 363.074 240.832 365.322Z" fill="#43B6FA"/>
<path d="M200.693 365.322C200.693 367.569 202.515 369.391 204.763 369.391C207.01 369.391 208.832 367.569 208.832 365.322C208.832 363.074 207.01 361.252 204.763 361.252C202.515 361.252 200.693 363.074 200.693 365.322Z" fill="#43B6FA"/>
<path d="M160.554 365.322C160.554 367.569 162.376 369.391 164.624 369.391C166.871 369.391 168.693 367.569 168.693 365.322C168.693 363.074 166.871 361.252 164.624 361.252C162.376 361.252 160.554 363.074 160.554 365.322Z" fill="#43B6FA"/>
<path d="M120.415 365.322C120.415 367.569 122.237 369.391 124.485 369.391C126.732 369.391 128.554 367.569 128.554 365.322C128.554 363.074 126.732 361.252 124.485 361.252C122.237 361.252 120.415 363.074 120.415 365.322Z" fill="#43B6FA"/>
<path d="M80.2765 365.322C80.2765 367.569 82.0985 369.391 84.346 369.391C86.5935 369.391 88.4154 367.569 88.4154 365.322C88.4154 363.074 86.5935 361.252 84.346 361.252C82.0985 361.252 80.2765 363.074 80.2765 365.322Z" fill="#43B6FA"/>
<path d="M40.1376 365.322C40.1376 367.569 41.9596 369.391 44.207 369.391C46.4545 369.391 48.2765 367.569 48.2765 365.322C48.2765 363.074 46.4545 361.252 44.207 361.252C41.9596 361.252 40.1376 363.074 40.1376 365.322Z" fill="#43B6FA"/>
<path d="M-0.00131571 365.322C-0.00131552 367.569 1.82064 369.391 4.06813 369.391C6.31562 369.391 8.13757 367.569 8.13757 365.322C8.13757 363.074 6.31562 361.252 4.06813 361.252C1.82064 361.252 -0.00131591 363.074 -0.00131571 365.322Z" fill="#43B6FA"/>
<path d="M361.249 405.461C361.249 407.709 363.071 409.53 365.318 409.53C367.566 409.53 369.388 407.709 369.388 405.461C369.388 403.214 367.566 401.392 365.318 401.392C363.071 401.392 361.249 403.214 361.249 405.461Z" fill="#43B6FA"/>
<path d="M321.11 405.461C321.11 407.709 322.932 409.53 325.179 409.53C327.427 409.53 329.249 407.709 329.249 405.461C329.249 403.214 327.427 401.392 325.179 401.392C322.932 401.392 321.11 403.214 321.11 405.461Z" fill="#43B6FA"/>
<path d="M280.971 405.461C280.971 407.709 282.793 409.53 285.041 409.53C287.288 409.53 289.11 407.709 289.11 405.461C289.11 403.214 287.288 401.392 285.041 401.392C282.793 401.392 280.971 403.214 280.971 405.461Z" fill="#43B6FA"/>
<path d="M240.832 405.461C240.832 407.709 242.654 409.53 244.902 409.53C247.149 409.53 248.971 407.709 248.971 405.461C248.971 403.214 247.149 401.392 244.902 401.392C242.654 401.392 240.832 403.214 240.832 405.461Z" fill="#43B6FA"/>
<path d="M200.693 405.461C200.693 407.709 202.515 409.53 204.763 409.53C207.01 409.53 208.832 407.709 208.832 405.461C208.832 403.214 207.01 401.392 204.763 401.392C202.515 401.392 200.693 403.214 200.693 405.461Z" fill="#43B6FA"/>
<path d="M160.554 405.461C160.554 407.709 162.376 409.53 164.624 409.53C166.871 409.53 168.693 407.709 168.693 405.461C168.693 403.214 166.871 401.392 164.624 401.392C162.376 401.392 160.554 403.214 160.554 405.461Z" fill="#43B6FA"/>
<path d="M120.415 405.461C120.415 407.709 122.237 409.53 124.485 409.53C126.732 409.53 128.554 407.709 128.554 405.461C128.554 403.214 126.732 401.392 124.485 401.392C122.237 401.392 120.415 403.214 120.415 405.461Z" fill="#43B6FA"/>
<path d="M80.2765 405.461C80.2765 407.709 82.0985 409.53 84.346 409.53C86.5935 409.53 88.4154 407.709 88.4154 405.461C88.4154 403.214 86.5935 401.392 84.346 401.392C82.0985 401.392 80.2765 403.214 80.2765 405.461Z" fill="#43B6FA"/>
<path d="M40.1376 405.461C40.1376 407.709 41.9596 409.53 44.207 409.53C46.4545 409.53 48.2765 407.709 48.2765 405.461C48.2765 403.214 46.4545 401.392 44.207 401.392C41.9596 401.392 40.1376 403.214 40.1376 405.461Z" fill="#43B6FA"/>
<path d="M-0.00131571 405.461C-0.00131552 407.709 1.82064 409.53 4.06813 409.53C6.31562 409.53 8.13757 407.709 8.13757 405.461C8.13757 403.214 6.31562 401.392 4.06813 401.392C1.82064 401.392 -0.00131591 403.214 -0.00131571 405.461Z" fill="#43B6FA"/>
<path d="M361.249 445.6C361.249 447.848 363.071 449.67 365.318 449.67C367.566 449.67 369.388 447.848 369.388 445.6C369.388 443.353 367.566 441.531 365.318 441.531C363.071 441.531 361.249 443.353 361.249 445.6Z" fill="#43B6FA"/>
<path d="M321.11 445.6C321.11 447.848 322.932 449.67 325.179 449.67C327.427 449.67 329.249 447.848 329.249 445.6C329.249 443.353 327.427 441.531 325.179 441.531C322.932 441.531 321.11 443.353 321.11 445.6Z" fill="#43B6FA"/>
<path d="M280.971 445.6C280.971 447.848 282.793 449.67 285.041 449.67C287.288 449.67 289.11 447.848 289.11 445.6C289.11 443.353 287.288 441.531 285.041 441.531C282.793 441.531 280.971 443.353 280.971 445.6Z" fill="#43B6FA"/>
<path d="M240.832 445.6C240.832 447.848 242.654 449.67 244.902 449.67C247.149 449.67 248.971 447.848 248.971 445.6C248.971 443.353 247.149 441.531 244.902 441.531C242.654 441.531 240.832 443.353 240.832 445.6Z" fill="#43B6FA"/>
<path d="M200.693 445.6C200.693 447.848 202.515 449.67 204.763 449.67C207.01 449.67 208.832 447.848 208.832 445.6C208.832 443.353 207.01 441.531 204.763 441.531C202.515 441.531 200.693 443.353 200.693 445.6Z" fill="#43B6FA"/>
<path d="M160.554 445.6C160.554 447.848 162.376 449.67 164.624 449.67C166.871 449.67 168.693 447.848 168.693 445.6C168.693 443.353 166.871 441.531 164.624 441.531C162.376 441.531 160.554 443.353 160.554 445.6Z" fill="#43B6FA"/>
<path d="M120.415 445.6C120.415 447.848 122.237 449.67 124.485 449.67C126.732 449.67 128.554 447.848 128.554 445.6C128.554 443.353 126.732 441.531 124.485 441.531C122.237 441.531 120.415 443.353 120.415 445.6Z" fill="#43B6FA"/>
<path d="M80.2765 445.6C80.2765 447.848 82.0985 449.67 84.346 449.67C86.5935 449.67 88.4154 447.848 88.4154 445.6C88.4154 443.353 86.5935 441.531 84.346 441.531C82.0985 441.531 80.2765 443.353 80.2765 445.6Z" fill="#43B6FA"/>
<path d="M40.1376 445.6C40.1376 447.848 41.9596 449.67 44.207 449.67C46.4545 449.67 48.2765 447.848 48.2765 445.6C48.2765 443.353 46.4545 441.531 44.207 441.531C41.9596 441.531 40.1376 443.353 40.1376 445.6Z" fill="#43B6FA"/>
<path d="M-0.00131571 445.6C-0.00131552 447.848 1.82064 449.67 4.06813 449.67C6.31562 449.67 8.13757 447.848 8.13757 445.6C8.13757 443.353 6.31562 441.531 4.06813 441.531C1.82064 441.531 -0.00131591 443.353 -0.00131571 445.6Z" fill="#43B6FA"/>
<path d="M361.249 485.739C361.249 487.987 363.071 489.809 365.318 489.809C367.566 489.809 369.388 487.987 369.388 485.739C369.388 483.492 367.566 481.67 365.318 481.67C363.071 481.67 361.249 483.492 361.249 485.739Z" fill="#43B6FA"/>
<path d="M321.11 485.739C321.11 487.987 322.932 489.809 325.179 489.809C327.427 489.809 329.249 487.987 329.249 485.739C329.249 483.492 327.427 481.67 325.179 481.67C322.932 481.67 321.11 483.492 321.11 485.739Z" fill="#43B6FA"/>
<path d="M280.971 485.739C280.971 487.987 282.793 489.809 285.041 489.809C287.288 489.809 289.11 487.987 289.11 485.739C289.11 483.492 287.288 481.67 285.041 481.67C282.793 481.67 280.971 483.492 280.971 485.739Z" fill="#43B6FA"/>
<path d="M240.832 485.739C240.832 487.987 242.654 489.809 244.902 489.809C247.149 489.809 248.971 487.987 248.971 485.739C248.971 483.492 247.149 481.67 244.902 481.67C242.654 481.67 240.832 483.492 240.832 485.739Z" fill="#43B6FA"/>
<path d="M200.693 485.739C200.693 487.987 202.515 489.809 204.763 489.809C207.01 489.809 208.832 487.987 208.832 485.739C208.832 483.492 207.01 481.67 204.763 481.67C202.515 481.67 200.693 483.492 200.693 485.739Z" fill="#43B6FA"/>
<path d="M160.554 485.739C160.554 487.987 162.376 489.809 164.624 489.809C166.871 489.809 168.693 487.987 168.693 485.739C168.693 483.492 166.871 481.67 164.624 481.67C162.376 481.67 160.554 483.492 160.554 485.739Z" fill="#43B6FA"/>
<path d="M120.415 485.739C120.415 487.987 122.237 489.809 124.485 489.809C126.732 489.809 128.554 487.987 128.554 485.739C128.554 483.492 126.732 481.67 124.485 481.67C122.237 481.67 120.415 483.492 120.415 485.739Z" fill="#43B6FA"/>
<path d="M80.2765 485.739C80.2765 487.987 82.0985 489.809 84.346 489.809C86.5935 489.809 88.4154 487.987 88.4154 485.739C88.4154 483.492 86.5935 481.67 84.346 481.67C82.0985 481.67 80.2765 483.492 80.2765 485.739Z" fill="#43B6FA"/>
<path d="M40.1376 485.739C40.1376 487.987 41.9596 489.809 44.207 489.809C46.4545 489.809 48.2765 487.987 48.2765 485.739C48.2765 483.492 46.4545 481.67 44.207 481.67C41.9596 481.67 40.1376 483.492 40.1376 485.739Z" fill="#43B6FA"/>
<path d="M-0.00131571 485.739C-0.00131552 487.987 1.82064 489.809 4.06813 489.809C6.31562 489.809 8.13757 487.987 8.13757 485.739C8.13757 483.492 6.31562 481.67 4.06813 481.67C1.82064 481.67 -0.00131591 483.492 -0.00131571 485.739Z" fill="#43B6FA"/>
<path d="M361.249 525.878C361.249 528.126 363.071 529.948 365.318 529.948C367.566 529.948 369.388 528.126 369.388 525.878C369.388 523.631 367.566 521.809 365.318 521.809C363.071 521.809 361.249 523.631 361.249 525.878Z" fill="#43B6FA"/>
<path d="M321.11 525.878C321.11 528.126 322.932 529.948 325.179 529.948C327.427 529.948 329.249 528.126 329.249 525.878C329.249 523.631 327.427 521.809 325.179 521.809C322.932 521.809 321.11 523.631 321.11 525.878Z" fill="#43B6FA"/>
<path d="M280.971 525.878C280.971 528.126 282.793 529.948 285.041 529.948C287.288 529.948 289.11 528.126 289.11 525.878C289.11 523.631 287.288 521.809 285.041 521.809C282.793 521.809 280.971 523.631 280.971 525.878Z" fill="#43B6FA"/>
<path d="M240.832 525.878C240.832 528.126 242.654 529.948 244.902 529.948C247.149 529.948 248.971 528.126 248.971 525.878C248.971 523.631 247.149 521.809 244.902 521.809C242.654 521.809 240.832 523.631 240.832 525.878Z" fill="#43B6FA"/>
<path d="M200.693 525.878C200.693 528.126 202.515 529.948 204.763 529.948C207.01 529.948 208.832 528.126 208.832 525.878C208.832 523.631 207.01 521.809 204.763 521.809C202.515 521.809 200.693 523.631 200.693 525.878Z" fill="#43B6FA"/>
<path d="M160.554 525.878C160.554 528.126 162.376 529.948 164.624 529.948C166.871 529.948 168.693 528.126 168.693 525.878C168.693 523.631 166.871 521.809 164.624 521.809C162.376 521.809 160.554 523.631 160.554 525.878Z" fill="#43B6FA"/>
<path d="M120.415 525.878C120.415 528.126 122.237 529.948 124.485 529.948C126.732 529.948 128.554 528.126 128.554 525.878C128.554 523.631 126.732 521.809 124.485 521.809C122.237 521.809 120.415 523.631 120.415 525.878Z" fill="#43B6FA"/>
<path d="M80.2765 525.878C80.2765 528.126 82.0985 529.948 84.346 529.948C86.5935 529.948 88.4154 528.126 88.4154 525.878C88.4154 523.631 86.5935 521.809 84.346 521.809C82.0985 521.809 80.2765 523.631 80.2765 525.878Z" fill="#43B6FA"/>
<path d="M40.1376 525.878C40.1376 528.126 41.9596 529.948 44.207 529.948C46.4545 529.948 48.2765 528.126 48.2765 525.878C48.2765 523.631 46.4545 521.809 44.207 521.809C41.9596 521.809 40.1376 523.631 40.1376 525.878Z" fill="#43B6FA"/>
<path d="M-0.00131571 525.878C-0.00131552 528.126 1.82064 529.948 4.06813 529.948C6.31562 529.948 8.13757 528.126 8.13757 525.878C8.13757 523.631 6.31562 521.809 4.06813 521.809C1.82064 521.809 -0.00131591 523.631 -0.00131571 525.878Z" fill="#43B6FA"/>
<path d="M361.249 566.017C361.249 568.265 363.071 570.087 365.318 570.087C367.566 570.087 369.388 568.265 369.388 566.017C369.388 563.77 367.566 561.948 365.318 561.948C363.071 561.948 361.249 563.77 361.249 566.017Z" fill="#43B6FA"/>
<path d="M321.11 566.017C321.11 568.265 322.932 570.087 325.179 570.087C327.427 570.087 329.249 568.265 329.249 566.017C329.249 563.77 327.427 561.948 325.179 561.948C322.932 561.948 321.11 563.77 321.11 566.017Z" fill="#43B6FA"/>
<path d="M280.971 566.017C280.971 568.265 282.793 570.087 285.041 570.087C287.288 570.087 289.11 568.265 289.11 566.017C289.11 563.77 287.288 561.948 285.041 561.948C282.793 561.948 280.971 563.77 280.971 566.017Z" fill="#43B6FA"/>
<path d="M240.832 566.017C240.832 568.265 242.654 570.087 244.902 570.087C247.149 570.087 248.971 568.265 248.971 566.017C248.971 563.77 247.149 561.948 244.902 561.948C242.654 561.948 240.832 563.77 240.832 566.017Z" fill="#43B6FA"/>
<path d="M200.693 566.017C200.693 568.265 202.515 570.087 204.763 570.087C207.01 570.087 208.832 568.265 208.832 566.017C208.832 563.77 207.01 561.948 204.763 561.948C202.515 561.948 200.693 563.77 200.693 566.017Z" fill="#43B6FA"/>
<path d="M160.554 566.017C160.554 568.265 162.376 570.087 164.624 570.087C166.871 570.087 168.693 568.265 168.693 566.017C168.693 563.77 166.871 561.948 164.624 561.948C162.376 561.948 160.554 563.77 160.554 566.017Z" fill="#43B6FA"/>
<path d="M120.415 566.017C120.415 568.265 122.237 570.087 124.485 570.087C126.732 570.087 128.554 568.265 128.554 566.017C128.554 563.77 126.732 561.948 124.485 561.948C122.237 561.948 120.415 563.77 120.415 566.017Z" fill="#43B6FA"/>
<path d="M80.2765 566.017C80.2765 568.265 82.0985 570.087 84.346 570.087C86.5935 570.087 88.4154 568.265 88.4154 566.017C88.4154 563.77 86.5935 561.948 84.346 561.948C82.0985 561.948 80.2765 563.77 80.2765 566.017Z" fill="#43B6FA"/>
<path d="M40.1376 566.017C40.1376 568.265 41.9596 570.087 44.207 570.087C46.4545 570.087 48.2765 568.265 48.2765 566.017C48.2765 563.77 46.4545 561.948 44.207 561.948C41.9596 561.948 40.1376 563.77 40.1376 566.017Z" fill="#43B6FA"/>
<path d="M-0.00131571 566.017C-0.00131552 568.265 1.82064 570.087 4.06813 570.087C6.31562 570.087 8.13757 568.265 8.13757 566.017C8.13757 563.77 6.31562 561.948 4.06813 561.948C1.82064 561.948 -0.00131591 563.77 -0.00131571 566.017Z" fill="#43B6FA"/>
<path d="M361.249 606.157C361.249 608.404 363.071 610.226 365.318 610.226C367.566 610.226 369.388 608.404 369.388 606.157C369.388 603.909 367.566 602.087 365.318 602.087C363.071 602.087 361.249 603.909 361.249 606.157Z" fill="#43B6FA"/>
<path d="M321.11 606.157C321.11 608.404 322.932 610.226 325.179 610.226C327.427 610.226 329.249 608.404 329.249 606.157C329.249 603.909 327.427 602.087 325.179 602.087C322.932 602.087 321.11 603.909 321.11 606.157Z" fill="#43B6FA"/>
<path d="M280.971 606.157C280.971 608.404 282.793 610.226 285.041 610.226C287.288 610.226 289.11 608.404 289.11 606.157C289.11 603.909 287.288 602.087 285.041 602.087C282.793 602.087 280.971 603.909 280.971 606.157Z" fill="#43B6FA"/>
<path d="M240.832 606.157C240.832 608.404 242.654 610.226 244.902 610.226C247.149 610.226 248.971 608.404 248.971 606.157C248.971 603.909 247.149 602.087 244.902 602.087C242.654 602.087 240.832 603.909 240.832 606.157Z" fill="#43B6FA"/>
<path d="M200.693 606.157C200.693 608.404 202.515 610.226 204.763 610.226C207.01 610.226 208.832 608.404 208.832 606.157C208.832 603.909 207.01 602.087 204.763 602.087C202.515 602.087 200.693 603.909 200.693 606.157Z" fill="#43B6FA"/>
<path d="M160.554 606.157C160.554 608.404 162.376 610.226 164.624 610.226C166.871 610.226 168.693 608.404 168.693 606.157C168.693 603.909 166.871 602.087 164.624 602.087C162.376 602.087 160.554 603.909 160.554 606.157Z" fill="#43B6FA"/>
<path d="M120.415 606.157C120.415 608.404 122.237 610.226 124.485 610.226C126.732 610.226 128.554 608.404 128.554 606.157C128.554 603.909 126.732 602.087 124.485 602.087C122.237 602.087 120.415 603.909 120.415 606.157Z" fill="#43B6FA"/>
<path d="M80.2765 606.157C80.2765 608.404 82.0985 610.226 84.346 610.226C86.5935 610.226 88.4154 608.404 88.4154 606.157C88.4154 603.909 86.5935 602.087 84.346 602.087C82.0985 602.087 80.2765 603.909 80.2765 606.157Z" fill="#43B6FA"/>
<path d="M40.1376 606.157C40.1376 608.404 41.9596 610.226 44.207 610.226C46.4545 610.226 48.2765 608.404 48.2765 606.157C48.2765 603.909 46.4545 602.087 44.207 602.087C41.9596 602.087 40.1376 603.909 40.1376 606.157Z" fill="#43B6FA"/>
<path d="M-0.00131571 606.157C-0.00131552 608.404 1.82064 610.226 4.06813 610.226C6.31562 610.226 8.13757 608.404 8.13757 606.157C8.13757 603.909 6.31562 602.087 4.06813 602.087C1.82064 602.087 -0.00131591 603.909 -0.00131571 606.157Z" fill="#43B6FA"/>
<path d="M361.249 646.296C361.249 648.543 363.071 650.365 365.318 650.365C367.566 650.365 369.388 648.543 369.388 646.296C369.388 644.048 367.566 642.226 365.318 642.226C363.071 642.226 361.249 644.048 361.249 646.296Z" fill="#43B6FA"/>
<path d="M321.11 646.296C321.11 648.543 322.932 650.365 325.179 650.365C327.427 650.365 329.249 648.543 329.249 646.296C329.249 644.048 327.427 642.226 325.179 642.226C322.932 642.226 321.11 644.048 321.11 646.296Z" fill="#43B6FA"/>
<path d="M280.971 646.296C280.971 648.543 282.793 650.365 285.041 650.365C287.288 650.365 289.11 648.543 289.11 646.296C289.11 644.048 287.288 642.226 285.041 642.226C282.793 642.226 280.971 644.048 280.971 646.296Z" fill="#43B6FA"/>
<path d="M240.832 646.296C240.832 648.543 242.654 650.365 244.902 650.365C247.149 650.365 248.971 648.543 248.971 646.296C248.971 644.048 247.149 642.226 244.902 642.226C242.654 642.226 240.832 644.048 240.832 646.296Z" fill="#43B6FA"/>
<path d="M200.693 646.296C200.693 648.543 202.515 650.365 204.763 650.365C207.01 650.365 208.832 648.543 208.832 646.296C208.832 644.048 207.01 642.226 204.763 642.226C202.515 642.226 200.693 644.048 200.693 646.296Z" fill="#43B6FA"/>
<path d="M160.554 646.296C160.554 648.543 162.376 650.365 164.624 650.365C166.871 650.365 168.693 648.543 168.693 646.296C168.693 644.048 166.871 642.226 164.624 642.226C162.376 642.226 160.554 644.048 160.554 646.296Z" fill="#43B6FA"/>
<path d="M120.415 646.296C120.415 648.543 122.237 650.365 124.485 650.365C126.732 650.365 128.554 648.543 128.554 646.296C128.554 644.048 126.732 642.226 124.485 642.226C122.237 642.226 120.415 644.048 120.415 646.296Z" fill="#43B6FA"/>
<path d="M80.2765 646.296C80.2765 648.543 82.0985 650.365 84.346 650.365C86.5935 650.365 88.4154 648.543 88.4154 646.296C88.4154 644.048 86.5935 642.226 84.346 642.226C82.0985 642.226 80.2765 644.048 80.2765 646.296Z" fill="#43B6FA"/>
<path d="M40.1376 646.296C40.1376 648.543 41.9596 650.365 44.207 650.365C46.4545 650.365 48.2765 648.543 48.2765 646.296C48.2765 644.048 46.4545 642.226 44.207 642.226C41.9596 642.226 40.1376 644.048 40.1376 646.296Z" fill="#43B6FA"/>
<path d="M-0.00131571 646.296C-0.00131552 648.543 1.82064 650.365 4.06813 650.365C6.31562 650.365 8.13757 648.543 8.13757 646.296C8.13757 644.048 6.31562 642.226 4.06813 642.226C1.82064 642.226 -0.00131591 644.048 -0.00131571 646.296Z" fill="#43B6FA"/>
<path d="M361.249 686.435C361.249 688.682 363.071 690.504 365.318 690.504C367.566 690.504 369.388 688.682 369.388 686.435C369.388 684.187 367.566 682.365 365.318 682.365C363.071 682.365 361.249 684.187 361.249 686.435Z" fill="#43B6FA"/>
<path d="M321.11 686.435C321.11 688.682 322.932 690.504 325.179 690.504C327.427 690.504 329.249 688.682 329.249 686.435C329.249 684.187 327.427 682.365 325.179 682.365C322.932 682.365 321.11 684.187 321.11 686.435Z" fill="#43B6FA"/>
<path d="M280.971 686.435C280.971 688.682 282.793 690.504 285.041 690.504C287.288 690.504 289.11 688.682 289.11 686.435C289.11 684.187 287.288 682.365 285.041 682.365C282.793 682.365 280.971 684.187 280.971 686.435Z" fill="#43B6FA"/>
<path d="M240.832 686.435C240.832 688.682 242.654 690.504 244.902 690.504C247.149 690.504 248.971 688.682 248.971 686.435C248.971 684.187 247.149 682.365 244.902 682.365C242.654 682.365 240.832 684.187 240.832 686.435Z" fill="#43B6FA"/>
<path d="M200.693 686.435C200.693 688.682 202.515 690.504 204.763 690.504C207.01 690.504 208.832 688.682 208.832 686.435C208.832 684.187 207.01 682.365 204.763 682.365C202.515 682.365 200.693 684.187 200.693 686.435Z" fill="#43B6FA"/>
<path d="M160.554 686.435C160.554 688.682 162.376 690.504 164.624 690.504C166.871 690.504 168.693 688.682 168.693 686.435C168.693 684.187 166.871 682.365 164.624 682.365C162.376 682.365 160.554 684.187 160.554 686.435Z" fill="#43B6FA"/>
<path d="M120.415 686.435C120.415 688.682 122.237 690.504 124.485 690.504C126.732 690.504 128.554 688.682 128.554 686.435C128.554 684.187 126.732 682.365 124.485 682.365C122.237 682.365 120.415 684.187 120.415 686.435Z" fill="#43B6FA"/>
<path d="M80.2765 686.435C80.2765 688.682 82.0985 690.504 84.346 690.504C86.5935 690.504 88.4154 688.682 88.4154 686.435C88.4154 684.187 86.5935 682.365 84.346 682.365C82.0985 682.365 80.2765 684.187 80.2765 686.435Z" fill="#43B6FA"/>
<path d="M40.1376 686.435C40.1376 688.682 41.9596 690.504 44.207 690.504C46.4545 690.504 48.2765 688.682 48.2765 686.435C48.2765 684.187 46.4545 682.365 44.207 682.365C41.9596 682.365 40.1376 684.187 40.1376 686.435Z" fill="#43B6FA"/>
<path d="M-0.00131571 686.435C-0.00131552 688.682 1.82064 690.504 4.06813 690.504C6.31562 690.504 8.13757 688.682 8.13757 686.435C8.13757 684.187 6.31562 682.365 4.06813 682.365C1.82064 682.365 -0.00131591 684.187 -0.00131571 686.435Z" fill="#43B6FA"/>
<path d="M361.249 726.574C361.249 728.822 363.071 730.644 365.318 730.644C367.566 730.644 369.388 728.822 369.388 726.574C369.388 724.327 367.566 722.505 365.318 722.505C363.071 722.505 361.249 724.327 361.249 726.574Z" fill="#43B6FA"/>
<path d="M321.11 726.574C321.11 728.822 322.932 730.644 325.179 730.644C327.427 730.644 329.249 728.822 329.249 726.574C329.249 724.327 327.427 722.505 325.179 722.505C322.932 722.505 321.11 724.327 321.11 726.574Z" fill="#43B6FA"/>
<path d="M280.971 726.574C280.971 728.822 282.793 730.644 285.041 730.644C287.288 730.644 289.11 728.822 289.11 726.574C289.11 724.327 287.288 722.505 285.041 722.505C282.793 722.505 280.971 724.327 280.971 726.574Z" fill="#43B6FA"/>
<path d="M240.832 726.574C240.832 728.822 242.654 730.644 244.902 730.644C247.149 730.644 248.971 728.822 248.971 726.574C248.971 724.327 247.149 722.505 244.902 722.505C242.654 722.505 240.832 724.327 240.832 726.574Z" fill="#43B6FA"/>
<path d="M200.693 726.574C200.693 728.822 202.515 730.644 204.763 730.644C207.01 730.644 208.832 728.822 208.832 726.574C208.832 724.327 207.01 722.505 204.763 722.505C202.515 722.505 200.693 724.327 200.693 726.574Z" fill="#43B6FA"/>
<path d="M160.554 726.574C160.554 728.822 162.376 730.644 164.624 730.644C166.871 730.644 168.693 728.822 168.693 726.574C168.693 724.327 166.871 722.505 164.624 722.505C162.376 722.505 160.554 724.327 160.554 726.574Z" fill="#43B6FA"/>
<path d="M120.415 726.574C120.415 728.822 122.237 730.644 124.485 730.644C126.732 730.644 128.554 728.822 128.554 726.574C128.554 724.327 126.732 722.505 124.485 722.505C122.237 722.505 120.415 724.327 120.415 726.574Z" fill="#43B6FA"/>
<path d="M80.2765 726.574C80.2765 728.822 82.0985 730.644 84.346 730.644C86.5935 730.644 88.4154 728.822 88.4154 726.574C88.4154 724.327 86.5935 722.505 84.346 722.505C82.0985 722.505 80.2765 724.327 80.2765 726.574Z" fill="#43B6FA"/>
<path d="M40.1376 726.574C40.1376 728.822 41.9596 730.644 44.207 730.644C46.4545 730.644 48.2765 728.822 48.2765 726.574C48.2765 724.327 46.4545 722.505 44.207 722.505C41.9596 722.505 40.1376 724.327 40.1376 726.574Z" fill="#43B6FA"/>
<path d="M-0.00131571 726.574C-0.00131552 728.822 1.82064 730.644 4.06813 730.644C6.31562 730.644 8.13757 728.822 8.13757 726.574C8.13757 724.327 6.31562 722.505 4.06813 722.505C1.82064 722.505 -0.00131591 724.327 -0.00131571 726.574Z" fill="#43B6FA"/>
<path d="M361.249 766.713C361.249 768.961 363.071 770.783 365.318 770.783C367.566 770.783 369.388 768.961 369.388 766.713C369.388 764.466 367.566 762.644 365.318 762.644C363.071 762.644 361.249 764.466 361.249 766.713Z" fill="#43B6FA"/>
<path d="M321.11 766.713C321.11 768.961 322.932 770.783 325.179 770.783C327.427 770.783 329.249 768.961 329.249 766.713C329.249 764.466 327.427 762.644 325.179 762.644C322.932 762.644 321.11 764.466 321.11 766.713Z" fill="#43B6FA"/>
<path d="M280.971 766.713C280.971 768.961 282.793 770.783 285.041 770.783C287.288 770.783 289.11 768.961 289.11 766.713C289.11 764.466 287.288 762.644 285.041 762.644C282.793 762.644 280.971 764.466 280.971 766.713Z" fill="#43B6FA"/>
<path d="M240.832 766.713C240.832 768.961 242.654 770.783 244.902 770.783C247.149 770.783 248.971 768.961 248.971 766.713C248.971 764.466 247.149 762.644 244.902 762.644C242.654 762.644 240.832 764.466 240.832 766.713Z" fill="#43B6FA"/>
<path d="M200.693 766.713C200.693 768.961 202.515 770.783 204.763 770.783C207.01 770.783 208.832 768.961 208.832 766.713C208.832 764.466 207.01 762.644 204.763 762.644C202.515 762.644 200.693 764.466 200.693 766.713Z" fill="#43B6FA"/>
<path d="M160.554 766.713C160.554 768.961 162.376 770.783 164.624 770.783C166.871 770.783 168.693 768.961 168.693 766.713C168.693 764.466 166.871 762.644 164.624 762.644C162.376 762.644 160.554 764.466 160.554 766.713Z" fill="#43B6FA"/>
<path d="M120.415 766.713C120.415 768.961 122.237 770.783 124.485 770.783C126.732 770.783 128.554 768.961 128.554 766.713C128.554 764.466 126.732 762.644 124.485 762.644C122.237 762.644 120.415 764.466 120.415 766.713Z" fill="#43B6FA"/>
<path d="M80.2765 766.713C80.2765 768.961 82.0985 770.783 84.346 770.783C86.5935 770.783 88.4154 768.961 88.4154 766.713C88.4154 764.466 86.5935 762.644 84.346 762.644C82.0985 762.644 80.2765 764.466 80.2765 766.713Z" fill="#43B6FA"/>
<path d="M40.1376 766.713C40.1376 768.961 41.9596 770.783 44.207 770.783C46.4545 770.783 48.2765 768.961 48.2765 766.713C48.2765 764.466 46.4545 762.644 44.207 762.644C41.9596 762.644 40.1376 764.466 40.1376 766.713Z" fill="#43B6FA"/>
<path d="M-0.00131571 766.713C-0.00131552 768.961 1.82064 770.783 4.06813 770.783C6.31562 770.783 8.13757 768.961 8.13757 766.713C8.13757 764.466 6.31562 762.644 4.06813 762.644C1.82064 762.644 -0.00131591 764.466 -0.00131571 766.713Z" fill="#43B6FA"/>
<path d="M361.249 806.852C361.249 809.1 363.071 810.922 365.318 810.922C367.566 810.922 369.388 809.1 369.388 806.852C369.388 804.605 367.566 802.783 365.318 802.783C363.071 802.783 361.249 804.605 361.249 806.852Z" fill="#43B6FA"/>
<path d="M321.11 806.852C321.11 809.1 322.932 810.922 325.179 810.922C327.427 810.922 329.249 809.1 329.249 806.852C329.249 804.605 327.427 802.783 325.179 802.783C322.932 802.783 321.11 804.605 321.11 806.852Z" fill="#43B6FA"/>
<path d="M280.971 806.852C280.971 809.1 282.793 810.922 285.041 810.922C287.288 810.922 289.11 809.1 289.11 806.852C289.11 804.605 287.288 802.783 285.041 802.783C282.793 802.783 280.971 804.605 280.971 806.852Z" fill="#43B6FA"/>
<path d="M240.832 806.852C240.832 809.1 242.654 810.922 244.902 810.922C247.149 810.922 248.971 809.1 248.971 806.852C248.971 804.605 247.149 802.783 244.902 802.783C242.654 802.783 240.832 804.605 240.832 806.852Z" fill="#43B6FA"/>
<path d="M200.693 806.852C200.693 809.1 202.515 810.922 204.763 810.922C207.01 810.922 208.832 809.1 208.832 806.852C208.832 804.605 207.01 802.783 204.763 802.783C202.515 802.783 200.693 804.605 200.693 806.852Z" fill="#43B6FA"/>
<path d="M160.554 806.852C160.554 809.1 162.376 810.922 164.624 810.922C166.871 810.922 168.693 809.1 168.693 806.852C168.693 804.605 166.871 802.783 164.624 802.783C162.376 802.783 160.554 804.605 160.554 806.852Z" fill="#43B6FA"/>
<path d="M120.415 806.852C120.415 809.1 122.237 810.922 124.485 810.922C126.732 810.922 128.554 809.1 128.554 806.852C128.554 804.605 126.732 802.783 124.485 802.783C122.237 802.783 120.415 804.605 120.415 806.852Z" fill="#43B6FA"/>
<path d="M80.2765 806.852C80.2765 809.1 82.0985 810.922 84.346 810.922C86.5935 810.922 88.4154 809.1 88.4154 806.852C88.4154 804.605 86.5935 802.783 84.346 802.783C82.0985 802.783 80.2765 804.605 80.2765 806.852Z" fill="#43B6FA"/>
<path d="M40.1376 806.852C40.1376 809.1 41.9596 810.922 44.207 810.922C46.4545 810.922 48.2765 809.1 48.2765 806.852C48.2765 804.605 46.4545 802.783 44.207 802.783C41.9596 802.783 40.1376 804.605 40.1376 806.852Z" fill="#43B6FA"/>
<path d="M-0.00131571 806.852C-0.00131552 809.1 1.82064 810.922 4.06813 810.922C6.31562 810.922 8.13757 809.1 8.13757 806.852C8.13757 804.605 6.31562 802.783 4.06813 802.783C1.82064 802.783 -0.00131591 804.605 -0.00131571 806.852Z" fill="#43B6FA"/>
<path d="M361.249 846.992C361.249 849.239 363.071 851.061 365.318 851.061C367.566 851.061 369.388 849.239 369.388 846.992C369.388 844.744 367.566 842.922 365.318 842.922C363.071 842.922 361.249 844.744 361.249 846.992Z" fill="#43B6FA"/>
<path d="M321.11 846.992C321.11 849.239 322.932 851.061 325.179 851.061C327.427 851.061 329.249 849.239 329.249 846.992C329.249 844.744 327.427 842.922 325.179 842.922C322.932 842.922 321.11 844.744 321.11 846.992Z" fill="#43B6FA"/>
<path d="M280.971 846.992C280.971 849.239 282.793 851.061 285.041 851.061C287.288 851.061 289.11 849.239 289.11 846.992C289.11 844.744 287.288 842.922 285.041 842.922C282.793 842.922 280.971 844.744 280.971 846.992Z" fill="#43B6FA"/>
<path d="M240.832 846.992C240.832 849.239 242.654 851.061 244.902 851.061C247.149 851.061 248.971 849.239 248.971 846.992C248.971 844.744 247.149 842.922 244.902 842.922C242.654 842.922 240.832 844.744 240.832 846.992Z" fill="#43B6FA"/>
<path d="M200.693 846.992C200.693 849.239 202.515 851.061 204.763 851.061C207.01 851.061 208.832 849.239 208.832 846.992C208.832 844.744 207.01 842.922 204.763 842.922C202.515 842.922 200.693 844.744 200.693 846.992Z" fill="#43B6FA"/>
<path d="M160.554 846.992C160.554 849.239 162.376 851.061 164.624 851.061C166.871 851.061 168.693 849.239 168.693 846.992C168.693 844.744 166.871 842.922 164.624 842.922C162.376 842.922 160.554 844.744 160.554 846.992Z" fill="#43B6FA"/>
<path d="M120.415 846.992C120.415 849.239 122.237 851.061 124.485 851.061C126.732 851.061 128.554 849.239 128.554 846.992C128.554 844.744 126.732 842.922 124.485 842.922C122.237 842.922 120.415 844.744 120.415 846.992Z" fill="#43B6FA"/>
<path d="M80.2765 846.992C80.2765 849.239 82.0985 851.061 84.346 851.061C86.5935 851.061 88.4154 849.239 88.4154 846.992C88.4154 844.744 86.5935 842.922 84.346 842.922C82.0985 842.922 80.2765 844.744 80.2765 846.992Z" fill="#43B6FA"/>
<path d="M40.1376 846.992C40.1376 849.239 41.9596 851.061 44.207 851.061C46.4545 851.061 48.2765 849.239 48.2765 846.992C48.2765 844.744 46.4545 842.922 44.207 842.922C41.9596 842.922 40.1376 844.744 40.1376 846.992Z" fill="#43B6FA"/>
<path d="M-0.00131571 846.992C-0.00131552 849.239 1.82064 851.061 4.06813 851.061C6.31562 851.061 8.13757 849.239 8.13757 846.992C8.13757 844.744 6.31562 842.922 4.06813 842.922C1.82064 842.922 -0.00131591 844.744 -0.00131571 846.992Z" fill="#43B6FA"/>
<path d="M361.249 887.131C361.249 889.378 363.071 891.2 365.318 891.2C367.566 891.2 369.388 889.378 369.388 887.131C369.388 884.883 367.566 883.061 365.318 883.061C363.071 883.061 361.249 884.883 361.249 887.131Z" fill="#43B6FA"/>
<path d="M321.11 887.131C321.11 889.378 322.932 891.2 325.179 891.2C327.427 891.2 329.249 889.378 329.249 887.131C329.249 884.883 327.427 883.061 325.179 883.061C322.932 883.061 321.11 884.883 321.11 887.131Z" fill="#43B6FA"/>
<path d="M280.971 887.131C280.971 889.378 282.793 891.2 285.041 891.2C287.288 891.2 289.11 889.378 289.11 887.131C289.11 884.883 287.288 883.061 285.041 883.061C282.793 883.061 280.971 884.883 280.971 887.131Z" fill="#43B6FA"/>
<path d="M240.832 887.131C240.832 889.378 242.654 891.2 244.902 891.2C247.149 891.2 248.971 889.378 248.971 887.131C248.971 884.883 247.149 883.061 244.902 883.061C242.654 883.061 240.832 884.883 240.832 887.131Z" fill="#43B6FA"/>
<path d="M200.693 887.131C200.693 889.378 202.515 891.2 204.763 891.2C207.01 891.2 208.832 889.378 208.832 887.131C208.832 884.883 207.01 883.061 204.763 883.061C202.515 883.061 200.693 884.883 200.693 887.131Z" fill="#43B6FA"/>
<path d="M160.554 887.131C160.554 889.378 162.376 891.2 164.624 891.2C166.871 891.2 168.693 889.378 168.693 887.131C168.693 884.883 166.871 883.061 164.624 883.061C162.376 883.061 160.554 884.883 160.554 887.131Z" fill="#43B6FA"/>
<path d="M120.415 887.131C120.415 889.378 122.237 891.2 124.485 891.2C126.732 891.2 128.554 889.378 128.554 887.131C128.554 884.883 126.732 883.061 124.485 883.061C122.237 883.061 120.415 884.883 120.415 887.131Z" fill="#43B6FA"/>
<path d="M80.2765 887.131C80.2765 889.378 82.0985 891.2 84.346 891.2C86.5935 891.2 88.4154 889.378 88.4154 887.131C88.4154 884.883 86.5935 883.061 84.346 883.061C82.0985 883.061 80.2765 884.883 80.2765 887.131Z" fill="#43B6FA"/>
<path d="M40.1376 887.131C40.1376 889.378 41.9596 891.2 44.207 891.2C46.4545 891.2 48.2765 889.378 48.2765 887.131C48.2765 884.883 46.4545 883.061 44.207 883.061C41.9596 883.061 40.1376 884.883 40.1376 887.131Z" fill="#43B6FA"/>
<path d="M-0.00131571 887.131C-0.00131552 889.378 1.82064 891.2 4.06813 891.2C6.31562 891.2 8.13757 889.378 8.13757 887.131C8.13757 884.883 6.31562 883.061 4.06813 883.061C1.82064 883.061 -0.00131591 884.883 -0.00131571 887.131Z" fill="#43B6FA"/>
<path d="M361.249 927.27C361.249 929.517 363.071 931.339 365.318 931.339C367.566 931.339 369.388 929.517 369.388 927.27C369.388 925.022 367.566 923.2 365.318 923.2C363.071 923.2 361.249 925.022 361.249 927.27Z" fill="#43B6FA"/>
<path d="M321.11 927.27C321.11 929.517 322.932 931.339 325.179 931.339C327.427 931.339 329.249 929.517 329.249 927.27C329.249 925.022 327.427 923.2 325.179 923.2C322.932 923.2 321.11 925.022 321.11 927.27Z" fill="#43B6FA"/>
<path d="M280.971 927.27C280.971 929.517 282.793 931.339 285.041 931.339C287.288 931.339 289.11 929.517 289.11 927.27C289.11 925.022 287.288 923.2 285.041 923.2C282.793 923.2 280.971 925.022 280.971 927.27Z" fill="#43B6FA"/>
<path d="M240.832 927.27C240.832 929.517 242.654 931.339 244.902 931.339C247.149 931.339 248.971 929.517 248.971 927.27C248.971 925.022 247.149 923.2 244.902 923.2C242.654 923.2 240.832 925.022 240.832 927.27Z" fill="#43B6FA"/>
<path d="M200.693 927.27C200.693 929.517 202.515 931.339 204.763 931.339C207.01 931.339 208.832 929.517 208.832 927.27C208.832 925.022 207.01 923.2 204.763 923.2C202.515 923.2 200.693 925.022 200.693 927.27Z" fill="#43B6FA"/>
<path d="M160.554 927.27C160.554 929.517 162.376 931.339 164.624 931.339C166.871 931.339 168.693 929.517 168.693 927.27C168.693 925.022 166.871 923.2 164.624 923.2C162.376 923.2 160.554 925.022 160.554 927.27Z" fill="#43B6FA"/>
<path d="M120.415 927.27C120.415 929.517 122.237 931.339 124.485 931.339C126.732 931.339 128.554 929.517 128.554 927.27C128.554 925.022 126.732 923.2 124.485 923.2C122.237 923.2 120.415 925.022 120.415 927.27Z" fill="#43B6FA"/>
<path d="M80.2765 927.27C80.2765 929.517 82.0985 931.339 84.346 931.339C86.5935 931.339 88.4154 929.517 88.4154 927.27C88.4154 925.022 86.5935 923.2 84.346 923.2C82.0985 923.2 80.2765 925.022 80.2765 927.27Z" fill="#43B6FA"/>
<path d="M40.1376 927.27C40.1376 929.517 41.9596 931.339 44.207 931.339C46.4545 931.339 48.2765 929.517 48.2765 927.27C48.2765 925.022 46.4545 923.2 44.207 923.2C41.9596 923.2 40.1376 925.022 40.1376 927.27Z" fill="#43B6FA"/>
<path d="M-0.00131571 927.27C-0.00131552 929.517 1.82064 931.339 4.06813 931.339C6.31562 931.339 8.13757 929.517 8.13757 927.27C8.13757 925.022 6.31562 923.2 4.06813 923.2C1.82064 923.2 -0.00131591 925.022 -0.00131571 927.27Z" fill="#43B6FA"/>
<path d="M361.249 967.409C361.249 969.657 363.071 971.478 365.318 971.478C367.566 971.478 369.388 969.657 369.388 967.409C369.388 965.162 367.566 963.34 365.318 963.34C363.071 963.34 361.249 965.162 361.249 967.409Z" fill="#43B6FA"/>
<path d="M321.11 967.409C321.11 969.657 322.932 971.478 325.179 971.478C327.427 971.478 329.249 969.657 329.249 967.409C329.249 965.162 327.427 963.34 325.179 963.34C322.932 963.34 321.11 965.162 321.11 967.409Z" fill="#43B6FA"/>
<path d="M280.971 967.409C280.971 969.657 282.793 971.478 285.041 971.478C287.288 971.478 289.11 969.657 289.11 967.409C289.11 965.162 287.288 963.34 285.041 963.34C282.793 963.34 280.971 965.162 280.971 967.409Z" fill="#43B6FA"/>
<path d="M240.832 967.409C240.832 969.657 242.654 971.478 244.902 971.478C247.149 971.478 248.971 969.657 248.971 967.409C248.971 965.162 247.149 963.34 244.902 963.34C242.654 963.34 240.832 965.162 240.832 967.409Z" fill="#43B6FA"/>
<path d="M200.693 967.409C200.693 969.657 202.515 971.478 204.763 971.478C207.01 971.478 208.832 969.657 208.832 967.409C208.832 965.162 207.01 963.34 204.763 963.34C202.515 963.34 200.693 965.162 200.693 967.409Z" fill="#43B6FA"/>
<path d="M160.554 967.409C160.554 969.657 162.376 971.478 164.624 971.478C166.871 971.478 168.693 969.657 168.693 967.409C168.693 965.162 166.871 963.34 164.624 963.34C162.376 963.34 160.554 965.162 160.554 967.409Z" fill="#43B6FA"/>
<path d="M120.415 967.409C120.415 969.657 122.237 971.478 124.485 971.478C126.732 971.478 128.554 969.657 128.554 967.409C128.554 965.162 126.732 963.34 124.485 963.34C122.237 963.34 120.415 965.162 120.415 967.409Z" fill="#43B6FA"/>
<path d="M80.2765 967.409C80.2765 969.657 82.0985 971.478 84.346 971.478C86.5935 971.478 88.4154 969.657 88.4154 967.409C88.4154 965.162 86.5935 963.34 84.346 963.34C82.0985 963.34 80.2765 965.162 80.2765 967.409Z" fill="#43B6FA"/>
<path d="M40.1376 967.409C40.1376 969.657 41.9596 971.478 44.207 971.478C46.4545 971.478 48.2765 969.657 48.2765 967.409C48.2765 965.162 46.4545 963.34 44.207 963.34C41.9596 963.34 40.1376 965.162 40.1376 967.409Z" fill="#43B6FA"/>
<path d="M-0.00131571 967.409C-0.00131552 969.657 1.82064 971.478 4.06813 971.478C6.31562 971.478 8.13757 969.657 8.13757 967.409C8.13757 965.162 6.31562 963.34 4.06813 963.34C1.82064 963.34 -0.00131591 965.162 -0.00131571 967.409Z" fill="#43B6FA"/>
<path d="M361.249 1007.55C361.249 1009.8 363.071 1011.62 365.318 1011.62C367.566 1011.62 369.388 1009.8 369.388 1007.55C369.388 1005.3 367.566 1003.48 365.318 1003.48C363.071 1003.48 361.249 1005.3 361.249 1007.55Z" fill="#43B6FA"/>
<path d="M321.11 1007.55C321.11 1009.8 322.932 1011.62 325.179 1011.62C327.427 1011.62 329.249 1009.8 329.249 1007.55C329.249 1005.3 327.427 1003.48 325.179 1003.48C322.932 1003.48 321.11 1005.3 321.11 1007.55Z" fill="#43B6FA"/>
<path d="M280.971 1007.55C280.971 1009.8 282.793 1011.62 285.041 1011.62C287.288 1011.62 289.11 1009.8 289.11 1007.55C289.11 1005.3 287.288 1003.48 285.041 1003.48C282.793 1003.48 280.971 1005.3 280.971 1007.55Z" fill="#43B6FA"/>
<path d="M240.832 1007.55C240.832 1009.8 242.654 1011.62 244.902 1011.62C247.149 1011.62 248.971 1009.8 248.971 1007.55C248.971 1005.3 247.149 1003.48 244.902 1003.48C242.654 1003.48 240.832 1005.3 240.832 1007.55Z" fill="#43B6FA"/>
<path d="M200.693 1007.55C200.693 1009.8 202.515 1011.62 204.763 1011.62C207.01 1011.62 208.832 1009.8 208.832 1007.55C208.832 1005.3 207.01 1003.48 204.763 1003.48C202.515 1003.48 200.693 1005.3 200.693 1007.55Z" fill="#43B6FA"/>
<path d="M160.554 1007.55C160.554 1009.8 162.376 1011.62 164.624 1011.62C166.871 1011.62 168.693 1009.8 168.693 1007.55C168.693 1005.3 166.871 1003.48 164.624 1003.48C162.376 1003.48 160.554 1005.3 160.554 1007.55Z" fill="#43B6FA"/>
<path d="M120.415 1007.55C120.415 1009.8 122.237 1011.62 124.485 1011.62C126.732 1011.62 128.554 1009.8 128.554 1007.55C128.554 1005.3 126.732 1003.48 124.485 1003.48C122.237 1003.48 120.415 1005.3 120.415 1007.55Z" fill="#43B6FA"/>
<path d="M80.2765 1007.55C80.2765 1009.8 82.0985 1011.62 84.346 1011.62C86.5935 1011.62 88.4154 1009.8 88.4154 1007.55C88.4154 1005.3 86.5935 1003.48 84.346 1003.48C82.0985 1003.48 80.2765 1005.3 80.2765 1007.55Z" fill="#43B6FA"/>
<path d="M40.1376 1007.55C40.1376 1009.8 41.9596 1011.62 44.207 1011.62C46.4545 1011.62 48.2765 1009.8 48.2765 1007.55C48.2765 1005.3 46.4545 1003.48 44.207 1003.48C41.9596 1003.48 40.1376 1005.3 40.1376 1007.55Z" fill="#43B6FA"/>
<path d="M-0.00131571 1007.55C-0.00131552 1009.8 1.82064 1011.62 4.06813 1011.62C6.31562 1011.62 8.13757 1009.8 8.13757 1007.55C8.13757 1005.3 6.31562 1003.48 4.06813 1003.48C1.82064 1003.48 -0.00131591 1005.3 -0.00131571 1007.55Z" fill="#43B6FA"/>
</g>
<rect x="375" y="1171" width="375" height="1171" transform="rotate(-180 375 1171)" fill="url(#paint0_radial_3037_40423)"/>
<defs>
<radialGradient id="paint0_radial_3037_40423" cx="0" cy="0" r="1" gradientUnits="userSpaceOnUse" gradientTransform="translate(562.5 1756.5) rotate(90) scale(631.691 202.292)">
<stop stop-color="#FAFAFA" stop-opacity="0"/>
<stop offset="1" stop-color="white"/>
</radialGradient>
<clipPath id="clip0_3037_40423">
<rect width="375" height="1171" fill="white"/>
</clipPath>
</defs>
</svg>
