<svg width="74" height="74" viewBox="0 0 74 74" fill="none" xmlns="http://www.w3.org/2000/svg">
<rect x="6.10352e-05" width="74" height="74" rx="15" fill="white" fill-opacity="0.2"/>
<path d="M36.9972 22.9971C38.8032 22.9971 40.5342 23.3166 42.1377 23.9001L40.3452 25.6911C37.6325 24.9534 34.752 25.1328 32.1518 26.2013C29.5515 27.2698 27.3772 29.1675 25.9669 31.5994C24.5565 34.0313 23.9893 36.861 24.3533 39.6485C24.7173 42.4361 25.9922 45.0253 27.9797 47.0135C29.9672 49.0016 32.5559 50.2774 35.3434 50.6423C38.1308 51.0073 40.9607 50.4409 43.3931 49.0314C45.8254 47.6219 47.7239 45.4482 48.7932 42.8483C49.8626 40.2484 50.0429 37.368 49.3062 34.6551L51.0972 32.8641C51.6962 34.5101 52.0019 36.2484 52.0002 38.0001C52.0002 46.2861 45.2832 53.0031 36.9972 53.0031C28.7112 53.0031 21.9942 46.2861 21.9942 38.0001C21.9942 29.7141 28.7112 22.9971 36.9972 22.9971ZM36.9972 29.0001C37.7572 28.9997 38.5142 29.0955 39.2502 29.2851V31.6356C37.8068 31.1249 36.2327 31.1201 34.7863 31.622C33.3398 32.1239 32.1069 33.1026 31.29 34.3975C30.4731 35.6924 30.1207 37.2265 30.2906 38.7481C30.4605 40.2697 31.1426 41.6884 32.225 42.7712C33.3075 43.854 34.7258 44.5366 36.2474 44.7071C37.7689 44.8776 39.3032 44.5257 40.5984 43.7092C41.8936 42.8928 42.8727 41.6603 43.3751 40.214C43.8775 38.7677 43.8733 37.1936 43.3632 35.7501H45.7137C46.183 37.5675 46.0722 39.4861 45.397 41.2375C44.7219 42.9889 43.516 44.4853 41.9482 45.5174C40.3804 46.5495 38.5291 47.0656 36.6535 46.9934C34.7779 46.9213 32.9717 46.2645 31.4879 45.115C30.004 43.9655 28.9166 42.3808 28.378 40.5827C27.8394 38.7847 27.8764 36.8632 28.4839 35.0872C29.0914 33.3112 30.239 31.7696 31.766 30.6781C33.2931 29.5866 35.1232 28.9999 37.0002 29.0001H36.9972ZM39.9972 38.0001C39.997 38.6449 39.789 39.2724 39.4042 39.7898C39.0193 40.3071 38.478 40.6867 37.8605 40.8722C37.243 41.0578 36.5821 41.0394 35.9758 40.8199C35.3696 40.6004 34.8502 40.1914 34.4946 39.6535C34.139 39.1156 33.9662 38.4774 34.0018 37.8336C34.0373 37.1898 34.2794 36.5746 34.692 36.0792C35.1047 35.5837 35.666 35.2344 36.2928 35.083C36.9195 34.9316 37.5784 34.9861 38.1717 35.2386L40.7517 32.6586L40.7502 27.8751C40.7505 27.5768 40.8692 27.2908 41.0802 27.0801L44.8302 23.3301C44.9875 23.1729 45.1879 23.0659 45.406 23.0226C45.6241 22.9793 45.8501 23.0016 46.0556 23.0866C46.261 23.1717 46.4367 23.3157 46.5603 23.5006C46.6839 23.6854 46.75 23.9027 46.7502 24.1251V28.2501H50.8752C51.0976 28.2503 51.3149 28.3164 51.4997 28.44C51.6845 28.5636 51.8286 28.7392 51.9136 28.9447C51.9987 29.1501 52.021 29.3762 51.9776 29.5943C51.9343 29.8124 51.8273 30.0127 51.6702 30.1701L47.9202 33.9201C47.7094 34.1311 47.4235 34.2498 47.1252 34.2501H42.3402L39.7602 36.8301C39.9132 37.1901 39.9972 37.5846 39.9972 38.0001ZM46.6587 32.0001L48.1587 30.5001H45.6237C45.3253 30.5001 45.0392 30.3815 44.8282 30.1706C44.6172 29.9596 44.4987 29.6734 44.4987 29.3751V26.8401L43.0002 28.3401V31.9116C43.0315 31.9398 43.061 31.9698 43.0887 32.0016H46.6587V32.0001Z" fill="#523EF1"/>
</svg>
