<svg width="74" height="74" viewBox="0 0 74 74" fill="none" xmlns="http://www.w3.org/2000/svg">
<rect x="6.10352e-05" width="74" height="74" rx="15" fill="white" fill-opacity="0.2"/>
<path d="M44.5001 51.5V48.5C44.5001 46.9087 43.8679 45.3826 42.7427 44.2574C41.6175 43.1321 40.0914 42.5 38.5001 42.5H26.5001C24.9088 42.5 23.3826 43.1321 22.2574 44.2574C21.1322 45.3826 20.5001 46.9087 20.5001 48.5V51.5" stroke="#43B6FA" stroke-width="2" stroke-linecap="round" stroke-linejoin="round"/>
<path d="M32.5001 36.5C35.8138 36.5 38.5001 33.8137 38.5001 30.5C38.5001 27.1863 35.8138 24.5 32.5001 24.5C29.1864 24.5 26.5001 27.1863 26.5001 30.5C26.5001 33.8137 29.1864 36.5 32.5001 36.5Z" stroke="#43B6FA" stroke-width="2" stroke-linecap="round" stroke-linejoin="round"/>
<path d="M53.5001 51.4998V48.4998C53.4991 47.1704 53.0566 45.879 52.2421 44.8283C51.4276 43.7776 50.2873 43.0272 49.0001 42.6948" stroke="#43B6FA" stroke-width="2" stroke-linecap="round" stroke-linejoin="round"/>
<path d="M43.0001 24.6948C44.2907 25.0253 45.4346 25.7759 46.2515 26.8283C47.0684 27.8807 47.5118 29.1751 47.5118 30.5073C47.5118 31.8396 47.0684 33.1339 46.2515 34.1864C45.4346 35.2388 44.2907 35.9894 43.0001 36.3198" stroke="#43B6FA" stroke-width="2" stroke-linecap="round" stroke-linejoin="round"/>
</svg>
